<?xml version="1.0" encoding="UTF-8" standalone="no"?>
<!-- Created with Inkscape (http://www.inkscape.org/) -->

<svg
   xmlns:dc="http://purl.org/dc/elements/1.1/"
   xmlns:cc="http://creativecommons.org/ns#"
   xmlns:rdf="http://www.w3.org/1999/02/22-rdf-syntax-ns#"
   xmlns:svg="http://www.w3.org/2000/svg"
   xmlns="http://www.w3.org/2000/svg"
   xmlns:sodipodi="http://sodipodi.sourceforge.net/DTD/sodipodi-0.dtd"
   xmlns:inkscape="http://www.inkscape.org/namespaces/inkscape"
   id="svg3300"
   version="1.1"
   inkscape:version="0.48.4 r9939"
   width="1024"
   height="1024"
   sodipodi:docname="office-runner-tex-c.svg"
   inkscape:export-filename="/home/jimmac/SparkleShare/gnome-icons/sketch/office-runner-tex-c.png"
   inkscape:export-xdpi="90"
   inkscape:export-ydpi="90">
  <metadata
     id="metadata3306">
    <rdf:RDF>
      <cc:Work
         rdf:about="">
        <dc:format>image/svg+xml</dc:format>
        <dc:type
           rdf:resource="http://purl.org/dc/dcmitype/StillImage" />
        <dc:title></dc:title>
      </cc:Work>
    </rdf:RDF>
  </metadata>
  <defs
     id="defs3304" />
  <sodipodi:namedview
     pagecolor="#ffffff"
     bordercolor="#666666"
     borderopacity="1"
     objecttolerance="10"
     gridtolerance="10"
     guidetolerance="10"
     inkscape:pageopacity="0"
     inkscape:pageshadow="2"
     inkscape:window-width="2560"
     inkscape:window-height="1381"
     id="namedview3302"
     showgrid="false"
     inkscape:zoom="1.1699219"
     inkscape:cx="531.65943"
     inkscape:cy="568.41402"
     inkscape:window-x="2560"
     inkscape:window-y="27"
     inkscape:window-maximized="1"
     inkscape:current-layer="svg3300" />
  <rect
     style="fill:#ffffff;fill-opacity:1;stroke:none"
     id="rect45910"
     width="1057.3356"
     height="1049.6427"
     x="-10.257095"
     y="-5.1285477" />
  <path
     style="fill:#49850e;fill-opacity:1;fill-rule:evenodd;stroke:none;stroke-width:12;marker:none;visibility:visible;display:inline;overflow:visible;enable-background:new"
     d="m 529.48381,342.89978 -32.18454,-93.92999 c -8.56735,1.75542 -16.79178,-1.79426 -19.14257,-8.65499 -0.32354,-0.94427 -0.52123,-1.90704 -0.60016,-2.87568 l 14.13258,-4.84245 -6.61407,-19.30304 -12.0522,-8.19571 67.56065,-23.14925 12.0522,8.19571 12.4091,-4.25189 -12.0522,-8.19571 13.78789,-4.72434 12.0522,8.19571 21.73195,63.42429 -17.92426,6.14163 c -1.20948,0.41288 -2.17806,1.3338 -2.65078,2.52116 l -6.12954,15.41256 -15.90252,-15.63896 8.03213,-64.37877 c 0,0 -12.4091,4.2519 -12.4091,4.2519 l -10.13424,55.85506 c 0,0 -10.49308,-21.56078 -10.49308,-21.56078 -1.21546,-2.77886 -4.35843,-4.16174 -7.22833,-3.1804 l -44.12124,15.11788 c 2.08626,6.08873 9.95644,8.91381 17.56736,6.30598 l 25.27061,-8.65883 11.93039,27.23096 c 0.29685,0.6775 0.71994,1.2923 1.24664,1.81163 l 16.51974,16.24595 -13.57245,4.65051 -15.29377,-12.59769 c -1.87032,-1.53955 -4.63455,-1.2714 -6.17409,0.59892 -1.53955,1.87032 -1.2714,4.63456 0.59892,6.1741 l 17.17194,14.14479 c 1.17593,0.96403 2.76822,1.24798 4.2049,0.74985 l 34.46972,-11.81084 c 1.20947,-0.41288 2.17805,-1.33379 2.65078,-2.52116 l 9.19799,-23.10806 16.00687,-5.48466 19.84221,57.90913 -93.75763,32.12548 z m 55.94237,-34.57496 c 6.08873,-2.08627 9.33711,-8.72105 7.25084,-14.80978 -2.08626,-6.08873 -8.72105,-9.33711 -14.80978,-7.25084 -6.08873,2.08626 -9.3371,8.72104 -7.25084,14.80977 2.08626,6.08873 8.72105,9.33711 14.80978,7.25085 z"
     id="rect3384"
     inkscape:connector-curvature="0" />
</svg>
