<?xml version="1.0" encoding="UTF-8" standalone="no"?>
<!-- Created with Inkscape (http://www.inkscape.org/) -->

<svg
   xmlns:dc="http://purl.org/dc/elements/1.1/"
   xmlns:cc="http://creativecommons.org/ns#"
   xmlns:rdf="http://www.w3.org/1999/02/22-rdf-syntax-ns#"
   xmlns:svg="http://www.w3.org/2000/svg"
   xmlns="http://www.w3.org/2000/svg"
   xmlns:sodipodi="http://sodipodi.sourceforge.net/DTD/sodipodi-0.dtd"
   xmlns:inkscape="http://www.inkscape.org/namespaces/inkscape"
   id="svg3300"
   version="1.1"
   inkscape:version="0.48.4 r9939"
   width="1024"
   height="1024"
   sodipodi:docname="office-runner-tex-c.svg"
   inkscape:export-filename="/home/jimmac/SparkleShare/gnome-icons/sketch/office-runner-tex-c.png"
   inkscape:export-xdpi="90"
   inkscape:export-ydpi="90">
  <metadata
     id="metadata3306">
    <rdf:RDF>
      <cc:Work
         rdf:about="">
        <dc:format>image/svg+xml</dc:format>
        <dc:type
           rdf:resource="http://purl.org/dc/dcmitype/StillImage" />
        <dc:title></dc:title>
      </cc:Work>
    </rdf:RDF>
  </metadata>
  <defs
     id="defs3304" />
  <sodipodi:namedview
     pagecolor="#ffffff"
     bordercolor="#666666"
     borderopacity="1"
     objecttolerance="10"
     gridtolerance="10"
     guidetolerance="10"
     inkscape:pageopacity="0"
     inkscape:pageshadow="2"
     inkscape:window-width="2560"
     inkscape:window-height="1408"
     id="namedview3302"
     showgrid="false"
     inkscape:zoom="1.1699219"
     inkscape:cx="531.65943"
     inkscape:cy="568.41402"
     inkscape:window-x="0"
     inkscape:window-y="0"
     inkscape:window-maximized="1"
     inkscape:current-layer="svg3300" />
  <rect
     style="fill:#ffffff;fill-opacity:1;stroke:none"
     id="rect45910"
     width="1057.3356"
     height="1049.6427"
     x="-10.257095"
     y="-5.1285477" />
  <path
     style="fill:#49850e;fill-opacity:1;fill-rule:evenodd;stroke:none;stroke-width:12;marker:none;visibility:visible;display:inline;overflow:visible;enable-background:new"
     d="m 508.75126,332.33355 -5.73511,-99.29057 c -8.67081,-1.13954 -15.28447,-7.18112 -15.26511,-14.4334 0.003,-0.99815 0.13018,-1.97272 0.37214,-2.91397 l 14.93913,0.0399 -2.50987,-20.40467 -8.71373,-11.68314 73.9806,0.19053 8.71376,11.68311 13.11726,0.035 -8.71375,-11.6831 14.57476,0.0389 8.71376,11.68314 -0.17885,67.04391 -18.94719,-0.0505 c -1.27799,-0.005 -2.49428,0.54914 -3.32894,1.51693 l -10.82802,12.5647 -9.92138,-19.97582 28.62185,-58.22311 -13.11729,-0.035 -27.82424,49.48032 -2.87425,-23.8057 c -0.241,-3.02345 -2.75982,-5.35715 -5.79284,-5.36717 l -46.63925,-0.1244 c -0.0172,6.43622 6.49839,11.67723 14.54366,11.6987 l 26.71281,0.0712 2.38044,29.63432 c 0.0592,0.73731 0.25831,1.45658 0.58645,2.1195 l 10.30645,20.75111 -14.347,-0.0383 -10.33951,-16.90255 c -1.26482,-2.06606 -3.96498,-2.71559 -6.03102,-1.45079 -2.06608,1.26479 -2.71561,3.96498 -1.45082,6.03105 l 11.60926,18.97827 c 0.7965,1.29528 2.20868,2.0838 3.72926,2.08233 l 36.43691,0.0972 c 1.278,0.005 2.49426,-0.5491 3.32894,-1.51691 l 16.24199,-18.83567 16.92041,0.0451 -0.1633,61.21402 c -29.94456,-1.1797 -60.8853,-1.36323 -93.10839,-0.26441 z m 58.16783,-14.40368 c 6.43623,0.0172 11.67376,-5.19248 11.69093,-11.6287 0.0172,-6.43622 -5.19251,-11.67375 -11.62871,-11.69092 -6.43621,-0.0172 -11.67375,5.19249 -11.69092,11.62871 -0.0172,6.43621 5.19249,11.67374 11.6287,11.69091 z"
     id="rect3384"
     inkscape:connector-curvature="0"
     sodipodi:nodetypes="ccccccccccccccccccccccccscccccccccccccccccsssss" />
</svg>
