<?xml version="1.0" encoding="UTF-8" standalone="no"?>
<!-- Created with Inkscape (http://www.inkscape.org/) -->

<svg
   xmlns:dc="http://purl.org/dc/elements/1.1/"
   xmlns:cc="http://creativecommons.org/ns#"
   xmlns:rdf="http://www.w3.org/1999/02/22-rdf-syntax-ns#"
   xmlns:svg="http://www.w3.org/2000/svg"
   xmlns="http://www.w3.org/2000/svg"
   xmlns:sodipodi="http://sodipodi.sourceforge.net/DTD/sodipodi-0.dtd"
   xmlns:inkscape="http://www.inkscape.org/namespaces/inkscape"
   width="300"
   height="200"
   id="svg5082"
   version="1.1"
   inkscape:version="0.92pre3 r"
   viewBox="0 0 300 200"
   sodipodi:docname="source-symbolic.svg">
  <defs
     id="defs5084">
    <clipPath
       clipPathUnits="userSpaceOnUse"
       id="clipPath8044">
      <circle
         r="12"
         cy="259.99585"
         cx="160"
         id="circle8046"
         style="opacity:1;fill:#2095f2;fill-opacity:1;stroke:none;stroke-width:2;stroke-miterlimit:4;stroke-dasharray:none;stroke-opacity:1" />
    </clipPath>
  </defs>
  <sodipodi:namedview
     id="base"
     pagecolor="#535353"
     bordercolor="#000000"
     borderopacity="0.34509804"
     inkscape:pageopacity="0"
     inkscape:pageshadow="2"
     inkscape:zoom="1"
     inkscape:cx="-122.38778"
     inkscape:cy="182.37537"
     inkscape:current-layer="layer1"
     showgrid="false"
     inkscape:grid-bbox="true"
     inkscape:document-units="px"
     inkscape:object-nodes="true"
     inkscape:window-width="1920"
     inkscape:window-height="1016"
     inkscape:window-x="0"
     inkscape:window-y="27"
     inkscape:window-maximized="1"
     inkscape:snap-global="true"
     inkscape:measure-start="0,0"
     inkscape:measure-end="0,0"
     inkscape:snap-bbox="true">
    <inkscape:grid
       type="xygrid"
       id="grid5636"
       empspacing="4" />
  </sodipodi:namedview>
  <metadata
     id="metadata5087">
    <rdf:RDF>
      <cc:Work
         rdf:about="">
        <dc:format>image/svg+xml</dc:format>
        <dc:type
           rdf:resource="http://purl.org/dc/dcmitype/StillImage" />
        <dc:title></dc:title>
      </cc:Work>
    </rdf:RDF>
  </metadata>
  <g
     id="layer1"
     inkscape:label="apps"
     inkscape:groupmode="layer"
     transform="translate(0,184)">
    <text
       xml:space="preserve"
       style="font-style:normal;font-weight:normal;font-size:16px;line-height:125%;font-family:sans-serif;letter-spacing:0px;word-spacing:0px;fill:#000000;fill-opacity:1;stroke:none;stroke-width:1px;stroke-linecap:butt;stroke-linejoin:miter;stroke-opacity:1;"
       x="12"
       y="-208"
       id="text6419"><tspan
         sodipodi:role="line"
         id="tspan6421"
         x="12"
         y="-208"
         style="font-style:normal;font-variant:normal;font-weight:normal;font-stretch:normal;font-size:16px;font-family:Cantarell;-inkscape-font-specification:Cantarell;fill:#ffffff;">recipes</tspan></text>
    <g
       id="g4592"
       inkscape:label="spicy-content">
      <rect
         style="opacity:0.05;fill:none;fill-opacity:1;stroke:none;stroke-width:1;stroke-linecap:square;stroke-linejoin:miter;stroke-miterlimit:4;stroke-dasharray:none;stroke-opacity:1"
         id="rect4551"
         width="16"
         height="16"
         x="28"
         y="-176.00212" />
      <path
         id="path31740"
         d="m 42.193689,-175.91739 -1.675782,1.08984 c 0,0 0.880116,1.53754 0.824219,2.58594 -0.02146,0.4027 -0.451303,1.28669 -0.943359,1.96289 -0.02994,0.0412 -0.05228,0.0619 -0.08203,0.10156 -1.2402,-0.32546 -2.590015,-0.24123 -3.519533,0.15821 -0.98726,4.6511 -4.302447,6.66493 -8.404297,9.51953 5.8542,0.1073 10.819892,0.19266 14.769532,-4.14844 0.677806,-2.23375 0.07441,-3.72496 -1.027344,-4.62695 0.555074,-0.77726 1.142435,-1.7205 1.203125,-2.85938 0.108803,-2.0406 -1.144531,-3.7832 -1.144531,-3.7832 z"
         style="color:#000000;font-style:normal;font-variant:normal;font-weight:normal;font-stretch:normal;font-size:medium;line-height:normal;font-family:sans-serif;font-variant-ligatures:normal;font-variant-position:normal;font-variant-caps:normal;font-variant-numeric:normal;font-variant-alternates:normal;font-feature-settings:normal;text-indent:0;text-align:start;text-decoration:none;text-decoration-line:none;text-decoration-style:solid;text-decoration-color:#000000;letter-spacing:normal;word-spacing:normal;text-transform:none;writing-mode:lr-tb;direction:ltr;text-orientation:mixed;dominant-baseline:auto;baseline-shift:baseline;text-anchor:start;white-space:normal;shape-padding:0;clip-rule:nonzero;display:inline;overflow:visible;visibility:visible;opacity:1;isolation:auto;mix-blend-mode:normal;color-interpolation:sRGB;color-interpolation-filters:linearRGB;solid-color:#000000;solid-opacity:1;vector-effect:none;fill:#bebebe;fill-opacity:1;fill-rule:nonzero;stroke:none;stroke-width:2;stroke-linecap:butt;stroke-linejoin:miter;stroke-miterlimit:4;stroke-dasharray:none;stroke-dashoffset:0;stroke-opacity:1;marker:none;paint-order:normal;color-rendering:auto;image-rendering:auto;shape-rendering:auto;text-rendering:auto;enable-background:accumulate"
         inkscape:connector-curvature="0" />
    </g>
    <g
       id="g4611"
       inkscape:label="garlic-content">
      <rect
         y="-176.00212"
         x="8"
         height="16"
         width="16"
         id="rect6328"
         style="opacity:0.05;fill:none;fill-opacity:1;stroke:none;stroke-width:1;stroke-linecap:square;stroke-linejoin:miter;stroke-miterlimit:4;stroke-dasharray:none;stroke-opacity:1" />
      <g
         transform="translate(-157.50475,1807.5088)"
         id="g31738"
         style="display:inline">
        <path
           style="color:#000000;font-style:normal;font-variant:normal;font-weight:normal;font-stretch:normal;font-size:medium;line-height:normal;font-family:sans-serif;font-variant-ligatures:normal;font-variant-position:normal;font-variant-caps:normal;font-variant-numeric:normal;font-variant-alternates:normal;font-feature-settings:normal;text-indent:0;text-align:start;text-decoration:none;text-decoration-line:none;text-decoration-style:solid;text-decoration-color:#000000;letter-spacing:normal;word-spacing:normal;text-transform:none;writing-mode:lr-tb;direction:ltr;text-orientation:mixed;dominant-baseline:auto;baseline-shift:baseline;text-anchor:start;white-space:normal;shape-padding:0;clip-rule:nonzero;display:inline;overflow:visible;visibility:visible;opacity:1;isolation:auto;mix-blend-mode:normal;color-interpolation:sRGB;color-interpolation-filters:linearRGB;solid-color:#000000;solid-opacity:1;vector-effect:none;fill:#bebebe;fill-opacity:1;fill-rule:nonzero;stroke:none;stroke-width:1;stroke-linecap:butt;stroke-linejoin:miter;stroke-miterlimit:4;stroke-dasharray:none;stroke-dashoffset:0;stroke-opacity:1;marker:none;paint-order:normal;color-rendering:auto;image-rendering:auto;shape-rendering:auto;text-rendering:auto;enable-background:accumulate"
           d="m 16.015625,8.3691406 -0.888672,2.2617184 c -0.88247,2.2455 -2.016475,2.721575 -3.328125,3.484375 -0.65582,0.3813 -1.381074,0.825516 -1.9335936,1.603516 -0.55252,0.7781 -0.8600207,1.828484 -0.8691406,3.208984 -0.012,1.8158 1.2003702,3.18371 2.5937502,3.97461 1.39338,0.7909 3.025546,1.141597 4.441406,1.091797 1.42795,-0.05 3.011126,-0.501707 4.353516,-1.316407 1.34239,-0.8147 2.514065,-2.0741 2.609375,-3.75 0.0703,-1.2368 -0.193342,-2.243106 -0.707032,-3.003906 -0.5137,-0.7609 -1.199762,-1.238275 -1.851562,-1.671875 -1.3036,-0.8673 -2.552194,-1.545791 -3.458985,-3.650391 z m 0.05469,4.7871094 c 0.403827,0.582391 0.831639,0.818092 1.259766,1.259766 0.52915,1.595579 0.912552,3.144069 0.705078,4.302734 -0.15708,0.8773 -0.346761,1.867572 -0.675781,2.576172 -0.103192,0.222178 -0.222629,0.400728 -0.347656,0.55664 -0.36707,0.07631 -0.725309,0.13496 -1.050781,0.146485 -0.24285,0.0085 -0.510142,-0.005 -0.78711,-0.03516 -0.146769,-0.175002 -0.281581,-0.398586 -0.392578,-0.689453 -0.27637,-0.724 -0.408354,-1.725375 -0.558594,-2.609376 -0.200037,-1.177092 0.168974,-2.731206 0.673828,-4.322265 0.400698,-0.417316 0.799968,-0.626647 1.173828,-1.185547 z m -2.564453,2.226562 c -0.28606,1.193094 -0.44752,2.397927 -0.269531,3.445313 0.14431,0.8492 0.265375,1.901534 0.609375,2.802734 0.007,0.01841 0.01816,0.03442 0.02539,0.05273 -0.456407,-0.135972 -0.903669,-0.302462 -1.292969,-0.523438 -1.00771,-0.5719 -1.588251,-1.278203 -1.582031,-2.220703 0.007,-1.1076 0.22052,-1.6689 0.5,-2.0625 0.27948,-0.3935 0.6972,-0.678803 1.30664,-1.033203 0.218557,-0.127089 0.457085,-0.28488 0.703125,-0.460938 z m 5.242188,0.113282 c 0.199148,0.150066 0.39966,0.29795 0.580078,0.417968 0.60917,0.4053 1.041881,0.745407 1.300781,1.128907 0.25891,0.3835 0.421651,0.848284 0.369141,1.771484 -0.0445,0.7832 -0.643131,1.542997 -1.650391,2.154297 -0.298555,0.181193 -0.631553,0.332899 -0.972656,0.470703 0.331384,-0.825044 0.502661,-1.748769 0.644531,-2.541015 0.184921,-1.032781 0.02088,-2.222041 -0.271484,-3.402344 z"
           transform="translate(157.50475,-1991.5088)"
           id="path31732"
           inkscape:connector-curvature="0"
           sodipodi:nodetypes="cccccscscccccccccccccccccsccccccccccccccc" />
      </g>
    </g>
    <g
       id="g4687"
       inkscape:label="wheat-content">
      <rect
         y="-176.00212"
         x="48"
         height="16"
         width="16"
         id="rect4618"
         style="opacity:0.05;fill:none;fill-opacity:1;stroke:none;stroke-width:1;stroke-linecap:square;stroke-linejoin:miter;stroke-miterlimit:4;stroke-dasharray:none;stroke-opacity:1" />
      <path
         inkscape:connector-curvature="0"
         id="path4626"
         d="m 51,-166 v 2 a 2,2 0 0 0 2,2 h 2 v -2 a 2,2 0 0 0 -2,-2 z"
         style="opacity:1;fill:#bebebe;fill-opacity:1;stroke:none;stroke-width:2;stroke-linecap:round;stroke-linejoin:round;stroke-miterlimit:4;stroke-dasharray:none;stroke-opacity:1" />
      <path
         inkscape:connector-curvature="0"
         style="opacity:1;fill:#bebebe;fill-opacity:1;stroke:none;stroke-width:2;stroke-linecap:round;stroke-linejoin:round;stroke-miterlimit:4;stroke-dasharray:none;stroke-opacity:1"
         d="m 62,-166 v 2 a 2,2 0 0 1 -2,2 h -2 v -2 a 2,2 0 0 1 2,-2 z"
         id="path4634" />
      <path
         inkscape:connector-curvature="0"
         style="opacity:1;fill:#bebebe;fill-opacity:1;stroke:none;stroke-width:1.99999988;stroke-linecap:round;stroke-linejoin:round;stroke-miterlimit:4;stroke-dasharray:none;stroke-opacity:1"
         d="m 52,-170 v 1.5 a 1.5,1.5 0 0 0 1.5,1.5 H 55 v -1.5 a 1.5,1.5 0 0 0 -1.5,-1.5 z"
         id="path4636" />
      <path
         id="path4638"
         d="m 61,-170 v 1.5 a 1.5,1.5 0 0 1 -1.5,1.5 H 58 v -1.5 a 1.5,1.5 0 0 1 1.5,-1.5 z"
         style="opacity:1;fill:#bebebe;fill-opacity:1;stroke:none;stroke-width:1.99999988;stroke-linecap:round;stroke-linejoin:round;stroke-miterlimit:4;stroke-dasharray:none;stroke-opacity:1"
         inkscape:connector-curvature="0" />
      <path
         inkscape:connector-curvature="0"
         style="opacity:1;fill:#bebebe;fill-opacity:1;stroke:none;stroke-width:1.99999988;stroke-linecap:round;stroke-linejoin:round;stroke-miterlimit:4;stroke-dasharray:none;stroke-opacity:1"
         d="m 54,-176 v 1 a 1,1 0 0 0 1,1 h 1 v -1 a 1,1 0 0 0 -1,-1 z"
         id="path4665" />
      <path
         id="path4667"
         d="m 59,-176 v 1 a 1,1 0 0 1 -1,1 h -1 v -1 a 1,1 0 0 1 1,-1 z"
         style="opacity:1;fill:#bebebe;fill-opacity:1;stroke:none;stroke-width:1.99999988;stroke-linecap:round;stroke-linejoin:round;stroke-miterlimit:4;stroke-dasharray:none;stroke-opacity:1"
         inkscape:connector-curvature="0" />
      <path
         id="path4669"
         d="m 53,-173 v 1 a 1,1 0 0 0 1,1 h 1 v -1 a 1,1 0 0 0 -1,-1 z"
         style="opacity:1;fill:#bebebe;fill-opacity:1;stroke:none;stroke-width:1.99999988;stroke-linecap:round;stroke-linejoin:round;stroke-miterlimit:4;stroke-dasharray:none;stroke-opacity:1"
         inkscape:connector-curvature="0" />
      <path
         inkscape:connector-curvature="0"
         style="opacity:1;fill:#bebebe;fill-opacity:1;stroke:none;stroke-width:1.99999988;stroke-linecap:round;stroke-linejoin:round;stroke-miterlimit:4;stroke-dasharray:none;stroke-opacity:1"
         d="m 60,-173 v 1 a 1,1 0 0 1 -1,1 h -1 v -1 a 1,1 0 0 1 1,-1 z"
         id="path4671" />
      <rect
         ry="0.5"
         y="-174"
         x="56"
         height="14"
         width="1"
         id="rect4673"
         style="opacity:1;fill:#bebebe;fill-opacity:1;stroke:none;stroke-width:2;stroke-linecap:round;stroke-linejoin:round;stroke-miterlimit:4;stroke-dasharray:none;stroke-opacity:1"
         rx="0.5" />
    </g>
    <g
       id="g4788"
       inkscape:label="dairy-content"
       transform="translate(40)">
      <rect
         style="opacity:0.05;fill:none;fill-opacity:1;stroke:none;stroke-width:1;stroke-linecap:square;stroke-linejoin:miter;stroke-miterlimit:4;stroke-dasharray:none;stroke-opacity:1"
         id="rect4689"
         width="16"
         height="16"
         x="28"
         y="-176.00212" />
      <path
         style="opacity:1;fill:#bebebe;fill-opacity:1;stroke:none;stroke-width:2;stroke-linecap:round;stroke-linejoin:round;stroke-miterlimit:4;stroke-dasharray:none;stroke-opacity:1"
         d="m 32,-174 v 1.5 c 0,0.1525 0.02996,0.29689 0.07227,0.43555 -0.03979,0.0131 -0.198073,0.0582 -0.216797,0.0644 H 31 c -1.104569,0 -2,0.89543 -2,2 v 2 h 2 c 0.01303,-5.3e-4 0.02605,-0.001 0.03906,-0.002 V -168 c -0.02624,1.33022 0.646669,2.32477 1.183594,3 0.268463,0.33762 0.510957,0.61536 0.648438,0.81055 0.10311,0.14638 0.124873,0.22683 0.128906,0.22265 0.0018,1.06622 0.08431,1.74315 0.525391,2.32227 0.223027,0.29282 0.57141,0.50114 0.857421,0.57812 0.286016,0.077 0.498013,0.0664 0.61719,0.0664 h 3 c 0.213857,0 0.996085,-0.0589 1.447266,-0.63281 C 39.898446,-162.20673 40,-162.90462 40,-164 c 0,0.0833 -0.0089,0.006 0.128906,-0.18945 0.137779,-0.19519 0.382029,-0.47266 0.652344,-0.81055 C 41.321881,-165.67579 42,-166.66667 42,-168 h 2 v -2 c 0,-1.10457 -0.895431,-2 -2,-2 h -0.855469 c -0.01873,-0.006 -0.177008,-0.0514 -0.216797,-0.0644 C 40.970038,-172.20311 41,-172.3475 41,-172.5 v -1.5 h -1.5 c -0.714003,0 -1.307554,0.49977 -1.458984,1.16797 C 37.516697,-172.93194 36.989534,-173 36.5,-173 c -0.489554,0 -1.016708,0.0681 -1.541016,0.16797 C 34.807554,-173.50023 34.214003,-174 33.5,-174 Z m 4.5,3 c 0.551347,0 1.668604,0.22568 2.568359,0.4668 0.520153,0.13939 0.637966,0.18472 0.931641,0.27734 V -170 v 2 c 0,0.66667 -0.321881,1.17579 -0.78125,1.75 -0.229685,0.28711 -0.485435,0.57214 -0.722656,0.9082 -0.03613,0.0512 -0.06737,0.12032 -0.103516,0.17578 C 37.851616,-165.31416 37.099325,-165 36.5,-165 c -0.599325,0 -1.351616,-0.31416 -1.892578,-0.16602 -0.03589,-0.0552 -0.06569,-0.12485 -0.101563,-0.17578 -0.236298,-0.33548 -0.492097,-0.61731 -0.71875,-0.90234 -0.453304,-0.57007 -0.760886,-1.06581 -0.748047,-1.7168 1.85e-4,-0.0111 1.85e-4,-0.0221 0,-0.0332 l -0.0293,-2.26367 c 0.293976,-0.0926 0.408526,-0.13731 0.923828,-0.27539 C 34.833405,-170.77433 35.948618,-171 36.5,-171 Z m -2.5,2 v 1 h 1 v -1 z m 4,0 v 1 h 1 v -1 z m -2.964844,5.5 H 36 v 0.5 h -0.898438 c 0.0057,-0.0115 -0.03447,-0.18795 -0.06641,-0.5 z M 37,-163.5 h 0.964844 c -0.03378,0.31248 -0.07856,0.48956 -0.07422,0.5 H 37 Z"
         id="path4691"
         inkscape:connector-curvature="0"
         sodipodi:nodetypes="csccsscccccccccssccccccssccscscscscscccscccscccccccsccccccccccccccccccccc" />
    </g>
    <g
       id="g4889"
       inkscape:label="egg-content"
       transform="translate(40)">
      <rect
         y="-176.00212"
         x="48"
         height="16"
         width="16"
         id="rect4790"
         style="opacity:0.05;fill:none;fill-opacity:1;stroke:none;stroke-width:1;stroke-linecap:square;stroke-linejoin:miter;stroke-miterlimit:4;stroke-dasharray:none;stroke-opacity:1" />
      <path
         sodipodi:nodetypes="cscscscccccc"
         style="fill:#bebebe;fill-opacity:1;stroke:none;stroke-width:2;stroke-miterlimit:4;stroke-dasharray:none;stroke-opacity:1"
         d="m 50.34783,-164.57255 c -0.416302,-1.24429 -0.4575,-2.76171 -0.114001,-4.19893 0.595573,-2.49192 2.298791,-4.97455 4.032014,-5.87711 0.522066,-0.27186 0.819048,-0.35362 1.284559,-0.35362 0.46551,0 0.762492,0.0817 1.284558,0.35362 1.824207,0.94994 3.586399,3.62004 4.104682,6.21947 0.211152,1.05903 0.216648,2.04679 0.01714,3.08061 -0.14377,0.745 -0.455205,1.51213 -0.864421,2.12924 -0.268003,0.40417 -0.88813,1.02429 -1.292293,1.2923 -0.625583,0.41483 -1.391137,0.71456 -2.171491,0.85019 -0.397385,0.0691 -1.604211,0.0814 -2.178735,0.0372 -1.937932,-0.2142 -3.427689,-1.51749 -4.102012,-3.53296 z"
         id="path4883"
         inkscape:connector-curvature="0" />
    </g>
    <rect
       y="-176.00212"
       x="108"
       height="16"
       width="16"
       id="rect6391"
       style="opacity:0.05;fill:none;fill-opacity:1;stroke:none;stroke-width:1;stroke-linecap:square;stroke-linejoin:miter;stroke-miterlimit:4;stroke-dasharray:none;stroke-opacity:1" />
    <path
       sodipodi:nodetypes="acaccca"
       style="fill:#bebebe;fill-opacity:1;stroke:none;stroke-width:2;stroke-miterlimit:4;stroke-dasharray:none;stroke-opacity:1"
       d="M 113.83716,-172.75395 C 115.73052,-173.55518 120,-173 120,-173 c 0,0 0.51498,4.27214 -0.16688,6.2369 -0.5513,1.58855 -2.14582,3.45221 -3.01792,4.04215 -2.07836,1.27565 -4.4334,1.79796 -6.8152,-0.27905 -2.3818,-2.077 -1.47638,-3.88806 -0.70947,-5.42615 0.76691,-1.5381 2.6197,-3.51237 4.54663,-4.3278 z"
       id="path6393"
       inkscape:connector-curvature="0" />
  </g>
</svg>
