<?xml version="1.0" encoding="UTF-8" standalone="no"?>
<!-- Created with Inkscape (http://www.inkscape.org/) -->

<svg
   xmlns:dc="http://purl.org/dc/elements/1.1/"
   xmlns:cc="http://creativecommons.org/ns#"
   xmlns:rdf="http://www.w3.org/1999/02/22-rdf-syntax-ns#"
   xmlns:svg="http://www.w3.org/2000/svg"
   xmlns="http://www.w3.org/2000/svg"
   xmlns:sodipodi="http://sodipodi.sourceforge.net/DTD/sodipodi-0.dtd"
   xmlns:inkscape="http://www.inkscape.org/namespaces/inkscape"
   width="32px"
   height="32px"
   id="svg13790"
   version="1.1"
   inkscape:version="0.91 r13725"
   sodipodi:docname="roundabout-315.svg"
   inkscape:export-filename="/home/andreasn/SparkleShare/gnome-icons/maps-symbolic/direction-roundabout.png"
   inkscape:export-xdpi="90"
   inkscape:export-ydpi="90">
  <defs
     id="defs13792" />
  <sodipodi:namedview
     id="base"
     pagecolor="#ffffff"
     bordercolor="#666666"
     borderopacity="1.0"
     inkscape:pageopacity="0.0"
     inkscape:pageshadow="2"
     inkscape:zoom="2.8284271"
     inkscape:cx="-115.87432"
     inkscape:cy="36.618372"
     inkscape:current-layer="layer1"
     showgrid="false"
     inkscape:grid-bbox="true"
     inkscape:document-units="px"
     inkscape:snap-global="true"
     inkscape:snap-nodes="false"
     inkscape:snap-bbox="true"
     inkscape:bbox-paths="true"
     showguides="true"
     inkscape:guide-bbox="true"
     showborder="true"
     inkscape:window-width="1920"
     inkscape:window-height="1016"
     inkscape:window-x="0"
     inkscape:window-y="27"
     inkscape:window-maximized="1"
     inkscape:bbox-nodes="true">
    <inkscape:grid
       type="xygrid"
       id="grid13798" />
  </sodipodi:namedview>
  <metadata
     id="metadata13795">
    <rdf:RDF>
      <cc:Work
         rdf:about="">
        <dc:format>image/svg+xml</dc:format>
        <dc:type
           rdf:resource="http://purl.org/dc/dcmitype/StillImage" />
        <dc:title></dc:title>
      </cc:Work>
    </rdf:RDF>
  </metadata>
  <g
     id="layer1"
     inkscape:label="Layer 1"
     inkscape:groupmode="layer">
    <path
       style="color:#000000;font-style:normal;font-variant:normal;font-weight:normal;font-stretch:normal;font-size:medium;line-height:normal;font-family:sans-serif;text-indent:0;text-align:start;text-decoration:none;text-decoration-line:none;text-decoration-style:solid;text-decoration-color:#000000;letter-spacing:normal;word-spacing:normal;text-transform:none;direction:ltr;block-progression:tb;writing-mode:lr-tb;baseline-shift:baseline;text-anchor:start;white-space:normal;clip-rule:nonzero;display:inline;overflow:visible;visibility:visible;opacity:0.3;isolation:auto;mix-blend-mode:normal;color-interpolation:sRGB;color-interpolation-filters:linearRGB;solid-color:#000000;solid-opacity:1;fill:#bebebe;fill-opacity:1;fill-rule:nonzero;stroke:none;stroke-width:3.99999881;stroke-linecap:butt;stroke-linejoin:miter;stroke-miterlimit:4;stroke-dasharray:none;stroke-dashoffset:0;stroke-opacity:1;color-rendering:auto;image-rendering:auto;shape-rendering:auto;text-rendering:auto;enable-background:accumulate"
       d="m 15.939453,9.02539 c -4.394589,0 -8,3.60541 -8,8 0,4.39459 3.605411,8 8,8 4.394589,0 8,-3.60541 8,-8 0,-4.39459 -3.605411,-8 -8,-8 z m 0,4 c 2.232829,0 4,1.76717 4,4 0,2.23283 -1.767171,4 -4,4 -2.232829,0 -4,-1.76717 -4,-4 0,-2.23283 1.767171,-4 4,-4 z"
       id="path4136-5-4-9-7-7"
       inkscape:connector-curvature="0" />
    <path
       style="color:#000000;display:inline;overflow:visible;visibility:visible;fill:#bebebe;fill-opacity:1;fill-rule:nonzero;stroke:none;stroke-width:1;marker:none;enable-background:accumulate"
       d="m 16.140625,9.03125 c -2.672801,-0.002 -4.548389,1.05205 -5.876953,2.35547 -2.205805,2.22014 -2.881302,5.50381 -1.839844,8.37305 L 7.541016,20.64648 5.400391,18.50586 4,27 l 8.494141,-1.40039 -2.185547,-2.18555 1.833984,-1.96094 -0.002,-0.002 c 0.651051,-0.63804 0.788389,-1.63555 0.333984,-2.42579 -0.907577,-1.57197 -0.65239,-3.5307 0.626953,-4.81836 1.279348,-1.28765 3.236638,-1.55558 4.814454,-0.6582 1.577815,0.89738 2.349227,2.71682 1.896484,4.47461 -0.452743,1.75779 -2.007262,2.97844 -3.822266,3.00195 -1.375351,0.0111 -2.026131,1.07696 -1.976562,2.10547 l 0,4.9043 4.003906,0 0,-3.28711 C 20.74825,24.00941 22.956499,21.85179 23.6855,19.02143 24.583842,15.53359 23.025221,11.85281 19.894484,10.07221 18.720458,9.40448 17.429288,9.06236 16.140578,9.03119 Z"
       id="rect13805-3-4-8-8-8-7-2-9-98-8-5-9"
       inkscape:connector-curvature="0" />
  </g>
</svg>
