<?xml version="1.0" encoding="UTF-8" standalone="no"?>
<!-- Created with Inkscape (http://www.inkscape.org/) -->

<svg
   xmlns:dc="http://purl.org/dc/elements/1.1/"
   xmlns:cc="http://creativecommons.org/ns#"
   xmlns:rdf="http://www.w3.org/1999/02/22-rdf-syntax-ns#"
   xmlns:svg="http://www.w3.org/2000/svg"
   xmlns="http://www.w3.org/2000/svg"
   xmlns:sodipodi="http://sodipodi.sourceforge.net/DTD/sodipodi-0.dtd"
   xmlns:inkscape="http://www.inkscape.org/namespaces/inkscape"
   width="16px"
   height="16px"
   id="svg6558"
   version="1.1"
   inkscape:version="0.48.4 r9939"
   sodipodi:docname="New document 2">
  <defs
     id="defs6560" />
  <sodipodi:namedview
     id="base"
     pagecolor="#ffffff"
     bordercolor="#666666"
     borderopacity="1.0"
     inkscape:pageopacity="0.0"
     inkscape:pageshadow="2"
     inkscape:zoom="16"
     inkscape:cx="-2.9390641"
     inkscape:cy="14.158196"
     inkscape:current-layer="layer1"
     showgrid="false"
     inkscape:grid-bbox="true"
     inkscape:document-units="px"
     inkscape:snap-nodes="false"
     inkscape:snap-bbox="true"
     inkscape:window-width="1920"
     inkscape:window-height="1021"
     inkscape:window-x="0"
     inkscape:window-y="27"
     inkscape:window-maximized="1">
    <inkscape:grid
       type="xygrid"
       id="grid6024" />
  </sodipodi:namedview>
  <metadata
     id="metadata6563">
    <rdf:RDF>
      <cc:Work
         rdf:about="">
        <dc:format>image/svg+xml</dc:format>
        <dc:type
           rdf:resource="http://purl.org/dc/dcmitype/StillImage" />
        <dc:title></dc:title>
      </cc:Work>
    </rdf:RDF>
  </metadata>
  <g
     id="layer1"
     inkscape:label="Layer 1"
     inkscape:groupmode="layer">
    <path
       sodipodi:type="arc"
       style="color:#000000;fill:none;stroke:#000000;stroke-width:1.26138616;stroke-linecap:round;stroke-linejoin:round;stroke-miterlimit:4;stroke-opacity:1;stroke-dasharray:none;stroke-dashoffset:0;marker:none;visibility:visible;display:inline;overflow:visible;enable-background:accumulate"
       id="path6026"
       sodipodi:cx="4.1896038"
       sodipodi:cy="11.382425"
       sodipodi:rx="3.1534653"
       sodipodi:ry="3.1534653"
       d="m 7.3430691,11.382425 a 3.1534653,3.1534653 0 1 1 -6.3069306,0 3.1534653,3.1534653 0 1 1 6.3069306,0 z"
       transform="matrix(0.79277867,0,0,0.79277867,-0.321429,2.976256)" />
    <path
       sodipodi:type="arc"
       style="color:#000000;fill:none;stroke:#000000;stroke-width:1.26138616;stroke-linecap:round;stroke-linejoin:round;stroke-miterlimit:4;stroke-opacity:1;stroke-dasharray:none;stroke-dashoffset:0;marker:none;visibility:visible;display:inline;overflow:visible;enable-background:accumulate"
       id="path6026-6"
       sodipodi:cx="4.1896038"
       sodipodi:cy="11.382425"
       sodipodi:rx="3.1534653"
       sodipodi:ry="3.1534653"
       d="m 7.3430691,11.382425 a 3.1534653,3.1534653 0 1 1 -6.3069306,0 3.1534653,3.1534653 0 1 1 6.3069306,0 z"
       transform="matrix(0.79277867,0,0,0.79277867,9.678571,2.976256)" />
    <path
       sodipodi:type="arc"
       style="color:#000000;fill:#000000;fill-opacity:1;fill-rule:nonzero;stroke:none;stroke-width:1;marker:none;visibility:visible;display:inline;overflow:visible;enable-background:accumulate"
       id="path6046"
       sodipodi:cx="10.012253"
       sodipodi:cy="4.5686879"
       sodipodi:rx="1.0924505"
       sodipodi:ry="1.0924505"
       d="m 11.104703,4.5686879 a 1.0924505,1.0924505 0 1 1 -2.1849007,0 1.0924505,1.0924505 0 1 1 2.1849007,0 z"
       transform="matrix(1.3730599,0,0,1.3730599,-4.247423,-3.7730821)" />
    <path
       sodipodi:type="arc"
       style="opacity:0.5;color:#000000;fill:none;stroke:#838383;stroke-width:1.26138616;stroke-linecap:round;stroke-linejoin:round;stroke-miterlimit:4;stroke-opacity:1;stroke-dasharray:none;stroke-dashoffset:0;marker:none;visibility:visible;display:inline;overflow:visible;enable-background:accumulate"
       id="path6026-2"
       sodipodi:cx="4.1896038"
       sodipodi:cy="11.382425"
       sodipodi:rx="3.1534653"
       sodipodi:ry="3.1534653"
       d="m 7.3430691,11.382425 a 3.1534653,3.1534653 0 1 1 -6.3069306,0 3.1534653,3.1534653 0 1 1 6.3069306,0 z"
       transform="matrix(0.79277867,0,0,0.79277867,40.678571,2.9762561)" />
    <path
       sodipodi:type="arc"
       style="opacity:0.5;color:#000000;fill:none;stroke:#838383;stroke-width:1.26138616;stroke-linecap:round;stroke-linejoin:round;stroke-miterlimit:4;stroke-opacity:1;stroke-dasharray:none;stroke-dashoffset:0;marker:none;visibility:visible;display:inline;overflow:visible;enable-background:accumulate"
       id="path6026-6-1"
       sodipodi:cx="4.1896038"
       sodipodi:cy="11.382425"
       sodipodi:rx="3.1534653"
       sodipodi:ry="3.1534653"
       d="m 7.3430691,11.382425 a 3.1534653,3.1534653 0 1 1 -6.3069306,0 3.1534653,3.1534653 0 1 1 6.3069306,0 z"
       transform="matrix(0.79277867,0,0,0.79277867,49.678571,2.9762561)" />
    <path
       sodipodi:type="arc"
       style="opacity:0.5;color:#000000;fill:#a4a4a4;fill-opacity:1;fill-rule:nonzero;stroke:none;stroke-width:1;marker:none;visibility:visible;display:inline;overflow:visible;enable-background:accumulate"
       id="path6046-9"
       sodipodi:cx="10.012253"
       sodipodi:cy="4.5686879"
       sodipodi:rx="1.0924505"
       sodipodi:ry="1.0924505"
       d="m 11.104703,4.5686879 a 1.0924505,1.0924505 0 1 1 -2.1849007,0 1.0924505,1.0924505 0 1 1 2.1849007,0 z"
       transform="matrix(1.3730599,0,0,1.3730599,36.752577,-1.7730822)" />
    <path
       style="fill:none;stroke:#c1c1c1;stroke-width:1px;stroke-linecap:butt;stroke-linejoin:miter;stroke-opacity:1"
       d="M 53.041832,6.2918317 49.888366,8.4316832 47.757068,5.3614742 43.528402,8.3903411"
       id="path6818-9"
       inkscape:connector-curvature="0"
       sodipodi:nodetypes="cccc" />
    <path
       style="fill:none;stroke:#000000;stroke-width:2;stroke-linecap:butt;stroke-linejoin:miter;stroke-miterlimit:4;stroke-opacity:1;stroke-dasharray:none"
       d="m 8,13.03125 0,-4 L 5.352013,7.5024342 7.708474,3.8227505"
       id="path6847"
       inkscape:connector-curvature="0"
       sodipodi:nodetypes="cccc" />
    <path
       style="fill:none;stroke:#000000;stroke-width:2;stroke-linecap:butt;stroke-linejoin:miter;stroke-miterlimit:4;stroke-opacity:1;stroke-dasharray:none"
       d="m 7.240893,4.7101359 c 0,0 1.138752,1.6105639 1.964764,1.8561554 0.826012,0.2455915 2.824673,0.3093592 2.824673,0.3093592"
       id="path6851"
       inkscape:connector-curvature="0"
       sodipodi:nodetypes="czc" />
    <path
       sodipodi:type="arc"
       style="color:#000000;fill:none;stroke:#000000;stroke-width:1.26138616;stroke-linecap:round;stroke-linejoin:round;stroke-miterlimit:4;stroke-opacity:1;stroke-dasharray:none;stroke-dashoffset:0;marker:none;visibility:visible;display:inline;overflow:visible;enable-background:accumulate"
       id="path6026-63"
       sodipodi:cx="4.1896038"
       sodipodi:cy="11.382425"
       sodipodi:rx="3.1534653"
       sodipodi:ry="3.1534653"
       d="m 7.3430691,11.382425 a 3.1534653,3.1534653 0 1 1 -6.3069306,0 3.1534653,3.1534653 0 1 1 6.3069306,0 z"
       transform="matrix(0.79277867,0,0,0.79277867,-40.321429,2.9762559)" />
    <path
       sodipodi:type="arc"
       style="color:#000000;fill:none;stroke:#000000;stroke-width:1.26138616;stroke-linecap:round;stroke-linejoin:round;stroke-miterlimit:4;stroke-opacity:1;stroke-dasharray:none;stroke-dashoffset:0;marker:none;visibility:visible;display:inline;overflow:visible;enable-background:accumulate"
       id="path6026-6-0"
       sodipodi:cx="4.1896038"
       sodipodi:cy="11.382425"
       sodipodi:rx="3.1534653"
       sodipodi:ry="3.1534653"
       d="m 7.3430691,11.382425 a 3.1534653,3.1534653 0 1 1 -6.3069306,0 3.1534653,3.1534653 0 1 1 6.3069306,0 z"
       transform="matrix(0.79277867,0,0,0.79277867,-30.321429,2.9762559)" />
    <path
       sodipodi:type="arc"
       style="color:#000000;fill:#000000;fill-opacity:1;fill-rule:nonzero;stroke:none;stroke-width:1;marker:none;visibility:visible;display:inline;overflow:visible;enable-background:accumulate"
       id="path6046-0"
       sodipodi:cx="10.012253"
       sodipodi:cy="4.5686879"
       sodipodi:rx="1.0924505"
       sodipodi:ry="1.0924505"
       d="m 11.104703,4.5686879 a 1.0924505,1.0924505 0 1 1 -2.1849007,0 1.0924505,1.0924505 0 1 1 2.1849007,0 z"
       transform="matrix(1.3730599,0,0,1.3730599,-44.247423,-3.7730822)" />
    <path
       style="fill:none;stroke:#000000;stroke-width:2;stroke-linecap:butt;stroke-linejoin:miter;stroke-miterlimit:4;stroke-opacity:1;stroke-dasharray:none"
       d="m -32,13.03125 0,-4.0000001 -2.647987,-1.5288158 2.356461,-3.6796837"
       id="path6847-6"
       inkscape:connector-curvature="0"
       sodipodi:nodetypes="cccc" />
    <path
       style="fill:none;stroke:#000000;stroke-width:2;stroke-linecap:butt;stroke-linejoin:miter;stroke-miterlimit:4;stroke-opacity:1;stroke-dasharray:none"
       d="m -32.73701,4.75433 1.412337,1.7456699 2.824673,0"
       id="path6851-2"
       inkscape:connector-curvature="0" />
  </g>
</svg>
