<?xml version="1.0" encoding="UTF-8" standalone="no"?>
<!-- Created with Inkscape (http://www.inkscape.org/) -->

<svg
   xmlns:dc="http://purl.org/dc/elements/1.1/"
   xmlns:cc="http://creativecommons.org/ns#"
   xmlns:rdf="http://www.w3.org/1999/02/22-rdf-syntax-ns#"
   xmlns:svg="http://www.w3.org/2000/svg"
   xmlns="http://www.w3.org/2000/svg"
   xmlns:sodipodi="http://sodipodi.sourceforge.net/DTD/sodipodi-0.dtd"
   xmlns:inkscape="http://www.inkscape.org/namespaces/inkscape"
   version="1.1"
   width="16"
   height="16.020422"
   id="svg7384"
   inkscape:version="0.48.2 r9819"
   sodipodi:docname="applications-blender-symbolic.svg">
  <metadata
     id="metadata90">
    <rdf:RDF>
      <cc:Work
         rdf:about="">
        <dc:format>image/svg+xml</dc:format>
        <dc:type
           rdf:resource="http://purl.org/dc/dcmitype/StillImage" />
        <dc:title>Gnome Symbolic Icon Theme</dc:title>
      </cc:Work>
    </rdf:RDF>
  </metadata>
  <sodipodi:namedview
     pagecolor="#555753"
     bordercolor="#666666"
     borderopacity="1"
     objecttolerance="10"
     gridtolerance="10"
     guidetolerance="10"
     inkscape:pageopacity="1"
     inkscape:pageshadow="2"
     inkscape:window-width="1725"
     inkscape:window-height="1271"
     id="namedview88"
     showgrid="false"
     inkscape:zoom="1"
     inkscape:cx="-144.65441"
     inkscape:cy="-53.986144"
     inkscape:window-x="2090"
     inkscape:window-y="118"
     inkscape:window-maximized="0"
     inkscape:current-layer="layer9"
     showborder="false"
     inkscape:snap-nodes="true"
     inkscape:snap-bbox="false"
     inkscape:bbox-paths="true"
     showguides="true"
     inkscape:guide-bbox="true"
     inkscape:snap-to-guides="true"
     inkscape:snap-grids="true"
     inkscape:snap-global="true"
     inkscape:object-nodes="false"
     inkscape:snap-bbox-midpoints="false"
     inkscape:object-paths="false"
     inkscape:snap-others="false">
    <inkscape:grid
       type="xygrid"
       id="grid4866"
       empspacing="2"
       visible="true"
       enabled="true"
       snapvisiblegridlinesonly="true"
       spacingx="1px"
       spacingy="1px" />
  </sodipodi:namedview>
  <title
     id="title9167">Gnome Symbolic Icon Theme</title>
  <defs
     id="defs7386" />
  <g
     inkscape:groupmode="layer"
     id="layer9"
     inkscape:label="apps"
     style="display:inline"
     transform="translate(-203.02273,-175.08839)">
    <rect
       style="fill:none;stroke:none"
       id="rect12483"
       width="16"
       height="16.020422"
       x="203.02274"
       y="175.08839" />
    <path
       sodipodi:nodetypes="csccccsssccsccssccccsssss"
       style="fill:#bebebe;fill-opacity:1;stroke:none"
       d="m 210.83522,177.15089 c -0.24052,0.0404 -0.47202,0.15754 -0.625,0.375 -0.30595,0.43491 -0.21249,1.03265 0.21875,1.34375 l 1.6875,1.21875 -1.28125,0 -1.0625,0 -3.71875,0 c -0.55743,0 -1.03125,0.44257 -1.03125,1 0,0.55743 0.47382,1 1.03125,1 l 2.90311,0 -4.43214,5.08839 c -0.41942,0.48332 -0.63852,1.14294 -0.18972,1.59911 0.44879,0.45617 1.14308,0.45207 1.5625,-0.0312 l 2.4375,-2.8125 c 0.51006,1.36413 1.65334,2.50504 3.21875,2.96875 2.64078,0.78227 5.45867,-0.61365 6.28125,-3.125 0.62887,-1.91995 -0.0998,-3.93258 -1.65625,-5.125 l -4.625,-3.34375 c -0.21562,-0.15555 -0.47823,-0.19664 -0.71875,-0.15625 z m 2.1875,4 c 1.65649,0 3,1.30442 3,2.9375 0,1.63308 -1.34351,2.96875 -3,2.96875 -1.65649,0 -3,-1.33567 -3,-2.96875 0,-1.63308 1.34351,-2.9375 3,-2.9375 z"
       id="rect12618"
       inkscape:connector-curvature="0" />
    <path
       sodipodi:type="arc"
       style="fill:#bdbdbd;fill-opacity:1;stroke:none"
       id="path12638"
       sodipodi:cx="69.09375"
       sodipodi:cy="333.98828"
       sodipodi:rx="0.9296875"
       sodipodi:ry="0.94140625"
       d="m 70.023437,333.98828 a 0.9296875,0.94140625 0 1 1 -1.859375,0 0.9296875,0.94140625 0 1 1 1.859375,0 z"
       transform="matrix(1.5753361,0,0,1.5224835,104.1619,-324.43442)" />
  </g>
</svg>
