<?xml version="1.0" encoding="UTF-8" standalone="no"?>
<!-- Created with Inkscape (http://www.inkscape.org/) -->

<svg
   xmlns:dc="http://purl.org/dc/elements/1.1/"
   xmlns:cc="http://creativecommons.org/ns#"
   xmlns:rdf="http://www.w3.org/1999/02/22-rdf-syntax-ns#"
   xmlns:svg="http://www.w3.org/2000/svg"
   xmlns="http://www.w3.org/2000/svg"
   xmlns:sodipodi="http://sodipodi.sourceforge.net/DTD/sodipodi-0.dtd"
   xmlns:inkscape="http://www.inkscape.org/namespaces/inkscape"
   version="1.1"
   width="16"
   height="16"
   id="svg7384"
   inkscape:version="0.48.2 r9819"
   sodipodi:docname="libreoffice-math-symbolic.svg">
  <metadata
     id="metadata90">
    <rdf:RDF>
      <cc:Work
         rdf:about="">
        <dc:format>image/svg+xml</dc:format>
        <dc:type
           rdf:resource="http://purl.org/dc/dcmitype/StillImage" />
        <dc:title>Gnome Symbolic Icon Theme</dc:title>
      </cc:Work>
    </rdf:RDF>
  </metadata>
  <sodipodi:namedview
     pagecolor="#555753"
     bordercolor="#666666"
     borderopacity="1"
     objecttolerance="10"
     gridtolerance="10"
     guidetolerance="10"
     inkscape:pageopacity="1"
     inkscape:pageshadow="2"
     inkscape:window-width="1725"
     inkscape:window-height="1271"
     id="namedview88"
     showgrid="false"
     inkscape:zoom="1"
     inkscape:cx="-104.63188"
     inkscape:cy="-34.094955"
     inkscape:window-x="2090"
     inkscape:window-y="118"
     inkscape:window-maximized="0"
     inkscape:current-layer="layer9"
     showborder="false"
     inkscape:snap-nodes="true"
     inkscape:snap-bbox="false"
     inkscape:bbox-paths="true"
     showguides="true"
     inkscape:guide-bbox="true"
     inkscape:snap-to-guides="true"
     inkscape:snap-grids="true"
     inkscape:snap-global="true"
     inkscape:object-nodes="false"
     inkscape:snap-bbox-midpoints="false"
     inkscape:object-paths="false"
     inkscape:snap-others="false">
    <inkscape:grid
       type="xygrid"
       id="grid4866"
       empspacing="2"
       visible="true"
       enabled="true"
       snapvisiblegridlinesonly="true"
       spacingx="1px"
       spacingy="1px" />
  </sodipodi:namedview>
  <title
     id="title9167">Gnome Symbolic Icon Theme</title>
  <defs
     id="defs7386" />
  <g
     inkscape:groupmode="layer"
     id="layer9"
     inkscape:label="apps"
     style="display:inline"
     transform="translate(-163.0002,-195)">
    <g
       id="g6055"
       transform="translate(-120,-20)">
      <g
         transform="translate(120,0)"
         id="g18875"
         inkscape:label="applications-libreoffice-main">
        <rect
           y="215.00525"
           x="163.0002"
           height="15.994752"
           width="16"
           id="rect18877"
           style="fill:none;stroke:none" />
        <path
           sodipodi:nodetypes="cccccccc"
           inkscape:connector-curvature="0"
           d="m 174.28125,215.00525 c -0.27821,0.0752 -0.37465,0.49932 -0.15625,0.68727 l 3.1875,3.18646 c 0.21982,0.23021 0.69212,0.0371 0.6875,-0.28116 l 0,-3.21769 c -0.0122,-0.20318 -0.20269,-0.37897 -0.40625,-0.37488 l -3.1875,0 c -0.0413,-0.007 -0.0837,-0.007 -0.125,0 z"
           style="font-size:medium;font-style:normal;font-variant:normal;font-weight:normal;font-stretch:normal;text-indent:0;text-align:start;text-decoration:none;line-height:normal;letter-spacing:normal;word-spacing:normal;text-transform:none;direction:ltr;block-progression:tb;writing-mode:lr-tb;text-anchor:start;baseline-shift:baseline;color:#000000;fill:#bebebe;fill-opacity:1;stroke:none;stroke-width:0.79782361px;marker:none;visibility:visible;display:inline;overflow:visible;enable-background:accumulate;font-family:Sans;-inkscape-font-specification:Sans"
           id="path18879" />
        <path
           inkscape:connector-curvature="0"
           id="path18881"
           d="m 164.84395,215.00525 c -0.4813,0.0874 -0.85238,0.53322 -0.84375,0.99967 l 0,13.99541 c 6e-5,0.52341 0.51276,0.99962 1.0625,0.99967 l 11.875,0 c 0.54975,-5e-5 1.06245,-0.47626 1.0625,-0.99967 l -0.0312,-7.59126 c 0.006,-0.26397 -0.0884,-0.52879 -0.28125,-0.71852 l -6.40625,-6.40414 c -0.19927,-0.18364 -0.47275,-0.28728 -0.75,-0.28116 l -5.46875,0 c -0.0654,-0.006 -0.15331,-0.006 -0.21875,0 z m 1.15625,1.99934 4,0 3.5,3.49885 2.5,2.49918 0,5.99804 -10,0 0,-11.99607 z"
           style="font-size:medium;font-style:normal;font-variant:normal;font-weight:normal;font-stretch:normal;text-indent:0pt;text-align:start;text-decoration:none;line-height:normal;letter-spacing:normal;word-spacing:normal;text-transform:none;direction:ltr;text-anchor:start;color:#000000;fill:#bebebe;fill-opacity:1;stroke:none;stroke-width:2;marker:none;visibility:visible;display:inline;overflow:visible;font-family:Andale Mono" />
      </g>
      <path
         sodipodi:nodetypes="ccccccccccc"
         inkscape:connector-curvature="0"
         id="rect13006-2"
         d="m 294.0002,221 -2,0 -2,4 -1,-2 -2,0 0,2 1.45956,0 1.54044,3 2.6029,-5 1.3971,0 z"
         style="fill:#bebebe;fill-opacity:1;stroke:none" />
    </g>
  </g>
</svg>
