<?xml version="1.0" encoding="UTF-8" standalone="no"?>
<!-- Created with Inkscape (http://www.inkscape.org/) -->

<svg
   xmlns:dc="http://purl.org/dc/elements/1.1/"
   xmlns:cc="http://creativecommons.org/ns#"
   xmlns:rdf="http://www.w3.org/1999/02/22-rdf-syntax-ns#"
   xmlns:svg="http://www.w3.org/2000/svg"
   xmlns="http://www.w3.org/2000/svg"
   xmlns:sodipodi="http://sodipodi.sourceforge.net/DTD/sodipodi-0.dtd"
   xmlns:inkscape="http://www.inkscape.org/namespaces/inkscape"
   version="1.1"
   width="15.985097"
   height="16"
   id="svg7384"
   inkscape:version="0.48.2 r9819"
   sodipodi:docname="miro-symbolic.svg">
  <metadata
     id="metadata90">
    <rdf:RDF>
      <cc:Work
         rdf:about="">
        <dc:format>image/svg+xml</dc:format>
        <dc:type
           rdf:resource="http://purl.org/dc/dcmitype/StillImage" />
        <dc:title>Gnome Symbolic Icon Theme</dc:title>
      </cc:Work>
    </rdf:RDF>
  </metadata>
  <sodipodi:namedview
     pagecolor="#555753"
     bordercolor="#666666"
     borderopacity="1"
     objecttolerance="10"
     gridtolerance="10"
     guidetolerance="10"
     inkscape:pageopacity="1"
     inkscape:pageshadow="2"
     inkscape:window-width="1725"
     inkscape:window-height="1271"
     id="namedview88"
     showgrid="false"
     inkscape:zoom="1"
     inkscape:cx="-224.63188"
     inkscape:cy="-34.094956"
     inkscape:window-x="2090"
     inkscape:window-y="118"
     inkscape:window-maximized="0"
     inkscape:current-layer="layer9"
     showborder="false"
     inkscape:snap-nodes="true"
     inkscape:snap-bbox="false"
     inkscape:bbox-paths="true"
     showguides="true"
     inkscape:guide-bbox="true"
     inkscape:snap-to-guides="true"
     inkscape:snap-grids="true"
     inkscape:snap-global="true"
     inkscape:object-nodes="false"
     inkscape:snap-bbox-midpoints="false"
     inkscape:object-paths="false"
     inkscape:snap-others="false">
    <inkscape:grid
       type="xygrid"
       id="grid4866"
       empspacing="2"
       visible="true"
       enabled="true"
       snapvisiblegridlinesonly="true"
       spacingx="1px"
       spacingy="1px" />
  </sodipodi:namedview>
  <title
     id="title9167">Gnome Symbolic Icon Theme</title>
  <defs
     id="defs7386" />
  <g
     inkscape:groupmode="layer"
     id="layer9"
     inkscape:label="apps"
     style="display:inline"
     transform="translate(-283.0002,-195)">
    <rect
       style="fill:none;stroke:none"
       id="rect105165"
       width="15.983618"
       height="16"
       x="283.00018"
       y="195" />
    <path
       inkscape:connector-curvature="0"
       id="path17600"
       d="m 294.0002,196 c -7.99181,0 -10.64868,8.72576 -11,9.375 3.27017,3.4245 6.33118,4.625 10,4.625 2.64737,0 4.51382,-2.00722 5.3125,-4 0.54877,-1.36923 0.73215,-3.11278 0.65625,-7 -0.99898,-2 -3.96978,-3 -4.96875,-3 z m -7,4 7.71875,0 c 0.56616,0 0.70232,0.0584 1.15625,0.1875 0.79339,0.34029 1.09163,1.07816 1.125,1.75 0.024,1.11117 -0.007,2.95106 0,4.0625 l -2,0 0,-1 0,-2.71875 0,-0.28125 c 0,-0.554 -0.44657,-1 -1,-1 -0.55344,0 -1,0.446 -1,1 l 0,0.28125 0,2.71875 c 0.002,0.34659 0.002,0.73212 0,1 l -2,0 0,-0.25 0,-3.75 c 0,-0.554 -0.446,-1 -1,-1 -0.554,0 -1,0.446 -1,1 -0.0181,0.50626 -0.006,1.25319 0,2 l 0,1 0,0.65625 0,0.0937 c 1.4e-4,0.0897 5e-4,0.18669 0,0.25 l -2,0 0,-6 z"
       style="fill:#bebebe;fill-opacity:1;stroke:none;display:inline;enable-background:new" />
  </g>
</svg>
