<?xml version="1.0" encoding="UTF-8" standalone="no"?>
<!-- Created with Inkscape (http://www.inkscape.org/) -->

<svg
   xmlns:dc="http://purl.org/dc/elements/1.1/"
   xmlns:cc="http://creativecommons.org/ns#"
   xmlns:rdf="http://www.w3.org/1999/02/22-rdf-syntax-ns#"
   xmlns:svg="http://www.w3.org/2000/svg"
   xmlns="http://www.w3.org/2000/svg"
   xmlns:xlink="http://www.w3.org/1999/xlink"
   xmlns:sodipodi="http://sodipodi.sourceforge.net/DTD/sodipodi-0.dtd"
   xmlns:inkscape="http://www.inkscape.org/namespaces/inkscape"
   version="1.1"
   width="16"
   height="16"
   id="svg7384"
   inkscape:version="0.48.2 r9819"
   sodipodi:docname="apps.svg">
  <metadata
     id="metadata90">
    <rdf:RDF>
      <cc:Work
         rdf:about="">
        <dc:format>image/svg+xml</dc:format>
        <dc:type
           rdf:resource="http://purl.org/dc/dcmitype/StillImage" />
        <dc:title>Gnome Symbolic Icon Theme</dc:title>
      </cc:Work>
    </rdf:RDF>
  </metadata>
  <sodipodi:namedview
     pagecolor="#555753"
     bordercolor="#666666"
     borderopacity="1"
     objecttolerance="10"
     gridtolerance="10"
     guidetolerance="10"
     inkscape:pageopacity="1"
     inkscape:pageshadow="2"
     inkscape:window-width="2560"
     inkscape:window-height="1381"
     id="namedview88"
     showgrid="false"
     inkscape:zoom="1"
     inkscape:cx="-109.0031"
     inkscape:cy="44.403044"
     inkscape:window-x="1600"
     inkscape:window-y="27"
     inkscape:window-maximized="1"
     inkscape:current-layer="layer9"
     showborder="false"
     inkscape:snap-nodes="false"
     inkscape:snap-bbox="false"
     inkscape:bbox-paths="true"
     showguides="true"
     inkscape:guide-bbox="true"
     inkscape:snap-to-guides="true"
     inkscape:snap-grids="true"
     inkscape:snap-global="true"
     inkscape:object-nodes="false"
     inkscape:snap-bbox-midpoints="false"
     inkscape:object-paths="false"
     inkscape:snap-others="false">
    <inkscape:grid
       type="xygrid"
       id="grid4866"
       empspacing="2"
       visible="true"
       enabled="true"
       snapvisiblegridlinesonly="true"
       spacingx="1px"
       spacingy="1px" />
  </sodipodi:namedview>
  <title
     id="title9167">Gnome Symbolic Icon Theme</title>
  <defs
     id="defs7386">
    <inkscape:path-effect
       effect="spiro"
       id="path-effect4077"
       is_visible="true" />
    <inkscape:path-effect
       is_visible="true"
       id="path-effect4044"
       effect="spiro" />
    <inkscape:path-effect
       effect="spiro"
       id="path-effect4040"
       is_visible="true" />
    <inkscape:path-effect
       effect="spiro"
       id="path-effect3959"
       is_visible="true" />
    <inkscape:path-effect
       is_visible="true"
       id="path-effect3957"
       effect="spiro" />
    <inkscape:path-effect
       is_visible="true"
       id="path-effect3951"
       effect="spiro" />
    <inkscape:path-effect
       effect="spiro"
       id="path-effect3947"
       is_visible="true" />
    <inkscape:path-effect
       effect="spiro"
       id="path-effect3869"
       is_visible="true" />
    <inkscape:path-effect
       effect="spiro"
       id="path-effect3097"
       is_visible="true" />
    <linearGradient
       inkscape:collect="always"
       id="linearGradient5408">
      <stop
         style="stop-color:#bebebe;stop-opacity:1;"
         offset="0"
         id="stop5410" />
      <stop
         style="stop-color:#bebebe;stop-opacity:0;"
         offset="1"
         id="stop5412" />
    </linearGradient>
    <inkscape:path-effect
       effect="spiro"
       id="path-effect4601"
       is_visible="true" />
    <inkscape:path-effect
       effect="spiro"
       id="path-effect4597"
       is_visible="true" />
    <inkscape:path-effect
       effect="spiro"
       id="path-effect4593"
       is_visible="true" />
    <inkscape:path-effect
       effect="spiro"
       id="path-effect4589"
       is_visible="true" />
    <inkscape:path-effect
       effect="spiro"
       id="path-effect4585"
       is_visible="true" />
    <inkscape:path-effect
       effect="spiro"
       id="path-effect4580"
       is_visible="true" />
    <clipPath
       clipPathUnits="userSpaceOnUse"
       id="clipPath6279-6-1-4-5">
      <rect
         style="color:#bebebe;fill:#bebebe;fill-opacity:1;fill-rule:nonzero;stroke:none;stroke-width:2;marker:none;visibility:visible;display:inline;overflow:visible"
         id="rect6281-3-0-3-5"
         width="3.8250003"
         height="6.3750005"
         x="26.85"
         y="220.75" />
    </clipPath>
    <clipPath
       clipPathUnits="userSpaceOnUse"
       id="clipPath6265-33-6-5-1-3">
      <rect
         style="color:#bebebe;fill:#bebebe;fill-opacity:1;fill-rule:nonzero;stroke:none;stroke-width:2;marker:none;visibility:visible;display:inline;overflow:visible"
         id="rect6267-6-9-1-4-8"
         width="2.8977277"
         height="5.21591"
         x="26.96591"
         y="221.32954" />
    </clipPath>
    <clipPath
       clipPathUnits="userSpaceOnUse"
       id="clipPath6259-6-8-2-1-6-6">
      <rect
         style="color:#bebebe;fill:#bebebe;fill-opacity:1;stroke:none;stroke-width:2;marker:none;visibility:visible;display:inline;overflow:visible"
         id="rect6261-4-9-2-0-9-0"
         width="1.8762827"
         height="4.8734746"
         x="26.998718"
         y="221.50153" />
    </clipPath>
    <clipPath
       clipPathUnits="userSpaceOnUse"
       id="clipPath6279-2-3">
      <rect
         style="color:#bebebe;fill:#bebebe;fill-opacity:1;fill-rule:nonzero;stroke:none;stroke-width:2;marker:none;visibility:visible;display:inline;overflow:visible"
         id="rect6281-5-3"
         width="3.8250003"
         height="6.3750005"
         x="26.85"
         y="220.75" />
    </clipPath>
    <clipPath
       clipPathUnits="userSpaceOnUse"
       id="clipPath6265-3-5-6">
      <rect
         style="color:#bebebe;fill:#bebebe;fill-opacity:1;fill-rule:nonzero;stroke:none;stroke-width:2;marker:none;visibility:visible;display:inline;overflow:visible"
         id="rect6267-1-8-1"
         width="2.8977277"
         height="5.21591"
         x="26.96591"
         y="221.32954" />
    </clipPath>
    <clipPath
       clipPathUnits="userSpaceOnUse"
       id="clipPath6259-8-8-8">
      <rect
         style="color:#bebebe;fill:#bebebe;fill-opacity:1;stroke:none;stroke-width:2;marker:none;visibility:visible;display:inline;overflow:visible"
         id="rect6261-6-0-7"
         width="1.8762827"
         height="4.8734746"
         x="26.998718"
         y="221.50153" />
    </clipPath>
    <clipPath
       id="clipPath3157-7-0"
       clipPathUnits="userSpaceOnUse">
      <rect
         y="221.32954"
         x="28.124998"
         height="5.21591"
         width="1.7386366"
         id="rect3159-5-5"
         style="color:#bebebe;fill:#bebebe;fill-opacity:1;fill-rule:nonzero;stroke:none;stroke-width:2;marker:none;visibility:visible;display:inline;overflow:visible" />
    </clipPath>
    <clipPath
       clipPathUnits="userSpaceOnUse"
       id="clipPath6279-6-1">
      <rect
         style="color:#bebebe;fill:#bebebe;fill-opacity:1;fill-rule:nonzero;stroke:none;stroke-width:2;marker:none;visibility:visible;display:inline;overflow:visible"
         id="rect6281-3-1"
         width="3.8250003"
         height="6.3750005"
         x="26.85"
         y="220.75" />
    </clipPath>
    <clipPath
       clipPathUnits="userSpaceOnUse"
       id="clipPath6265-33-6-4-0">
      <rect
         style="color:#bebebe;fill:#bebebe;fill-opacity:1;fill-rule:nonzero;stroke:none;stroke-width:2;marker:none;visibility:visible;display:inline;overflow:visible"
         id="rect6267-6-9-19-3"
         width="2.8977277"
         height="5.21591"
         x="26.96591"
         y="221.32954" />
    </clipPath>
    <clipPath
       clipPathUnits="userSpaceOnUse"
       id="clipPath6259-6-8-2-8-0">
      <rect
         style="color:#bebebe;fill:#bebebe;fill-opacity:1;stroke:none;stroke-width:2;marker:none;visibility:visible;display:inline;overflow:visible"
         id="rect6261-4-9-2-7-0"
         width="1.8762827"
         height="4.8734746"
         x="26.998718"
         y="221.50153" />
    </clipPath>
    <clipPath
       clipPathUnits="userSpaceOnUse"
       id="clipPath6265-33-4">
      <rect
         style="color:#bebebe;fill:#bebebe;fill-opacity:1;fill-rule:nonzero;stroke:none;stroke-width:2;marker:none;visibility:visible;display:inline;overflow:visible"
         id="rect6267-6-5"
         width="2.8977277"
         height="5.21591"
         x="26.96591"
         y="221.32954" />
    </clipPath>
    <clipPath
       clipPathUnits="userSpaceOnUse"
       id="clipPath6259-6-8-25-4">
      <rect
         style="color:#bebebe;fill:#bebebe;fill-opacity:1;stroke:none;stroke-width:2;marker:none;visibility:visible;display:inline;overflow:visible"
         id="rect6261-4-9-24-2"
         width="1.8762827"
         height="4.8734746"
         x="26.998718"
         y="221.50153" />
    </clipPath>
    <clipPath
       clipPathUnits="userSpaceOnUse"
       id="clipPath6259-6-4">
      <rect
         style="color:#bebebe;fill:#bebebe;fill-opacity:1;stroke:none;stroke-width:2;marker:none;visibility:visible;display:inline;overflow:visible"
         id="rect6261-4-9"
         width="1.8762827"
         height="4.8734746"
         x="26.998718"
         y="221.50153" />
    </clipPath>
    <clipPath
       clipPathUnits="userSpaceOnUse"
       id="clipPath6279-7-9">
      <rect
         style="color:#bebebe;fill:#bebebe;fill-opacity:1;fill-rule:nonzero;stroke:none;stroke-width:2;marker:none;visibility:visible;display:inline;overflow:visible"
         id="rect6281-1-9"
         width="3.8250003"
         height="6.3750005"
         x="26.85"
         y="220.75" />
    </clipPath>
    <clipPath
       clipPathUnits="userSpaceOnUse"
       id="clipPath6265-3-4">
      <rect
         style="color:#bebebe;fill:#bebebe;fill-opacity:1;fill-rule:nonzero;stroke:none;stroke-width:2;marker:none;visibility:visible;display:inline;overflow:visible"
         id="rect6267-1-9"
         width="2.8977277"
         height="5.21591"
         x="26.96591"
         y="221.32954" />
    </clipPath>
    <clipPath
       clipPathUnits="userSpaceOnUse"
       id="clipPath6259-8-81">
      <rect
         style="color:#bebebe;fill:#bebebe;fill-opacity:1;stroke:none;stroke-width:2;marker:none;visibility:visible;display:inline;overflow:visible"
         id="rect6261-6-6"
         width="1.8762827"
         height="4.8734746"
         x="26.998718"
         y="221.50153" />
    </clipPath>
    <clipPath
       clipPathUnits="userSpaceOnUse"
       id="clipPath6279-3">
      <rect
         style="color:#bebebe;fill:#bebebe;fill-opacity:1;fill-rule:nonzero;stroke:none;stroke-width:2;marker:none;visibility:visible;display:inline;overflow:visible"
         id="rect6281-9"
         width="3.8250003"
         height="6.3750005"
         x="26.85"
         y="220.75" />
    </clipPath>
    <clipPath
       clipPathUnits="userSpaceOnUse"
       id="clipPath6265-334">
      <rect
         style="color:#bebebe;fill:#bebebe;fill-opacity:1;fill-rule:nonzero;stroke:none;stroke-width:2;marker:none;visibility:visible;display:inline;overflow:visible"
         id="rect6267-61"
         width="2.8977277"
         height="5.21591"
         x="26.96591"
         y="221.32954" />
    </clipPath>
    <clipPath
       clipPathUnits="userSpaceOnUse"
       id="clipPath6259-5">
      <rect
         style="color:#bebebe;fill:#bebebe;fill-opacity:1;stroke:none;stroke-width:2;marker:none;visibility:visible;display:inline;overflow:visible"
         id="rect6261-61"
         width="1.8762827"
         height="4.8734746"
         x="26.998718"
         y="221.50153" />
    </clipPath>
    <clipPath
       id="clipPath6810-7"
       clipPathUnits="userSpaceOnUse">
      <rect
         y="281"
         x="21"
         height="11"
         width="14"
         id="rect6812-2"
         style="color:#bebebe;fill:none;stroke:#ffffff;stroke-width:2;stroke-linecap:round;stroke-linejoin:round;stroke-miterlimit:4;stroke-opacity:1;stroke-dasharray:none;stroke-dashoffset:0;marker:none;visibility:visible;display:inline;overflow:visible" />
    </clipPath>
    <clipPath
       clipPathUnits="userSpaceOnUse"
       id="clipPath3668">
      <rect
         y="221.50153"
         x="26.998718"
         height="3.3729413"
         width="1.8762826"
         id="rect3670"
         style="color:#bebebe;fill:#bebebe;fill-opacity:1;stroke:none;stroke-width:2;marker:none;visibility:visible;display:inline;overflow:visible" />
    </clipPath>
    <clipPath
       clipPathUnits="userSpaceOnUse"
       id="clipPath3697">
      <path
         style="color:#bebebe;fill:#bebebe;fill-opacity:1;fill-rule:nonzero;stroke:none;stroke-width:2;marker:none;visibility:visible;display:inline;overflow:visible"
         d="m 26.965789,221.32959 0,5.21591 0.579546,0 0,-1.15909 2.318182,0 0,-4.05682 -2.897728,0 z"
         id="path3699" />
    </clipPath>
    <clipPath
       id="clipPath6810-7-87"
       clipPathUnits="userSpaceOnUse">
      <rect
         y="281"
         x="21"
         height="11"
         width="14"
         id="rect6812-2-4"
         style="color:#bebebe;fill:none;stroke:#ffffff;stroke-width:2;stroke-linecap:round;stroke-linejoin:round;stroke-miterlimit:4;stroke-opacity:1;stroke-dasharray:none;stroke-dashoffset:0;marker:none;visibility:visible;display:inline;overflow:visible" />
    </clipPath>
    <inkscape:path-effect
       effect="spiro"
       id="path-effect44198-7"
       is_visible="true" />
    <inkscape:path-effect
       effect="spiro"
       id="path-effect44202-9"
       is_visible="true" />
    <inkscape:path-effect
       effect="spiro"
       id="path-effect8915-0-8-2-7-4-4-8"
       is_visible="true" />
    <radialGradient
       inkscape:collect="always"
       xlink:href="#linearGradient5408"
       id="radialGradient5414"
       cx="-196.78575"
       cy="-28.512899"
       fx="-196.78575"
       fy="-28.512899"
       r="1.607125"
       gradientTransform="matrix(2.9445462,0,0,2.8235465,602.73629,270.04529)"
       gradientUnits="userSpaceOnUse" />
    <inkscape:path-effect
       effect="spiro"
       id="path-effect4601-8"
       is_visible="true" />
    <inkscape:path-effect
       effect="spiro"
       id="path-effect4597-5"
       is_visible="true" />
    <inkscape:path-effect
       effect="spiro"
       id="path-effect3869-0"
       is_visible="true" />
    <inkscape:path-effect
       effect="spiro"
       id="path-effect3097-4"
       is_visible="true" />
    <inkscape:path-effect
       effect="spiro"
       id="path-effect4040-0"
       is_visible="true" />
    <inkscape:path-effect
       is_visible="true"
       id="path-effect4044-4"
       effect="spiro" />
  </defs>
  <g
     transform="translate(-261,-489)"
     id="layer3"
     style="display:inline" />
  <g
     transform="translate(-261,-489)"
     id="layer2"
     style="display:inline">
    <g
       transform="translate(99.9998,334)"
       id="g11578"
       style="display:inline">
      <g
         transform="translate(-93.968752,-337)"
         id="g11582"
         style="display:inline" />
    </g>
  </g>
  <g
     transform="translate(-241.0002,-460)"
     id="layer4"
     style="display:inline">
    <g
       transform="translate(-20.99975,-28)"
       id="layer3-5"
       style="display:inline" />
    <g
       transform="translate(-20.99975,-28)"
       id="layer2-1"
       style="display:inline" />
    <g
       transform="translate(-1,1)"
       id="layer4-4"
       style="display:inline" />
    <g
       transform="translate(-1,244)"
       id="layer5-9" />
    <g
       transform="translate(-20.99975,-28)"
       id="layer1-8"
       style="display:inline" />
  </g>
  <g
     id="layer8"
     transform="translate(-241.0002,-217)" />
  <g
     id="layer7"
     transform="translate(-241.0002,-217)" />
  <g
     id="layer5"
     transform="translate(-241.0002,-217)">
    <g
       transform="translate(14,0)"
       id="g11716" />
  </g>
  <g
     id="layer6"
     transform="translate(-241.0002,-217)" />
  <g
     inkscape:groupmode="layer"
     id="layer9"
     inkscape:label="apps"
     style="display:inline"
     transform="translate(-241.0002,-217)">
    <text
       sodipodi:linespacing="125%"
       id="text6726"
       y="165.94501"
       x="41.823399"
       style="font-size:12px;font-style:normal;font-variant:normal;font-weight:normal;font-stretch:normal;text-align:start;line-height:125%;text-anchor:start;fill:#ffffff;fill-opacity:1;stroke:none;display:inline;font-family:Droid Sans"
       xml:space="preserve"><tspan
         y="165.94501"
         x="41.823399"
         id="tspan6728"
         sodipodi:role="line">apps</tspan></text>
    <g
       transform="translate(-4.9998,-223)"
       inkscape:label="documents"
       id="g11497-6-7-9">
      <rect
         style="opacity:0.51464431;color:#bebebe;fill:none;stroke:none;stroke-width:3;marker:none;visibility:visible;display:inline;overflow:visible;enable-background:accumulate"
         id="rect10727-3-4-6"
         width="16"
         height="16"
         x="48"
         y="398" />
      <path
         inkscape:connector-curvature="0"
         id="path1234"
         d="m 50.812695,399 a 1.0000999,1.0000999 0 0 0 -0.8125,1 l 0,13 a 1.0000999,1.0000999 0 0 0 1,1 l 10,0 a 1.0000999,1.0000999 0 0 0 1,-1 l 0,-9.4375 a 1.0000999,1.0000999 0 0 0 -0.28125,-0.71875 l -3.5625,-3.5625 A 1.0000999,1.0000999 0 0 0 57.437695,399 l -6.4375,0 a 1.0000999,1.0000999 0 0 0 -0.0937,0 1.0000999,1.0000999 0 0 0 -0.0937,0 z m 1.1875,2 5,0 0,3 3,0 0,8 -8,0 0,-11 z"
         style="font-size:medium;font-style:normal;font-variant:normal;font-weight:normal;font-stretch:normal;text-indent:0;text-align:start;text-decoration:none;line-height:normal;letter-spacing:normal;word-spacing:normal;text-transform:none;direction:ltr;block-progression:tb;writing-mode:lr-tb;text-anchor:start;baseline-shift:baseline;color:#000000;fill:#bebebe;fill-opacity:1;stroke:none;stroke-width:1.99999988;marker:none;visibility:visible;display:inline;overflow:visible;enable-background:accumulate;font-family:Sans;-inkscape-font-specification:Sans" />
      <path
         style="color:#000000;fill:none;stroke:#bebebe;stroke-width:0.99999976;stroke-linecap:butt;stroke-linejoin:miter;stroke-miterlimit:4;stroke-opacity:1;stroke-dasharray:none;stroke-dashoffset:0;marker:none;visibility:visible;display:inline;overflow:visible;enable-background:new"
         d="m 55.5,399.5625 0,4.8125 -1.03125,1.03125 -1.03125,-0.90625 0,-2.5625"
         id="path3095"
         inkscape:path-effect="#path-effect3097-4"
         inkscape:original-d="m 55.5,399.5625 0,4.8125 -1.03125,1.03125 -1.03125,-0.90625 0,-2.5625"
         inkscape:connector-curvature="0"
         sodipodi:nodetypes="ccccc" />
      <path
         style="color:#000000;fill:none;stroke:#bebebe;stroke-width:0.99999976;stroke-linecap:butt;stroke-linejoin:miter;stroke-miterlimit:4;stroke-opacity:1;stroke-dasharray:none;stroke-dashoffset:0;marker:none;visibility:visible;display:inline;overflow:visible;enable-background:new"
         d="m 51.5625,407.5 6.9375,0 0,-4.125"
         id="path3867"
         inkscape:path-effect="#path-effect3869-0"
         inkscape:original-d="m 51.5625,407.5 6.9375,0 0,-4.125"
         inkscape:connector-curvature="0"
         sodipodi:nodetypes="ccc" />
    </g>
    <g
       id="g3898"
       inkscape:label="boxes"
       transform="translate(15.0002,-223)">
      <rect
         y="398"
         x="48"
         height="16"
         width="16"
         id="rect3900"
         style="opacity:0.51464431;color:#bebebe;fill:none;stroke:none;stroke-width:3;marker:none;visibility:visible;display:inline;overflow:visible;enable-background:accumulate" />
      <path
         sodipodi:type="arc"
         style="color:#000000;fill:#bebebe;stroke:none;stroke-width:0.99999976000000002;stroke-linecap:butt;stroke-linejoin:miter;stroke-miterlimit:4;stroke-opacity:1;stroke-dasharray:none;stroke-dashoffset:0;marker:none;visibility:visible;display:inline;overflow:visible;enable-background:new;fill-opacity:1"
         id="path3908"
         sodipodi:cx="-176.01562"
         sodipodi:cy="-39.984375"
         sodipodi:rx="2.015625"
         sodipodi:ry="2.015625"
         d="m -174,-39.984375 c 0,1.113199 -0.90243,2.015625 -2.01562,2.015625 -1.1132,0 -2.01563,-0.902426 -2.01563,-2.015625 0,-1.113199 0.90243,-2.015625 2.01563,-2.015625 1.11319,0 2.01562,0.902426 2.01562,2.015625 z"
         transform="translate(226,440)" />
      <path
         transform="translate(226,451.9375)"
         d="m -174,-39.984375 c 0,1.113199 -0.90243,2.015625 -2.01562,2.015625 -1.1132,0 -2.01563,-0.902426 -2.01563,-2.015625 0,-1.113199 0.90243,-2.015625 2.01563,-2.015625 1.11319,0 2.01562,0.902426 2.01562,2.015625 z"
         sodipodi:ry="2.015625"
         sodipodi:rx="2.015625"
         sodipodi:cy="-39.984375"
         sodipodi:cx="-176.01562"
         id="path3910"
         style="color:#000000;fill:#bebebe;fill-opacity:1;stroke:none;stroke-width:0.99999976000000002;marker:none;visibility:visible;display:inline;overflow:visible;enable-background:new;fill-rule:nonzero"
         sodipodi:type="arc" />
      <path
         sodipodi:type="arc"
         style="color:#000000;fill:#bebebe;fill-opacity:1;stroke:none;stroke-width:0.99999976000000002;marker:none;visibility:visible;display:inline;overflow:visible;enable-background:new;fill-rule:nonzero"
         id="path3912"
         sodipodi:cx="-176.01562"
         sodipodi:cy="-39.984375"
         sodipodi:rx="2.015625"
         sodipodi:ry="2.015625"
         d="m -174,-39.984375 c 0,1.113199 -0.90243,2.015625 -2.01562,2.015625 -1.1132,0 -2.01563,-0.902426 -2.01563,-2.015625 0,-1.113199 0.90243,-2.015625 2.01563,-2.015625 1.11319,0 2.01562,0.902426 2.01562,2.015625 z"
         transform="translate(238,451.9375)" />
      <path
         transform="translate(238,439.96875)"
         d="m -174,-39.984375 c 0,1.113199 -0.90243,2.015625 -2.01562,2.015625 -1.1132,0 -2.01563,-0.902426 -2.01563,-2.015625 0,-1.113199 0.90243,-2.015625 2.01563,-2.015625 1.11319,0 2.01562,0.902426 2.01562,2.015625 z"
         sodipodi:ry="2.015625"
         sodipodi:rx="2.015625"
         sodipodi:cy="-39.984375"
         sodipodi:cx="-176.01562"
         id="path3914"
         style="color:#000000;fill:#bebebe;fill-opacity:1;stroke:none;stroke-width:0.99999976000000002;marker:none;visibility:visible;display:inline;overflow:visible;enable-background:new;fill-rule:nonzero"
         sodipodi:type="arc" />
      <rect
         style="color:#000000;fill:none;fill-opacity:1;fill-rule:nonzero;stroke:#bebebe;stroke-width:2;marker:none;visibility:visible;display:inline;overflow:visible;enable-background:new;stroke-opacity:1;stroke-miterlimit:4;stroke-dasharray:none"
         id="rect3916"
         width="11.96875"
         height="11.96875"
         x="-175.96875"
         y="-39.96875"
         transform="translate(226,440)" />
      <rect
         style="color:#000000;fill:none;stroke:#bebebe;stroke-width:0.9999997;stroke-opacity:1;marker:none;visibility:visible;display:inline;overflow:visible;enable-background:new"
         id="rect3918"
         width="5.0625"
         height="5"
         x="53.4375"
         y="403.5" />
      <path
         sodipodi:type="arc"
         style="color:#000000;fill:#bebebe;fill-opacity:1;stroke:none;stroke-width:0.99999976;marker:none;visibility:visible;display:inline;overflow:visible;enable-background:new"
         id="path3937"
         sodipodi:cx="-167.76562"
         sodipodi:cy="-31.765625"
         sodipodi:rx="1.265625"
         sodipodi:ry="1.265625"
         d="m -166.5,-31.765625 c 0,0.698985 -0.56664,1.265625 -1.26562,1.265625 -0.69899,0 -1.26563,-0.56664 -1.26563,-1.265625 0,-0.698985 0.56664,-1.265625 1.26563,-1.265625 0.69898,0 1.26562,0.56664 1.26562,1.265625 z"
         transform="matrix(1.1975309,0,0,1.1975309,259.38889,446.52469)" />
      <path
         transform="matrix(1.1975309,0,0,1.1975309,254.38889,446.52469)"
         d="m -166.5,-31.765625 c 0,0.698985 -0.56664,1.265625 -1.26562,1.265625 -0.69899,0 -1.26563,-0.56664 -1.26563,-1.265625 0,-0.698985 0.56664,-1.265625 1.26563,-1.265625 0.69898,0 1.26562,0.56664 1.26562,1.265625 z"
         sodipodi:ry="1.265625"
         sodipodi:rx="1.265625"
         sodipodi:cy="-31.765625"
         sodipodi:cx="-167.76562"
         id="path3939"
         style="color:#000000;fill:#bebebe;fill-opacity:1;stroke:none;stroke-width:0.99999976;marker:none;visibility:visible;display:inline;overflow:visible;enable-background:new"
         sodipodi:type="arc" />
      <path
         sodipodi:type="arc"
         style="color:#000000;fill:#bebebe;fill-opacity:1;stroke:none;stroke-width:0.99999976;marker:none;visibility:visible;display:inline;overflow:visible;enable-background:new"
         id="path3941"
         sodipodi:cx="-167.76562"
         sodipodi:cy="-31.765625"
         sodipodi:rx="1.265625"
         sodipodi:ry="1.265625"
         d="m -166.5,-31.765625 c 0,0.698985 -0.56664,1.265625 -1.26562,1.265625 -0.69899,0 -1.26563,-0.56664 -1.26563,-1.265625 0,-0.698985 0.56664,-1.265625 1.26563,-1.265625 0.69898,0 1.26562,0.56664 1.26562,1.265625 z"
         transform="matrix(1.1975309,0,0,1.1975309,254.38889,441.55594)" />
      <path
         transform="matrix(1.1975309,0,0,1.1975309,259.45139,441.55594)"
         d="m -166.5,-31.765625 c 0,0.698985 -0.56664,1.265625 -1.26562,1.265625 -0.69899,0 -1.26563,-0.56664 -1.26563,-1.265625 0,-0.698985 0.56664,-1.265625 1.26563,-1.265625 0.69898,0 1.26562,0.56664 1.26562,1.265625 z"
         sodipodi:ry="1.265625"
         sodipodi:rx="1.265625"
         sodipodi:cy="-31.765625"
         sodipodi:cx="-167.76562"
         id="path3943"
         style="color:#000000;fill:#bebebe;fill-opacity:1;stroke:none;stroke-width:0.99999976;marker:none;visibility:visible;display:inline;overflow:visible;enable-background:new"
         sodipodi:type="arc" />
      <path
         style="color:#000000;fill:none;fill-opacity:1;fill-rule:nonzero;stroke:#bebebe;stroke-width:0.99999976000000002;marker:none;visibility:visible;display:inline;overflow:visible;enable-background:new;stroke-opacity:1"
         d="m -167.49592,-31.464543 3.42505,3.425049"
         id="path3945"
         inkscape:path-effect="#path-effect3947"
         inkscape:original-d="m -167.49592,-31.464543 3.42505,3.425049"
         inkscape:connector-curvature="0"
         transform="translate(226,440)" />
      <path
         inkscape:connector-curvature="0"
         inkscape:original-d="m 53.92913,408.53546 -3.42505,3.42505"
         inkscape:path-effect="#path-effect3951"
         id="path3949"
         d="m 53.92913,408.53546 -3.42505,3.42505"
         style="color:#000000;fill:none;stroke:#bebebe;stroke-width:0.99999976;stroke-opacity:1;marker:none;visibility:visible;display:inline;overflow:visible;enable-background:new" />
      <path
         inkscape:connector-curvature="0"
         inkscape:original-d="m 58.50408,403.96051 3.42505,-3.42505"
         inkscape:path-effect="#path-effect3957"
         id="path3953"
         d="m 58.50408,403.96051 3.42505,-3.42505"
         style="color:#000000;fill:none;stroke:#bebebe;stroke-width:0.99999976;stroke-opacity:1;marker:none;visibility:visible;display:inline;overflow:visible;enable-background:new" />
      <path
         style="color:#000000;fill:none;stroke:#bebebe;stroke-width:0.99999976;stroke-opacity:1;marker:none;visibility:visible;display:inline;overflow:visible;enable-background:new"
         d="m 53.92913,403.96051 -3.42505,-3.42505"
         id="path3955"
         inkscape:path-effect="#path-effect3959"
         inkscape:original-d="m 53.92913,403.96051 -3.42505,-3.42505"
         inkscape:connector-curvature="0" />
    </g>
    <g
       transform="translate(35.0002,-223)"
       inkscape:label="devhelp"
       id="g3961">
      <rect
         style="opacity:0.51464431;color:#bebebe;fill:none;stroke:none;stroke-width:3;marker:none;visibility:visible;display:inline;overflow:visible;enable-background:accumulate"
         id="rect3963"
         width="16"
         height="16"
         x="48"
         y="398" />
      <path
         style="color:#000000;fill:#bebebe;fill-opacity:1;stroke:none;stroke-width:0.99999976;marker:none;visibility:visible;display:inline;overflow:visible;enable-background:new"
         d="m -153.61075,-40.9375 c -0.85693,0.0028 -2.358,0.913597 -2.358,2.521828 l 0,9.853172 c 0,0.85692 0.70558,1.5625 1.5625,1.5625 l 9.4375,0 c 1.125,0.03125 0.93388,-0.98875 0.93388,-0.98875 l -9.33599,0.0253 c -2.28266,0.0062 -2.08441,-2.991236 -0.0372,-2.99375 l 9.40809,-0.01155 0.0312,-10 z m 0.63848,1.875 2.6875,0 c 3.31698,0 4.27148,1.263093 4.25,3.03125 -0.03,2.467798 -2.19062,3.011827 -4.81434,3.103464 -0.62199,0.02172 -1.50599,0.02154 -2.12316,0.02154 z m 2.03125,1.0625 0,4.03125 c 1.94269,0.02302 2.99796,-0.683252 3,-2.0625 0.003,-1.76848 -1.24077,-1.938279 -3,-1.96875 z"
         transform="translate(206,440)"
         id="rect3993"
         inkscape:connector-curvature="0"
         sodipodi:nodetypes="ssssccssccscsssccccsc" />
      <g
         transform="matrix(0.28893613,0,0,0.28893613,95.491581,418.94283)"
         style="font-size:40px;font-style:normal;font-variant:normal;font-weight:bold;font-stretch:normal;text-align:start;line-height:125%;letter-spacing:0px;word-spacing:0px;writing-mode:lr-tb;text-anchor:start;fill:#000000;fill-opacity:1;stroke:none;font-family:Cantarell;-inkscape-font-specification:Cantarell Bold"
         id="text3998" />
      <path
         style="opacity:0.3;color:#000000;fill:#bebebe;fill-opacity:1;fill-rule:nonzero;stroke:none;stroke-width:0.99999976;marker:none;visibility:visible;display:inline;overflow:visible;enable-background:new"
         d="m 50.52067,409.0625 10.44808,0 c -1.18379,0.49216 -1.2956,2.4585 0,3 l -10.44808,0 z"
         id="rect4006"
         inkscape:connector-curvature="0"
         sodipodi:nodetypes="ccccc" />
    </g>
    <g
       style="display:inline"
       transform="translate(83.0002,-121)"
       inkscape:label="evolution"
       id="g35627">
      <rect
         style="color:#bebebe;fill:none;stroke:none;stroke-width:2;marker:none;visibility:visible;display:inline;overflow:visible;opacity:1"
         id="rect35629"
         width="16"
         height="16"
         x="19.99975"
         y="296" />
      <path
         style="font-size:medium;font-style:normal;font-variant:normal;font-weight:normal;font-stretch:normal;text-indent:0;text-align:start;text-decoration:none;line-height:normal;letter-spacing:normal;word-spacing:normal;text-transform:none;direction:ltr;block-progression:tb;writing-mode:lr-tb;text-anchor:start;baseline-shift:baseline;color:#000000;fill:#bebebe;fill-opacity:1;stroke:none;stroke-width:1;marker:none;visibility:visible;display:inline;overflow:visible;enable-background:accumulate;font-family:Sans;-inkscape-font-specification:Sans"
         d="m -130.125,-42 c -0.18579,0.03388 -0.36142,0.121699 -0.5,0.25 l -4.90625,4 c -0.0212,0.0097 -0.042,0.02011 -0.0625,0.03125 0,0 -0.32587,0.29728 -0.65625,0.75 -0.46317,0.581902 -0.66609,1.072125 -0.74995,1.90625 -5.1e-4,0.0118 3.6e-4,0.01945 0,0.03125 -1.6e-4,0.01042 -1.6e-4,0.02083 0,0.03125 -0.004,0.05198 -0.004,0.104273 0,0.15625 L -137,-27 c 5e-5,0.523584 0.47642,0.999948 1,1 l 7.19232,0 c -0.75614,-0.403918 -1.44709,-1.326309 -1.75482,-2 l -4.4375,0 0,-6.625 4.03125,3.03125 0.44194,-0.887259 c -1.35833,-1.094281 -2.76946,-2.123053 -4.16069,-3.175241 0.0259,-0.03937 0.0349,-0.08718 0.0625,-0.125 0.1908,-0.26146 0.31874,-0.41421 0.34375,-0.4375 l 0.0312,-0.03125 4.25,-3.46875 4.3125,3.53125 0.0312,0.03125 c 0.021,0.0255 0.18032,0.249516 0.34375,0.5 l -1.3847,1.099762 c 0.60223,-0.161456 1.11916,-0.109636 1.60412,0.0221 l 0.5984,-0.453459 0.0172,0.425347 c 0.44657,0.243302 0.87083,0.46429 1.47761,0.867799 0,-2.089013 -0.37164,-2.989486 -1.37495,-3.992799 -0.0102,-0.01064 -0.0206,-0.02107 -0.0312,-0.03125 L -129.375,-41.75 c -0.17939,-0.158201 -0.41707,-0.248747 -0.65625,-0.25 -0.0312,-0.0015 -0.0625,-0.0015 -0.0937,0 z"
         transform="translate(158,338)"
         id="path35631"
         inkscape:connector-curvature="0"
         sodipodi:nodetypes="cccccccccccccccccccccccccccccccccccc" />
      <path
         style="color:#000000;fill:#bebebe;fill-opacity:1;fill-rule:nonzero;stroke:#bebebe;stroke-width:0.99999976;stroke-opacity:1;marker:none;visibility:visible;display:inline;overflow:visible;enable-background:new"
         d="m 26.375,305.375 -3.037,5.13972"
         id="path4038"
         inkscape:path-effect="#path-effect4040-0"
         inkscape:original-d="m 26.375,305.375 -3.037,5.13972"
         inkscape:connector-curvature="0"
         sodipodi:nodetypes="cc" />
      <path
         style="color:#000000;fill:#bebebe;fill-opacity:1;fill-rule:nonzero;stroke:none;stroke-width:0.99999976;marker:none;visibility:visible;display:inline;overflow:visible;enable-background:new"
         d="m 31.99982,304.03089 c -2.20755,0 -4.01563,1.7772 -4.01563,3.98474 0,2.20753 1.80808,3.98473 4.01563,3.98473 2.20754,0 3.98474,-1.7772 3.98474,-3.98473 0,-2.20754 -1.7772,-3.98474 -3.98474,-3.98474 z m -0.55709,0.95757 c 0.29815,-0.0579 0.61142,0.22239 0.5869,0.52512 l 0,2.81094 1.32824,1.32824 c 0.372,0.372 -0.34245,1.0864 -0.71046,0.71046 l -1.48269,-1.48269 -0.12355,-0.15445 0,-0.21622 0,-2.99628 c -0.0107,-0.21455 0.13563,-0.42734 0.33977,-0.49423 0.0198,-0.0117 0.0405,-0.0221 0.0618,-0.0309 z"
         id="path4073"
         inkscape:connector-curvature="0"
         sodipodi:nodetypes="ssssscccssccccccc" />
    </g>
    <g
       id="g3108"
       inkscape:label="shotwell"
       transform="translate(103.0002,-121)"
       style="display:inline">
      <rect
         y="296"
         x="19.99975"
         height="16"
         width="16"
         id="rect3110"
         style="color:#bebebe;fill:none;stroke:none;stroke-width:2;marker:none;visibility:visible;display:inline;overflow:visible" />
      <path
         style="color:#000000;fill:#bebebe;fill-opacity:1;fill-rule:nonzero;stroke:none;stroke-width:1;marker:none;visibility:visible;display:inline;overflow:visible;enable-background:new"
         d="m -108,-39.5 0,-1.4375 -8.90625,0 0,11.03125 3.75,0 -0.875,-3.0625 -2,0 0,-7.03125 7.0625,0 0,0.75 z"
         transform="translate(138,338)"
         id="rect3118"
         inkscape:connector-curvature="0"
         sodipodi:nodetypes="ccccccccccc" />
      <path
         id="path3123"
         d="m 23.942938,301.0217 2.731182,10.19291 8.229406,-2.20506 -2.731182,-10.19291 -8.229406,2.20506 z m 1.040615,0.64961 6.525774,-1.74857 1.740839,6.4969 -6.525774,1.74858 -1.740839,-6.49691 z"
         style="color:#000000;fill:#bebebe;fill-opacity:1;fill-rule:nonzero;stroke:none;stroke-width:1;marker:none;visibility:visible;display:inline;overflow:visible;enable-background:new"
         inkscape:connector-curvature="0" />
    </g>
  </g>
  <text
     xml:space="preserve"
     style="font-size:40px;font-style:normal;font-variant:normal;font-weight:normal;font-stretch:normal;text-align:start;line-height:125%;letter-spacing:0px;word-spacing:0px;writing-mode:lr-tb;text-anchor:start;fill:#eeeeec;fill-opacity:1;stroke:none;font-family:Cantarell;-inkscape-font-specification:Cantarell"
     x="-199"
     y="-128"
     id="text4574"
     sodipodi:linespacing="125%"><tspan
       sodipodi:role="line"
       id="tspan4576"
       x="-199"
       y="-128">Symbolic App Icons</tspan></text>
</svg>
