<?xml version="1.0" encoding="UTF-8" standalone="no"?>
<!-- Created with Inkscape (http://www.inkscape.org/) -->

<svg
   xmlns:dc="http://purl.org/dc/elements/1.1/"
   xmlns:cc="http://creativecommons.org/ns#"
   xmlns:rdf="http://www.w3.org/1999/02/22-rdf-syntax-ns#"
   xmlns:svg="http://www.w3.org/2000/svg"
   xmlns="http://www.w3.org/2000/svg"
   xmlns:sodipodi="http://sodipodi.sourceforge.net/DTD/sodipodi-0.dtd"
   xmlns:inkscape="http://www.inkscape.org/namespaces/inkscape"
   width="16px"
   height="16px"
   id="svg6858"
   version="1.1"
   inkscape:version="0.48.4 r9939"
   sodipodi:docname="New document 5">
  <defs
     id="defs6860" />
  <sodipodi:namedview
     id="base"
     pagecolor="#ffffff"
     bordercolor="#666666"
     borderopacity="1.0"
     inkscape:pageopacity="0.0"
     inkscape:pageshadow="2"
     inkscape:zoom="16"
     inkscape:cx="16.278833"
     inkscape:cy="15.644882"
     inkscape:current-layer="layer1"
     showgrid="false"
     inkscape:grid-bbox="true"
     inkscape:document-units="px"
     inkscape:snap-nodes="false"
     inkscape:snap-bbox="true"
     objecttolerance="10000"
     gridtolerance="10000"
     guidetolerance="10000"
     inkscape:window-width="1600"
     inkscape:window-height="841"
     inkscape:window-x="0"
     inkscape:window-y="27"
     inkscape:window-maximized="1">
    <inkscape:grid
       type="xygrid"
       id="grid6866"
       empspacing="5"
       visible="true"
       enabled="true"
       snapvisiblegridlinesonly="true" />
  </sodipodi:namedview>
  <metadata
     id="metadata6863">
    <rdf:RDF>
      <cc:Work
         rdf:about="">
        <dc:format>image/svg+xml</dc:format>
        <dc:type
           rdf:resource="http://purl.org/dc/dcmitype/StillImage" />
        <dc:title></dc:title>
      </cc:Work>
    </rdf:RDF>
  </metadata>
  <g
     id="layer1"
     inkscape:label="Layer 1"
     inkscape:groupmode="layer">
    <path
       sodipodi:type="arc"
       style="fill:#eeeeec;fill-opacity:1;stroke:none"
       id="path7935-8"
       sodipodi:cx="4.695631"
       sodipodi:cy="2.8190875"
       sodipodi:rx="2.3975339"
       sodipodi:ry="2.3975339"
       d="m 7.0931649,2.8190875 a 2.3975339,2.3975339 0 1 1 -4.7950678,0 2.3975339,2.3975339 0 1 1 4.7950678,0 z"
       transform="matrix(1.0427381,0,0,1.0427381,6.6036867,0.56042999)" />
    <path
       sodipodi:type="arc"
       style="fill:#eeeeec;fill-opacity:1;stroke:none"
       id="path7935"
       sodipodi:cx="4.695631"
       sodipodi:cy="2.8190875"
       sodipodi:rx="2.3975339"
       sodipodi:ry="2.3975339"
       d="m 7.0931649,2.8190875 a 2.3975339,2.3975339 0 1 1 -4.7950678,0 2.3975339,2.3975339 0 1 1 4.7950678,0 z"
       transform="matrix(1.0427381,0,0,1.0427381,-0.39631349,0.56042998)" />
    <path
       style="fill:#d3d7cf;fill-opacity:1;stroke:none"
       d="M 25.5,2 C 24.677495,2 24,2.6774952 24,3.5 c 0,0.6511496 0.413878,1.1999649 1,1.40625 -0.0026,0.042481 0,0.081815 0,0.125 L 25,6 24,6 24,3.5 24,3 l -1,0 0,1 -1,0 0,1 1,0 0,2 2,0 0,1 -2,0 0,2 -1,0 0,1 1,0 0,1 1,0 0,-3 1,0 0,1.96875 C 25,12.098194 25.901806,13 27.03125,13 l 0.9375,0 C 29.098194,13 30,12.098194 30,10.96875 L 30,9 l 1,0 0,3 1,0 0,-1 1,0 0,-1 -1,0 0,-2 -2,0 0,-1 2,0 0,-2 1,0 0,-1 -1,0 0,-1 -1,0 0,0.5 0,2.5 -1,0 0,-0.96875 C 30,4.988065 30.0026,4.948752 30,4.90625 30.583276,4.6999649 31,4.1511496 31,3.5 31,2.6774952 30.322505,2 29.5,2 28.848851,2 28.300035,2.4167242 28.09375,3 l -1.1875,0 C 26.702811,2.4167242 26.15115,2 25.5,2 z m 0,1 C 25.782065,3 26,3.2179354 26,3.5 26,3.7820647 25.782065,4 25.5,4 25.217935,4 25,3.7820647 25,3.5 25,3.2179354 25.217935,3 25.5,3 z m 4,0 C 29.782065,3 30,3.2179354 30,3.5 30,3.7820647 29.782065,4 29.5,4 29.217936,4 29,3.7820647 29,3.5 29,3.2179354 29.217936,3 29.5,3 z m -2,3 C 27.776142,6 28,6.2238576 28,6.5 28,6.7761424 27.776142,7 27.5,7 27.223858,7 27,6.7761424 27,6.5 27,6.2238576 27.223858,6 27.5,6 z m 0,2 C 27.776142,8 28,8.2238576 28,8.5 28,8.7761424 27.776142,9 27.5,9 27.223858,9 27,8.7761424 27,8.5 27,8.2238576 27.223858,8 27.5,8 z m 0,2 C 27.776142,10 28,10.223858 28,10.5 28,10.776142 27.776142,11 27.5,11 27.223858,11 27,10.776142 27,10.5 27,10.223858 27.223858,10 27.5,10 z"
       id="rect7427"
       inkscape:connector-curvature="0" />
    <path
       style="fill:#d3d7cf;fill-opacity:1;stroke:none"
       d="M 4.5,2 C 3.6715729,2 3,2.6715728 3,3.5 3,4.3284272 3.6715729,5 4.5,5 5.3284271,5 6,4.3284272 6,3.5 6,2.6715728 5.3284271,2 4.5,2 z m 7,0 C 10.671573,2 10,2.6715728 10,3.5 10,4.3284272 10.671573,5 11.5,5 12.328427,5 13,4.3284272 13,3.5 13,2.6715728 12.328427,2 11.5,2 z M 1,3 1,4 0,4 0,5 1,5 1,8 4,8 4,9 1,9 l 0,3 -1,0 0,1 1,0 0,1 1,0 0,-4 2,0 0,2.90625 C 4,14.066187 4.9338125,15 6.09375,15 l 3.8125,0 C 11.066187,15 12,14.066187 12,12.90625 L 12,10 l 2,0 0,4 1,0 0,-1 1,0 0,-1 -1,0 0,-3 -3,0 0,-1 3,0 0,-3 1,0 0,-1 -1,0 0,-1 -1,0 0,4 -2,0 0,-1.0625 c -0.155711,0.030433 -0.302912,0.03125 -0.46875,0.03125 -1.414784,0 -2.5625,-1.1600488 -2.5625,-2.5 0,-0.1674939 0.02858,-0.3098441 0.0625,-0.46875 l -2.0625,0 c 0.032602,0.1589059 0.0625,0.3012561 0.0625,0.46875 0,1.3399512 -1.0852156,2.5 -2.5,2.5 C 4.354402,5.96875 4.1665556,5.9719874 4,5.9375 L 4,7 2,7 2,3 1,3 z M 7.96875,7 C 8.50704,7 8.9375,7.4477152 8.9375,8 8.9375,8.5522848 8.50704,9 7.96875,9 7.43046,9 7,8.5522848 7,8 7,7.4477152 7.43046,7 7.96875,7 z m 0.0625,3 C 8.56954,10 9,10.447715 9,11 9,11.552285 8.56954,12 8.03125,12 7.49296,12 7.0625,11.552285 7.0625,11 c 0,-0.552285 0.43046,-1 0.96875,-1 z"
       id="path7713"
       inkscape:connector-curvature="0" />
    <path
       style="fill:#d3d7cf;fill-opacity:1;stroke:none"
       d="M 45.5 2 C 44.677495 2 44 2.6774952 44 3.5 C 44 4.1511496 44.413878 4.6999649 45 4.90625 C 44.9974 4.948731 45 4.988065 45 5.03125 L 45 6 L 43 6 L 43 3 L 42 3 L 42 4 L 41 4 L 41 5 L 42 5 L 42 7 L 45 7 L 45 8 L 42 8 L 42 10 L 41 10 L 41 11 L 42 11 L 42 12 L 43 12 L 43 9 L 45 9 L 45 10.96875 C 45 12.098194 45.901806 13 47.03125 13 L 47.96875 13 C 49.098194 13 50 12.098194 50 10.96875 L 50 9 L 52 9 L 52 12 L 53 12 L 53 11 L 54 11 L 54 10 L 53 10 L 53 8 L 50 8 L 50.03125 7 L 53 7 L 53 6.46875 L 53 6 L 53 5 L 54 5 L 54 4 L 53 4 L 53 3 L 52 3 L 52 6 L 51 6 L 50 6 L 50 5.03125 C 50 4.988065 50.0026 4.948752 50 4.90625 C 50.583276 4.6999649 51 4.1511496 51 3.5 C 51 2.6774952 50.322505 2 49.5 2 C 48.848851 2 48.300035 2.4167242 48.09375 3 L 46.90625 3 C 46.702811 2.4167242 46.15115 2 45.5 2 z M 45.5 3 C 45.782065 3 46 3.2179354 46 3.5 C 46 3.7820647 45.782065 4 45.5 4 C 45.217935 4 45 3.7820647 45 3.5 C 45 3.2179354 45.217935 3 45.5 3 z M 49.5 3 C 49.782065 3 50 3.2179354 50 3.5 C 50 3.7820647 49.782065 4 49.5 4 C 49.217936 4 49 3.7820647 49 3.5 C 49 3.2179354 49.217936 3 49.5 3 z M 47.5 6 C 47.776142 6 48 6.2238576 48 6.5 C 48 6.7761424 47.776142 7 47.5 7 C 47.223858 7 47 6.7761424 47 6.5 C 47 6.2238576 47.223858 6 47.5 6 z M 47.5 8 C 47.776142 8 48 8.2238576 48 8.5 C 48 8.7761424 47.776142 9 47.5 9 C 47.223858 9 47 8.7761424 47 8.5 C 47 8.2238576 47.223858 8 47.5 8 z M 47.5 10 C 47.776142 10 48 10.223858 48 10.5 C 48 10.776142 47.776142 11 47.5 11 C 47.223858 11 47 10.776142 47 10.5 C 47 10.223858 47.223858 10 47.5 10 z "
       id="rect7427-6" />
  </g>
</svg>
