<?xml version="1.0" encoding="UTF-8" standalone="no"?>
<!-- Created with Inkscape (http://www.inkscape.org/) -->

<svg
   xmlns:dc="http://purl.org/dc/elements/1.1/"
   xmlns:cc="http://creativecommons.org/ns#"
   xmlns:rdf="http://www.w3.org/1999/02/22-rdf-syntax-ns#"
   xmlns:svg="http://www.w3.org/2000/svg"
   xmlns="http://www.w3.org/2000/svg"
   xmlns:sodipodi="http://sodipodi.sourceforge.net/DTD/sodipodi-0.dtd"
   xmlns:inkscape="http://www.inkscape.org/namespaces/inkscape"
   width="16px"
   height="16px"
   id="svg6558"
   version="1.1"
   inkscape:version="0.48.4 r9939"
   sodipodi:docname="gnome-weather.svg">
  <defs
     id="defs6560" />
  <sodipodi:namedview
     id="base"
     pagecolor="#ffffff"
     bordercolor="#666666"
     borderopacity="1.0"
     inkscape:pageopacity="0.0"
     inkscape:pageshadow="2"
     inkscape:zoom="22.197802"
     inkscape:cx="7.1440594"
     inkscape:cy="8"
     inkscape:current-layer="g4158"
     showgrid="false"
     inkscape:grid-bbox="true"
     inkscape:document-units="px"
     inkscape:snap-nodes="false"
     inkscape:snap-bbox="true"
     inkscape:window-width="1600"
     inkscape:window-height="834"
     inkscape:window-x="0"
     inkscape:window-y="27"
     inkscape:window-maximized="1">
    <inkscape:grid
       type="xygrid"
       id="grid8250" />
  </sodipodi:namedview>
  <metadata
     id="metadata6563">
    <rdf:RDF>
      <cc:Work
         rdf:about="">
        <dc:format>image/svg+xml</dc:format>
        <dc:type
           rdf:resource="http://purl.org/dc/dcmitype/StillImage" />
        <dc:title />
      </cc:Work>
    </rdf:RDF>
  </metadata>
  <g
     id="layer1"
     inkscape:label="Layer 1"
     inkscape:groupmode="layer">
    <g
       style="display:inline;fill:#2e3436"
       id="g4158"
       inkscape:label="weather-few-clouds"
       transform="translate(-121,-277)">
      <path
         inkscape:connector-curvature="0"
         id="path552"
         d="m 129,280 c -2.74958,0 -5,2.25041 -5,5 0,1.78334 0.9576,3.36255 2.375,4.25 0.16853,-0.0758 0.34883,-0.13986 0.53125,-0.1875 0.22859,-1.81667 1.71945,-3.25 3.59375,-3.25 1.00251,0 1.83852,0.47365 2.5,1.125 0.175,-0.0333 0.30776,-0.125 0.5,-0.125 0.0432,0 0.0823,-0.002 0.125,0 0.22408,-0.56633 0.375,-1.16979 0.375,-1.8125 0,-2.74959 -2.25042,-5 -5,-5 z"
         style="font-size:medium;font-style:normal;font-variant:normal;font-weight:normal;font-stretch:normal;text-indent:0;text-align:start;text-decoration:none;line-height:normal;letter-spacing:normal;word-spacing:normal;text-transform:none;direction:ltr;block-progression:tb;writing-mode:lr-tb;text-anchor:start;color:#bebebe;fill:#2e3436;fill-opacity:1;fill-rule:nonzero;stroke:none;stroke-width:2.20970368000000006;marker:none;visibility:visible;display:inline;overflow:visible;enable-background:new;font-family:Sans;-inkscape-font-specification:Sans" />
      <g
         transform="translate(40,0)"
         id="g4927"
         style="fill:#2e3436">
        <rect
           style="color:#bebebe;fill:#2e3436;fill-opacity:1;fill-rule:nonzero;stroke:none;stroke-width:2;marker:none;visibility:visible;display:inline;overflow:visible;enable-background:new"
           id="rect4906"
           width="2"
           height="2"
           x="81"
           y="284"
           rx="0.5625"
           ry="0.5625" />
        <rect
           style="color:#bebebe;fill:#2e3436;fill-opacity:1;fill-rule:nonzero;stroke:none;stroke-width:2;marker:none;visibility:visible;display:inline;overflow:visible;enable-background:new"
           id="rect4906-4"
           width="2"
           height="2"
           x="95"
           y="284"
           rx="0.5625"
           ry="0.5625" />
      </g>
      <g
         id="use4998"
         transform="matrix(0,1,-1,0,414,196)"
         style="fill:#2e3436">
        <rect
           ry="0.5625"
           rx="0.5625"
           y="284"
           x="81"
           height="2"
           width="2"
           id="rect4088"
           style="color:#bebebe;fill:#2e3436;fill-opacity:1;fill-rule:nonzero;stroke:none;stroke-width:2;marker:none;visibility:visible;display:inline;overflow:visible;enable-background:new" />
      </g>
      <g
         style="color:#000000;fill:#2e3436;fill-opacity:1;fill-rule:nonzero;stroke-width:1;stroke-linecap:butt;stroke-linejoin:miter;stroke-miterlimit:4;stroke-opacity:1;stroke-dasharray:none;stroke-dashoffset:0;marker:none;visibility:visible"
         id="use4998-8"
         transform="matrix(-0.70710678,0.70710678,-0.70710678,-0.70710678,393.45795,423.59292)">
        <rect
           ry="0.5625"
           rx="0.5625"
           y="284"
           x="81"
           height="2"
           width="2"
           id="rect4075"
           style="color:#bebebe;fill:#2e3436;fill-opacity:1;fill-rule:nonzero;stroke:none;stroke-width:2;marker:none;visibility:visible;display:inline;overflow:visible;enable-background:new" />
        <rect
           ry="0.5625"
           rx="0.5625"
           y="284"
           x="95"
           height="2"
           width="2"
           id="rect4077"
           style="color:#bebebe;fill:#2e3436;fill-opacity:1;fill-rule:nonzero;stroke:none;stroke-width:2;marker:none;visibility:visible;display:inline;overflow:visible;enable-background:new" />
      </g>
      <g
         id="use4998-2"
         transform="matrix(0.70710678,0.70710678,-0.70710678,0.70710678,267.59292,20.542064)"
         style="fill:#2e3436">
        <rect
           ry="0.5625"
           rx="0.5625"
           y="284"
           x="81"
           height="2"
           width="2"
           id="rect4081"
           style="color:#bebebe;fill:#2e3436;fill-opacity:1;fill-rule:nonzero;stroke:none;stroke-width:2;marker:none;visibility:visible;display:inline;overflow:visible;enable-background:new" />
      </g>
      <g
         transform="translate(-60,-39)"
         id="g5609"
         style="fill:#2e3436">
        <path
           style="color:#000000;fill:#2e3436;fill-opacity:1;stroke:none;stroke-width:2.40000033000000013;marker:none;visibility:visible;display:inline;overflow:visible;enable-background:accumulate"
           d="m 190.5,326 c -1.38071,0 -2.5,1.11929 -2.5,2.5 0,0.21842 0.0411,0.42306 0.0937,0.625 C 187.91429,329.0491 187.70711,329 187.5,329 c -0.82843,0 -1.5,0.67157 -1.5,1.5 0,0.82843 0.67157,1.5 1.5,1.5 l 8,0 c 0.82843,0 1.5,-0.67157 1.5,-1.5 0,-0.82843 -0.67157,-1.5 -1.5,-1.5 0,-1.10457 -0.89543,-2 -2,-2 -0.31572,0 -0.60948,0.0885 -0.875,0.21875 C 192.18795,326.49096 191.41074,326 190.5,326 z"
           id="path5094-5-03"
           inkscape:connector-curvature="0"
           sodipodi:nodetypes="sscssccscscs" />
      </g>
    </g>
  </g>
</svg>
