<?xml version="1.0" encoding="UTF-8" standalone="no"?>
<!-- Created with Inkscape (http://www.inkscape.org/) -->

<svg
   xmlns:dc="http://purl.org/dc/elements/1.1/"
   xmlns:cc="http://creativecommons.org/ns#"
   xmlns:rdf="http://www.w3.org/1999/02/22-rdf-syntax-ns#"
   xmlns:svg="http://www.w3.org/2000/svg"
   xmlns="http://www.w3.org/2000/svg"
   xmlns:sodipodi="http://sodipodi.sourceforge.net/DTD/sodipodi-0.dtd"
   xmlns:inkscape="http://www.inkscape.org/namespaces/inkscape"
   width="16px"
   height="16px"
   id="svg2985"
   version="1.1"
   inkscape:version="0.48.4 r9939"
   sodipodi:docname="clock-hands_1.svg">
  <defs
     id="defs2987" />
  <sodipodi:namedview
     id="base"
     pagecolor="#ffffff"
     bordercolor="#666666"
     borderopacity="1.0"
     inkscape:pageopacity="0.0"
     inkscape:pageshadow="2"
     inkscape:zoom="8"
     inkscape:cx="17.287703"
     inkscape:cy="8.3155883"
     inkscape:current-layer="layer1"
     showgrid="false"
     inkscape:grid-bbox="true"
     inkscape:document-units="px"
     inkscape:window-width="1920"
     inkscape:window-height="1021"
     inkscape:window-x="0"
     inkscape:window-y="27"
     inkscape:window-maximized="1"
     inkscape:snap-grids="true"
     inkscape:snap-nodes="false"
     inkscape:snap-bbox="true"
     inkscape:bbox-nodes="false"
     inkscape:bbox-paths="false"
     inkscape:snap-object-midpoints="false"
     inkscape:snap-intersection-paths="true"
     inkscape:object-paths="false"
     inkscape:object-nodes="false"
     inkscape:snap-smooth-nodes="false"
     inkscape:snap-midpoints="false"
     inkscape:snap-to-guides="false"
     inkscape:snap-text-baseline="true"
     inkscape:snap-center="false"
     showguides="true"
     inkscape:guide-bbox="true">
    <inkscape:grid
       type="xygrid"
       id="grid2993"
       empspacing="5"
       visible="true"
       enabled="true"
       snapvisiblegridlinesonly="true" />
    <sodipodi:guide
       orientation="1,0"
       position="7.9991455,7.7339804"
       id="guide851" />
    <sodipodi:guide
       orientation="0,1"
       position="6.8059028,7.9991455"
       id="guide853" />
  </sodipodi:namedview>
  <metadata
     id="metadata2990">
    <rdf:RDF>
      <cc:Work
         rdf:about="">
        <dc:format>image/svg+xml</dc:format>
        <dc:type
           rdf:resource="http://purl.org/dc/dcmitype/StillImage" />
        <dc:title></dc:title>
      </cc:Work>
    </rdf:RDF>
  </metadata>
  <g
     id="layer1"
     inkscape:label="Layer 1"
     inkscape:groupmode="layer">
    <path
       sodipodi:type="arc"
       style="fill:#eeeeec;fill-opacity:1;stroke:none"
       id="path6022"
       sodipodi:cx="8"
       sodipodi:cy="2"
       sodipodi:rx="1"
       sodipodi:ry="1"
       d="M 9,2 A 1,1 0 1 1 7,2 1,1 0 1 1 9,2 z"
       transform="matrix(0.5,0,0,0.5,43.5,0.5)" />
    <path
       sodipodi:type="arc"
       style="fill:#eeeeec;fill-opacity:1;stroke:none"
       id="path6022-4"
       sodipodi:cx="8"
       sodipodi:cy="2"
       sodipodi:rx="1"
       sodipodi:ry="1"
       d="M 9,2 A 1,1 0 1 1 7,2 1,1 0 1 1 9,2 z"
       transform="matrix(0.5,0,0,0.5,43.5,13.5)" />
    <path
       style="fill:#000000;fill-opacity:1;stroke:none"
       d="M 8 0 C 3.5817221 5.9211895e-16 0 3.5817221 0 8 C -1.1842379e-15 12.418278 3.5817221 16 8 16 C 12.418278 16 16 12.418278 16 8 C 16 3.5817221 12.418278 -2.3684758e-15 8 0 z M 8 1 C 11.860072 1 15 4.139929 15 8 C 15 11.860071 11.860072 15 8 15 C 4.139929 15 1 11.860071 1 8 C 1 4.139929 4.139929 1 8 1 z M 8 2 C 4.6803692 2 2 4.6803692 2 8 C 2 11.319631 4.6803692 14 8 14 C 11.319631 14 14 11.319631 14 8 C 14 4.6803692 11.319631 2 8 2 z M 12.1875 4.6875 L 12.8125 5.5 L 8.03125 9.125 L 4.1875 6.25 L 4.8125 5.4375 L 8.03125 7.84375 L 12.1875 4.6875 z "
       id="path6810" />
  </g>
</svg>
