<?xml version="1.0" encoding="UTF-8" standalone="no"?>
<!-- Created with Inkscape (http://www.inkscape.org/) -->

<svg
   xmlns:dc="http://purl.org/dc/elements/1.1/"
   xmlns:cc="http://creativecommons.org/ns#"
   xmlns:rdf="http://www.w3.org/1999/02/22-rdf-syntax-ns#"
   xmlns:svg="http://www.w3.org/2000/svg"
   xmlns="http://www.w3.org/2000/svg"
   xmlns:sodipodi="http://sodipodi.sourceforge.net/DTD/sodipodi-0.dtd"
   xmlns:inkscape="http://www.inkscape.org/namespaces/inkscape"
   width="16px"
   height="16px"
   id="svg6558"
   version="1.1"
   inkscape:version="0.48.4 r9939"
   sodipodi:docname="New document 3">
  <defs
     id="defs6560" />
  <sodipodi:namedview
     id="base"
     pagecolor="#ffffff"
     bordercolor="#666666"
     borderopacity="1.0"
     inkscape:pageopacity="0.0"
     inkscape:pageshadow="2"
     inkscape:zoom="22.627417"
     inkscape:cx="8.3211489"
     inkscape:cy="5.5522744"
     inkscape:current-layer="layer1"
     showgrid="false"
     inkscape:grid-bbox="true"
     inkscape:document-units="px"
     inkscape:snap-nodes="false"
     inkscape:snap-bbox="true"
     inkscape:window-width="1600"
     inkscape:window-height="834"
     inkscape:window-x="0"
     inkscape:window-y="27"
     inkscape:window-maximized="1">
    <inkscape:grid
       type="xygrid"
       id="grid9004" />
  </sodipodi:namedview>
  <metadata
     id="metadata6563">
    <rdf:RDF>
      <cc:Work
         rdf:about="">
        <dc:format>image/svg+xml</dc:format>
        <dc:type
           rdf:resource="http://purl.org/dc/dcmitype/StillImage" />
        <dc:title></dc:title>
      </cc:Work>
    </rdf:RDF>
  </metadata>
  <g
     id="layer1"
     inkscape:label="Layer 1"
     inkscape:groupmode="layer">
    <path
       style="font-size:medium;font-style:normal;font-variant:normal;font-weight:normal;font-stretch:normal;text-indent:0;text-align:start;text-decoration:none;line-height:normal;letter-spacing:normal;word-spacing:normal;text-transform:none;direction:ltr;block-progression:tb;writing-mode:lr-tb;text-anchor:start;baseline-shift:baseline;color:#000000;fill:#000000;fill-opacity:1;stroke:none;stroke-width:2;marker:none;visibility:visible;display:inline;overflow:visible;enable-background:accumulate;font-family:Sans;-inkscape-font-specification:Sans"
       d="m 7.999999,-2e-5 c -4.406434,0 -8,3.59357 -8,8 0,4.40643 3.593566,8 8,8 4.406434,0 8,-3.59357 8,-8 0,-4.40643 -3.593566,-8 -8,-8 z m 0,2 c 3.325552,0 6,2.67445 6,6 0,3.32555 -2.674448,6 -6,6 -3.325552,0 -6,-2.67445 -6,-6 0,-3.32555 2.674448,-6 6,-6 z"
       id="path3869"
       inkscape:connector-curvature="0" />
    <path
       sodipodi:type="arc"
       style="opacity:1;color:#000000;fill:#000000;fill-opacity:1;fill-rule:nonzero;stroke:none;stroke-width:1;marker:none;visibility:visible;display:inline;overflow:visible;enable-background:accumulate"
       id="path9013"
       sodipodi:cx="1.2423376"
       sodipodi:cy="1.3786418"
       sodipodi:rx="0.79637027"
       sodipodi:ry="0.79637027"
       d="m 2.0387079,1.3786418 a 0.79637027,0.79637027 0 1 1 -1.59274058,0 0.79637027,0.79637027 0 1 1 1.59274058,0 z"
       transform="matrix(1.883546,0,0,1.883546,-0.83999994,-1.0967353)" />
    <path
       sodipodi:type="arc"
       style="opacity:1;color:#000000;fill:#000000;fill-opacity:1;fill-rule:nonzero;stroke:none;stroke-width:1;marker:none;visibility:visible;display:inline;overflow:visible;enable-background:accumulate"
       id="path9013-9"
       sodipodi:cx="1.2423376"
       sodipodi:cy="1.3786418"
       sodipodi:rx="0.79637027"
       sodipodi:ry="0.79637027"
       d="m 2.0387079,1.3786418 a 0.79637027,0.79637027 0 1 1 -1.59274058,0 0.79637027,0.79637027 0 1 1 1.59274058,0 z"
       transform="matrix(1.8835459,0,0,1.8835459,12.16,-1.0967353)" />
    <path
       sodipodi:type="arc"
       style="opacity:1;color:#000000;fill:#000000;fill-opacity:1;fill-rule:nonzero;stroke:none;stroke-width:1;marker:none;visibility:visible;display:inline;overflow:visible;enable-background:accumulate"
       id="path9013-5"
       sodipodi:cx="1.2423376"
       sodipodi:cy="1.3786418"
       sodipodi:rx="0.79637027"
       sodipodi:ry="0.79637027"
       d="m 2.0387079,1.3786418 a 0.79637027,0.79637027 0 1 1 -1.59274058,0 0.79637027,0.79637027 0 1 1 1.59274058,0 z"
       transform="matrix(1.8835459,0,0,1.8835459,-0.8399999,11.903265)" />
    <path
       sodipodi:type="arc"
       style="opacity:1;color:#000000;fill:#000000;fill-opacity:1;fill-rule:nonzero;stroke:none;stroke-width:1;marker:none;visibility:visible;display:inline;overflow:visible;enable-background:accumulate"
       id="path9013-9-1"
       sodipodi:cx="1.2423376"
       sodipodi:cy="1.3786418"
       sodipodi:rx="0.79637027"
       sodipodi:ry="0.79637027"
       d="m 2.0387079,1.3786418 a 0.79637027,0.79637027 0 1 1 -1.59274058,0 0.79637027,0.79637027 0 1 1 1.59274058,0 z"
       transform="matrix(1.883546,0,0,1.883546,12.16,11.903265)" />
    <path
       sodipodi:type="arc"
       style="opacity:1;color:#000000;fill:#000000;fill-opacity:1;fill-rule:nonzero;stroke:none;stroke-width:1;marker:none;visibility:visible;display:inline;overflow:visible;enable-background:accumulate"
       id="path9013-7"
       sodipodi:cx="1.2423376"
       sodipodi:cy="1.3786418"
       sodipodi:rx="0.79637027"
       sodipodi:ry="0.79637027"
       d="m 2.0387079,1.3786418 a 0.79637027,0.79637027 0 1 1 -1.59274058,0 0.79637027,0.79637027 0 1 1 1.59274058,0 z"
       transform="matrix(3.7670919,0,0,3.7670919,3.3200001,2.8065294)" />
  </g>
</svg>
