<?xml version="1.0" encoding="UTF-8" standalone="no"?>
<!-- Created with Inkscape (http://www.inkscape.org/) -->

<svg
   xmlns:osb="http://www.openswatchbook.org/uri/2009/osb"
   xmlns:dc="http://purl.org/dc/elements/1.1/"
   xmlns:cc="http://creativecommons.org/ns#"
   xmlns:rdf="http://www.w3.org/1999/02/22-rdf-syntax-ns#"
   xmlns:svg="http://www.w3.org/2000/svg"
   xmlns="http://www.w3.org/2000/svg"
   xmlns:sodipodi="http://sodipodi.sourceforge.net/DTD/sodipodi-0.dtd"
   xmlns:inkscape="http://www.inkscape.org/namespaces/inkscape"
   version="1.1"
   width="16"
   height="16"
   id="svg7384"
   inkscape:version="0.91 r13725"
   sodipodi:docname="four-in-a-row-symbolic.svg">
  <metadata
     id="metadata90">
    <rdf:RDF>
      <cc:Work
         rdf:about="">
        <dc:format>image/svg+xml</dc:format>
        <dc:type
           rdf:resource="http://purl.org/dc/dcmitype/StillImage" />
        <dc:title>Gnome Symbolic Icon Theme</dc:title>
      </cc:Work>
    </rdf:RDF>
  </metadata>
  <sodipodi:namedview
     pagecolor="#555753"
     bordercolor="#666666"
     borderopacity="1"
     objecttolerance="10"
     gridtolerance="10"
     guidetolerance="10"
     inkscape:pageopacity="1"
     inkscape:pageshadow="2"
     inkscape:window-width="2560"
     inkscape:window-height="1376"
     id="namedview88"
     showgrid="false"
     inkscape:zoom="5.6568542"
     inkscape:cx="65.521125"
     inkscape:cy="3.96442"
     inkscape:window-x="0"
     inkscape:window-y="27"
     inkscape:window-maximized="1"
     inkscape:current-layer="layer9"
     showborder="false"
     inkscape:snap-nodes="true"
     inkscape:snap-bbox="true"
     inkscape:bbox-paths="true"
     showguides="true"
     inkscape:guide-bbox="true"
     inkscape:snap-to-guides="true"
     inkscape:snap-grids="true"
     inkscape:snap-global="true"
     inkscape:object-nodes="false"
     inkscape:snap-bbox-midpoints="false"
     inkscape:object-paths="false"
     inkscape:snap-others="false">
    <inkscape:grid
       type="xygrid"
       id="grid4866"
       empspacing="2"
       visible="true"
       enabled="true"
       snapvisiblegridlinesonly="true"
       spacingx="1px"
       spacingy="1px"
       originx="-142"
       originy="-362" />
  </sodipodi:namedview>
  <title
     id="title9167">Gnome Symbolic Icon Theme</title>
  <defs
     id="defs7386">
    <linearGradient
       osb:paint="solid"
       id="linearGradient7212">
      <stop
         id="stop7214"
         offset="0"
         style="stop-color:#000000;stop-opacity:1;" />
    </linearGradient>
  </defs>
  <g
     inkscape:groupmode="layer"
     id="layer9"
     inkscape:label="apps"
     style="display:inline"
     transform="translate(-383.0002,145)">
    <rect
       style="opacity:0;fill:#ffffff;fill-opacity:1;stroke:none"
       id="rect10872"
       width="16"
       height="16"
       x="383.00018"
       y="-145" />
    <path
       inkscape:connector-curvature="0"
       id="path10610-8"
       d="m 386.0002,-130.5 a 1.5,1.5 0 0 1 -1.5,1.5 1.5,1.5 0 0 1 -1.5,-1.5 1.5,1.5 0 0 1 1.5,-1.5 1.5,1.5 0 0 1 1.5,1.5 z"
       style="fill:#bebebe;fill-opacity:1;stroke:none" />
    <path
       inkscape:connector-curvature="0"
       id="path10610-8-4"
       d="m 390.0002,-130.5 a 1.5,1.5 0 0 1 -1.5,1.5 1.5,1.5 0 0 1 -1.5,-1.5 1.5,1.5 0 0 1 1.5,-1.5 1.5,1.5 0 0 1 1.5,1.5 z"
       style="fill:#bebebe;fill-opacity:1;stroke:none" />
    <path
       inkscape:connector-curvature="0"
       id="path10610-8-8"
       d="m 394.0002,-130.5 a 1.5,1.5 0 0 1 -1.5,1.5 1.5,1.5 0 0 1 -1.5,-1.5 1.5,1.5 0 0 1 1.5,-1.5 1.5,1.5 0 0 1 1.5,1.5 z"
       style="fill:#bebebe;fill-opacity:1;stroke:none" />
    <path
       inkscape:connector-curvature="0"
       id="path10610-8-4-5"
       d="m 398.0002,-130.5 a 1.5,1.5 0 0 1 -1.5,1.5 1.5,1.5 0 0 1 -1.5,-1.5 1.5,1.5 0 0 1 1.5,-1.5 1.5,1.5 0 0 1 1.5,1.5 z"
       style="fill:#bebebe;fill-opacity:1;stroke:none" />
    <path
       inkscape:connector-curvature="0"
       id="path10610-8-1"
       d="m 386.0002,-134.5 a 1.5,1.5 0 0 1 -1.5,1.5 1.5,1.5 0 0 1 -1.5,-1.5 1.5,1.5 0 0 1 1.5,-1.5 1.5,1.5 0 0 1 1.5,1.5 z"
       style="fill:#bdbdbd;fill-opacity:0.36470588;stroke:none" />
    <path
       inkscape:connector-curvature="0"
       id="path10610-8-4-0"
       d="m 390.0002,-134.5 a 1.5,1.5 0 0 1 -1.5,1.5 1.5,1.5 0 0 1 -1.5,-1.5 1.5,1.5 0 0 1 1.5,-1.5 1.5,1.5 0 0 1 1.5,1.5 z"
       style="fill:#bebebe;fill-opacity:1;stroke:none" />
    <path
       inkscape:connector-curvature="0"
       id="path10610-8-8-6"
       d="m 394.0002,-134.5 a 1.5,1.5 0 0 1 -1.5,1.5 1.5,1.5 0 0 1 -1.5,-1.5 1.5,1.5 0 0 1 1.5,-1.5 1.5,1.5 0 0 1 1.5,1.5 z"
       style="fill:#bdbdbd;fill-opacity:0.36470588;stroke:none" />
    <path
       inkscape:connector-curvature="0"
       id="path10610-8-4-5-5"
       d="m 398.0002,-134.5 a 1.5,1.5 0 0 1 -1.5,1.5 1.5,1.5 0 0 1 -1.5,-1.5 1.5,1.5 0 0 1 1.5,-1.5 1.5,1.5 0 0 1 1.5,1.5 z"
       style="fill:#bdbdbd;fill-opacity:0.36470588;stroke:none" />
    <path
       inkscape:connector-curvature="0"
       id="path10610-8-8-6-1"
       d="m 394.0002,-138.5 a 1.5,1.5 0 0 1 -1.5,1.5 1.5,1.5 0 0 1 -1.5,-1.5 1.5,1.5 0 0 1 1.5,-1.5 1.5,1.5 0 0 1 1.5,1.5 z"
       style="fill:#bebebe;fill-opacity:1;stroke:none" />
    <path
       inkscape:connector-curvature="0"
       id="path10610-8-4-5-5-6"
       d="m 398.0002,-138.5 a 1.5,1.5 0 0 1 -1.5,1.5 1.5,1.5 0 0 1 -1.5,-1.5 1.5,1.5 0 0 1 1.5,-1.5 1.5,1.5 0 0 1 1.5,1.5 z"
       style="fill:#bdbdbd;fill-opacity:0.36470588;stroke:none" />
    <path
       inkscape:connector-curvature="0"
       id="path10610-8-4-5-5-6-2"
       d="m 398.0002,-142.5 a 1.5,1.5 0 0 1 -1.5,1.5 1.5,1.5 0 0 1 -1.5,-1.5 1.5,1.5 0 0 1 1.5,-1.5 1.5,1.5 0 0 1 1.5,1.5 z"
       style="fill:#bebebe;fill-opacity:1;stroke:none" />
  </g>
</svg>
