<?xml version="1.0" encoding="UTF-8" standalone="no"?>
<!-- Created with Inkscape (http://www.inkscape.org/) -->

<svg
   xmlns:osb="http://www.openswatchbook.org/uri/2009/osb"
   xmlns:dc="http://purl.org/dc/elements/1.1/"
   xmlns:cc="http://creativecommons.org/ns#"
   xmlns:rdf="http://www.w3.org/1999/02/22-rdf-syntax-ns#"
   xmlns:svg="http://www.w3.org/2000/svg"
   xmlns="http://www.w3.org/2000/svg"
   xmlns:sodipodi="http://sodipodi.sourceforge.net/DTD/sodipodi-0.dtd"
   xmlns:inkscape="http://www.inkscape.org/namespaces/inkscape"
   version="1.1"
   width="16"
   height="16"
   id="svg7384"
   inkscape:version="0.91 r13725"
   sodipodi:docname="gnome-robots-symbolic.svg">
  <metadata
     id="metadata90">
    <rdf:RDF>
      <cc:Work
         rdf:about="">
        <dc:format>image/svg+xml</dc:format>
        <dc:type
           rdf:resource="http://purl.org/dc/dcmitype/StillImage" />
        <dc:title>Gnome Symbolic Icon Theme</dc:title>
      </cc:Work>
    </rdf:RDF>
  </metadata>
  <sodipodi:namedview
     pagecolor="#555753"
     bordercolor="#666666"
     borderopacity="1"
     objecttolerance="10"
     gridtolerance="10"
     guidetolerance="10"
     inkscape:pageopacity="1"
     inkscape:pageshadow="2"
     inkscape:window-width="2560"
     inkscape:window-height="1376"
     id="namedview88"
     showgrid="false"
     inkscape:zoom="32"
     inkscape:cx="189.68149"
     inkscape:cy="8.95441"
     inkscape:window-x="0"
     inkscape:window-y="27"
     inkscape:window-maximized="1"
     inkscape:current-layer="layer9"
     showborder="false"
     inkscape:snap-nodes="true"
     inkscape:snap-bbox="true"
     inkscape:bbox-paths="true"
     showguides="true"
     inkscape:guide-bbox="true"
     inkscape:snap-to-guides="true"
     inkscape:snap-grids="true"
     inkscape:snap-global="true"
     inkscape:object-nodes="false"
     inkscape:snap-bbox-midpoints="false"
     inkscape:object-paths="false"
     inkscape:snap-others="false">
    <inkscape:grid
       type="xygrid"
       id="grid4866"
       empspacing="2"
       visible="true"
       enabled="true"
       snapvisiblegridlinesonly="true"
       spacingx="1px"
       spacingy="1px"
       originx="-101"
       originy="-362" />
  </sodipodi:namedview>
  <title
     id="title9167">Gnome Symbolic Icon Theme</title>
  <defs
     id="defs7386">
    <linearGradient
       osb:paint="solid"
       id="linearGradient7212">
      <stop
         id="stop7214"
         offset="0"
         style="stop-color:#000000;stop-opacity:1;" />
    </linearGradient>
  </defs>
  <g
     inkscape:groupmode="layer"
     id="layer9"
     inkscape:label="apps"
     style="display:inline"
     transform="translate(-342.0002,145)">
    <rect
       style="opacity:0;fill:#ffffff;fill-opacity:1;stroke:none"
       id="rect9374"
       width="16"
       height="16"
       x="342.00018"
       y="-145" />
    <path
       inkscape:connector-curvature="0"
       style="fill:#bdbdbd;fill-opacity:0.36470588;stroke:none"
       d="m 344.0002,-138 0,2 2,0 c -0.55228,0 -1,-0.44772 -1,-1 0,-0.55228 0.44772,-1 1,-1 l -2,0 z m 2,0 c 0.55228,0 1,0.44772 1,1 0,0.55228 -0.44772,1 -1,1 l 4,0 c -0.55228,0 -1,-0.44772 -1,-1 0,-0.55228 0.44772,-1 1,-1 l -4,0 z m 4,0 c 0.55228,0 1,0.44772 1,1 0,0.55228 -0.44772,1 -1,1 l 4,0 c -0.55229,0 -1,-0.44772 -1,-1 0,-0.55228 0.44771,-1 1,-1 l -4,0 z m 4,0 c 0.55229,0 1,0.44772 1,1 0,0.55228 -0.44771,1 -1,1 l 2,0 0,-2 -2,0 z"
       id="rect6935-9" />
    <path
       inkscape:connector-curvature="0"
       style="fill:#bebebe;fill-opacity:1;stroke:none"
       d="m 350.0002,-144 c -3.52482,0 -6.41897,2.61003 -6.90625,6 l 13.8125,0 c -0.48728,-3.38997 -3.38143,-6 -6.90625,-6 z m -6.6875,9 c 0.86143,2.88498 3.52167,5 6.6875,5 3.16583,0 5.82607,-2.11502 6.6875,-5 l -13.375,0 z"
       id="path6929-6" />
  </g>
</svg>
