<?xml version="1.0" encoding="UTF-8" standalone="no"?>
<!-- Created with Inkscape (http://www.inkscape.org/) -->

<svg
   xmlns:osb="http://www.openswatchbook.org/uri/2009/osb"
   xmlns:dc="http://purl.org/dc/elements/1.1/"
   xmlns:cc="http://creativecommons.org/ns#"
   xmlns:rdf="http://www.w3.org/1999/02/22-rdf-syntax-ns#"
   xmlns:svg="http://www.w3.org/2000/svg"
   xmlns="http://www.w3.org/2000/svg"
   xmlns:sodipodi="http://sodipodi.sourceforge.net/DTD/sodipodi-0.dtd"
   xmlns:inkscape="http://www.inkscape.org/namespaces/inkscape"
   version="1.1"
   width="16.000002"
   height="16"
   id="svg7384"
   inkscape:version="0.91 r13725"
   sodipodi:docname="gnome-disk-utility-symbolic.svg">
  <metadata
     id="metadata90">
    <rdf:RDF>
      <cc:Work
         rdf:about="">
        <dc:format>image/svg+xml</dc:format>
        <dc:type
           rdf:resource="http://purl.org/dc/dcmitype/StillImage" />
        <dc:title>Gnome Symbolic Icon Theme</dc:title>
      </cc:Work>
    </rdf:RDF>
  </metadata>
  <sodipodi:namedview
     pagecolor="#555753"
     bordercolor="#666666"
     borderopacity="1"
     objecttolerance="10"
     gridtolerance="10"
     guidetolerance="10"
     inkscape:pageopacity="1"
     inkscape:pageshadow="2"
     inkscape:window-width="2560"
     inkscape:window-height="1376"
     id="namedview88"
     showgrid="false"
     inkscape:zoom="1"
     inkscape:cx="-45.015983"
     inkscape:cy="-181.07643"
     inkscape:window-x="0"
     inkscape:window-y="27"
     inkscape:window-maximized="1"
     inkscape:current-layer="layer9"
     showborder="false"
     inkscape:snap-nodes="true"
     inkscape:snap-bbox="true"
     inkscape:bbox-paths="true"
     showguides="true"
     inkscape:guide-bbox="true"
     inkscape:snap-to-guides="true"
     inkscape:snap-grids="true"
     inkscape:snap-global="true"
     inkscape:object-nodes="false"
     inkscape:snap-bbox-midpoints="false"
     inkscape:object-paths="false"
     inkscape:snap-others="false">
    <inkscape:grid
       type="xygrid"
       id="grid4866"
       empspacing="2"
       visible="true"
       enabled="true"
       snapvisiblegridlinesonly="true"
       spacingx="1px"
       spacingy="1px"
       originx="-142"
       originy="-382" />
  </sodipodi:namedview>
  <title
     id="title9167">Gnome Symbolic Icon Theme</title>
  <defs
     id="defs7386">
    <linearGradient
       osb:paint="solid"
       id="linearGradient7212">
      <stop
         id="stop7214"
         offset="0"
         style="stop-color:#000000;stop-opacity:1;" />
    </linearGradient>
  </defs>
  <g
     inkscape:groupmode="layer"
     id="layer9"
     inkscape:label="apps"
     style="display:inline"
     transform="translate(-383.0002,165)">
    <rect
       style="opacity:0;fill:#ffffff;fill-opacity:1;stroke:none"
       id="rect7580"
       width="15.9375"
       height="16"
       x="383.00018"
       y="-165"
       rx="0"
       ry="0" />
    <path
       style="color:#000000;font-style:normal;font-variant:normal;font-weight:normal;font-stretch:normal;font-size:medium;line-height:normal;font-family:Sans;-inkscape-font-specification:Sans;text-indent:0;text-align:start;text-decoration:none;text-decoration-line:none;letter-spacing:normal;word-spacing:normal;text-transform:none;direction:ltr;block-progression:tb;writing-mode:lr-tb;text-anchor:start;display:inline;overflow:visible;visibility:visible;fill:#bebebe;fill-opacity:1;fill-rule:nonzero;stroke:none;stroke-width:3;marker:none;enable-background:accumulate"
       d="m 385.1877,-165 c -1.2016,0 -2.1875,0.98758 -2.1875,2.1875 l 0,11.625 c 0,1.19992 0.9859,2.1875 2.1875,2.1875 l 7.28125,0 -2.03125,-2 -5.25,0 c -0.1238,0 -0.1875,-0.0566 -0.1875,-0.1875 l 0,-11.625 c 0,-0.1309 0.0637,-0.1875 0.1875,-0.1875 l 9.625,0 c 0.1238,0 0.1875,0.0566 0.1875,0.1875 l 0,4.84375 2,0.4375 0,-5.28125 c 0,-1.19992 -0.9859,-2.1875 -2.1875,-2.1875 z m 4.8125,3 c -2.20914,0 -4,1.79086 -4,4 0,2.19866 1.77407,3.98312 3.96875,4 0.20388,-0.98482 0.50919,-1.51244 1.03125,-2.28125 l 1.40625,1.46875 0.75,-0.75 -1.40625,-1.5625 c 0.69625,-0.45441 1.5773,-0.7768 2.25,-0.875 0,-2.20914 -1.79086,-4 -4,-4 z m 0,3 c 0.55228,0 1,0.44771 1,1 0,0.55228 -0.44772,1 -1,1 -0.55228,0 -1,-0.44772 -1,-1 0,-0.55229 0.44772,-1 1,-1 z m 4.46875,2 c -0.40656,0 -0.79288,0.0924 -1.15625,0.21875 l 1.90625,1.90625 c 0.39436,0.39326 0.39436,1.01297 0,1.40625 l -0.71875,0.75 c -0.39436,0.39327 -1.0119,0.39327 -1.40625,0 l -1.9375,-1.9375 c -0.12669,0.36235 -0.21875,0.75081 -0.21875,1.15625 0,1.94058 1.58533,3.53125 3.53125,3.53125 0.40656,0 0.79288,-0.0924 1.15625,-0.21875 l 1.21875,1.1875 c 0.021,-2.6e-4 0.0415,-2.6e-4 0.0625,0 l 2.09375,-2.09375 -1.21875,-1.21875 c 0.1267,-0.36235 0.21875,-0.78205 0.21875,-1.1875 0,-1.94057 -1.58534,-3.5 -3.53125,-3.5 z"
       id="path3908-6"
       inkscape:connector-curvature="0"
       sodipodi:nodetypes="ssssccssssssccsssssccccccsssssssccccccsscccccss" />
  </g>
</svg>
