<?xml version="1.0" encoding="UTF-8" standalone="no"?>
<!-- Created with Inkscape (http://www.inkscape.org/) -->

<svg
   xmlns:osb="http://www.openswatchbook.org/uri/2009/osb"
   xmlns:dc="http://purl.org/dc/elements/1.1/"
   xmlns:cc="http://creativecommons.org/ns#"
   xmlns:rdf="http://www.w3.org/1999/02/22-rdf-syntax-ns#"
   xmlns:svg="http://www.w3.org/2000/svg"
   xmlns="http://www.w3.org/2000/svg"
   xmlns:sodipodi="http://sodipodi.sourceforge.net/DTD/sodipodi-0.dtd"
   xmlns:inkscape="http://www.inkscape.org/namespaces/inkscape"
   version="1.1"
   width="16.000002"
   height="16"
   id="svg7384"
   inkscape:version="0.91 r13725"
   sodipodi:docname="gnome-tweak-tool-symbolic.svg">
  <metadata
     id="metadata90">
    <rdf:RDF>
      <cc:Work
         rdf:about="">
        <dc:format>image/svg+xml</dc:format>
        <dc:type
           rdf:resource="http://purl.org/dc/dcmitype/StillImage" />
        <dc:title>Gnome Symbolic Icon Theme</dc:title>
      </cc:Work>
    </rdf:RDF>
  </metadata>
  <sodipodi:namedview
     pagecolor="#555753"
     bordercolor="#666666"
     borderopacity="1"
     objecttolerance="10"
     gridtolerance="10"
     guidetolerance="10"
     inkscape:pageopacity="1"
     inkscape:pageshadow="2"
     inkscape:window-width="2560"
     inkscape:window-height="1376"
     id="namedview88"
     showgrid="false"
     inkscape:zoom="32"
     inkscape:cx="68.681492"
     inkscape:cy="8.95441"
     inkscape:window-x="0"
     inkscape:window-y="27"
     inkscape:window-maximized="1"
     inkscape:current-layer="layer9"
     showborder="false"
     inkscape:snap-nodes="true"
     inkscape:snap-bbox="true"
     inkscape:bbox-paths="true"
     showguides="true"
     inkscape:guide-bbox="true"
     inkscape:snap-to-guides="true"
     inkscape:snap-grids="true"
     inkscape:snap-global="true"
     inkscape:object-nodes="false"
     inkscape:snap-bbox-midpoints="false"
     inkscape:object-paths="false"
     inkscape:snap-others="false">
    <inkscape:grid
       type="xygrid"
       id="grid4866"
       empspacing="2"
       visible="true"
       enabled="true"
       snapvisiblegridlinesonly="true"
       spacingx="1px"
       spacingy="1px"
       originx="-222"
       originy="-362" />
  </sodipodi:namedview>
  <title
     id="title9167">Gnome Symbolic Icon Theme</title>
  <defs
     id="defs7386">
    <linearGradient
       osb:paint="solid"
       id="linearGradient7212">
      <stop
         id="stop7214"
         offset="0"
         style="stop-color:#000000;stop-opacity:1;" />
    </linearGradient>
  </defs>
  <g
     inkscape:groupmode="layer"
     id="layer9"
     inkscape:label="apps"
     style="display:inline"
     transform="translate(-463.0002,145)">
    <path
       inkscape:connector-curvature="0"
       style="color:#000000;font-style:normal;font-variant:normal;font-weight:normal;font-stretch:normal;font-size:medium;line-height:normal;font-family:Sans;-inkscape-font-specification:Sans;text-indent:0;text-align:start;text-decoration:none;text-decoration-line:none;letter-spacing:normal;word-spacing:normal;text-transform:none;direction:ltr;block-progression:tb;writing-mode:lr-tb;baseline-shift:baseline;text-anchor:start;display:inline;overflow:visible;visibility:visible;fill:#bebebe;fill-opacity:1;stroke:none;stroke-width:1;marker:none;enable-background:accumulate"
       d="m 464.96895,-144.96875 c -1.08949,0 -1.96875,0.87926 -1.96875,1.96875 l 0,12 c 0,1.08949 0.87926,1.96875 1.96875,1.96875 l 12.0625,0 c 1.08949,0 1.96875,-0.87926 1.96875,-1.96875 l 0,-12 c 0,-1.08949 -0.87926,-1.96875 -1.96875,-1.96875 l -12.0625,0 z m 0,1 12.0625,0 c 0.55278,0 0.96875,0.41597 0.96875,0.96875 l 0,11.03125 c 0,0.55278 -0.41597,0.96875 -0.96875,0.96875 l -12.0625,0 c -0.55278,0 -0.96875,-0.41597 -0.96875,-0.96875 l 0,-11.03125 c 0,-0.60207 0.35439,-0.96875 0.96875,-0.96875 z m 0.0312,0.96875 0,1 1,0 0,-1 -1,0 z m 2,0 0,1 1,0 0,-1 -1,0 z m 3,0 0,1 1,0 0,-1 -1,0 z m 2,0 0,1 1,0 0,-1 -1,0 z m 2,0 0,1 1,0 0,-1 -1,0 z m 2,0 0,1 1,0 0,-1 -1,0 z m -11,2 0,1 1,0 0,-1 -1,0 z m 2,0 0,1 1,0 0,-1 -1,0 z m 3,0 0,1 1,0 0,-1 -1,0 z m 2,0 0,1 1,0 0,-1 -1,0 z m 2,0 0,1 1,0 0,-1 -1,0 z m 2,0 0,1 1,0 0,-1 -1,0 z m -2,2 0,1 -1,0 c -0.54535,0 -1,0.45465 -1,1 l 0,1 c 0,0.54535 0.45465,1 1,1 l 0.1875,0 0.8125,0 1,0 0.65625,0 0.34375,0 c 0.54535,0 1,-0.45465 1,-1 l 0,-1 c 0,-0.54535 -0.45465,-1 -1,-1 l -1,0 0,-1 -1,0 z m -6,1 c -1.65093,0 -3,1.34907 -3,3 0,1.65093 1.34907,3 3,3 1.65093,0 3,-1.34907 3,-3 0,-1.65093 -1.34907,-3 -3,-3 z m 0,1 c 1.11049,0 2,0.88951 2,2 0,1.11049 -0.88951,2 -2,2 -1.11049,0 -2,-0.88951 -2,-2 0,-1.11049 0.88951,-2 2,-2 z m 5,0 3,0 0,1 -3,0 0,-1 z m 1,3 0,2 1,0 0,-2 -1,0 z"
       id="rect6038-5-6"
       inkscape:label="gnome-tweak-tool" />
    <rect
       ry="0"
       rx="0"
       y="-145"
       x="463.00018"
       height="16"
       width="16"
       id="rect7506-0-1"
       style="display:inline;fill:#ffffff;fill-opacity:0;stroke:none" />
  </g>
</svg>
