<?xml version="1.0" encoding="UTF-8" standalone="no"?>
<!-- Created with Inkscape (http://www.inkscape.org/) -->

<svg
   xmlns:osb="http://www.openswatchbook.org/uri/2009/osb"
   xmlns:dc="http://purl.org/dc/elements/1.1/"
   xmlns:cc="http://creativecommons.org/ns#"
   xmlns:rdf="http://www.w3.org/1999/02/22-rdf-syntax-ns#"
   xmlns:svg="http://www.w3.org/2000/svg"
   xmlns="http://www.w3.org/2000/svg"
   xmlns:sodipodi="http://sodipodi.sourceforge.net/DTD/sodipodi-0.dtd"
   xmlns:inkscape="http://www.inkscape.org/namespaces/inkscape"
   version="1.1"
   width="16.000015"
   height="16"
   id="svg7384"
   inkscape:version="0.91 r13725"
   sodipodi:docname="sound-recorder-symbolic.svg">
  <metadata
     id="metadata90">
    <rdf:RDF>
      <cc:Work
         rdf:about="">
        <dc:format>image/svg+xml</dc:format>
        <dc:type
           rdf:resource="http://purl.org/dc/dcmitype/StillImage" />
        <dc:title>Gnome Symbolic Icon Theme</dc:title>
      </cc:Work>
    </rdf:RDF>
  </metadata>
  <sodipodi:namedview
     pagecolor="#555753"
     bordercolor="#666666"
     borderopacity="1"
     objecttolerance="10"
     gridtolerance="10"
     guidetolerance="10"
     inkscape:pageopacity="1"
     inkscape:pageshadow="2"
     inkscape:window-width="2560"
     inkscape:window-height="1376"
     id="namedview88"
     showgrid="false"
     inkscape:zoom="1"
     inkscape:cx="2.83903"
     inkscape:cy="-0.07147"
     inkscape:window-x="0"
     inkscape:window-y="27"
     inkscape:window-maximized="1"
     inkscape:current-layer="layer9"
     showborder="false"
     inkscape:snap-nodes="true"
     inkscape:snap-bbox="true"
     inkscape:bbox-paths="true"
     showguides="true"
     inkscape:guide-bbox="true"
     inkscape:snap-to-guides="true"
     inkscape:snap-grids="true"
     inkscape:snap-global="true"
     inkscape:object-nodes="false"
     inkscape:snap-bbox-midpoints="true"
     inkscape:object-paths="false"
     inkscape:snap-others="true"
     inkscape:bbox-nodes="true"
     inkscape:snap-bbox-edge-midpoints="true">
    <inkscape:grid
       type="xygrid"
       id="grid4866"
       empspacing="2"
       visible="true"
       enabled="true"
       snapvisiblegridlinesonly="true"
       spacingx="1px"
       spacingy="1px"
       originx="-242"
       originy="-322" />
  </sodipodi:namedview>
  <title
     id="title9167">Gnome Symbolic Icon Theme</title>
  <defs
     id="defs7386">
    <linearGradient
       osb:paint="solid"
       id="linearGradient7212">
      <stop
         id="stop7214"
         offset="0"
         style="stop-color:#000000;stop-opacity:1;" />
    </linearGradient>
  </defs>
  <g
     inkscape:groupmode="layer"
     id="layer9"
     inkscape:label="apps"
     style="display:inline"
     transform="translate(-483.0002,105)">
    <rect
       style="color:#bebebe;display:inline;overflow:visible;visibility:visible;fill:none;stroke:none;stroke-width:1;marker:none"
       id="rect3825-9-5"
       width="16"
       height="16"
       x="483.00021"
       y="-105"
       inkscape:label="a" />
    <path
       inkscape:connector-curvature="0"
       id="rect6806"
       d="m 490.5002,-104.01367 c -1.385,0 -2.5,1.115 -2.5,2.5 l 0,5.01367 c 0,1.385 1.115,2.5 2.5,2.5 0.28782,0 0.55949,-0.0578 0.81641,-0.14648 a 4.4999862,4.4999862 0 0 1 1.65429,-2.07227 c 0.0105,-0.0934 0.0293,-0.18496 0.0293,-0.28125 l 0,-5.01367 c 0,-1.385 -1.115,-2.5 -2.5,-2.5 z m -4,4.01367 c -0.27614,0 -0.5,0.22386 -0.5,0.5 l 0,2.96875 c 0,1.96838 1.25801,3.62455 3,4.25 l 0,1.28125 -2,0 c -0.56475,0 -1,0.49007 -1,1 l 0,1 0.84375,0 2.15625,0 3.67773,0 a 4.4999862,4.4999862 0 0 1 -1.67773,-3.5 4.4999862,4.4999862 0 0 1 0.0391,-0.55273 c -0.17687,0.027 -0.35458,0.0527 -0.5391,0.0527 -1.9523,0 -3.5,-1.5671 -3.5,-3.53125 l 0,-2.96872 c 0,-0.27614 -0.22386,-0.5 -0.5,-0.5 z m 8,0 c -0.27614,0 -0.5,0.22386 -0.5,0.5 0,0.069 0.006,0.12768 0.0312,0.1875 l 0,2.56445 a 4.4999862,4.4999862 0 0 1 0.9688,-0.21875 l 0,-2.5332 c 0,-0.27614 -0.22386,-0.5 -0.5,-0.5 z"
       style="color:#bebebe;font-style:normal;font-variant:normal;font-weight:normal;font-stretch:normal;font-size:medium;line-height:normal;font-family:Sans;-inkscape-font-specification:Sans;text-indent:0;text-align:start;text-decoration:none;text-decoration-line:none;letter-spacing:normal;word-spacing:normal;text-transform:none;direction:ltr;block-progression:tb;writing-mode:lr-tb;baseline-shift:baseline;text-anchor:start;display:inline;overflow:visible;visibility:visible;fill:#bebebe;fill-opacity:1;stroke:none;stroke-width:1.00302994;marker:none;enable-background:accumulate" />
    <circle
       r="3.5"
       cy="-92.5"
       cx="495.50021"
       id="path13459"
       style="color:#000000;clip-rule:nonzero;display:inline;overflow:visible;visibility:visible;opacity:1;isolation:auto;mix-blend-mode:normal;color-interpolation:sRGB;color-interpolation-filters:linearRGB;solid-color:#000000;solid-opacity:1;fill:#bebebe;fill-opacity:1;fill-rule:nonzero;stroke:none;stroke-width:1;stroke-linecap:butt;stroke-linejoin:miter;stroke-miterlimit:4;stroke-dasharray:1, 2;stroke-dashoffset:0;stroke-opacity:1;marker:none;marker-start:none;marker-mid:none;marker-end:none;paint-order:normal;color-rendering:auto;image-rendering:auto;shape-rendering:auto;text-rendering:auto;enable-background:new" />
  </g>
</svg>
