<?xml version="1.0" encoding="UTF-8" standalone="no"?>
<!-- Created with Inkscape (http://www.inkscape.org/) -->
<svg xmlns:rdf="http://www.w3.org/1999/02/22-rdf-syntax-ns#" xmlns="http://www.w3.org/2000/svg" height="16px" width="16px" version="1.1" xmlns:cc="http://creativecommons.org/ns#" xmlns:xlink="http://www.w3.org/1999/xlink" xmlns:dc="http://purl.org/dc/elements/1.1/">
 <defs>
  <linearGradient id="linearGradient3851" y2="13.463" gradientUnits="userSpaceOnUse" x2="8" gradientTransform="matrix(0.86666667,0,0,0.92857148,1.0666667,1.0357143)" y1="1.5372" x1="8">
   <stop stop-color="#898f89" offset="0"/>
   <stop stop-color="#bdbfbd" offset="1"/>
  </linearGradient>
  <linearGradient id="linearGradient3851-3" y2="13.463" gradientUnits="userSpaceOnUse" x2="8" gradientTransform="matrix(0.86666667,0,0,0.92857148,1.0666667,1.0357143)" y1="1.5372" x1="8">
   <stop stop-color="#000" stop-opacity="0.051" offset="0"/>
   <stop stop-color="#FFF" stop-opacity="0.502" offset="1"/>
  </linearGradient>
 </defs>
 <metadata>
  <rdf:RDF>
   <cc:Work rdf:about="">
    <dc:format>image/svg+xml</dc:format>
    <dc:type rdf:resource="http://purl.org/dc/dcmitype/StillImage"/>
    <dc:title/>
   </cc:Work>
  </rdf:RDF>
 </metadata>
 <path stroke-linejoin="miter" style="enable-background:accumulate;color:#000000;" d="m4,0.75,13,0c1.8005,0,3.25,1.4495,3.25,3.25v8c0,1.8005-1.4495,3.25-3.25,3.25h-13c-1.8005,0-3.25-1.4495-3.25-3.25v-8c0-1.8005,1.4495-3.25,3.25-3.25z" stroke-dashoffset="0" stroke="url(#linearGradient3851-3)" stroke-linecap="butt" stroke-miterlimit="4" stroke-width="1.5" fill="none"/>
 <path style="enable-background:accumulate;color:#000000;" d="m4,1.5,13,0c1.385,0,2.5,1.115,2.5,2.5v8c0,1.385-1.115,2.5-2.5,2.5h-13c-1.385,0-2.5-1.115-2.5-2.5v-8c0-1.385,1.115-2.5,2.5-2.5z" stroke="url(#linearGradient3851)" stroke-miterlimit="4" stroke-width="1" fill="none"/>
 <path stroke-linejoin="miter" d="m15.5,2.5,0,11.011" stroke="#8a8e8a" stroke-linecap="square" stroke-width="1px" fill="none"/>
</svg>
