<?xml version="1.0" encoding="UTF-8" standalone="no"?>
<!-- Created with Inkscape (http://www.inkscape.org/) -->

<svg
   xmlns:dc="http://purl.org/dc/elements/1.1/"
   xmlns:cc="http://creativecommons.org/ns#"
   xmlns:rdf="http://www.w3.org/1999/02/22-rdf-syntax-ns#"
   xmlns:svg="http://www.w3.org/2000/svg"
   xmlns="http://www.w3.org/2000/svg"
   xmlns:sodipodi="http://sodipodi.sourceforge.net/DTD/sodipodi-0.dtd"
   xmlns:inkscape="http://www.inkscape.org/namespaces/inkscape"
   width="16px"
   height="16px"
   id="svg6558"
   version="1.1"
   inkscape:version="0.48.4 r9939"
   sodipodi:docname="New document 18">
  <defs
     id="defs6560" />
  <sodipodi:namedview
     id="base"
     pagecolor="#ffffff"
     bordercolor="#666666"
     borderopacity="1.0"
     inkscape:pageopacity="0.0"
     inkscape:pageshadow="2"
     inkscape:zoom="22.197802"
     inkscape:cx="9.2245257"
     inkscape:cy="9.6312031"
     inkscape:current-layer="layer1"
     showgrid="true"
     inkscape:grid-bbox="true"
     inkscape:document-units="px"
     inkscape:snap-nodes="false"
     inkscape:snap-bbox="true"
     inkscape:window-width="1600"
     inkscape:window-height="841"
     inkscape:window-x="0"
     inkscape:window-y="27"
     inkscape:window-maximized="1">
    <inkscape:grid
       type="xygrid"
       id="grid7232" />
  </sodipodi:namedview>
  <metadata
     id="metadata6563">
    <rdf:RDF>
      <cc:Work
         rdf:about="">
        <dc:format>image/svg+xml</dc:format>
        <dc:type
           rdf:resource="http://purl.org/dc/dcmitype/StillImage" />
        <dc:title></dc:title>
      </cc:Work>
    </rdf:RDF>
  </metadata>
  <g
     id="layer1"
     inkscape:label="Layer 1"
     inkscape:groupmode="layer">
    <path
       style="color:#000000;fill:#2e3436;fill-opacity:1;fill-rule:nonzero;stroke:none;stroke-width:2;marker:none;visibility:visible;display:inline;overflow:visible;enable-background:accumulate"
       d="M 5.7191343,5.0308108 3.96875,7.03125 3.0625,9.6875 c -0.2635754,0.511148 0.016909,1.224387 0.5625,1.40625 0.545591,0.181864 1.2166716,-0.214187 1.3125,-0.78125 L 5.71875,8.0625 6,7.75 6,13.25 4.375,15 5.875,16.375 8,14.03125 8,11.90625 10.09375,16 11.875,15.09375 9,9.40625 9,7.65625 11.34375,9.75 c 0.383224,0.3968 1.108768,0.37896 1.472028,-0.03619 C 13.179038,9.298651 13.100409,8.5771604 12.65625,8.25 L 9,5 z"
       id="rect7046"
       inkscape:connector-curvature="0"
       sodipodi:nodetypes="cccscccccccccccccsccc" />
    <path
       sodipodi:type="arc"
       style="color:#000000;fill:#2e3436;fill-opacity:1;fill-rule:nonzero;stroke:none;stroke-width:1;marker:none;visibility:visible;display:inline;overflow:visible;enable-background:accumulate"
       id="path6214"
       sodipodi:cx="9.1592426"
       sodipodi:cy="5.4265437"
       sodipodi:rx="2.4638252"
       sodipodi:ry="2.4638252"
       d="m 11.623068,5.4265437 a 2.4638252,2.4638252 0 1 1 -4.9276506,0 2.4638252,2.4638252 0 1 1 4.9276506,0 z"
       transform="matrix(0.81174588,0,0,0.8117459,0.5650225,-2.4049746)" />
  </g>
</svg>
