<?xml version="1.0" encoding="UTF-8" standalone="no"?>
<!-- Created with Inkscape (http://www.inkscape.org/) -->

<svg
   xmlns:dc="http://purl.org/dc/elements/1.1/"
   xmlns:cc="http://creativecommons.org/ns#"
   xmlns:rdf="http://www.w3.org/1999/02/22-rdf-syntax-ns#"
   xmlns:svg="http://www.w3.org/2000/svg"
   xmlns="http://www.w3.org/2000/svg"
   xmlns:xlink="http://www.w3.org/1999/xlink"
   xmlns:sodipodi="http://sodipodi.sourceforge.net/DTD/sodipodi-0.dtd"
   xmlns:inkscape="http://www.inkscape.org/namespaces/inkscape"
   version="1.1"
   width="16"
   height="16"
   id="svg7384"
   inkscape:version="0.48.2 r9819"
   sodipodi:docname="art-libre-stereotype.svg">
  <metadata
     id="metadata90">
    <rdf:RDF>
      <cc:Work
         rdf:about="">
        <dc:format>image/svg+xml</dc:format>
        <dc:type
           rdf:resource="http://purl.org/dc/dcmitype/StillImage" />
        <dc:title>Gnome Symbolic Icon Theme</dc:title>
      </cc:Work>
    </rdf:RDF>
  </metadata>
  <sodipodi:namedview
     pagecolor="#433342"
     bordercolor="#666666"
     borderopacity="1"
     objecttolerance="10"
     gridtolerance="10"
     guidetolerance="10"
     inkscape:pageopacity="1"
     inkscape:pageshadow="2"
     inkscape:window-width="1221"
     inkscape:window-height="652"
     id="namedview88"
     showgrid="true"
     inkscape:zoom="16"
     inkscape:cx="-109.76591"
     inkscape:cy="24.30957"
     inkscape:window-x="78"
     inkscape:window-y="187"
     inkscape:window-maximized="0"
     inkscape:current-layer="layer9"
     showborder="false"
     inkscape:snap-nodes="true"
     inkscape:snap-bbox="true"
     inkscape:bbox-paths="false"
     showguides="true"
     inkscape:guide-bbox="true"
     inkscape:snap-to-guides="true"
     inkscape:snap-grids="true"
     inkscape:snap-global="true"
     inkscape:object-nodes="false"
     inkscape:snap-bbox-midpoints="false"
     inkscape:object-paths="false"
     inkscape:snap-others="false"
     inkscape:bbox-nodes="true"
     inkscape:snap-page="false">
    <inkscape:grid
       type="xygrid"
       id="grid4866"
       empspacing="2"
       visible="true"
       enabled="true"
       snapvisiblegridlinesonly="true"
       spacingx="1px"
       spacingy="1px" />
  </sodipodi:namedview>
  <title
     id="title9167">Gnome Symbolic Icon Theme</title>
  <defs
     id="defs7386">
    <inkscape:perspective
       sodipodi:type="inkscape:persp3d"
       inkscape:vp_x="0 : 8 : 1"
       inkscape:vp_y="0 : 1000 : 0"
       inkscape:vp_z="16 : 8 : 1"
       inkscape:persp3d-origin="8 : 5.3333333 : 1"
       id="perspective82066" />
    <inkscape:path-effect
       is_visible="true"
       id="path-effect63369"
       effect="spiro" />
    <inkscape:path-effect
       is_visible="true"
       id="path-effect63366"
       effect="spiro" />
    <linearGradient
       inkscape:collect="always"
       id="linearGradient5408">
      <stop
         style="stop-color:#bebebe;stop-opacity:1;"
         offset="0"
         id="stop5410" />
      <stop
         style="stop-color:#bebebe;stop-opacity:0;"
         offset="1"
         id="stop5412" />
    </linearGradient>
    <inkscape:path-effect
       effect="spiro"
       id="path-effect4601"
       is_visible="true" />
    <inkscape:path-effect
       effect="spiro"
       id="path-effect4597"
       is_visible="true" />
    <inkscape:path-effect
       effect="spiro"
       id="path-effect4593"
       is_visible="true" />
    <inkscape:path-effect
       effect="spiro"
       id="path-effect4589"
       is_visible="true" />
    <inkscape:path-effect
       effect="spiro"
       id="path-effect4585"
       is_visible="true" />
    <inkscape:path-effect
       effect="spiro"
       id="path-effect4580"
       is_visible="true" />
    <clipPath
       clipPathUnits="userSpaceOnUse"
       id="clipPath6279-6-1-4-5">
      <rect
         style="color:#bebebe;fill:#bebebe;fill-opacity:1;fill-rule:nonzero;stroke:none;stroke-width:2;marker:none;visibility:visible;display:inline;overflow:visible"
         id="rect6281-3-0-3-5"
         width="3.8250003"
         height="6.3750005"
         x="26.85"
         y="220.75" />
    </clipPath>
    <clipPath
       clipPathUnits="userSpaceOnUse"
       id="clipPath6265-33-6-5-1-3">
      <rect
         style="color:#bebebe;fill:#bebebe;fill-opacity:1;fill-rule:nonzero;stroke:none;stroke-width:2;marker:none;visibility:visible;display:inline;overflow:visible"
         id="rect6267-6-9-1-4-8"
         width="2.8977277"
         height="5.21591"
         x="26.96591"
         y="221.32954" />
    </clipPath>
    <clipPath
       clipPathUnits="userSpaceOnUse"
       id="clipPath6259-6-8-2-1-6-6">
      <rect
         style="color:#bebebe;fill:#bebebe;fill-opacity:1;stroke:none;stroke-width:2;marker:none;visibility:visible;display:inline;overflow:visible"
         id="rect6261-4-9-2-0-9-0"
         width="1.8762827"
         height="4.8734746"
         x="26.998718"
         y="221.50153" />
    </clipPath>
    <clipPath
       clipPathUnits="userSpaceOnUse"
       id="clipPath6279-2-3">
      <rect
         style="color:#bebebe;fill:#bebebe;fill-opacity:1;fill-rule:nonzero;stroke:none;stroke-width:2;marker:none;visibility:visible;display:inline;overflow:visible"
         id="rect6281-5-3"
         width="3.8250003"
         height="6.3750005"
         x="26.85"
         y="220.75" />
    </clipPath>
    <clipPath
       clipPathUnits="userSpaceOnUse"
       id="clipPath6265-3-5-6">
      <rect
         style="color:#bebebe;fill:#bebebe;fill-opacity:1;fill-rule:nonzero;stroke:none;stroke-width:2;marker:none;visibility:visible;display:inline;overflow:visible"
         id="rect6267-1-8-1"
         width="2.8977277"
         height="5.21591"
         x="26.96591"
         y="221.32954" />
    </clipPath>
    <clipPath
       clipPathUnits="userSpaceOnUse"
       id="clipPath6259-8-8-8">
      <rect
         style="color:#bebebe;fill:#bebebe;fill-opacity:1;stroke:none;stroke-width:2;marker:none;visibility:visible;display:inline;overflow:visible"
         id="rect6261-6-0-7"
         width="1.8762827"
         height="4.8734746"
         x="26.998718"
         y="221.50153" />
    </clipPath>
    <clipPath
       id="clipPath3157-7-0"
       clipPathUnits="userSpaceOnUse">
      <rect
         y="221.32954"
         x="28.124998"
         height="5.21591"
         width="1.7386366"
         id="rect3159-5-5"
         style="color:#bebebe;fill:#bebebe;fill-opacity:1;fill-rule:nonzero;stroke:none;stroke-width:2;marker:none;visibility:visible;display:inline;overflow:visible" />
    </clipPath>
    <clipPath
       clipPathUnits="userSpaceOnUse"
       id="clipPath6279-6-1">
      <rect
         style="color:#bebebe;fill:#bebebe;fill-opacity:1;fill-rule:nonzero;stroke:none;stroke-width:2;marker:none;visibility:visible;display:inline;overflow:visible"
         id="rect6281-3-1"
         width="3.8250003"
         height="6.3750005"
         x="26.85"
         y="220.75" />
    </clipPath>
    <clipPath
       clipPathUnits="userSpaceOnUse"
       id="clipPath6265-33-6-4-0">
      <rect
         style="color:#bebebe;fill:#bebebe;fill-opacity:1;fill-rule:nonzero;stroke:none;stroke-width:2;marker:none;visibility:visible;display:inline;overflow:visible"
         id="rect6267-6-9-19-3"
         width="2.8977277"
         height="5.21591"
         x="26.96591"
         y="221.32954" />
    </clipPath>
    <clipPath
       clipPathUnits="userSpaceOnUse"
       id="clipPath6259-6-8-2-8-0">
      <rect
         style="color:#bebebe;fill:#bebebe;fill-opacity:1;stroke:none;stroke-width:2;marker:none;visibility:visible;display:inline;overflow:visible"
         id="rect6261-4-9-2-7-0"
         width="1.8762827"
         height="4.8734746"
         x="26.998718"
         y="221.50153" />
    </clipPath>
    <clipPath
       clipPathUnits="userSpaceOnUse"
       id="clipPath6265-33-4">
      <rect
         style="color:#bebebe;fill:#bebebe;fill-opacity:1;fill-rule:nonzero;stroke:none;stroke-width:2;marker:none;visibility:visible;display:inline;overflow:visible"
         id="rect6267-6-5"
         width="2.8977277"
         height="5.21591"
         x="26.96591"
         y="221.32954" />
    </clipPath>
    <clipPath
       clipPathUnits="userSpaceOnUse"
       id="clipPath6259-6-8-25-4">
      <rect
         style="color:#bebebe;fill:#bebebe;fill-opacity:1;stroke:none;stroke-width:2;marker:none;visibility:visible;display:inline;overflow:visible"
         id="rect6261-4-9-24-2"
         width="1.8762827"
         height="4.8734746"
         x="26.998718"
         y="221.50153" />
    </clipPath>
    <clipPath
       clipPathUnits="userSpaceOnUse"
       id="clipPath6259-6-4">
      <rect
         style="color:#bebebe;fill:#bebebe;fill-opacity:1;stroke:none;stroke-width:2;marker:none;visibility:visible;display:inline;overflow:visible"
         id="rect6261-4-9"
         width="1.8762827"
         height="4.8734746"
         x="26.998718"
         y="221.50153" />
    </clipPath>
    <clipPath
       clipPathUnits="userSpaceOnUse"
       id="clipPath6279-7-9">
      <rect
         style="color:#bebebe;fill:#bebebe;fill-opacity:1;fill-rule:nonzero;stroke:none;stroke-width:2;marker:none;visibility:visible;display:inline;overflow:visible"
         id="rect6281-1-9"
         width="3.8250003"
         height="6.3750005"
         x="26.85"
         y="220.75" />
    </clipPath>
    <clipPath
       clipPathUnits="userSpaceOnUse"
       id="clipPath6265-3-4">
      <rect
         style="color:#bebebe;fill:#bebebe;fill-opacity:1;fill-rule:nonzero;stroke:none;stroke-width:2;marker:none;visibility:visible;display:inline;overflow:visible"
         id="rect6267-1-9"
         width="2.8977277"
         height="5.21591"
         x="26.96591"
         y="221.32954" />
    </clipPath>
    <clipPath
       clipPathUnits="userSpaceOnUse"
       id="clipPath6259-8-81">
      <rect
         style="color:#bebebe;fill:#bebebe;fill-opacity:1;stroke:none;stroke-width:2;marker:none;visibility:visible;display:inline;overflow:visible"
         id="rect6261-6-6"
         width="1.8762827"
         height="4.8734746"
         x="26.998718"
         y="221.50153" />
    </clipPath>
    <clipPath
       clipPathUnits="userSpaceOnUse"
       id="clipPath6279-3">
      <rect
         style="color:#bebebe;fill:#bebebe;fill-opacity:1;fill-rule:nonzero;stroke:none;stroke-width:2;marker:none;visibility:visible;display:inline;overflow:visible"
         id="rect6281-9"
         width="3.8250003"
         height="6.3750005"
         x="26.85"
         y="220.75" />
    </clipPath>
    <clipPath
       clipPathUnits="userSpaceOnUse"
       id="clipPath6265-334">
      <rect
         style="color:#bebebe;fill:#bebebe;fill-opacity:1;fill-rule:nonzero;stroke:none;stroke-width:2;marker:none;visibility:visible;display:inline;overflow:visible"
         id="rect6267-61"
         width="2.8977277"
         height="5.21591"
         x="26.96591"
         y="221.32954" />
    </clipPath>
    <clipPath
       clipPathUnits="userSpaceOnUse"
       id="clipPath6259-5">
      <rect
         style="color:#bebebe;fill:#bebebe;fill-opacity:1;stroke:none;stroke-width:2;marker:none;visibility:visible;display:inline;overflow:visible"
         id="rect6261-61"
         width="1.8762827"
         height="4.8734746"
         x="26.998718"
         y="221.50153" />
    </clipPath>
    <clipPath
       id="clipPath6810-7"
       clipPathUnits="userSpaceOnUse">
      <rect
         y="281"
         x="21"
         height="11"
         width="14"
         id="rect6812-2"
         style="color:#bebebe;fill:none;stroke:#ffffff;stroke-width:2;stroke-linecap:round;stroke-linejoin:round;stroke-miterlimit:4;stroke-opacity:1;stroke-dasharray:none;stroke-dashoffset:0;marker:none;visibility:visible;display:inline;overflow:visible" />
    </clipPath>
    <clipPath
       clipPathUnits="userSpaceOnUse"
       id="clipPath3668">
      <rect
         y="221.50153"
         x="26.998718"
         height="3.3729413"
         width="1.8762826"
         id="rect3670"
         style="color:#bebebe;fill:#bebebe;fill-opacity:1;stroke:none;stroke-width:2;marker:none;visibility:visible;display:inline;overflow:visible" />
    </clipPath>
    <clipPath
       clipPathUnits="userSpaceOnUse"
       id="clipPath3697">
      <path
         style="color:#bebebe;fill:#bebebe;fill-opacity:1;fill-rule:nonzero;stroke:none;stroke-width:2;marker:none;visibility:visible;display:inline;overflow:visible"
         d="m 26.965789,221.32959 0,5.21591 0.579546,0 0,-1.15909 2.318182,0 0,-4.05682 -2.897728,0 z"
         id="path3699" />
    </clipPath>
    <clipPath
       id="clipPath6810-7-87"
       clipPathUnits="userSpaceOnUse">
      <rect
         y="281"
         x="21"
         height="11"
         width="14"
         id="rect6812-2-4"
         style="color:#bebebe;fill:none;stroke:#ffffff;stroke-width:2;stroke-linecap:round;stroke-linejoin:round;stroke-miterlimit:4;stroke-opacity:1;stroke-dasharray:none;stroke-dashoffset:0;marker:none;visibility:visible;display:inline;overflow:visible" />
    </clipPath>
    <inkscape:path-effect
       effect="spiro"
       id="path-effect44198-7"
       is_visible="true" />
    <inkscape:path-effect
       effect="spiro"
       id="path-effect44202-9"
       is_visible="true" />
    <inkscape:path-effect
       effect="spiro"
       id="path-effect8915-0-8-2-7-4-4-8"
       is_visible="true" />
    <radialGradient
       inkscape:collect="always"
       xlink:href="#linearGradient5408"
       id="radialGradient5414"
       cx="-196.78575"
       cy="-28.512899"
       fx="-196.78575"
       fy="-28.512899"
       r="1.607125"
       gradientTransform="matrix(2.9445462,0,0,2.8235465,602.73629,270.04529)"
       gradientUnits="userSpaceOnUse" />
    <radialGradient
       inkscape:collect="always"
       xlink:href="#linearGradient5408-4"
       id="radialGradient5414-2"
       cx="-196.78575"
       cy="-28.512899"
       fx="-196.78575"
       fy="-28.512899"
       r="1.607125"
       gradientTransform="matrix(2.9445462,0,0,2.8235465,602.73629,270.04529)"
       gradientUnits="userSpaceOnUse" />
    <linearGradient
       inkscape:collect="always"
       id="linearGradient5408-4">
      <stop
         style="stop-color:#bebebe;stop-opacity:1;"
         offset="0"
         id="stop5410-7" />
      <stop
         style="stop-color:#bebebe;stop-opacity:0;"
         offset="1"
         id="stop5412-9" />
    </linearGradient>
    <inkscape:path-effect
       effect="spiro"
       id="path-effect4601-8"
       is_visible="true" />
    <inkscape:path-effect
       effect="spiro"
       id="path-effect4597-5"
       is_visible="true" />
  </defs>
  <g
     transform="translate(-261,-489)"
     id="layer3"
     style="display:inline" />
  <g
     transform="translate(-261,-489)"
     id="layer2"
     style="display:inline">
    <g
       transform="translate(99.9998,334)"
       id="g11578"
       style="display:inline">
      <g
         transform="translate(-93.968752,-337)"
         id="g11582"
         style="display:inline" />
    </g>
  </g>
  <g
     transform="translate(-241.0002,-460)"
     id="layer4"
     style="display:inline">
    <g
       transform="translate(-20.99975,-28)"
       id="layer3-5"
       style="display:inline" />
    <g
       transform="translate(-20.99975,-28)"
       id="layer2-1"
       style="display:inline" />
    <g
       transform="translate(-1,1)"
       id="layer4-4"
       style="display:inline" />
    <g
       transform="translate(-1,244)"
       id="layer5-9" />
    <g
       transform="translate(-20.99975,-28)"
       id="layer1-8"
       style="display:inline" />
  </g>
  <g
     id="layer8"
     transform="translate(-241.0002,-217)" />
  <g
     id="layer7"
     transform="translate(-241.0002,-217)" />
  <g
     id="layer5"
     transform="translate(-241.0002,-217)">
    <g
       transform="translate(14,0)"
       id="g11716" />
  </g>
  <g
     id="layer6"
     transform="translate(-241.0002,-217)" />
  <g
     inkscape:groupmode="layer"
     id="layer9"
     inkscape:label="tools"
     style="display:inline"
     transform="translate(-241.0002,-217)">
    <g
       style="display:inline"
       id="g3922"
       transform="translate(21.0002,-0.999999)"
       inkscape:label="stock-tool-airbrush">
      <rect
         style="color:#bebebe;fill:none;stroke:none;stroke-width:1;marker:none;visibility:visible;display:inline;overflow:visible"
         id="rect2941"
         width="16"
         height="16"
         x="-194"
         y="20"
         inkscape:label="audio-volume-high"
         transform="matrix(0,-1,1,0,0,0)" />
      <path
         style="fill:#bebebe;fill-opacity:1;stroke:none;display:inline"
         d="m 35.125,179.625 c 0,0 -4.98611,2.2474 -7.15625,3.875 l -2.875,2.15625 -1.33617,2.13952 c -0.51038,0.17693 -0.60826,1.09044 -0.60826,1.35355 0,0.33235 0.27435,0.60762 0.60761,0.60762 0.26384,0 1.12671,-0.0522 1.27432,-0.47569 l 2.21875,-0.71875 0.48863,-0.35447 0.44397,0.53259 1.1944,-0.92631 -0.43483,-0.52367 1.21408,-0.91564 c 2.18565,-1.64837 5.63281,-5.97656 5.63281,-5.97656 0.38275,-0.44523 -0.11115,-1.06004 -0.66406,-0.77344 z"
         id="path2948"
         inkscape:connector-curvature="0"
         sodipodi:nodetypes="csccssccccccscc" />
      <path
         style="fill:none;stroke:#bebebe;stroke-width:1px;stroke-linecap:butt;stroke-linejoin:miter;stroke-opacity:1;display:inline"
         d="m 29.16518,188.80723 c 0.24302,0.26159 0.423267,0.5811 0.52147,0.92438 0.08637,0.30191 0.109888,0.61988 0.207756,0.91826 0.04893,0.14919 0.117016,0.2936 0.215112,0.4162 0.09809,0.12259 0.227693,0.22271 0.377112,0.27094 0.127673,0.0412 0.26676,0.0434 0.397329,0.0126 0.130568,-0.0308 0.252627,-0.094 0.357481,-0.17769 0.209709,-0.16738 0.346848,-0.41164 0.431424,-0.66628 0.169153,-0.50928 0.14642,-1.07205 0.353276,-1.56721 0.141618,-0.339 0.389738,-0.6326 0.700383,-0.82875 0.310645,-0.19615 0.68239,-0.29397 1.049347,-0.2761"
         id="path4595"
         inkscape:path-effect="#path-effect4597-5"
         inkscape:original-d="m 29.16518,188.80723 c 0,0 0.76685,0.66989 0.52147,0.92438 -0.0816,0.0846 0.20662,1.55753 0.79998,1.6054 1.18672,0.0958 0.30741,-2.39862 1.53951,-2.39862 1.2321,0 1.74973,-1.10485 1.74973,-1.10485"
         inkscape:connector-curvature="0"
         sodipodi:nodetypes="cscsc" />
      <path
         style="color:#000000;fill:url(#radialGradient5414-2);fill-opacity:1;fill-rule:nonzero;stroke:none;stroke-width:1px;marker:none;visibility:visible;display:inline;overflow:visible;enable-background:accumulate"
         d="m 23.29158,189.53779 -1.24899,4.42159 -2.04872,-0.0187 -0.01029,-3.97694 3.308,-0.42595"
         id="path4599"
         inkscape:path-effect="#path-effect4601-8"
         inkscape:original-d="m 23.29158,189.53779 -1.24899,4.42159 -2.04872,-0.0187 -0.01029,-3.97694 z"
         inkscape:connector-curvature="0"
         sodipodi:nodetypes="ccccc" />
    </g>
    <text
       sodipodi:linespacing="125%"
       id="text6726"
       y="165.94501"
       x="41.823399"
       style="font-size:12px;font-style:normal;font-variant:normal;font-weight:normal;font-stretch:normal;text-align:start;line-height:125%;text-anchor:start;fill:#ffffff;fill-opacity:1;stroke:none;display:inline;font-family:Droid Sans"
       xml:space="preserve"><tspan
         y="165.94501"
         x="41.823399"
         id="tspan6728"
         sodipodi:role="line">tools</tspan></text>
    <g
       id="g63382"
       inkscape:label="paintbrush">
      <g
         style="fill:#bebebe;fill-opacity:1;stroke:none"
         transform="matrix(0.8746234,0,0,0.89178327,86.926967,167.56161)"
         id="g9272">
        <path
           style="fill:#bebebe;fill-opacity:1;stroke:none"
           sodipodi:nodetypes="cssac"
           id="path9274"
           d="m -28.5,27.5711 c 3.111145,0.0011 2.79359,-3.323359 4.304166,-4.248979 1.750479,-1.072622 3.284496,0.256475 3.590759,1.350292 0.386445,1.380184 -0.337829,2.508685 -1.300323,3.118949 -1.846361,1.170674 -6.300039,0.898712 -6.594602,-0.220262 z"
           inkscape:connector-curvature="0" />
      </g>
      <path
         inkscape:connector-curvature="0"
         id="path9264"
         d="m 76.96895,177.05295 c -4.87099,4.51404 -6.90164,6.09282 -9.15625,9.4559 1.00355,0.0377 1.86506,0.68644 2.3125,1.62279 2.61197,-2.5654 4.92644,-7.99627 6.84375,-11.07869 z"
         style="fill:#bebebe;fill-opacity:1;stroke:none" />
      <rect
         rx="1"
         ry="0"
         y="177.02174"
         x="61.000198"
         height="15.97829"
         width="16.000002"
         id="rect63349"
         style="fill:none;stroke:none" />
    </g>
    <g
       id="g69011"
       inkscape:label="pencil">
      <path
         sodipodi:nodetypes="ccccc"
         inkscape:connector-curvature="0"
         id="path69005"
         transform="translate(241.0002,217)"
         d="m -146.84375,-39 -1.875,2 c 1.32873,0.02586 2.66512,1.211567 2.71875,2.4375 l 2,-2 c -0.0554,-1.26532 -1.47439,-2.4884 -2.84375,-2.4375 z"
         style="fill:#bebebe;fill-opacity:1;fill-rule:evenodd;stroke:none" />
      <rect
         ry="0"
         rx="0"
         y="177"
         x="81.000198"
         height="16"
         width="15.999998"
         id="rect63426"
         style="fill:none;stroke:none" />
      <path
         inkscape:connector-curvature="0"
         sodipodi:nodetypes="cccccc"
         id="path2273-6-2"
         d="m 83.63056,189.03603 7.520215,-8.03448 c 1.369356,-0.0509 2.794069,1.16344 2.849425,2.42876 l -7.490043,7.79401 -4.509957,1.77567 z"
         style="fill:#bebebe;fill-opacity:1;fill-rule:evenodd;stroke:none" />
    </g>
    <g
       id="g74768"
       inkscape:label="move"
       transform="translate(-60,0)">
      <rect
         style="fill:none;stroke:none"
         id="rect74714"
         width="16"
         height="15.981771"
         x="101.0002"
         y="197.01823" />
      <path
         sodipodi:nodetypes="cccc"
         inkscape:connector-curvature="0"
         id="path74740"
         d="m 109.0221,197 -3.0219,3.0148 6,1e-5 z"
         style="fill:#bebebe;fill-opacity:1;stroke:none" />
      <path
         style="fill:#bebebe;fill-opacity:1;stroke:none"
         d="M -192.96875 -17.96875 L -192.96875 -9 L -192.96875 -6.03125 L -191 -6.03125 L -191 -9 L -191 -17.96875 L -192.96875 -17.96875 z "
         transform="translate(301.0002,217)"
         id="rect74742" />
      <path
         style="fill:#bebebe;fill-opacity:1;stroke:none"
         d="m 109.0221,213 -3.0219,-2.99657 6,-1e-5 z"
         id="path74756"
         inkscape:connector-curvature="0"
         sodipodi:nodetypes="cccc" />
      <path
         sodipodi:nodetypes="cccc"
         inkscape:connector-curvature="0"
         id="path74760"
         d="m 101.0002,204.98724 2.99999,3.01846 1e-5,-5.99317 z"
         style="fill:#bebebe;fill-opacity:1;stroke:none" />
      <path
         style="fill:#bebebe;fill-opacity:1;stroke:none"
         d="m -197.96875,-13 0,2 c 3.98964,0.0066 7.97922,0.03219 11.96875,0 l 0,-2 c -3.9883,0.103056 -7.97827,0.01399 -11.96875,0 z"
         transform="translate(301.0002,217)"
         id="rect74762"
         inkscape:connector-curvature="0"
         sodipodi:nodetypes="ccccc" />
      <path
         style="fill:#bebebe;fill-opacity:1;stroke:none"
         d="m 117.0002,204.98724 -2.99999,3.01846 -10e-6,-5.99317 z"
         id="path74764"
         inkscape:connector-curvature="0"
         sodipodi:nodetypes="cccc" />
    </g>
    <g
       id="g74833"
       inkscape:label="zoom">
      <rect
         y="197"
         x="61.000198"
         height="16"
         width="16.000002"
         id="rect74797"
         style="fill:none;fill-opacity:1;stroke:none" />
      <path
         transform="matrix(1.2871768,0,0,1.2857143,-328.29926,-293.42857)"
         d="m 311,386.5 a 3.5,3.5 0 1 1 -7,0 3.5,3.5 0 1 1 7,0 z"
         sodipodi:ry="3.5"
         sodipodi:rx="3.5"
         sodipodi:cy="386.5"
         sodipodi:cx="307.5"
         style="color:#000000;fill:none;stroke:#bebebe;stroke-width:1.55467153;stroke-linecap:round;stroke-linejoin:round;stroke-miterlimit:4;stroke-opacity:1;stroke-dasharray:none;stroke-dashoffset:0;marker:none;visibility:visible;display:inline;overflow:visible;enable-background:new"
         sodipodi:type="arc"
         id="path74836" />
      <path
         sodipodi:nodetypes="cc"
         d="m 71.01159,207.00001 4.00455,4"
         style="color:#000000;fill:none;stroke:#bebebe;stroke-width:2;stroke-linecap:round;stroke-linejoin:round;stroke-miterlimit:4;stroke-opacity:1;stroke-dasharray:none;stroke-dashoffset:0;marker:none;visibility:visible;display:inline;overflow:visible;enable-background:new"
         inkscape:connector-curvature="0"
         id="path74838" />
    </g>
    <g
       id="g74847"
       inkscape:label="text">
      <rect
         y="197"
         x="81.000198"
         height="16"
         width="16.000002"
         id="rect74840"
         style="fill:none;stroke:none" />
      <path
         sodipodi:nodetypes="cccccccccccccc"
         inkscape:connector-curvature="0"
         id="path74842"
         transform="translate(241.0002,217)"
         d="m -155,-19 -5,14 4,0 1,-3 6,0 1,3 4,0 -5,-14 z m 4,3 1,5 -4,0 1,-5 z"
         style="fill:#bebebe;fill-opacity:1;stroke:none" />
    </g>
    <g
       id="g74903"
       inkscape:label="rectangle-select">
      <rect
         y="217"
         x="41.000198"
         height="16"
         width="16"
         id="rect74851"
         style="fill:none;stroke:none" />
      <rect
         y="220"
         x="41.000198"
         height="1"
         width="1"
         id="rect74853"
         style="fill:#bebebe;fill-opacity:1;stroke:none" />
      <rect
         y="220"
         x="53.000198"
         height="1"
         width="1"
         id="rect74855"
         style="fill:#bebebe;fill-opacity:1;stroke:none" />
      <rect
         y="220"
         x="55.000198"
         height="1"
         width="1"
         id="rect74857"
         style="fill:#bebebe;fill-opacity:1;stroke:none" />
      <rect
         y="222"
         x="41.000198"
         height="1"
         width="1"
         id="rect74859"
         style="fill:#bebebe;fill-opacity:1;stroke:none" />
      <rect
         y="220"
         x="51.000198"
         height="1"
         width="1"
         id="rect74861"
         style="fill:#bebebe;fill-opacity:1;stroke:none" />
      <rect
         y="220"
         x="43.000198"
         height="1"
         width="1"
         id="rect74863"
         style="fill:#bebebe;fill-opacity:1;stroke:none" />
      <rect
         y="220"
         x="45.000198"
         height="1"
         width="1"
         id="rect74865"
         style="fill:#bebebe;fill-opacity:1;stroke:none" />
      <rect
         y="220"
         x="47.000198"
         height="1"
         width="1"
         id="rect74867"
         style="fill:#bebebe;fill-opacity:1;stroke:none" />
      <rect
         y="220"
         x="49.000198"
         height="1"
         width="1"
         id="rect74869"
         style="fill:#bebebe;fill-opacity:1;stroke:none" />
      <rect
         y="224"
         x="41.000198"
         height="1"
         width="1"
         id="rect74871"
         style="fill:#bebebe;fill-opacity:1;stroke:none" />
      <rect
         y="226"
         x="41.000198"
         height="1"
         width="1"
         id="rect74873"
         style="fill:#bebebe;fill-opacity:1;stroke:none" />
      <rect
         y="230"
         x="43.000198"
         height="1"
         width="1"
         id="rect74875"
         style="fill:#bebebe;fill-opacity:1;stroke:none" />
      <rect
         y="230"
         x="45.000198"
         height="1"
         width="1"
         id="rect74877"
         style="fill:#bebebe;fill-opacity:1;stroke:none" />
      <rect
         y="230"
         x="47.000198"
         height="1"
         width="1"
         id="rect74879"
         style="fill:#bebebe;fill-opacity:1;stroke:none" />
      <rect
         y="230"
         x="49.000198"
         height="1"
         width="1"
         id="rect74881"
         style="fill:#bebebe;fill-opacity:1;stroke:none" />
      <rect
         y="230"
         x="51.000198"
         height="1"
         width="1"
         id="rect74883"
         style="fill:#bebebe;fill-opacity:1;stroke:none" />
      <rect
         y="230"
         x="53.000198"
         height="1"
         width="1"
         id="rect74885"
         style="fill:#bebebe;fill-opacity:1;stroke:none" />
      <rect
         y="230"
         x="55.000198"
         height="1"
         width="1"
         id="rect74887"
         style="fill:#bebebe;fill-opacity:1;stroke:none" />
      <rect
         y="228"
         x="55.000198"
         height="1"
         width="1"
         id="rect74889"
         style="fill:#bebebe;fill-opacity:1;stroke:none" />
      <rect
         y="226"
         x="55.000198"
         height="1"
         width="1"
         id="rect74891"
         style="fill:#bebebe;fill-opacity:1;stroke:none" />
      <rect
         y="224"
         x="55.000198"
         height="1"
         width="1"
         id="rect74893"
         style="fill:#bebebe;fill-opacity:1;stroke:none" />
      <rect
         y="222"
         x="55.000198"
         height="1"
         width="1"
         id="rect74895"
         style="fill:#bebebe;fill-opacity:1;stroke:none" />
      <rect
         y="223"
         x="44.000198"
         height="5"
         width="8.999999"
         id="rect74897"
         style="fill:#bebebe;fill-opacity:1;stroke:none" />
      <rect
         y="228"
         x="41.000198"
         height="1"
         width="1"
         id="rect74899"
         style="fill:#bebebe;fill-opacity:1;stroke:none" />
      <rect
         y="230"
         x="41.000198"
         height="1"
         width="1"
         id="rect74901"
         style="fill:#bebebe;fill-opacity:1;stroke:none" />
    </g>
    <g
       id="g82035"
       inkscape:label="paths">
      <rect
         transform="translate(241.0002,217)"
         y="-40"
         x="-140"
         height="16"
         width="16"
         id="rect74975"
         style="fill:none;fill-opacity:1;stroke:none" />
      <path
         sodipodi:nodetypes="cccccc"
         inkscape:connector-curvature="0"
         id="path82005"
         d="m 109.0002,193 0,-2 6,0 0,2 0,0 z"
         style="fill:#bebebe;fill-opacity:1;stroke:none" />
      <path
         sodipodi:nodetypes="ccczcczcccccsssccc"
         inkscape:connector-curvature="0"
         id="path10153"
         transform="translate(241.0002,217)"
         d="m -131,-39 0,2 c 0,0 -2,2 -2,6 1,1.646447 1,2.464039 1,3 0,0.535961 0,1 0,1 l 6,0 c 0,0 0,-0.486136 0,-1 0,-0.513864 0,-1.419845 1,-3 0,-4 -2,-6 -2,-6 l 0,-2 -1,0 0,5 c 0.78135,0.35954 1.3125,1.110484 1.3125,2 0,1.234011 -1.03103,2.25 -2.3125,2.25 -1.28147,0 -2.3125,-1.015989 -2.3125,-2.25 0,-0.891648 0.52812,-1.641564 1.3125,-2 l 0,-5 z"
         style="fill:#bebebe;fill-opacity:1;stroke:none" />
      <path
         transform="matrix(0.74795106,0,0,0.75531676,206.47027,208.43771)"
         d="m -134,-31 a 3,3 0 1 1 -6,0 3,3 0 1 1 6,0 z"
         sodipodi:ry="3"
         sodipodi:rx="3"
         sodipodi:cy="-31"
         sodipodi:cx="-137"
         id="path82013"
         style="fill:#bebebe;fill-opacity:1;stroke:none"
         sodipodi:type="arc" />
      <rect
         y="180"
         x="103.0002"
         height="4"
         width="2"
         id="rect82017"
         style="fill:#bebebe;fill-opacity:1;stroke:none" />
      <rect
         y="177"
         x="102.0002"
         height="4"
         width="3.9999998"
         id="rect82019"
         style="fill:#bebebe;fill-opacity:1;stroke:none" />
      <rect
         style="fill:#bebebe;fill-opacity:1;stroke:none"
         id="rect82021"
         width="2"
         height="4"
         x="103.0002"
         y="-190"
         transform="scale(1,-1)" />
      <rect
         transform="scale(1,-1)"
         style="fill:#bebebe;fill-opacity:1;stroke:none"
         id="rect82023"
         width="3.9999998"
         height="4"
         x="102.0002"
         y="-193" />
    </g>
    <g
       id="g82173"
       inkscape:label="healing">
      <rect
         y="197"
         x="101.0002"
         height="16.000008"
         width="16"
         id="rect82048"
         style="fill:none;stroke:none" />
      <path
         style="fill:#bebebe;fill-opacity:1;stroke:none;display:inline"
         d="m 109.43643,198.48087 c -0.21568,0.17901 -0.40751,0.40847 -0.54367,0.67589 l -4.6579,9.12364 c -0.5447,1.06951 -0.10799,2.38891 0.96718,2.96068 l 0.94561,0.49718 c 1.07517,0.57178 2.37229,0.17678 2.91699,-0.89274 l 4.65791,-9.12363 c 0.54469,-1.06953 0.10799,-2.38892 -0.96719,-2.9607 l -0.9456,-0.49717 c -0.80638,-0.42884 -1.72635,-0.32026 -2.37333,0.21685 z m -1.47066,4.46536 c 0.32968,-0.2454 0.81079,-0.18248 1.06248,0.13898 0.25169,0.32143 0.18715,0.79053 -0.14254,1.03594 -0.32969,0.24539 -0.8108,0.18247 -1.06249,-0.13899 -0.25169,-0.32144 -0.18715,-0.79053 0.14255,-1.03593 z m -0.99341,1.97924 c 0.32968,-0.24542 0.81079,-0.18249 1.06249,0.13897 0.25168,0.32144 0.18715,0.79053 -0.14253,1.03593 -0.32969,0.24539 -0.8108,0.18247 -1.06249,-0.13898 -0.2517,-0.32144 -0.18716,-0.79053 0.14253,-1.03592 z m 3.02336,-1.01067 c 0.32967,-0.24539 0.81079,-0.18247 1.06249,0.13898 0.25168,0.32144 0.18715,0.79053 -0.14254,1.03593 -0.32969,0.24541 -0.8108,0.18249 -1.06248,-0.13897 -0.2517,-0.32145 -0.18716,-0.79053 0.14253,-1.03594 z m -0.9934,1.97923 c 0.32969,-0.24539 0.81079,-0.18247 1.06249,0.13898 0.25169,0.32143 0.18716,0.79053 -0.14253,1.03592 -0.32969,0.24541 -0.81081,0.18249 -1.0625,-0.13897 -0.25169,-0.32144 -0.18716,-0.79053 0.14254,-1.03593 z"
         id="path82132"
         inkscape:connector-curvature="0" />
      <path
         id="path82165"
         transform="translate(241.0002,217)"
         d="M -136.40625 -17 C -137.24628 -17.03508 -138.01499 -16.5644 -138.375 -15.71875 L -138.8125 -14.71875 C -139.29254 -13.5912 -138.81211 -12.24823 -137.71875 -11.71875 L -136.84375 -11.3125 L -134.40625 -16.21875 L -135.5625 -16.78125 C -135.83585 -16.91356 -136.12624 -16.9886 -136.40625 -17 z M -127.125 -12.71875 L -129.59375 -7.8125 L -128.375 -7.21875 C -127.28165 -6.6893 -126.04254 -7.15372 -125.5625 -8.28125 L -125.125 -9.28125 C -124.64495 -10.40878 -125.12538 -11.7518 -126.21875 -12.28125 L -127.125 -12.71875 z "
         style="fill:#bebebe;fill-opacity:1;stroke:none;display:inline" />
    </g>
    <g
       id="g3919"
       inkscape:label="blending">
      <g
         inkscape:label="blend"
         id="g84908">
        <rect
           style="fill:none;fill-opacity:1;stroke:none"
           id="rect82178"
           width="16"
           height="16"
           x="-120"
           y="-40"
           transform="translate(241.0002,217)" />
        <path
           style="fill:#bebebe;fill-opacity:1;stroke:none"
           d="m 122.0002,178 0,14 14,0 0,-14 -14,0 z m 1,1 12,0 0,12 -12,0 0,-12 z"
           id="rect82180"
           inkscape:connector-curvature="0" />
        <rect
           style="fill:#bebebe;fill-opacity:1;stroke:none"
           id="rect82185"
           width="3.0000017"
           height="10"
           x="124.0002"
           y="180" />
        <rect
           style="fill:#bebebe;fill-opacity:1;stroke:none"
           id="rect82187"
           width="1"
           height="1"
           x="128.0002"
           y="181" />
        <rect
           style="fill:#bebebe;fill-opacity:1;stroke:none"
           id="rect82189"
           width="1"
           height="1"
           x="127.0002"
           y="180" />
        <rect
           y="183"
           x="128.0002"
           height="1"
           width="1"
           id="rect82191"
           style="fill:#bebebe;fill-opacity:1;stroke:none" />
        <rect
           y="182"
           x="127.0002"
           height="1"
           width="1"
           id="rect82193"
           style="fill:#bebebe;fill-opacity:1;stroke:none" />
        <rect
           style="fill:#bebebe;fill-opacity:1;stroke:none"
           id="rect82195"
           width="1"
           height="1"
           x="128.0002"
           y="185" />
        <rect
           style="fill:#bebebe;fill-opacity:1;stroke:none"
           id="rect82197"
           width="1"
           height="1"
           x="127.0002"
           y="184" />
        <rect
           y="187"
           x="128.0002"
           height="1"
           width="1"
           id="rect82199"
           style="fill:#bebebe;fill-opacity:1;stroke:none" />
        <rect
           y="186"
           x="127.0002"
           height="1"
           width="1"
           id="rect82201"
           style="fill:#bebebe;fill-opacity:1;stroke:none" />
        <rect
           style="fill:#bebebe;fill-opacity:1;stroke:none"
           id="rect82203"
           width="1"
           height="1"
           x="128.0002"
           y="189" />
        <rect
           style="fill:#bebebe;fill-opacity:1;stroke:none"
           id="rect82205"
           width="1"
           height="1"
           x="127.0002"
           y="188" />
        <rect
           style="opacity:0.3;fill:#bebebe;fill-opacity:1;stroke:none"
           id="rect82207"
           width="1"
           height="1"
           x="130.0002"
           y="180" />
        <rect
           style="opacity:0.3;fill:#bebebe;fill-opacity:1;stroke:none"
           id="rect82209"
           width="1"
           height="1"
           x="130.0002"
           y="182" />
        <rect
           style="opacity:0.3;fill:#bebebe;fill-opacity:1;stroke:none"
           id="rect82211"
           width="1"
           height="1"
           x="130.0002"
           y="184" />
        <rect
           style="opacity:0.3;fill:#bebebe;fill-opacity:1;stroke:none"
           id="rect82213"
           width="1"
           height="1"
           x="130.0002"
           y="186" />
        <rect
           style="opacity:0.3;fill:#bebebe;fill-opacity:1;stroke:none"
           id="rect82215"
           width="1"
           height="1"
           x="130.0002"
           y="188" />
        <rect
           y="181"
           x="131.0002"
           height="1"
           width="1"
           id="rect84896"
           style="opacity:0.3;fill:#bebebe;fill-opacity:1;stroke:none" />
        <rect
           y="183"
           x="131.0002"
           height="1"
           width="1"
           id="rect84898"
           style="opacity:0.3;fill:#bebebe;fill-opacity:1;stroke:none" />
        <rect
           y="185"
           x="131.0002"
           height="1"
           width="1"
           id="rect84900"
           style="opacity:0.3;fill:#bebebe;fill-opacity:1;stroke:none" />
        <rect
           y="187"
           x="131.0002"
           height="1"
           width="1"
           id="rect84902"
           style="opacity:0.3;fill:#bebebe;fill-opacity:1;stroke:none" />
        <rect
           y="189"
           x="131.0002"
           height="1"
           width="1"
           id="rect84904"
           style="opacity:0.3;fill:#bebebe;fill-opacity:1;stroke:none" />
        <rect
           style="opacity:0.3;fill:#bebebe;fill-opacity:1;stroke:none"
           id="rect84906"
           width="1"
           height="10"
           x="129.0002"
           y="180"
           rx="2"
           ry="0" />
      </g>
    </g>
    <g
       id="g10573"
       inkscape:label="scale">
      <rect
         transform="translate(241.0002,217)"
         y="-20"
         x="-120"
         height="16"
         width="16"
         id="rect3946"
         style="fill:none;fill-opacity:1;stroke:none" />
      <rect
         rx="0.46966994"
         ry="0.5138641"
         y="211"
         x="121.0002"
         height="2"
         width="4.0000014"
         id="rect4716"
         style="fill:#bebebe;fill-opacity:1;stroke:none" />
      <path
         inkscape:connector-curvature="0"
         id="rect4718"
         d="m 127.83353,197 c -0.46166,0 -0.83333,0.38229 -0.83333,0.85714 l 0,3.42857 0,0.85715 c 0,0.47485 0.37167,0.85714 0.83333,0.85714 l 5.83334,0 2.5,0 c 0.46166,0 0.83333,-0.38229 0.83333,-0.85714 l 0,-3.42857 0,-0.85715 c 0,-0.47485 -0.37167,-0.85714 -0.83333,-0.85714 l -5.83334,0 -2.5,0 z"
         style="fill:#bebebe;fill-opacity:1;stroke:none" />
      <path
         sodipodi:nodetypes="cccccccccc"
         inkscape:connector-curvature="0"
         id="path10525"
         d="m 127.0002,205 2,2 -3,3 1,1 1,-1 2,-2 2,2 0,-5 -3,0 z"
         style="fill:#bebebe;fill-opacity:1;stroke:none" />
    </g>
  </g>
  <text
     xml:space="preserve"
     style="font-size:40px;font-style:normal;font-variant:normal;font-weight:normal;font-stretch:normal;text-align:start;line-height:125%;letter-spacing:0px;word-spacing:0px;writing-mode:lr-tb;text-anchor:start;fill:#eeeeec;fill-opacity:1;stroke:none;font-family:Cantarell;-inkscape-font-specification:Cantarell"
     x="-199"
     y="-128"
     id="text4574"
     sodipodi:linespacing="125%"><tspan
       sodipodi:role="line"
       id="tspan4576"
       x="-199"
       y="-128">Art Libre</tspan></text>
</svg>
