<?xml version="1.0" encoding="UTF-8" standalone="no"?>
<!-- Created with Inkscape (http://www.inkscape.org/) -->

<svg
   xmlns:dc="http://purl.org/dc/elements/1.1/"
   xmlns:cc="http://creativecommons.org/ns#"
   xmlns:rdf="http://www.w3.org/1999/02/22-rdf-syntax-ns#"
   xmlns:svg="http://www.w3.org/2000/svg"
   xmlns="http://www.w3.org/2000/svg"
   xmlns:sodipodi="http://sodipodi.sourceforge.net/DTD/sodipodi-0.dtd"
   xmlns:inkscape="http://www.inkscape.org/namespaces/inkscape"
   width="32px"
   height="32px"
   id="svg13790"
   version="1.1"
   inkscape:version="0.91 r13725"
   sodipodi:docname="roundabout-135.svg"
   inkscape:export-filename="/home/andreasn/SparkleShare/gnome-icons/maps-symbolic/direction-roundabout.png"
   inkscape:export-xdpi="90"
   inkscape:export-ydpi="90">
  <defs
     id="defs13792" />
  <sodipodi:namedview
     id="base"
     pagecolor="#ffffff"
     bordercolor="#666666"
     borderopacity="1.0"
     inkscape:pageopacity="0.0"
     inkscape:pageshadow="2"
     inkscape:zoom="2.8284271"
     inkscape:cx="-73.447909"
     inkscape:cy="36.618372"
     inkscape:current-layer="layer1"
     showgrid="false"
     inkscape:grid-bbox="true"
     inkscape:document-units="px"
     inkscape:snap-global="true"
     inkscape:snap-nodes="false"
     inkscape:snap-bbox="true"
     inkscape:bbox-paths="true"
     showguides="true"
     inkscape:guide-bbox="true"
     showborder="true"
     inkscape:window-width="1920"
     inkscape:window-height="1016"
     inkscape:window-x="0"
     inkscape:window-y="27"
     inkscape:window-maximized="1"
     inkscape:bbox-nodes="true">
    <inkscape:grid
       type="xygrid"
       id="grid13798" />
  </sodipodi:namedview>
  <metadata
     id="metadata13795">
    <rdf:RDF>
      <cc:Work
         rdf:about="">
        <dc:format>image/svg+xml</dc:format>
        <dc:type
           rdf:resource="http://purl.org/dc/dcmitype/StillImage" />
        <dc:title></dc:title>
      </cc:Work>
    </rdf:RDF>
  </metadata>
  <g
     id="layer1"
     inkscape:label="Layer 1"
     inkscape:groupmode="layer">
    <path
       style="color:#000000;font-style:normal;font-variant:normal;font-weight:normal;font-stretch:normal;font-size:medium;line-height:normal;font-family:sans-serif;text-indent:0;text-align:start;text-decoration:none;text-decoration-line:none;text-decoration-style:solid;text-decoration-color:#000000;letter-spacing:normal;word-spacing:normal;text-transform:none;direction:ltr;block-progression:tb;writing-mode:lr-tb;baseline-shift:baseline;text-anchor:start;white-space:normal;clip-rule:nonzero;display:inline;overflow:visible;visibility:visible;opacity:0.3;isolation:auto;mix-blend-mode:normal;color-interpolation:sRGB;color-interpolation-filters:linearRGB;solid-color:#000000;solid-opacity:1;fill:#bebebe;fill-opacity:1;fill-rule:nonzero;stroke:none;stroke-width:3.99999881;stroke-linecap:butt;stroke-linejoin:miter;stroke-miterlimit:4;stroke-dasharray:none;stroke-dashoffset:0;stroke-opacity:1;color-rendering:auto;image-rendering:auto;shape-rendering:auto;text-rendering:auto;enable-background:accumulate"
       d="m 16.060547,9.02539 c -4.394589,0 -8,3.60541 -8,8 0,4.39459 3.605411,8 8,8 4.394589,0 8,-3.60541 8,-8 0,-4.39459 -3.605411,-8 -8,-8 z m 0,4 c 2.232829,0 4,1.76717 4,4 0,2.23283 -1.767171,4 -4,4 -2.232829,0 -4,-1.76717 -4,-4 0,-2.23283 1.767171,-4 4,-4 z"
       id="path4136-5-4-9-7"
       inkscape:connector-curvature="0" />
    <path
       style="color:#000000;display:inline;overflow:visible;visibility:visible;fill:#bebebe;fill-opacity:1;fill-rule:nonzero;stroke:none;stroke-width:1;marker:none;enable-background:accumulate"
       d="m 28,5 -8.494141,1.40039 2.128907,2.12891 -2.550782,2.53711 a 2.0002,2.0002 0 0 0 -0.232422,3.09375 c 1.176924,1.14627 1.5347,2.87854 0.90625,4.39648 -0.628449,1.51794 -2.105289,2.48986 -3.748046,2.46875 a 2.0002,2.0002 0 0 0 -2.027344,2.1875 l 0,4.82227 4.003906,0 0,-3.26368 c 2.423278,-0.60481 4.48292,-2.30911 5.466797,-4.68554 0.982287,-2.3726 0.73062,-5.02905 -0.550781,-7.16797 l 1.554687,-1.56641 2.142578,2.14258 L 28,5 Z"
       id="rect13805-3-4-8-8-8-7-2-9-98-8-5"
       inkscape:connector-curvature="0" />
  </g>
</svg>
