<?xml version="1.0" encoding="UTF-8" standalone="no"?>
<!-- Created with Inkscape (http://www.inkscape.org/) -->

<svg
   xmlns:dc="http://purl.org/dc/elements/1.1/"
   xmlns:cc="http://creativecommons.org/ns#"
   xmlns:rdf="http://www.w3.org/1999/02/22-rdf-syntax-ns#"
   xmlns:svg="http://www.w3.org/2000/svg"
   xmlns="http://www.w3.org/2000/svg"
   xmlns:sodipodi="http://sodipodi.sourceforge.net/DTD/sodipodi-0.dtd"
   xmlns:inkscape="http://www.inkscape.org/namespaces/inkscape"
   width="32px"
   height="32px"
   id="svg13790"
   version="1.1"
   inkscape:version="0.91 r13725"
   sodipodi:docname="roundabout-45.svg"
   inkscape:export-filename="/home/andreasn/SparkleShare/gnome-icons/maps-symbolic/direction-roundabout.png"
   inkscape:export-xdpi="90"
   inkscape:export-ydpi="90">
  <defs
     id="defs13792" />
  <sodipodi:namedview
     id="base"
     pagecolor="#ffffff"
     bordercolor="#666666"
     borderopacity="1.0"
     inkscape:pageopacity="0.0"
     inkscape:pageshadow="2"
     inkscape:zoom="2.8284271"
     inkscape:cx="-125.58813"
     inkscape:cy="34.345249"
     inkscape:current-layer="layer1"
     showgrid="false"
     inkscape:grid-bbox="true"
     inkscape:document-units="px"
     inkscape:snap-global="true"
     inkscape:snap-nodes="false"
     inkscape:snap-bbox="true"
     inkscape:bbox-paths="true"
     showguides="true"
     inkscape:guide-bbox="true"
     showborder="true"
     inkscape:window-width="1920"
     inkscape:window-height="1016"
     inkscape:window-x="0"
     inkscape:window-y="27"
     inkscape:window-maximized="1"
     inkscape:bbox-nodes="true">
    <inkscape:grid
       type="xygrid"
       id="grid13798" />
  </sodipodi:namedview>
  <metadata
     id="metadata13795">
    <rdf:RDF>
      <cc:Work
         rdf:about="">
        <dc:format>image/svg+xml</dc:format>
        <dc:type
           rdf:resource="http://purl.org/dc/dcmitype/StillImage" />
        <dc:title></dc:title>
      </cc:Work>
    </rdf:RDF>
  </metadata>
  <g
     id="layer1"
     inkscape:label="Layer 1"
     inkscape:groupmode="layer">
    <path
       style="color:#000000;font-style:normal;font-variant:normal;font-weight:normal;font-stretch:normal;font-size:medium;line-height:normal;font-family:sans-serif;text-indent:0;text-align:start;text-decoration:none;text-decoration-line:none;text-decoration-style:solid;text-decoration-color:#000000;letter-spacing:normal;word-spacing:normal;text-transform:none;direction:ltr;block-progression:tb;writing-mode:lr-tb;baseline-shift:baseline;text-anchor:start;white-space:normal;clip-rule:nonzero;display:inline;overflow:visible;visibility:visible;opacity:0.3;isolation:auto;mix-blend-mode:normal;color-interpolation:sRGB;color-interpolation-filters:linearRGB;solid-color:#000000;solid-opacity:1;fill:#bebebe;fill-opacity:1;fill-rule:nonzero;stroke:none;stroke-width:3.99999881;stroke-linecap:butt;stroke-linejoin:miter;stroke-miterlimit:4;stroke-dasharray:none;stroke-dashoffset:0;stroke-opacity:1;color-rendering:auto;image-rendering:auto;shape-rendering:auto;text-rendering:auto;enable-background:accumulate"
       d="m 16.154297,9.02539 c 4.394589,0 8,3.60541 8,8 0,4.39459 -3.605411,8 -8,8 -4.394589,0 -8.0000001,-3.60541 -8.0000001,-8 0,-4.39459 3.6054111,-8 8.0000001,-8 z m 0,4 c -2.232829,0 -4,1.76717 -4,4 0,2.23283 1.767171,4 4,4 2.232829,0 4,-1.76717 4,-4 0,-2.23283 -1.767171,-4 -4,-4 z"
       id="path4136-5-4-9-7-7-3"
       inkscape:connector-curvature="0" />
    <path
       style="color:#000000;display:inline;overflow:visible;visibility:visible;fill:#bebebe;fill-opacity:1;fill-rule:nonzero;stroke:none;stroke-width:1;marker:none;enable-background:accumulate"
       d="M 21.212891,18.14453 A 2.0002,2.0002 0 0 0 19.5625,19.11914 c -0.738995,1.20259 -2.047602,1.92463 -3.458984,1.90625 a 2.0002,2.0002 0 0 0 -2.027344,2.17383 l 0,4.83594 4.003906,0 0,-3.2461 c 1.241341,-0.30851 2.389795,-0.91289 3.34961,-1.7539 l 0.355468,0.3789 -2.185547,2.18555 L 28.09375,27 l -1.400391,-8.49414 -2.140625,2.14062 -1.625,-1.63476 a 2.0002,2.0002 0 0 0 -1.714843,-0.86719 z"
       id="rect13805-3-4-8-8-8-7-2-9-98-8-5-9-0"
       inkscape:connector-curvature="0" />
  </g>
</svg>
