<?xml version="1.0" encoding="UTF-8" standalone="no"?>
<!-- Created with Inkscape (http://www.inkscape.org/) -->

<svg
   xmlns:dc="http://purl.org/dc/elements/1.1/"
   xmlns:cc="http://creativecommons.org/ns#"
   xmlns:rdf="http://www.w3.org/1999/02/22-rdf-syntax-ns#"
   xmlns:svg="http://www.w3.org/2000/svg"
   xmlns="http://www.w3.org/2000/svg"
   xmlns:xlink="http://www.w3.org/1999/xlink"
   xmlns:sodipodi="http://sodipodi.sourceforge.net/DTD/sodipodi-0.dtd"
   xmlns:inkscape="http://www.inkscape.org/namespaces/inkscape"
   width="96"
   height="96"
   id="svg44811"
   version="1.1"
   inkscape:version="0.48+devel r13295"
   viewBox="0 0 96 96.000001"
   sodipodi:docname="avatar.svg">
  <defs
     id="defs44813">
    <pattern
       inkscape:stockid="Wavy white"
       id="Wavywhite"
       height="5.1805778"
       width="30.066020"
       patternUnits="userSpaceOnUse"
       inkscape:collect="always">
      <path
         id="path8622"
         d="M 7.597,0.061 C 5.079,-0.187 2.656,0.302 -0.01,1.788 L -0.01,3.061 C 2.773,1.431 5.173,1.052 7.472,1.280 C 9.770,1.508 11.969,2.361 14.253,3.218 C 18.820,4.931 23.804,6.676 30.066,3.061 L 30.062,1.788 C 23.622,5.497 19.246,3.770 14.691,2.061 C 12.413,1.207 10.115,0.311 7.597,0.061 z "
         style="fill:white;stroke:none;" />
    </pattern>
    <pattern
       patternUnits="userSpaceOnUse"
       width="1347.3054"
       height="900"
       patternTransform="translate(1534.6946,1118.3622)"
       id="pattern24646">
      <image
         width="1347.3054"
         height="900"
         xlink:href="file:///home/jimmac/Dropbox/talks/LGM2014/assets/P1110247.jpg"
         id="avatar"
         x="0"
         y="0" />
    </pattern>
  </defs>
  <sodipodi:namedview
     id="base"
     pagecolor="#545454"
     bordercolor="#666666"
     borderopacity="1.0"
     inkscape:pageopacity="0"
     inkscape:pageshadow="2"
     inkscape:zoom="1"
     inkscape:cx="66.31985"
     inkscape:cy="48.871104"
     inkscape:document-units="px"
     inkscape:current-layer="layer1"
     showgrid="false"
     borderlayer="true"
     inkscape:showpageshadow="false"
     inkscape:snap-page="true"
     inkscape:window-width="2560"
     inkscape:window-height="1374"
     inkscape:window-x="0"
     inkscape:window-y="27"
     inkscape:window-maximized="1">
    <inkscape:grid
       type="xygrid"
       id="grid47325" />
  </sodipodi:namedview>
  <metadata
     id="metadata44816">
    <rdf:RDF>
      <cc:Work
         rdf:about="">
        <dc:format>image/svg+xml</dc:format>
        <dc:type
           rdf:resource="http://purl.org/dc/dcmitype/StillImage" />
        <dc:title />
      </cc:Work>
    </rdf:RDF>
  </metadata>
  <g
     inkscape:label="Layer 1"
     inkscape:groupmode="layer"
     id="layer1"
     transform="translate(0,-956.3622)">
    <g
       transform="matrix(1.1201908,0,0,1.1201908,-123.9493,718.86791)"
       id="g35884"
       style="fill:none;stroke:#ffffff;stroke-width:0.89270507;stroke-miterlimit:4;stroke-opacity:1;stroke-dasharray:none">
      <circle
         style="color:#000000;fill:none;stroke:#ffffff;stroke-width:0.44635254;stroke-miterlimit:4;stroke-opacity:1;stroke-dasharray:none;marker:none;visibility:visible;display:inline;overflow:visible;enable-background:new"
         id="path35890"
         cx="153.50002"
         cy="254.8622"
         r="41.510784"
         d="m 195.0108,254.8622 a 41.510784,41.510784 0 0 1 -41.51078,41.51078 41.510784,41.510784 0 0 1 -41.51079,-41.51078 41.510784,41.510784 0 0 1 41.51079,-41.51079 41.510784,41.510784 0 0 1 41.51078,41.51079 z" />
    </g>
    <circle
       transform="matrix(0.99604777,0.08881911,-0.08881911,0.99604777,0,0)"
       id="path35892"
       style="color:#000000;fill:url(#Wavywhite);fill-opacity:1.0;fill-rule:nonzero;stroke:none;stroke-width:1;marker:none;visibility:visible;display:inline;overflow:visible;enable-background:new"
       cx="137.18282"
       cy="996.26819"
       r="41.904942"
       d="m 179.08776,996.26819 a 41.904942,41.904942 0 0 1 -41.90494,41.90491 41.904942,41.904942 0 0 1 -41.904946,-41.90491 41.904942,41.904942 0 0 1 41.904946,-41.90494 41.904942,41.904942 0 0 1 41.90494,41.90494 z" />
    <g
       style="fill:none;stroke:#ffffff;stroke-width:1.7509799;stroke-miterlimit:4;stroke-opacity:1;stroke-dasharray:none"
       id="g47321"
       transform="matrix(1.1422176,0,0,1.1422176,-127.33042,713.25412)">
      <circle
         r="41.5"
         cy="254.86218"
         cx="153.5"
         transform="matrix(0.92725992,0,0,0.92725992,11.165606,18.538702)"
         id="circle47323"
         style="color:#000000;fill:none;stroke:#ffffff;stroke-width:1.88833773;stroke-miterlimit:4;stroke-opacity:1;stroke-dasharray:none;marker:none;visibility:visible;display:inline;overflow:visible;enable-background:new"
         d="m 195,254.86218 a 41.5,41.5 0 0 1 -41.5,41.5 41.5,41.5 0 0 1 -41.5,-41.5 41.5,41.5 0 0 1 41.5,-41.5 41.5,41.5 0 0 1 41.5,41.5 z" />
    </g>
  </g>
</svg>
