<?xml version="1.0" encoding="UTF-8" standalone="no"?>
<!-- Created with Inkscape (http://www.inkscape.org/) -->
<svg xmlns:rdf="http://www.w3.org/1999/02/22-rdf-syntax-ns#" style="enable-background:new;" xmlns="http://www.w3.org/2000/svg" height="256" width="256" version="1.0" xmlns:cc="http://creativecommons.org/ns#" xmlns:xlink="http://www.w3.org/1999/xlink" xmlns:dc="http://purl.org/dc/elements/1.1/">
 <title>Firewall</title>
 <defs>
  <clipPath id="clipPath3920-1" clipPathUnits="userSpaceOnUse">
   <rect style="enable-background:accumulate;" rx="20" ry="20" height="224" width="224" stroke="#000" y="44" x="36" stroke-width="2" fill="none"/>
  </clipPath>
  <filter id="filter4019-4" color-interpolation-filters="sRGB">
   <feGaussianBlur stdDeviation="1.0740625"/>
  </filter>
  <filter id="filter3932-0" color-interpolation-filters="sRGB">
   <feGaussianBlur stdDeviation="2.2400002"/>
  </filter>
  <clipPath id="clipPath4575-0" clipPathUnits="userSpaceOnUse">
   <path style="enable-background:accumulate;" d="m20,32,0,256,256,0,0-256-256,0zm36,13,184,0c10.546,0,19,8.454,19,19v184c0,10.546-8.454,19-19,19h-184c-10.546,0-19-8.45-19-19v-184c0-10.546,8.454-19,19-19z" stroke="#000" stroke-width="2" fill="none"/>
  </clipPath>
  <filter id="filter3876-5" height="1.4982851" width="1.0596451" color-interpolation-filters="sRGB" y="-0.24914257" x="-0.029822553">
   <feGaussianBlur stdDeviation="2.4914257"/>
  </filter>
  <filter id="filter4568-5-9" width="1.1529416" y="-0.63884968" x="-0.076470785" height="2.2776995" color-interpolation-filters="sRGB">
   <feGaussianBlur stdDeviation="6.388497"/>
  </filter>
  <linearGradient id="linearGradient3380" y2="221.47" gradientUnits="userSpaceOnUse" x2="249.6" gradientTransform="translate(-190,0)" y1="104.48" x1="46.964">
   <stop stop-color="#FFF" offset="0"/>
   <stop stop-color="#FFF" stop-opacity="0" offset="0.2151"/>
   <stop stop-color="#FFF" stop-opacity="0.15537849" offset="0.39498"/>
   <stop stop-color="#FFF" stop-opacity="0.62151394" offset="0.51542"/>
   <stop stop-color="#FFF" stop-opacity="0" offset="0.55716"/>
   <stop stop-color="#FFF" stop-opacity="0.99601594" offset="0.85224"/>
   <stop stop-color="#FFF" stop-opacity="0" offset="1"/>
  </linearGradient>
  <radialGradient id="radialGradient3382" gradientUnits="userSpaceOnUse" cy="240.79" cx="161.94" gradientTransform="matrix(2.5242045,0,0,0.81210803,-262.65655,56.776116)" r="112">
   <stop stop-color="#FFF" offset="0"/>
   <stop stop-color="#FFF" stop-opacity="0" offset="1"/>
  </radialGradient>
  <radialGradient id="radialGradient3384" gradientUnits="userSpaceOnUse" cy="51" cx="143.5" gradientTransform="matrix(1.2800307,-1.6856703e-7,2.2525768e-8,0.17105169,-40.184394,42.276388)" r="110.98">
   <stop stop-color="#FFF" offset="0"/>
   <stop stop-color="#FFF" stop-opacity="0" offset="1"/>
  </radialGradient>
  <radialGradient id="radialGradient3386" gradientUnits="userSpaceOnUse" cy="162.74" cx="97.73" gradientTransform="matrix(5.3934477,0.26759263,-0.03924263,0.79095268,-476.21373,0.13176872)" r="110.98">
   <stop stop-color="#FFF" offset="0"/>
   <stop stop-color="#FFF" stop-opacity="0" offset="1"/>
  </radialGradient>
  <linearGradient id="linearGradient3388" y2="221.64" gradientUnits="userSpaceOnUse" x2="147.75" y1="246.36" x1="147.75">
   <stop stop-color="#000" stop-opacity="0" offset="0"/>
   <stop stop-color="#000" offset="0.5"/>
   <stop stop-color="#000" stop-opacity="0" offset="1"/>
  </linearGradient>
 </defs>
 <metadata>
  <rdf:RDF>
   <cc:Work rdf:about="">
    <dc:format>image/svg+xml</dc:format>
    <dc:type rdf:resource="http://purl.org/dc/dcmitype/StillImage"/>
    <dc:creator>
     <cc:Agent>
      <dc:title>Lapo Calamandrei</dc:title>
     </cc:Agent>
    </dc:creator>
    <dc:source/>
    <cc:license rdf:resource=""/>
    <dc:title>Firewall</dc:title>
    <dc:subject>
     <rdf:Bag/>
    </dc:subject>
    <dc:date/>
    <dc:rights>
     <cc:Agent>
      <dc:title/>
     </cc:Agent>
    </dc:rights>
    <dc:publisher>
     <cc:Agent>
      <dc:title/>
     </cc:Agent>
    </dc:publisher>
    <dc:identifier/>
    <dc:relation/>
    <dc:language/>
    <dc:coverage/>
    <dc:description/>
    <dc:contributor>
     <cc:Agent>
      <dc:title/>
     </cc:Agent>
    </dc:contributor>
   </cc:Work>
   <cc:Work rdf:about="">
    <dc:format>image/svg+xml</dc:format>
    <dc:type rdf:resource="http://purl.org/dc/dcmitype/StillImage"/>
   </cc:Work>
  </rdf:RDF>
 </metadata>
 <g style="enable-background:new;" clip-path="url(#clipPath4575-0)" transform="translate(-20,-32)" fill-rule="nonzero">
  <rect opacity="0.2" ry="12" style="enable-background:accumulate;color:#000000;" rx="24.011" transform="matrix(1.2072059,0,0,1.2498782,-30.614654,-27.495619)" height="24" filter="url(#filter3876-5)" width="200.5" y="222" x="47.5" fill="url(#linearGradient3388)"/>
  <rect opacity="0.8" style="enable-background:accumulate;color:#000000;" transform="matrix(1.117857,0,0,0.68862801,-17.413366,100.83692)" rx="25.041" ry="12" height="24" filter="url(#filter4568-5-9)" width="200.5" y="222" x="47.5" fill="#000"/>
 </g>
 <g style="enable-background:new;" transform="translate(-20,268)">
  <path style="enable-background:accumulate;" d="M56,44.5c-10.813,0-19.5,8.687-19.5,19.5v184c0,10.813,8.687,19.5,19.5,19.5h184c10.813,0,19.5-8.687,19.5-19.5v-184c0-10.813-8.687-19.5-19.5-19.5h-184z" transform="translate(0,-300)" stroke="#2e3436" stroke-dasharray="none" stroke-miterlimit="4" stroke-width="1" fill="none"/>
  <g transform="translate(190,-300)">
   <rect opacity="0.1" style="enable-background:accumulate;" fill-rule="nonzero" rx="20" ry="20" height="224" width="224" y="44" x="-154" fill="url(#linearGradient3380)"/>
   <g transform="translate(-190,0)" clip-path="url(#clipPath3920-1)">
    <rect opacity="0.24303" style="enable-background:accumulate;" fill-rule="nonzero" rx="20" ry="20" height="124" width="224" y="144" x="36" fill="url(#radialGradient3382)"/>
    <path style="enable-background:accumulate;" d="m56,48.594c-8.6227,0-15.406,6.7835-15.406,15.406v184c0,8.6228,6.7835,15.406,15.406,15.406h184c8.6228,0,15.406-6.7835,15.406-15.406v-184c0-8.6227-6.7835-15.406-15.406-15.406h-184z" filter="url(#filter4019-4)" stroke="url(#radialGradient3384)" stroke-dasharray="none" stroke-miterlimit="4" stroke-width="3" fill="none"/>
    <path opacity="0.7" style="enable-background:accumulate;" d="m56,42,184,0c11.08,0,20,8.92,20,20v185c0,11.08-8.92,20-20,20h-184c-11.08,0-20-8.92-20-20v-185c0-11.08,8.92-20,20-20z" filter="url(#filter3932-0)" stroke="#000" stroke-dasharray="none" stroke-miterlimit="4" stroke-width="4" fill="none"/>
    <path style="enable-background:accumulate;" d="m56,47.594c-9.1512,0-16.406,7.255-16.406,16.406v184c0,9.1512,7.255,16.406,16.406,16.406h184c9.1512,0,16.406-7.255,16.406-16.406v-184c0-9.1512-7.255-16.406-16.406-16.406h-184z" stroke="url(#radialGradient3386)" stroke-dasharray="none" stroke-miterlimit="4" stroke-width="2" fill="none"/>
   </g>
  </g>
 </g>
</svg>
