<?xml version="1.0" encoding="UTF-8" standalone="no"?>
<!-- Created with Inkscape (http://www.inkscape.org/) -->

<svg
   xmlns:dc="http://purl.org/dc/elements/1.1/"
   xmlns:cc="http://creativecommons.org/ns#"
   xmlns:rdf="http://www.w3.org/1999/02/22-rdf-syntax-ns#"
   xmlns:svg="http://www.w3.org/2000/svg"
   xmlns="http://www.w3.org/2000/svg"
   xmlns:xlink="http://www.w3.org/1999/xlink"
   xmlns:sodipodi="http://sodipodi.sourceforge.net/DTD/sodipodi-0.dtd"
   xmlns:inkscape="http://www.inkscape.org/namespaces/inkscape"
   width="1250"
   height="540"
   id="svg15638"
   version="1.1"
   inkscape:version="0.48.2 r9819"
   sodipodi:docname="inkscape-icons.svg">
  <defs
     id="defs15640">
    <linearGradient
       id="linearGradient1887">
      <stop
         id="stop1888"
         offset="0.0000000"
         style="stop-color:#fffdf8;stop-opacity:1.0000000;" />
      <stop
         id="stop1889"
         offset="1.0000000"
         style="stop-color:#cdccc7;stop-opacity:1.0000000;" />
    </linearGradient>
    <linearGradient
       id="linearGradient5740">
      <stop
         id="stop5742"
         offset="0.0000000"
         style="stop-color:#ffffff;stop-opacity:1.0000000;" />
      <stop
         id="stop5744"
         offset="1.0000000"
         style="stop-color:#98b6d3;stop-opacity:1.0000000;" />
    </linearGradient>
    <linearGradient
       id="linearGradient15686">
      <stop
         id="stop15688"
         offset="0.0000000"
         style="stop-color:#fffdf8;stop-opacity:1.0000000;" />
      <stop
         id="stop15690"
         offset="1.0000000"
         style="stop-color:#cdccc7;stop-opacity:1.0000000;" />
    </linearGradient>
    <linearGradient
       id="linearGradient3480">
      <stop
         id="stop3482"
         offset="0.0000000"
         style="stop-color:#646464;stop-opacity:1.0000000;" />
      <stop
         id="stop3484"
         offset="1.0000000"
         style="stop-color:#000000;stop-opacity:1.0000000;" />
    </linearGradient>
    <linearGradient
       id="linearGradient15697">
      <stop
         id="stop15699"
         offset="0.0000000"
         style="stop-color:#646464;stop-opacity:1.0000000;" />
      <stop
         id="stop15701"
         offset="1.0000000"
         style="stop-color:#000000;stop-opacity:1.0000000;" />
    </linearGradient>
    <linearGradient
       id="linearGradient15704">
      <stop
         id="stop15706"
         offset="0.0000000"
         style="stop-color:#fffdf8;stop-opacity:1.0000000;" />
      <stop
         id="stop15708"
         offset="1.0000000"
         style="stop-color:#cdccc7;stop-opacity:1.0000000;" />
    </linearGradient>
    <linearGradient
       id="linearGradient15711">
      <stop
         id="stop15713"
         offset="0.0000000"
         style="stop-color:#ffffff;stop-opacity:1.0000000;" />
      <stop
         id="stop15715"
         offset="1.0000000"
         style="stop-color:#98b6d3;stop-opacity:1.0000000;" />
    </linearGradient>
    <linearGradient
       id="linearGradient15718">
      <stop
         id="stop15720"
         offset="0.0000000"
         style="stop-color:#646464;stop-opacity:1.0000000;" />
      <stop
         id="stop15722"
         offset="1.0000000"
         style="stop-color:#000000;stop-opacity:1.0000000;" />
    </linearGradient>
    <linearGradient
       id="linearGradient15725">
      <stop
         id="stop15727"
         offset="0.0000000"
         style="stop-color:#646464;stop-opacity:1.0000000;" />
      <stop
         id="stop15729"
         offset="1.0000000"
         style="stop-color:#000000;stop-opacity:1.0000000;" />
    </linearGradient>
    <linearGradient
       xlink:href="#linearGradient1887"
       y2="29.518064"
       x2="276.83484"
       y1="24.096111"
       x1="272.95816"
       gradientTransform="translate(0.5,1.547499)"
       gradientUnits="userSpaceOnUse"
       id="linearGradient5766"
       inkscape:collect="always" />
    <linearGradient
       id="linearGradient15732">
      <stop
         id="stop15734"
         offset="0.0000000"
         style="stop-color:#fffdf8;stop-opacity:1.0000000;" />
      <stop
         id="stop15736"
         offset="1.0000000"
         style="stop-color:#cdccc7;stop-opacity:1.0000000;" />
    </linearGradient>
    <linearGradient
       xlink:href="#linearGradient5704"
       y2="28.991222"
       x2="278.52783"
       y1="24.153297"
       x1="273.12143"
       gradientTransform="translate(0,0.047499)"
       gradientUnits="userSpaceOnUse"
       id="linearGradient5768"
       inkscape:collect="always" />
    <linearGradient
       id="linearGradient5704">
      <stop
         style="stop-color:#5a5a5a;stop-opacity:1;"
         offset="0"
         id="stop5706" />
      <stop
         style="stop-color:#000000;stop-opacity:1.0000000;"
         offset="1.0000000"
         id="stop5708" />
    </linearGradient>
    <linearGradient
       xlink:href="#linearGradient1887"
       y2="29.518064"
       x2="276.83484"
       y1="24.096111"
       x1="272.95816"
       gradientTransform="translate(0.5,1.547499)"
       gradientUnits="userSpaceOnUse"
       id="linearGradient15742"
       inkscape:collect="always" />
    <linearGradient
       id="linearGradient15744">
      <stop
         id="stop15746"
         offset="0.0000000"
         style="stop-color:#fffdf8;stop-opacity:1.0000000;" />
      <stop
         id="stop15748"
         offset="1.0000000"
         style="stop-color:#cdccc7;stop-opacity:1.0000000;" />
    </linearGradient>
    <linearGradient
       xlink:href="#linearGradient5704"
       y2="28.991222"
       x2="278.52783"
       y1="24.153297"
       x1="273.12143"
       gradientTransform="translate(0,0.047499)"
       gradientUnits="userSpaceOnUse"
       id="linearGradient15750"
       inkscape:collect="always" />
    <linearGradient
       id="linearGradient15752">
      <stop
         style="stop-color:#5a5a5a;stop-opacity:1;"
         offset="0"
         id="stop15754" />
      <stop
         style="stop-color:#000000;stop-opacity:1.0000000;"
         offset="1.0000000"
         id="stop15756" />
    </linearGradient>
    <linearGradient
       xlink:href="#linearGradient1887"
       y2="29.518064"
       x2="276.83484"
       y1="24.096111"
       x1="272.95816"
       gradientTransform="translate(0.5,1.547499)"
       gradientUnits="userSpaceOnUse"
       id="linearGradient15758"
       inkscape:collect="always" />
    <linearGradient
       id="linearGradient15760">
      <stop
         id="stop15762"
         offset="0.0000000"
         style="stop-color:#fffdf8;stop-opacity:1.0000000;" />
      <stop
         id="stop15764"
         offset="1.0000000"
         style="stop-color:#cdccc7;stop-opacity:1.0000000;" />
    </linearGradient>
    <linearGradient
       xlink:href="#linearGradient5704"
       y2="28.991222"
       x2="278.52783"
       y1="24.153297"
       x1="273.12143"
       gradientTransform="translate(0,0.047499)"
       gradientUnits="userSpaceOnUse"
       id="linearGradient15766"
       inkscape:collect="always" />
    <linearGradient
       id="linearGradient15768">
      <stop
         style="stop-color:#5a5a5a;stop-opacity:1;"
         offset="0"
         id="stop15770" />
      <stop
         style="stop-color:#000000;stop-opacity:1.0000000;"
         offset="1.0000000"
         id="stop15772" />
    </linearGradient>
    <linearGradient
       id="linearGradient5734">
      <stop
         id="stop5736"
         offset="0"
         style="stop-color:#8ab3df;stop-opacity:1;" />
      <stop
         id="stop5738"
         offset="1"
         style="stop-color:#ffffff" />
    </linearGradient>
    <linearGradient
       id="linearGradient15779">
      <stop
         style="stop-color:#5a5a5a;stop-opacity:1;"
         offset="0"
         id="stop15781" />
      <stop
         style="stop-color:#000000;stop-opacity:1.0000000;"
         offset="1.0000000"
         id="stop15783" />
    </linearGradient>
    <linearGradient
       id="linearGradient800">
      <stop
         id="stop998"
         offset="0"
         style="stop-color:#f3ff49;stop-opacity:1;" />
      <stop
         id="stop999"
         offset="1"
         style="stop-color:#ffa01e;stop-opacity:1;" />
    </linearGradient>
    <linearGradient
       id="linearGradient15790">
      <stop
         id="stop15792"
         offset="0.0000000"
         style="stop-color:#646464;stop-opacity:1.0000000;" />
      <stop
         id="stop15794"
         offset="1.0000000"
         style="stop-color:#000000;stop-opacity:1.0000000;" />
    </linearGradient>
    <linearGradient
       id="linearGradient10585">
      <stop
         style="stop-color:#d7d7d7;stop-opacity:1.0000000;"
         offset="0.0000000"
         id="stop10587" />
      <stop
         style="stop-color:#000000;stop-opacity:1.0000000;"
         offset="1.0000000"
         id="stop10595" />
    </linearGradient>
    <linearGradient
       id="linearGradient15801">
      <stop
         id="stop15803"
         offset="0.0000000"
         style="stop-color:#646464;stop-opacity:1.0000000;" />
      <stop
         id="stop15805"
         offset="1.0000000"
         style="stop-color:#000000;stop-opacity:1.0000000;" />
    </linearGradient>
    <linearGradient
       xlink:href="#linearGradient1887"
       y2="218.54164"
       x2="173.72397"
       y1="209.14064"
       x1="163.85936"
       gradientTransform="matrix(1.102855,0,0,1.148517,-167.5042,-41.73143)"
       gradientUnits="userSpaceOnUse"
       id="linearGradient5795"
       inkscape:collect="always" />
    <linearGradient
       id="linearGradient15808">
      <stop
         id="stop15810"
         offset="0.0000000"
         style="stop-color:#fffdf8;stop-opacity:1.0000000;" />
      <stop
         id="stop15812"
         offset="1.0000000"
         style="stop-color:#cdccc7;stop-opacity:1.0000000;" />
    </linearGradient>
    <linearGradient
       xlink:href="#linearGradient3480"
       y2="217.25519"
       x2="173.03127"
       y1="207.75523"
       x1="161.28645"
       gradientTransform="matrix(1.102855,0,0,1.148517,-168.0557,-42.30568)"
       gradientUnits="userSpaceOnUse"
       id="linearGradient5797"
       inkscape:collect="always" />
    <linearGradient
       id="linearGradient15815">
      <stop
         id="stop15817"
         offset="0.0000000"
         style="stop-color:#646464;stop-opacity:1.0000000;" />
      <stop
         id="stop15819"
         offset="1.0000000"
         style="stop-color:#000000;stop-opacity:1.0000000;" />
    </linearGradient>
    <linearGradient
       xlink:href="#linearGradient3480"
       y2="213"
       x2="176"
       y1="213"
       x1="160"
       gradientTransform="translate(-150.459,-11.45)"
       gradientUnits="userSpaceOnUse"
       id="linearGradient5799"
       inkscape:collect="always" />
    <linearGradient
       id="linearGradient15822">
      <stop
         id="stop15824"
         offset="0.0000000"
         style="stop-color:#646464;stop-opacity:1.0000000;" />
      <stop
         id="stop15826"
         offset="1.0000000"
         style="stop-color:#000000;stop-opacity:1.0000000;" />
    </linearGradient>
    <linearGradient
       xlink:href="#linearGradient1887"
       y2="218.54164"
       x2="173.72397"
       y1="209.14064"
       x1="163.85936"
       gradientTransform="matrix(1.102855,0,0,1.148517,-167.5042,-41.73143)"
       gradientUnits="userSpaceOnUse"
       id="linearGradient15828"
       inkscape:collect="always" />
    <linearGradient
       id="linearGradient15830">
      <stop
         id="stop15832"
         offset="0.0000000"
         style="stop-color:#fffdf8;stop-opacity:1.0000000;" />
      <stop
         id="stop15834"
         offset="1.0000000"
         style="stop-color:#cdccc7;stop-opacity:1.0000000;" />
    </linearGradient>
    <linearGradient
       xlink:href="#linearGradient3480"
       y2="217.25519"
       x2="173.03127"
       y1="207.75523"
       x1="161.28645"
       gradientTransform="matrix(1.102855,0,0,1.148517,-168.0557,-42.30568)"
       gradientUnits="userSpaceOnUse"
       id="linearGradient15836"
       inkscape:collect="always" />
    <linearGradient
       id="linearGradient15838">
      <stop
         id="stop15840"
         offset="0.0000000"
         style="stop-color:#646464;stop-opacity:1.0000000;" />
      <stop
         id="stop15842"
         offset="1.0000000"
         style="stop-color:#000000;stop-opacity:1.0000000;" />
    </linearGradient>
    <linearGradient
       xlink:href="#linearGradient3480"
       y2="213"
       x2="176"
       y1="213"
       x1="160"
       gradientTransform="translate(-150.459,-11.45)"
       gradientUnits="userSpaceOnUse"
       id="linearGradient15844"
       inkscape:collect="always" />
    <linearGradient
       id="linearGradient15846">
      <stop
         id="stop15848"
         offset="0.0000000"
         style="stop-color:#646464;stop-opacity:1.0000000;" />
      <stop
         id="stop15850"
         offset="1.0000000"
         style="stop-color:#000000;stop-opacity:1.0000000;" />
    </linearGradient>
    <linearGradient
       id="linearGradient1887-6">
      <stop
         id="stop1888-9"
         offset="0.0000000"
         style="stop-color:#fffdf8;stop-opacity:1.0000000;" />
      <stop
         id="stop1889-7"
         offset="1.0000000"
         style="stop-color:#cdccc7;stop-opacity:1.0000000;" />
    </linearGradient>
    <linearGradient
       id="linearGradient3480-2">
      <stop
         id="stop3482-1"
         offset="0.0000000"
         style="stop-color:#646464;stop-opacity:1.0000000;" />
      <stop
         id="stop3484-1"
         offset="1.0000000"
         style="stop-color:#000000;stop-opacity:1.0000000;" />
    </linearGradient>
    <linearGradient
       id="linearGradient28965">
      <stop
         id="stop28967"
         offset="0.0000000"
         style="stop-color:#646464;stop-opacity:1.0000000;" />
      <stop
         id="stop28969"
         offset="1.0000000"
         style="stop-color:#000000;stop-opacity:1.0000000;" />
    </linearGradient>
    <linearGradient
       id="linearGradient800-1">
      <stop
         id="stop998-3"
         offset="0"
         style="stop-color:#f3ff49;stop-opacity:1;" />
      <stop
         id="stop999-1"
         offset="1"
         style="stop-color:#ffa01e;stop-opacity:1;" />
    </linearGradient>
    <linearGradient
       id="linearGradient3480-1">
      <stop
         id="stop3482-9"
         offset="0.0000000"
         style="stop-color:#646464;stop-opacity:1.0000000;" />
      <stop
         id="stop3484-3"
         offset="1.0000000"
         style="stop-color:#000000;stop-opacity:1.0000000;" />
    </linearGradient>
    <linearGradient
       id="linearGradient10585-8">
      <stop
         style="stop-color:#d7d7d7;stop-opacity:1.0000000;"
         offset="0.0000000"
         id="stop10587-9" />
      <stop
         style="stop-color:#000000;stop-opacity:1.0000000;"
         offset="1.0000000"
         id="stop10595-0" />
    </linearGradient>
    <linearGradient
       id="linearGradient29155">
      <stop
         id="stop29157"
         offset="0.0000000"
         style="stop-color:#646464;stop-opacity:1.0000000;" />
      <stop
         id="stop29159"
         offset="1.0000000"
         style="stop-color:#000000;stop-opacity:1.0000000;" />
    </linearGradient>
    <linearGradient
       id="linearGradient1887-2">
      <stop
         id="stop1888-2"
         offset="0.0000000"
         style="stop-color:#fffdf8;stop-opacity:1.0000000;" />
      <stop
         id="stop1889-3"
         offset="1.0000000"
         style="stop-color:#cdccc7;stop-opacity:1.0000000;" />
    </linearGradient>
    <linearGradient
       id="linearGradient5740-7">
      <stop
         id="stop5742-6"
         offset="0.0000000"
         style="stop-color:#ffffff;stop-opacity:1.0000000;" />
      <stop
         id="stop5744-7"
         offset="1.0000000"
         style="stop-color:#98b6d3;stop-opacity:1.0000000;" />
    </linearGradient>
    <linearGradient
       id="linearGradient3480-28">
      <stop
         id="stop3482-8"
         offset="0.0000000"
         style="stop-color:#646464;stop-opacity:1.0000000;" />
      <stop
         id="stop3484-5"
         offset="1.0000000"
         style="stop-color:#000000;stop-opacity:1.0000000;" />
    </linearGradient>
    <linearGradient
       id="linearGradient15928">
      <stop
         id="stop15930"
         offset="0.0000000"
         style="stop-color:#646464;stop-opacity:1.0000000;" />
      <stop
         id="stop15932"
         offset="1.0000000"
         style="stop-color:#000000;stop-opacity:1.0000000;" />
    </linearGradient>
    <linearGradient
       id="linearGradient5734-1">
      <stop
         id="stop5736-1"
         offset="0"
         style="stop-color:#8ab3df;stop-opacity:1;" />
      <stop
         id="stop5738-3"
         offset="1"
         style="stop-color:#ffffff" />
    </linearGradient>
    <linearGradient
       id="linearGradient5704-4">
      <stop
         style="stop-color:#5a5a5a;stop-opacity:1;"
         offset="0"
         id="stop5706-1" />
      <stop
         style="stop-color:#000000;stop-opacity:1.0000000;"
         offset="1.0000000"
         id="stop5708-1" />
    </linearGradient>
  </defs>
  <sodipodi:namedview
     id="base"
     pagecolor="#2b555e"
     bordercolor="#666666"
     borderopacity="1.0"
     inkscape:pageopacity="1"
     inkscape:pageshadow="2"
     inkscape:zoom="16"
     inkscape:cx="49.239036"
     inkscape:cy="433.79679"
     inkscape:document-units="px"
     inkscape:current-layer="layer1"
     showgrid="true"
     inkscape:window-width="1920"
     inkscape:window-height="1021"
     inkscape:window-x="0"
     inkscape:window-y="27"
     inkscape:window-maximized="1"
     inkscape:snap-bbox="true"
     inkscape:bbox-paths="true"
     inkscape:bbox-nodes="false"
     inkscape:snap-global="true">
    <inkscape:grid
       type="xygrid"
       id="grid15646"
       empspacing="5"
       visible="true"
       enabled="true"
       snapvisiblegridlinesonly="true" />
  </sodipodi:namedview>
  <metadata
     id="metadata15643">
    <rdf:RDF>
      <cc:Work
         rdf:about="">
        <dc:format>image/svg+xml</dc:format>
        <dc:type
           rdf:resource="http://purl.org/dc/dcmitype/StillImage" />
        <dc:title></dc:title>
      </cc:Work>
    </rdf:RDF>
  </metadata>
  <g
     inkscape:label="Layer 1"
     inkscape:groupmode="layer"
     id="layer1"
     transform="translate(0,-512.36218)">
    <g
       id="document-open-recent"
       inkscape:label="#file_open_recent">
      <rect
         y="527.36218"
         x="15"
         height="15.999997"
         width="16"
         id="rect16726"
         style="opacity:0.3;fill:none;stroke:none" />
      <path
         id="path1234"
         d="m 19.8125,528.36218 c -0.458402,0.0875 -0.820723,0.5334 -0.8125,1 l 0,1 c 0.126487,0 0.251486,0.0212 0.375,0.0313 0.05121,0.004 0.105556,-0.006 0.15625,0 0.152485,-0.0116 0.313291,-0.0313 0.46875,-0.0313 0.338088,0 0.677161,-0.0537 1,0 l 0,0 5,0 0,3 3,0 0,8 -5.6875,0 c -0.950293,0.63182 -2.085791,1 -3.3125,1 -0.338088,0 -0.677161,-0.04 -1,-0.0937 l 0,0.0937 c 5.2e-5,0.52358 0.476416,0.99995 1,1 l 10,0 c 0.523584,-5e-5 0.999948,-0.47642 1,-1 l 0,-9.4375 c 0.0061,-0.26406 -0.09754,-0.52897 -0.28125,-0.71875 l -3.5625,-3.5625 c -0.189778,-0.1837 -0.454694,-0.28737 -0.71875,-0.28125 l -6.4375,0 c -0.03123,-0.001 -0.06252,-0.001 -0.09375,0 -0.03123,-0.001 -0.06252,-0.001 -0.09375,0 z"
         style="font-size:medium;font-style:normal;font-variant:normal;font-weight:normal;font-stretch:normal;text-indent:0;text-align:start;text-decoration:none;line-height:normal;letter-spacing:normal;word-spacing:normal;text-transform:none;direction:ltr;block-progression:tb;writing-mode:lr-tb;text-anchor:start;baseline-shift:baseline;color:#000000;fill:#bebebe;fill-opacity:1;stroke:none;stroke-width:1.99999988;marker:none;visibility:visible;display:inline;overflow:visible;enable-background:accumulate;font-family:Sans;-inkscape-font-specification:Sans"
         inkscape:connector-curvature="0"
         sodipodi:nodetypes="cccccscccccccscccccccccccc" />
      <path
         sodipodi:nodetypes="sssssccccccccc"
         inkscape:connector-curvature="0"
         id="path28902"
         d="m 20,531.36218 c -2.761424,0 -5,2.23858 -5,5 0,2.76142 2.238576,5 5,5 2.761424,0 5,-2.23858 5,-5 0,-2.76142 -2.238576,-5 -5,-5 z m 1,1.96875 0,3.03125 0,1 -1,0 -3,0 0,-1 3,0 0,-3 z"
         style="fill:#bebebe;fill-opacity:1;stroke:none" />
    </g>
    <g
       id="document-import"
       inkscape:label="#file_import">
      <g
         id="g29039">
        <path
           style="font-size:medium;font-style:normal;font-variant:normal;font-weight:normal;font-stretch:normal;text-indent:0;text-align:start;text-decoration:none;line-height:normal;letter-spacing:normal;word-spacing:normal;text-transform:none;direction:ltr;block-progression:tb;writing-mode:lr-tb;text-anchor:start;baseline-shift:baseline;color:#000000;fill:#bebebe;fill-opacity:1;stroke:none;stroke-width:1.99999988;marker:none;visibility:visible;display:inline;overflow:visible;enable-background:accumulate;font-family:Sans;-inkscape-font-specification:Sans"
           d="m 18.8125,547.36218 c -0.458402,0.0875 -0.820723,0.5334 -0.8125,1 l 0,1 0,11 0,1 c 5.2e-5,0.52358 0.476416,0.99995 1,1 l 10,0 c 0.523584,-5e-5 0.999948,-0.47642 1,-1 l 0,-9.4375 c 0.0061,-0.26406 -0.09754,-0.52897 -0.28125,-0.71875 l -3.5625,-3.5625 c -0.189778,-0.1837 -0.454694,-0.28737 -0.71875,-0.28125 l -6.4375,0 c -0.03123,-10e-4 -0.06252,-10e-4 -0.09375,0 -0.03123,-10e-4 -0.06252,-10e-4 -0.09375,0 z m 1.1875,2 5,0 0,3 3,0 0,8 -8,0 0,-11 z"
           id="path29020"
           inkscape:connector-curvature="0" />
        <path
           sodipodi:nodetypes="cccccccc"
           style="fill:#bebebe;fill-opacity:1;fill-rule:evenodd;stroke:none;display:inline"
           d="m 16,554.36218 6,0 0,-2 3,3 -3,3 0,-2 -6,0 z"
           id="path4685"
           inkscape:connector-curvature="0" />
        <rect
           style="fill:none;stroke:none"
           id="rect29018"
           width="16"
           height="16"
           x="15"
           y="35"
           transform="translate(0,512.36218)" />
      </g>
    </g>
    <g
       id="document-export"
       inkscape:label="#file_export"
       transform="translate(0,1.0000988)">
      <path
         sodipodi:nodetypes="ccccccccccccccccccccccccc"
         inkscape:connector-curvature="0"
         id="path29073"
         transform="translate(0,512.36218)"
         d="M 15.8125,54 C 15.354098,54.0875 14.991777,54.5334 15,55 l 0,1 0,11 0,1 c 5.2e-5,0.52358 0.476416,0.99995 1,1 l 10,0 c 0.523584,-5e-5 0.999948,-0.47642 1,-1 l 0,-3 -2,0 0,2 -8,0 0,-11 5,0 0,3 3,0 0,2 2,0 0,-2.4375 c 0.0061,-0.26406 -0.09754,-0.52897 -0.28125,-0.71875 l -3.5625,-3.5625 C 22.966472,54.09755 22.701556,53.99388 22.4375,54 L 16,54 c -0.03123,-10e-4 -0.06252,-10e-4 -0.09375,0 -0.03123,-10e-4 -0.06252,-10e-4 -0.09375,0 z"
         style="font-size:medium;font-style:normal;font-variant:normal;font-weight:normal;font-stretch:normal;text-indent:0;text-align:start;text-decoration:none;line-height:normal;letter-spacing:normal;word-spacing:normal;text-transform:none;direction:ltr;block-progression:tb;writing-mode:lr-tb;text-anchor:start;baseline-shift:baseline;color:#000000;fill:#bebebe;fill-opacity:1;stroke:none;stroke-width:1.99999988;marker:none;visibility:visible;display:inline;overflow:visible;enable-background:accumulate;font-family:Sans;-inkscape-font-specification:Sans" />
      <path
         sodipodi:nodetypes="cccccccc"
         style="fill:#bebebe;fill-opacity:1;fill-rule:evenodd;stroke:none;display:inline"
         d="m 22,574.36218 6,0 0,-2 3,3 -3,3 0,-2 -6,0 z"
         id="path29075"
         inkscape:connector-curvature="0" />
      <rect
         style="fill:none;stroke:none"
         id="rect29077"
         width="16"
         height="15.999899"
         x="15"
         y="566.36218" />
    </g>
    <g
       id="document-cleanup"
       inkscape:label="#file_vacuum"
       transform="matrix(0.99690056,0,0,1.0000002,0.04649158,2.0001197)">
      <path
         sodipodi:nodetypes="ccsscsscccccsccssccc"
         style="font-size:medium;font-style:normal;font-variant:normal;font-weight:normal;font-stretch:normal;text-indent:0;text-align:start;text-decoration:none;line-height:normal;letter-spacing:normal;word-spacing:normal;text-transform:none;direction:ltr;block-progression:tb;writing-mode:lr-tb;text-anchor:start;baseline-shift:baseline;color:#000000;fill:#bebebe;fill-opacity:1;stroke:none;stroke-width:1px;marker:none;visibility:visible;display:inline;overflow:visible;enable-background:accumulate;font-family:Sans;-inkscape-font-specification:Sans"
         d="m 24.733638,588.18037 c 0,0 -0.01281,0.54666 -0.303251,1.0909 -0.29048,0.54426 -0.801932,1.09091 -2.122758,1.09091 -1.116653,0 -3.307629,0 -3.881615,0.13637 -0.638443,0.15168 -1.238624,0.44092 -1.698207,0.95455 -0.459583,0.51361 -0.727803,1.25369 -0.727803,2.18181 0,0.70749 0.130199,1.27268 0.394227,1.70454 0.264027,0.43186 0.655158,0.70901 1.031054,0.85227 0.751791,0.28653 1.535247,0.17046 1.971133,0.17046 l 0,-1.09091 c -0.534518,0 -1.206668,0.0736 -1.667882,-0.10229 -0.230607,-0.0879 -0.385328,-0.23022 -0.515527,-0.44318 -0.130199,-0.21295 -0.242601,-0.54118 -0.242601,-1.0909 0,-0.70824 0.182368,-1.12727 0.454877,-1.43182 0.272509,-0.30457 0.684115,-0.49013 1.213005,-0.61364 0.36171,-0.22726 2.484486,-0.13636 3.669339,-0.13636 1.590385,0 2.534539,-0.81699 2.971862,-1.63637 0.437322,-0.81938 0.424551,-1.63636 0.424551,-1.63636 l -0.970404,0 z"
         id="path11319"
         inkscape:connector-curvature="0" />
      <path
         transform="matrix(0.15999997,0,0,0.15384586,-23.799991,585.36221)"
         d="m 280,97.5 c 0,3.58985 -2.79822,6.5 -6.25,6.5 -3.45178,0 -6.25,-2.91015 -6.25,-6.5 0,-3.589851 2.79822,-6.5 6.25,-6.5 3.45178,0 6.25,2.910149 6.25,6.5 z"
         sodipodi:ry="6.5"
         sodipodi:rx="6.25"
         sodipodi:cy="97.5"
         sodipodi:cx="273.75"
         id="path11327"
         style="color:#000000;fill:#bebebe;fill-opacity:1;fill-rule:evenodd;stroke:none;stroke-width:8.87804985;marker:none;display:inline"
         sodipodi:type="arc" />
      <path
         inkscape:connector-curvature="0"
         sodipodi:nodetypes="scccs"
         id="rect11314"
         d="m 19,595.36218 c 4,-2 10,-1 10,-1 l 0,6.00035 c 0,0 0.01874,-0.018 -11,-3.5e-4 -2,0 -1,-4 1,-5 z"
         style="color:#000000;fill:#bebebe;fill-opacity:1;fill-rule:evenodd;stroke:none;stroke-width:1;marker:none;display:inline" />
      <path
         transform="matrix(0.38951329,0,0,0.38130207,-78.013976,561.70654)"
         d="m 280,97.5 c 0,3.58985 -2.79822,6.5 -6.25,6.5 -3.45178,0 -6.25,-2.91015 -6.25,-6.5 0,-3.589851 2.79822,-6.5 6.25,-6.5 3.45178,0 6.25,2.910149 6.25,6.5 z"
         sodipodi:ry="6.5"
         sodipodi:rx="6.25"
         sodipodi:cy="97.5"
         sodipodi:cx="273.75"
         id="path11312"
         style="color:#000000;fill:#bebebe;fill-opacity:1;fill-rule:evenodd;stroke:none;stroke-width:2.54062963;marker:none;display:inline"
         sodipodi:type="arc" />
      <rect
         y="586.40131"
         x="21.293545"
         height="2.0342929"
         width="7.8504539"
         id="rect11317"
         style="color:#000000;fill:#bebebe;fill-opacity:1;fill-rule:evenodd;stroke:none;stroke-width:0.99999928;marker:none;display:inline" />
      <rect
         y="585.36218"
         x="15"
         height="15.999997"
         width="16"
         id="rect29219"
         style="fill:none;stroke:none" />
    </g>
    <g
       id="document-metadata"
       inkscape:label="#document_metadata">
      <rect
         style="fill:none;stroke:none"
         id="rect10285"
         width="16"
         height="16"
         x="14.97644"
         y="607.36218" />
      <path
         sodipodi:nodetypes="cccccccccccccccccc"
         inkscape:connector-curvature="0"
         id="path10293"
         d="m 17.8125,613.36218 c -0.458402,0.0875 -0.8207,0.5334 -0.8125,1 l 0,1 0,8 2,0 0,-8 5,0 0,3 3,0 0,5 2,0 0,-5.4375 c 0.0061,-0.26406 -0.09754,-0.52897 -0.28125,-0.71875 l -3.5625,-3.5625 c -0.189778,-0.18365 -0.454694,-0.28725 -0.71875,-0.28125 l -6.4375,0 c -0.03123,-10e-4 -0.06252,-10e-4 -0.09375,0 -0.03123,-10e-4 -0.06252,-10e-4 -0.09375,0 z"
         style="fill:#bebebe;fill-opacity:1;stroke:none" />
      <path
         inkscape:connector-curvature="0"
         id="path10291"
         d="m 17,609.36218 12,0 0,2 -12,0 0,-2 z"
         style="fill:#bebebe;fill-opacity:1;stroke:none" />
      <rect
         y="607.36218"
         x="15"
         height="16"
         width="1"
         id="rect10298"
         style="fill:#bebebe;fill-opacity:1;stroke:none" />
      <rect
         y="607.36218"
         x="15"
         height="1"
         width="16"
         id="rect10300"
         style="fill:#bebebe;fill-opacity:1;stroke:none" />
      <rect
         y="607.36218"
         x="30"
         height="16"
         width="1"
         id="rect10302"
         style="fill:#bebebe;fill-opacity:1;stroke:none" />
      <rect
         y="622.36218"
         x="15"
         height="1"
         width="16"
         id="rect10304"
         style="fill:#bebebe;fill-opacity:1;stroke:none" />
    </g>
    <g
       id="dialog-input-devices"
       inkscape:label="#input_devices">
      <rect
         width="16.000002"
         height="16.000017"
         x="14.999998"
         y="627.36218"
         id="rect13775"
         style="opacity:0;color:#bebebe;fill:#000000;stroke:none;stroke-width:1.78100002;marker:none;visibility:visible;display:inline;overflow:visible;enable-background:new"
         ry="0" />
      <path
         sodipodi:nodetypes="ccccccccccc"
         inkscape:connector-curvature="0"
         id="path13779"
         d="m 27.02642,627.36218 c 0,0 -1.82308,3.78343 -2.95085,6 l -0.47633,1 0,1 -0.59924,1 1,0 0.76701,-1 0.79899,-0.42188 0.12292,-0.57812 3.3267,-7 z"
         style="font-size:medium;font-style:normal;font-variant:normal;font-weight:normal;font-stretch:normal;text-indent:0;text-align:start;text-decoration:none;line-height:normal;letter-spacing:normal;word-spacing:normal;text-transform:none;direction:ltr;block-progression:tb;writing-mode:lr-tb;text-anchor:start;baseline-shift:baseline;color:#000000;fill:#bebebe;fill-opacity:1;stroke:none;stroke-width:2;marker:none;visibility:visible;display:inline;overflow:visible;enable-background:new;font-family:Sans;-inkscape-font-specification:Sans" />
      <path
         sodipodi:nodetypes="cccccccccccccccccccc"
         inkscape:transform-center-y="-0.44568146"
         inkscape:transform-center-x="-0.24505149"
         inkscape:connector-curvature="0"
         id="rect7357-4"
         d="m 16.22651,635.38873 c -0.66548,-9.9e-4 -1.22328,0.27718 -1.22651,0.97345 0.013,0.53918 0.0055,1.44797 0,2 l 2.01592,-0.01 -4e-5,-2.95789 -0.79042,-0.005 z m 1.78413,0.006 0,2.95789 1.98936,0.01 c 0.0102,-0.55419 -0.0047,-1.467 0,-2 9.9e-4,-0.69624 -0.48323,-0.95509 -1.14876,-0.95852 l -0.84056,-0.009 z m -2.98435,3.9436 c -0.009,0.6024 -0.0261,0.82689 -0.0263,1.3814 -0.006,1.45673 1.10867,2.63526 2.50111,2.64244 1.39242,0.007 2.51892,-1.15985 2.52578,-2.61662 -0.0253,-0.60595 -0.0329,-0.83265 -0.0267,-1.40722 z"
         style="fill:#bebebe;fill-opacity:1;stroke:none" />
      <path
         sodipodi:nodetypes="cccccccccccccccc"
         inkscape:connector-curvature="0"
         id="path13869"
         d="m 18,630.36218 -1,4 1.40625,0 c 0.136087,6.7e-4 -0.01581,0 1.0625,0 l 0.53125,-2 3,0 1,-2 z m 11,0 -1,2 0.609375,6 -7.609375,2e-5 0,2 10,0 -1,-10.00002 z"
         style="fill:#bebebe;fill-opacity:1;stroke:none" />
    </g>
    <g
       id="edit-undo-history"
       inkscape:label="#edit_undo_history">
      <path
         id="path2640"
         transform="translate(0,512.36218)"
         d="M 49 20 L 45 25.46875 L 49 30 L 49 27 L 53 27 L 53 31 L 57 31 L 57 25.90625 C 56.677161 25.959989 56.338088 26 56 26 C 53.779178 26 51.849937 24.793371 50.8125 23 L 49 23 L 49 20 z "
         style="fill:#bebebe;fill-opacity:1;fill-rule:evenodd;stroke:none" />
      <rect
         y="527.36218"
         x="45"
         height="15.999997"
         width="16"
         id="rect16161"
         style="fill:none;stroke:none" />
      <path
         style="fill:#bebebe;fill-opacity:1;stroke:none"
         d="m 56,527.36218 c -2.761424,0 -5,2.23858 -5,5 0,2.76142 2.238576,5 5,5 2.761424,0 5,-2.23858 5,-5 0,-2.76142 -2.238576,-5 -5,-5 z m 1,1.96875 0,3.03125 0,1 -1,0 -3,0 0,-1 3,0 0,-3 z"
         id="path16169"
         inkscape:connector-curvature="0"
         sodipodi:nodetypes="sssssccccccccc" />
    </g>
    <g
       id="edit-paste-in-place"
       inkscape:label="#selection_paste_in_place">
      <rect
         rx="0"
         y="547.48254"
         x="45.070335"
         height="15.93773"
         width="16"
         id="rect14038"
         style="fill:none;stroke:none" />
      <rect
         ry="0.53033006"
         rx="0.53033006"
         y="547.42468"
         x="50"
         height="2.9883244"
         width="6"
         id="rect6874"
         style="fill:#bebebe;fill-opacity:1;stroke:none" />
      <path
         inkscape:connector-curvature="0"
         id="path6973"
         d="m 49,552.40523 0,7.96887 6,0 2,-1.99222 0,-5.97665 -8,0 z m 3,0.99611 2,0 0,2.98833 2,0 -3,2.98832 -3,-2.98832 2,0 0,-2.98833 z"
         style="fill:#bebebe;fill-opacity:1;stroke:none" />
      <path
         inkscape:connector-curvature="0"
         id="path6977"
         d="m 46.53125,548.4208 c -0.0426,0 -0.08527,0.0217 -0.125,0.0311 -0.234258,0.0554 -0.407513,0.24783 -0.40625,0.49805 l 0.03125,6.97276 L 46,562.8955 c -0.0013,0.25022 0.171992,0.44265 0.40625,0.49805 0.06346,0.0267 0.114051,0.0315 0.1875,0.0311 l 2.40625,0 10.46875,-0.0623 C 59.762547,563.36105 60,563.1259 60,562.83324 l 0,-5.38521 0,-3.05058 0,-5.38521 c 0,-0.29266 -0.237453,-0.52819 -0.53125,-0.52918 l -2.46875,0 0,0.99611 1.46875,0 C 58.762546,549.48073 59,549.71569 59,550.00835 l 0,4.3891 0,3.05058 0,4.3891 c 0,0.29266 -0.237454,0.52762 -0.53125,0.52919 L 49,562.42857 l -1.40625,0 c -0.02382,1.6e-4 -0.03954,0.003 -0.0625,0 -0.0426,0 -0.08526,-0.0217 -0.125,-0.0311 -0.190325,-0.08 -0.342458,-0.27857 -0.34375,-0.49805 l -0.03125,-5.97665 0.03125,-5.97665 c 0.0013,-0.21948 0.153425,-0.41809 0.34375,-0.49805 0.03974,-0.009 0.0824,-0.0311 0.125,-0.0311 l 1.46875,0 0,-0.99611 -2.46875,0 z"
         style="fill:#bebebe;fill-opacity:1;stroke:none" />
    </g>
    <g
       id="edit-paste-style"
       inkscape:label="#selection_paste_style">
      <g
         transform="translate(0,19.937497)"
         id="g27706"
         inkscape:label="#selection_paste_in_place">
        <rect
           rx="0"
           y="547.48254"
           x="45.070335"
           height="15.93773"
           width="16"
           id="rect27708"
           style="fill:none;stroke:none" />
        <rect
           ry="0.53033006"
           rx="0.53033006"
           y="547.42468"
           x="50"
           height="2.9883244"
           width="6"
           id="rect27710"
           style="fill:#bebebe;fill-opacity:1;stroke:none" />
        <path
           sodipodi:nodetypes="cccccc"
           inkscape:connector-curvature="0"
           id="path27712"
           d="m 49,552.40523 0,7.96887 6,0 2,-1.99222 0,-5.97665 z"
           style="fill:#bebebe;fill-opacity:1;stroke:none" />
        <path
           inkscape:connector-curvature="0"
           id="path27714"
           d="m 46.53125,548.4208 c -0.0426,0 -0.08527,0.0217 -0.125,0.0311 -0.234258,0.0554 -0.407513,0.24783 -0.40625,0.49805 l 0.03125,6.97276 L 46,562.8955 c -0.0013,0.25022 0.171992,0.44265 0.40625,0.49805 0.06346,0.0267 0.114051,0.0315 0.1875,0.0311 l 2.40625,0 10.46875,-0.0623 C 59.762547,563.36105 60,563.1259 60,562.83324 l 0,-5.38521 0,-3.05058 0,-5.38521 c 0,-0.29266 -0.237453,-0.52819 -0.53125,-0.52918 l -2.46875,0 0,0.99611 1.46875,0 C 58.762546,549.48073 59,549.71569 59,550.00835 l 0,4.3891 0,3.05058 0,4.3891 c 0,0.29266 -0.237454,0.52762 -0.53125,0.52919 L 49,562.42857 l -1.40625,0 c -0.02382,1.6e-4 -0.03954,0.003 -0.0625,0 -0.0426,0 -0.08526,-0.0217 -0.125,-0.0311 -0.190325,-0.08 -0.342458,-0.27857 -0.34375,-0.49805 l -0.03125,-5.97665 0.03125,-5.97665 c 0.0013,-0.21948 0.153425,-0.41809 0.34375,-0.49805 0.03974,-0.009 0.0824,-0.0311 0.125,-0.0311 l 1.46875,0 0,-0.99611 -2.46875,0 z"
           style="fill:#bebebe;fill-opacity:1;stroke:none" />
      </g>
    </g>
    <g
       id="edit-duplicate"
       inkscape:label="#edit_duplicate">
      <rect
         y="587.36218"
         x="45"
         height="16"
         width="16"
         id="rect4989"
         style="fill:none;stroke:none" />
      <path
         inkscape:connector-curvature="0"
         id="rect4993"
         d="m 60,602.36218 0,-9 -10,0 0,9 z"
         style="fill:#bebebe;fill-opacity:1;stroke:none"
         sodipodi:nodetypes="ccccc" />
      <path
         inkscape:connector-curvature="0"
         id="path4998"
         d="m 49,597.36218 0,-1 0,-4 6,0 0,0 0,-4 -10,0 0,9 z"
         style="fill:#bebebe;fill-opacity:1;stroke:none"
         sodipodi:nodetypes="ccccccccc" />
    </g>
    <g
       id="edit-clone"
       inkscape:label="#edit_clone">
      <path
         inkscape:connector-curvature="0"
         id="path27786"
         d="m 50,612.36218 0,11 10,0 0,-11 -10,0 z m 4.46875,2 1,0 c 0.851415,0 1.53125,0.7099 1.53125,1.5625 l 0,1.4375 0.46875,0 c 0.27497,0 0.5,0.24935 0.5,0.5625 l 0,0.3125 0,3.09375 -5.96875,0 0,-3.09375 0,-0.3125 c 0,-0.31315 0.22503,-0.5625 0.5,-0.5625 l 0.46875,0 0,-1.4375 c 0,-0.8526 0.648585,-1.5625 1.5,-1.5625 z m 0,1.03125 c -0.25742,0 -0.46875,0.19804 -0.46875,0.53125 l 0,1.4375 1.96875,0 0,-1.4375 c 0,-0.33321 -0.24258,-0.53125 -0.5,-0.53125 l -1,0 z"
         style="fill:#bebebe;fill-opacity:1;stroke:none" />
      <path
         sodipodi:nodetypes="ccccccccc"
         style="fill:#bebebe;fill-opacity:1;stroke:none"
         d="m 49,616.36218 0,-1 0,-4 6,0 0,0 0,-4 -10,0 0,9 z"
         id="path27788"
         inkscape:connector-curvature="0" />
      <path
         id="path45837"
         d="m 45,607.36218 0,16 16,0 0,-16 -16,0 z"
         style="fill:none;stroke:none" />
    </g>
  </g>
</svg>
