<?xml version="1.0" encoding="UTF-8" standalone="no"?>
<!-- Created with Inkscape (http://www.inkscape.org/) -->

<svg
   xmlns:dc="http://purl.org/dc/elements/1.1/"
   xmlns:cc="http://creativecommons.org/ns#"
   xmlns:rdf="http://www.w3.org/1999/02/22-rdf-syntax-ns#"
   xmlns:svg="http://www.w3.org/2000/svg"
   xmlns="http://www.w3.org/2000/svg"
   xmlns:xlink="http://www.w3.org/1999/xlink"
   xmlns:sodipodi="http://sodipodi.sourceforge.net/DTD/sodipodi-0.dtd"
   xmlns:inkscape="http://www.inkscape.org/namespaces/inkscape"
   inkscape:export-ydpi="90.000000"
   inkscape:export-xdpi="90.000000"
   inkscape:export-filename="/home/lapo/firewall.png"
   width="400"
   height="300"
   id="svg11300"
   sodipodi:version="0.32"
   inkscape:version="0.48.1 r9760"
   sodipodi:docname="colorhug.svg"
   inkscape:output_extension="org.inkscape.output.svg.inkscape"
   version="1.0"
   style="display:inline;enable-background:new">
  <title
     id="title4872">Firewall</title>
  <sodipodi:namedview
     stroke="#ef2929"
     fill="#f57900"
     id="base"
     pagecolor="#474747"
     bordercolor="#666666"
     borderopacity="0.25490196"
     inkscape:pageopacity="0"
     inkscape:pageshadow="2"
     inkscape:zoom="1"
     inkscape:cx="154.06122"
     inkscape:cy="263.89742"
     inkscape:current-layer="layer5"
     showgrid="true"
     inkscape:grid-bbox="true"
     inkscape:document-units="px"
     inkscape:showpageshadow="false"
     inkscape:window-width="1030"
     inkscape:window-height="866"
     inkscape:window-x="334"
     inkscape:window-y="120"
     width="400px"
     height="300px"
     inkscape:snap-nodes="false"
     inkscape:snap-bbox="true"
     gridtolerance="10000"
     inkscape:object-nodes="true"
     inkscape:snap-grids="true"
     showguides="false"
     inkscape:guide-bbox="true"
     inkscape:window-maximized="0"
     inkscape:snap-smooth-nodes="true"
     inkscape:object-paths="true"
     inkscape:snap-global="true">
    <inkscape:grid
       spacingy="1px"
       spacingx="1px"
       id="grid5883"
       type="xygrid"
       enabled="true"
       visible="true"
       empspacing="4"
       snapvisiblegridlinesonly="true" />
    <inkscape:grid
       type="xygrid"
       id="grid11592"
       empspacing="2"
       visible="true"
       enabled="false"
       spacingx="0.5px"
       spacingy="0.5px"
       color="#ff0000"
       opacity="0.1254902"
       empcolor="#ff0000"
       empopacity="0.25098039"
       snapvisiblegridlinesonly="true" />
    <sodipodi:guide
       orientation="-0.70710678,0.70710678"
       position="309.8125,173.625"
       id="guide9630" />
  </sodipodi:namedview>
  <defs
     id="defs3">
    <linearGradient
       inkscape:collect="always"
       id="linearGradient4335">
      <stop
         style="stop-color:#000000;stop-opacity:1;"
         offset="0"
         id="stop4337" />
      <stop
         style="stop-color:#000000;stop-opacity:0;"
         offset="1"
         id="stop4339" />
    </linearGradient>
    <linearGradient
       inkscape:collect="always"
       id="linearGradient4213">
      <stop
         style="stop-color:#555753;stop-opacity:1"
         offset="0"
         id="stop4215" />
      <stop
         style="stop-color:#2e3436;stop-opacity:1"
         offset="1"
         id="stop4217" />
    </linearGradient>
    <linearGradient
       inkscape:collect="always"
       id="linearGradient4092">
      <stop
         style="stop-color:#000000;stop-opacity:1"
         offset="0"
         id="stop4094" />
      <stop
         style="stop-color:#555753;stop-opacity:1"
         offset="1"
         id="stop4096" />
    </linearGradient>
    <linearGradient
       inkscape:collect="always"
       id="linearGradient4084">
      <stop
         style="stop-color:#ffffff;stop-opacity:1;"
         offset="0"
         id="stop4086" />
      <stop
         style="stop-color:#ffffff;stop-opacity:0;"
         offset="1"
         id="stop4088" />
    </linearGradient>
    <linearGradient
       id="linearGradient4020">
      <stop
         style="stop-color:#000000;stop-opacity:1"
         offset="0"
         id="stop4022" />
      <stop
         id="stop4028"
         offset="0.04334623"
         style="stop-color:#eeeeec;stop-opacity:1" />
      <stop
         style="stop-color:#888a85;stop-opacity:1"
         offset="0.07339834"
         id="stop4030" />
      <stop
         id="stop4036"
         offset="0.93510723"
         style="stop-color:#2e3436;stop-opacity:1" />
      <stop
         id="stop4032"
         offset="0.97136581"
         style="stop-color:#888a85;stop-opacity:1" />
      <stop
         style="stop-color:#000000;stop-opacity:1"
         offset="1"
         id="stop4024" />
    </linearGradient>
    <clipPath
       clipPathUnits="userSpaceOnUse"
       id="clipPath3956">
      <path
         inkscape:connector-curvature="0"
         id="path3958"
         d="m 97.25,84 c -4.0165,0 -6.780892,2 -7.25,6 l -1.9375,16.5 0,0.0625 C 88.024828,106.86838 88,107.18361 88,107.5 l 0,56.5 0,80.5 c 0,4.155 3.345,7.5 7.5,7.5 l 105,0 c 4.155,0 7.5,-3.345 7.5,-7.5 l 0,-80.5 0,-56.5 c 0,-0.31639 -0.0248,-0.63162 -0.0625,-0.9375 l 0,-0.0625 L 206,90 c -0.46911,-4 -3.2335,-6 -7.25,-6 l -101.5,0 z"
         style="color:#000000;fill:none;stroke:#000000;stroke-width:1.99999988;marker:none;visibility:visible;display:inline;overflow:visible;enable-background:accumulate" />
    </clipPath>
    <filter
       inkscape:collect="always"
       id="filter3964">
      <feGaussianBlur
         inkscape:collect="always"
         stdDeviation="1.44"
         id="feGaussianBlur3966" />
    </filter>
    <filter
       inkscape:collect="always"
       id="filter4008">
      <feGaussianBlur
         inkscape:collect="always"
         stdDeviation="1.36"
         id="feGaussianBlur4010" />
    </filter>
    <linearGradient
       inkscape:collect="always"
       xlink:href="#linearGradient4020"
       id="linearGradient4026"
       x1="87.826782"
       y1="90"
       x2="208.04823"
       y2="90"
       gradientUnits="userSpaceOnUse" />
    <radialGradient
       inkscape:collect="always"
       xlink:href="#linearGradient4084"
       id="radialGradient4090"
       cx="92.6875"
       cy="106.4375"
       fx="92.6875"
       fy="106.4375"
       r="2.4375"
       gradientUnits="userSpaceOnUse" />
    <linearGradient
       inkscape:collect="always"
       xlink:href="#linearGradient4092"
       id="linearGradient4098"
       x1="150.70944"
       y1="98.195427"
       x2="150.70944"
       y2="284.63605"
       gradientUnits="userSpaceOnUse" />
    <filter
       inkscape:collect="always"
       id="filter4148">
      <feGaussianBlur
         inkscape:collect="always"
         stdDeviation="0.38092269"
         id="feGaussianBlur4150" />
    </filter>
    <radialGradient
       inkscape:collect="always"
       xlink:href="#linearGradient4213"
       id="radialGradient4219"
       cx="193.84499"
       cy="241.22742"
       fx="193.84499"
       fy="241.22742"
       r="5.875"
       gradientUnits="userSpaceOnUse"
       gradientTransform="matrix(1.7666554,0,0,1.7666554,-148.55543,-185.82578)" />
    <filter
       inkscape:collect="always"
       id="filter4273"
       x="-0.013247498"
       width="1.026495"
       y="-0.12413551"
       height="1.248271">
      <feGaussianBlur
         inkscape:collect="always"
         stdDeviation="0.67271299"
         id="feGaussianBlur4275" />
    </filter>
    <filter
       inkscape:collect="always"
       id="filter4325"
       x="-0.048022179"
       width="1.0960444"
       y="-0.44999124"
       height="1.8999825">
      <feGaussianBlur
         inkscape:collect="always"
         stdDeviation="2.4385846"
         id="feGaussianBlur4327" />
    </filter>
    <radialGradient
       inkscape:collect="always"
       xlink:href="#linearGradient4335"
       id="radialGradient4341"
       cx="191.57249"
       cy="235.1496"
       fx="191.57249"
       fy="235.1496"
       r="6.6530548"
       gradientUnits="userSpaceOnUse"
       gradientTransform="matrix(2.0829725,6.0565865e-7,-2.9216155e-7,1.0047978,-207.46768,-1.1283233)" />
    <filter
       inkscape:collect="always"
       id="filter3838"
       x="-0.69697297"
       width="2.3939459"
       y="-0.012210227"
       height="1.0244205">
      <feGaussianBlur
         inkscape:collect="always"
         stdDeviation="0.6715625"
         id="feGaussianBlur3840" />
    </filter>
    <filter
       color-interpolation-filters="sRGB"
       inkscape:collect="always"
       id="filter3838-4"
       x="-0.69697297"
       width="2.3939459"
       y="-0.012210227"
       height="1.0244205">
      <feGaussianBlur
         inkscape:collect="always"
         stdDeviation="0.6715625"
         id="feGaussianBlur3840-6" />
    </filter>
  </defs>
  <metadata
     id="metadata4">
    <rdf:RDF>
      <cc:Work
         rdf:about="">
        <dc:format>image/svg+xml</dc:format>
        <dc:type
           rdf:resource="http://purl.org/dc/dcmitype/StillImage" />
        <dc:creator>
          <cc:Agent>
            <dc:title>Lapo Calamandrei</dc:title>
          </cc:Agent>
        </dc:creator>
        <dc:source />
        <cc:license
           rdf:resource="" />
        <dc:title>Firewall</dc:title>
        <dc:subject>
          <rdf:Bag />
        </dc:subject>
        <dc:date />
        <dc:rights>
          <cc:Agent>
            <dc:title />
          </cc:Agent>
        </dc:rights>
        <dc:publisher>
          <cc:Agent>
            <dc:title />
          </cc:Agent>
        </dc:publisher>
        <dc:identifier />
        <dc:relation />
        <dc:language />
        <dc:coverage />
        <dc:description />
        <dc:contributor>
          <cc:Agent>
            <dc:title />
          </cc:Agent>
        </dc:contributor>
      </cc:Work>
      <cc:Work
         rdf:about="">
        <dc:format>image/svg+xml</dc:format>
        <dc:type
           rdf:resource="http://purl.org/dc/dcmitype/StillImage" />
      </cc:Work>
    </rdf:RDF>
  </metadata>
  <g
     style="display:inline"
     inkscape:groupmode="layer"
     inkscape:label="artwork"
     id="layer1">
    <g
       inkscape:groupmode="layer"
       id="layer2"
       inkscape:label="baseplate"
       style="display:none">
      <rect
         style="fill:#eeeeec;fill-opacity:1;fill-rule:nonzero;stroke:none;stroke-width:2;marker:none;visibility:visible;display:inline;overflow:visible;enable-background:accumulate"
         id="rect6284"
         width="48"
         height="48"
         x="296.0625"
         y="51.99633"
         inkscape:label="48x48" />
      <rect
         inkscape:label="32x32"
         y="127.99634"
         x="303"
         height="32"
         width="32"
         id="rect6592"
         style="fill:#eeeeec;fill-opacity:1;fill-rule:nonzero;stroke:none;stroke-width:2;marker:none;visibility:visible;display:inline;overflow:visible;enable-background:accumulate" />
      <rect
         inkscape:label="24x24"
         y="178"
         x="302"
         height="24"
         width="24"
         id="rect5028"
         style="fill:#ffffff;fill-opacity:1;fill-rule:nonzero;stroke:none;stroke-width:2;marker:none;visibility:visible;display:inline;overflow:visible;enable-background:accumulate" />
      <rect
         inkscape:label="16x16"
         y="221"
         x="303"
         height="16"
         width="16"
         id="rect6833"
         style="fill:#eeeeec;fill-opacity:1;fill-rule:nonzero;stroke:none;stroke-width:2;marker:none;visibility:visible;display:inline;overflow:visible;enable-background:accumulate" />
      <rect
         style="fill:#eeeeec;fill-opacity:1;fill-rule:nonzero;stroke:none;stroke-width:2;marker:none;visibility:visible;display:inline;overflow:visible;enable-background:accumulate"
         id="rect6749"
         width="22"
         height="22"
         x="303"
         y="179.05884"
         inkscape:label="22x22" />
      <text
         id="context"
         inkscape:label="context"
         style="font-size:18px;font-style:normal;font-variant:normal;font-weight:normal;font-stretch:normal;fill:#000000;fill-opacity:1;stroke:none;display:inline;enable-background:new;font-family:DejaVu Sans;-inkscape-font-specification:DejaVu Sans"
         x="31.87059"
         xml:space="preserve"
         y="18.860306"><tspan
           id="tspan2716"
           sodipodi:role="line"
           x="31.87059"
           y="18.860306"
           style="font-style:normal;font-variant:normal;font-weight:normal;font-stretch:normal;font-family:DejaVu Sans;-inkscape-font-specification:DejaVu Sans">context</tspan></text>
      <text
         id="icon-name"
         inkscape:label="icon-name"
         sodipodi:linespacing="125%"
         style="font-size:18px;font-style:normal;font-variant:normal;font-weight:bold;font-stretch:normal;text-align:start;line-height:125%;writing-mode:lr-tb;text-anchor:start;fill:#000000;fill-opacity:1;stroke:none;display:inline;enable-background:new;font-family:DejaVu Sans;-inkscape-font-specification:DejaVu Sans Bold"
         x="302.87057"
         xml:space="preserve"
         y="18.860306"><tspan
           id="tspan3023"
           sodipodi:role="line"
           x="302.87057"
           y="18.860306"
           style="font-size:18px;font-style:normal;font-variant:normal;font-weight:bold;font-stretch:normal;font-family:DejaVu Sans;-inkscape-font-specification:DejaVu Sans Bold">name</tspan></text>
      <rect
         inkscape:label="256x256"
         y="32"
         x="20"
         height="256"
         width="256"
         id="rect6282"
         style="fill:#eeeeec;fill-opacity:1;fill-rule:nonzero;stroke:none;stroke-width:2;marker:none;visibility:visible;display:inline;overflow:visible;enable-background:accumulate"
         inkscape:export-xdpi="90"
         inkscape:export-ydpi="90" />
    </g>
    <g
       inkscape:groupmode="layer"
       id="layer4"
       inkscape:label="smallsizes"
       style="display:inline">
      <g
         id="g6154"
         style="fill:#ffffff"
         transform="matrix(1.25,0,0,1.25,-78,-47.25)" />
    </g>
    <g
       inkscape:groupmode="layer"
       id="layer5"
       inkscape:label="hires"
       style="display:inline">
      <g
         id="g8198"
         transform="matrix(5.0928038,0,0,2.2388776,20.301687,129.4805)"
         style="opacity:0.4" />
      <g
         id="g8230"
         inkscape:label="base"
         style="display:inline"
         transform="matrix(4.8890868,0,0,4.8890868,322.06038,251.81989)" />
      <path
         sodipodi:type="inkscape:offset"
         inkscape:radius="-1.0153296"
         inkscape:original="M 711.96875 227 C 709.68001 227.00001 707.67461 227.86289 706.5 229.1875 L 706.5 231.625 C 706.5 232.11623 706.8838 232.5 707.375 232.5 L 716.625 232.5 C 717.11622 232.50001 717.5 232.11622 717.5 231.625 L 717.5 229.25 C 716.33242 227.89578 714.28785 227 711.96875 227 z "
         style="opacity:0.35;fill:none;stroke:#ffffff;stroke-width:1;stroke-linecap:butt;stroke-linejoin:miter;stroke-miterlimit:4;stroke-opacity:1;stroke-dasharray:none;stroke-dashoffset:0;marker:none;visibility:visible;display:inline;overflow:visible;enable-background:accumulate"
         id="path5171-2"
         d="m 711.96875,228 c -1.90789,1e-5 -3.49694,0.75848 -4.46875,1.71875 l 0,1.78125 9,0 0,-1.75 c -0.96562,-0.98703 -2.59089,-1.75 -4.53125,-1.75 z"
         transform="translate(-7.8685593e-7,2.029528e-6)" />
      <rect
         style="opacity:0.3324937;color:#000000;fill:#000000;fill-opacity:1;fill-rule:nonzero;stroke:none;stroke-width:1.99999988000000006;marker:none;visibility:visible;display:inline;overflow:visible;filter:url(#filter4325);enable-background:accumulate"
         id="rect4239-7"
         width="121.87292"
         height="13.006038"
         x="87.063538"
         y="240"
         rx="8.6872921"
         ry="6.5030189"
         transform="matrix(1.0667915,0,0,1.1330874,-9.8851433,-33.309456)" />
      <rect
         style="opacity:0.5163728;color:#000000;fill:#000000;fill-opacity:1;fill-rule:nonzero;stroke:none;stroke-width:1.99999988000000006;marker:none;visibility:visible;display:inline;overflow:visible;enable-background:accumulate;filter:url(#filter4273)"
         id="rect4239"
         width="121.87292"
         height="13.006038"
         x="87.063538"
         y="240"
         rx="8.6872921"
         ry="6.5030189" />
      <g
         id="g3933"
         clip-path="url(#clipPath3956)">
        <path
           inkscape:connector-curvature="0"
           style="color:#000000;fill:#888a85;fill-opacity:1;fill-rule:nonzero;stroke:none;stroke-width:1.99999988;marker:none;visibility:visible;display:inline;overflow:visible;enable-background:accumulate"
           d="m 97.25,84 c -4.0165,0 -6.780892,2 -7.25,6 l -1.9375,16.5 0,0.0625 C 88.024828,106.86838 88,107.18361 88,107.5 l 0,56.5 0,80.5 c 0,4.155 3.345,7.5 7.5,7.5 l 105,0 c 4.155,0 7.5,-3.345 7.5,-7.5 l 0,-80.5 0,-56.5 c 0,-0.31639 -0.0248,-0.63162 -0.0625,-0.9375 l 0,-0.0625 L 206,90 c -0.46911,-4 -3.2335,-6 -7.25,-6 l -101.5,0 z"
           id="rect3003-6-3-9" />
        <path
           id="rect3003-6-3"
           d="M 97.25,84 C 93.2335,84 90.469108,86 90,90 L 88.0625,106.5625 88,107.5 l 0,56.5 120,0 0,-56.5 -0.0625,-0.9375 L 206,90 c -0.46911,-4 -3.2335,-6 -7.25,-6 l -101.5,0 z"
           style="color:#000000;fill:url(#linearGradient4026);fill-opacity:1;fill-rule:nonzero;stroke:none;stroke-width:1.99999988000000006;marker:none;visibility:visible;display:inline;overflow:visible;enable-background:accumulate"
           inkscape:connector-curvature="0" />
        <rect
           ry="7.5"
           rx="7.5"
           y="100"
           x="88"
           height="152"
           width="120"
           id="rect3003"
           style="color:#000000;fill:url(#linearGradient4098);fill-opacity:1;fill-rule:nonzero;stroke:none;stroke-width:1.99999988000000006;marker:none;visibility:visible;display:inline;overflow:visible;enable-background:accumulate;filter:url(#filter4008)" />
        <path
           inkscape:connector-curvature="0"
           id="rect3003-7"
           d="m 97.25,83 c -4.0165,0 -6.780892,2 -7.25,6 l -1.9375,17.5 0,0.0625 C 88.024828,106.86838 88,107.18361 88,107.5 l 0,56.5 0,79.5 c 0,4.155 3.345,7.5 7.5,7.5 l 105,0 c 4.155,0 7.5,-3.345 7.5,-7.5 l 0,-79.5 0,-56.5 c 0,-0.31639 -0.0248,-0.63162 -0.0625,-0.9375 l 0,-0.0625 L 206,89 c -0.46911,-4 -3.2335,-6 -7.25,-6 z"
           style="color:#000000;fill:none;stroke:#000000;stroke-width:1.99999988;marker:none;visibility:visible;display:inline;overflow:visible;filter:url(#filter3964);enable-background:accumulate"
           sodipodi:nodetypes="scccscsssscscccss" />
      </g>
      <rect
         ry="5"
         rx="5"
         y="117"
         x="104"
         height="102"
         width="88"
         id="rect3036-5"
         style="color:#000000;fill:#000000;fill-opacity:1;fill-rule:nonzero;stroke:none;stroke-width:1.99999988000000006;marker:none;visibility:visible;display:inline;overflow:visible;enable-background:accumulate;opacity:0.28211587" />
      <g
         id="g3038">
        <rect
           ry="5"
           rx="5"
           y="116"
           x="104"
           height="102"
           width="88"
           id="rect3036"
           style="color:#000000;fill:#ffffff;fill-opacity:1;fill-rule:nonzero;stroke:none;stroke-width:1.99999988;marker:none;visibility:visible;display:inline;overflow:visible;enable-background:accumulate" />
        <g
           id="g3010"
           style="display:inline"
           transform="matrix(0.12780453,0,0,0.12780453,101.79647,95.54137)">
          <g
             id="g3513"
             transform="matrix(0.726829,0,0,0.726829,98.3415,113.332)">
            <path
               inkscape:connector-curvature="0"
               id="path2996-8-8-7"
               d="M 564.15625,331.125 C 560.06687,376.19719 541.38511,417.05359 512.875,448.9375 537.85933,461.56645 555,487.46721 555,517.375 555,559.70386 520.67261,594 478.34375,594 c -15.48707,0 -29.88425,-4.60116 -41.9375,-12.5 -13.84908,42.09331 -40.94001,78.18089 -76.375,103.28125 33.42699,23.6674 74.23871,37.59375 118.3125,37.59375 113.21838,0 205,-91.78162 205,-205 0,-82.58153 -48.82525,-153.77622 -119.1875,-186.25 z"
               style="color:#000000;fill:#3465a4;fill-opacity:1;fill-rule:nonzero;stroke:none;stroke-width:2;marker:none;visibility:visible;display:inline;overflow:visible;enable-background:accumulate" />
            <path
               inkscape:connector-curvature="0"
               id="path2996-4"
               d="m 360,107.375 c -113.21838,0 -205,91.78162 -205,205 0,6.33048 0.31341,12.56586 0.875,18.75 26.096,-12.03884 55.15598,-18.75 85.78125,-18.75 14.34093,0 28.33619,1.48011 41.84375,4.28125 -0.0784,-1.42068 -0.15625,-2.84097 -0.15625,-4.28125 0,-42.32886 34.32739,-76.65625 76.65625,-76.65625 42.32886,0 76.65625,34.32739 76.65625,76.65625 0,1.44028 -0.0778,2.86057 -0.15625,4.28125 13.50756,-2.80114 27.50282,-4.28125 41.84375,-4.28125 30.62527,0 59.68525,6.71116 85.78125,18.75 0.56159,-6.18414 0.875,-12.41952 0.875,-18.75 0,-113.21838 -91.78162,-205 -205,-205 z"
               style="color:#000000;fill:#8ae234;fill-opacity:1;fill-rule:nonzero;stroke:none;stroke-width:2;marker:none;visibility:visible;display:inline;overflow:visible;enable-background:accumulate" />
            <path
               inkscape:connector-curvature="0"
               id="path2996-8-8-8-6"
               d="m 155.84375,331.125 c -70.362254,32.47378 -119.1875,103.66847 -119.1875,186.25 0,113.21838 91.78162,205 205,205 44.07379,0 84.88551,-13.92635 118.3125,-37.59375 C 324.53376,659.68089 297.44283,623.59331 283.59375,581.5 271.5405,589.39884 257.14332,594 241.65625,594 199.32739,594 165,559.70386 165,517.375 c 0,-29.90779 17.14067,-55.80855 42.125,-68.4375 -28.51011,-31.88391 -47.19187,-72.74031 -51.28125,-117.8125 z"
               style="color:#000000;fill:#cc0000;fill-opacity:1;fill-rule:nonzero;stroke:none;stroke-width:2;marker:none;visibility:visible;display:inline;overflow:visible;enable-background:accumulate" />
            <path
               transform="matrix(0.338462,0,0,0.338462,358.203,406.563)"
               d="m 550,327.36218 c 0,107.69553 -87.30447,195 -195,195 -107.69553,0 -195,-87.30447 -195,-195 0,-107.69552 87.30447,-195 195,-195 107.69553,0 195,87.30448 195,195 z"
               sodipodi:ry="195"
               sodipodi:rx="195"
               sodipodi:cy="327.36218"
               sodipodi:cx="355"
               id="path2996-8-8-1"
               style="color:#000000;fill:#3465a4;fill-opacity:1;fill-rule:nonzero;stroke:none;stroke-width:2;marker:none;visibility:visible;display:inline;overflow:visible;enable-background:accumulate"
               sodipodi:type="arc" />
            <path
               transform="matrix(0.338462,0,0,0.338462,239.846,201.563)"
               d="m 550,327.36218 c 0,107.69553 -87.30447,195 -195,195 -107.69553,0 -195,-87.30447 -195,-195 0,-107.69552 87.30447,-195 195,-195 107.69553,0 195,87.30448 195,195 z"
               sodipodi:ry="195"
               sodipodi:rx="195"
               sodipodi:cy="327.36218"
               sodipodi:cx="355"
               id="path2996-8-8-1-5"
               style="color:#000000;fill:#8ae234;fill-opacity:1;fill-rule:nonzero;stroke:none;stroke-width:2;marker:none;visibility:visible;display:inline;overflow:visible;enable-background:accumulate"
               sodipodi:type="arc" />
            <path
               transform="matrix(0.338462,0,0,0.338462,121.489,406.563)"
               d="m 550,327.36218 c 0,107.69553 -87.30447,195 -195,195 -107.69553,0 -195,-87.30447 -195,-195 0,-107.69552 87.30447,-195 195,-195 107.69553,0 195,87.30448 195,195 z"
               sodipodi:ry="195"
               sodipodi:rx="195"
               sodipodi:cy="327.36218"
               sodipodi:cx="355"
               id="path2996-8-8-1-5-7"
               style="color:#000000;fill:#cc0000;fill-opacity:1;fill-rule:nonzero;stroke:none;stroke-width:2;marker:none;visibility:visible;display:inline;overflow:visible;enable-background:accumulate"
               sodipodi:type="arc" />
          </g>
          <text
             xml:space="preserve"
             style="font-size:120px;font-style:normal;font-variant:normal;font-weight:normal;font-stretch:normal;line-height:125%;letter-spacing:0px;word-spacing:0px;fill:#000000;fill-opacity:1;stroke:none;font-family:DejaVu Serif;-inkscape-font-specification:DejaVu Serif"
             x="47.02771"
             y="867.09851"
             id="text3468"
             sodipodi:linespacing="125%"><tspan
               sodipodi:role="line"
               id="tspan3470"
               x="47.02771"
               y="867.09851"
               style="font-size:120px;font-weight:normal;fill:#000000;-inkscape-font-specification:DejaVu Serif">Color<tspan
   style="font-style:normal;font-variant:normal;font-weight:bold;font-stretch:normal;fill:#000000;font-family:DejaVu Sans;-inkscape-font-specification:DejaVu Sans Bold"
   id="tspan3476">HUG</tspan></tspan></text>
          <text
             xml:space="preserve"
             style="font-size:36.68116379px;font-style:normal;font-weight:normal;text-align:end;line-height:125%;letter-spacing:0px;word-spacing:0px;text-anchor:end;fill:#000000;fill-opacity:1;stroke:none;display:inline;font-family:DejaVu Sans;-inkscape-font-specification:DejaVu Sans"
             x="672.67139"
             y="903.5946"
             id="text3991-0-1-3"
             sodipodi:linespacing="125%"
             inkscape:export-filename="/home/hughsie/Code/ColorHug/website/img/print.png"
             inkscape:export-xdpi="299.95081"
             inkscape:export-ydpi="299.95081"><tspan
               sodipodi:role="line"
               x="672.67139"
               y="903.5946"
               style="font-size:36.68116379px;font-style:normal;font-variant:normal;font-weight:normal;font-stretch:normal;text-align:end;line-height:125%;writing-mode:lr-tb;text-anchor:end;fill:#000000;font-family:DejaVu Sans;-inkscape-font-specification:DejaVu Sans"
               id="tspan4016-2-8">©Hughski 2011</tspan></text>
        </g>
      </g>
      <path
         sodipodi:type="arc"
         style="color:#000000;fill:url(#radialGradient4090);fill-opacity:1;fill-rule:nonzero;stroke:none;stroke-width:1.99999988;marker:none;visibility:visible;display:inline;overflow:visible;enable-background:accumulate"
         id="path4082"
         sodipodi:cx="92.6875"
         sodipodi:cy="106.4375"
         sodipodi:rx="2.4375"
         sodipodi:ry="2.4375"
         d="m 95.125,106.4375 a 2.4375,2.4375 0 1 1 -4.875,0 2.4375,2.4375 0 1 1 4.875,0 z"
         transform="matrix(1.3954981,-1.3954981,0.80509507,0.80509507,-123.22504,148.43417)" />
      <g
         id="g4329">
        <path
           transform="matrix(0.85106384,0,0,0.85106384,26.893617,32.446809)"
           d="m 199.875,238 a 5.875,5.875 0 1 1 -11.75,0 5.875,5.875 0 1 1 11.75,0 z"
           sodipodi:ry="5.875"
           sodipodi:rx="5.875"
           sodipodi:cy="238"
           sodipodi:cx="194"
           id="path4124"
           style="color:#000000;fill:url(#radialGradient4341);fill-opacity:1;fill-rule:nonzero;stroke:none;stroke-width:1.99999988000000006;marker:none;visibility:visible;display:inline;overflow:visible;filter:url(#filter4148);enable-background:accumulate;opacity:0.23670026000000000"
           sodipodi:type="arc" />
        <path
           transform="matrix(0.68085107,0,0,0.68085107,59.914896,73.957447)"
           d="m 199.875,238 a 5.875,5.875 0 1 1 -11.75,0 5.875,5.875 0 1 1 11.75,0 z"
           sodipodi:ry="5.875"
           sodipodi:rx="5.875"
           sodipodi:cy="238"
           sodipodi:cx="194"
           id="path4124-0"
           style="color:#000000;fill:url(#radialGradient4219);fill-opacity:1;fill-rule:nonzero;stroke:none;stroke-width:1.99999988000000006;marker:none;visibility:visible;display:inline;overflow:visible;enable-background:accumulate"
           sodipodi:type="arc" />
        <path
           inkscape:connector-curvature="0"
           id="path4124-0-5"
           d="m 192.11087,232.70312 c -1.92519,0 -3.48587,1.57091 -3.48587,3.5087 0,0.24223 0.0262,0.46603 0.0725,0.69443 0.20006,-2.0727 1.91879,-3.69145 4.03053,-3.69145 0.60842,0 1.18836,0.16101 1.70663,0.40205 -0.61786,-0.5608 -1.42643,-0.91373 -2.32391,-0.91373 z"
           style="opacity:0.40050378;color:#000000;fill:#d3d7cf;fill-opacity:1;fill-rule:nonzero;stroke:none;stroke-width:1.99999988;marker:none;visibility:visible;display:inline;overflow:visible;enable-background:accumulate" />
        <path
           inkscape:connector-curvature="0"
           id="path4124-0-5-4"
           d="m 192.1458,239.5 c 1.69558,0 3.07011,-1.2906 3.07011,-2.88261 0,-0.19901 -0.0231,-0.38288 -0.0639,-0.57052 -0.1762,1.70285 -1.68994,3.03275 -3.54981,3.03275 -0.53586,0 -1.04662,-0.13228 -1.50308,-0.33031 0.54417,0.46074 1.2563,0.75069 2.04673,0.75069 z"
           style="opacity:0.19143577;color:#000000;fill:#d3d7cf;fill-opacity:1;fill-rule:nonzero;stroke:none;stroke-width:1.99999988000000006;marker:none;visibility:visible;display:inline;overflow:visible;enable-background:accumulate" />
      </g>
      <rect
         style="opacity:0.11838791;color:#000000;fill:#ffffff;fill-opacity:1;fill-rule:nonzero;stroke:none;stroke-width:1.99999988000000006;marker:none;visibility:visible;display:inline;overflow:visible;enable-background:accumulate;filter:url(#filter3838)"
         id="rect3068"
         width="2.3125"
         height="132"
         x="90.4375"
         y="112"
         rx="1.15625"
         ry="1.113543" />
      <rect
         style="opacity:0.07808564;color:#000000;fill:#ffffff;fill-opacity:1;fill-rule:nonzero;stroke:none;stroke-width:1.99999988000000006;marker:none;visibility:visible;display:inline;overflow:visible;filter:url(#filter3838-4);enable-background:accumulate"
         id="rect3068-2"
         width="2.3125"
         height="132"
         x="203.4375"
         y="112"
         rx="1.15625"
         ry="1.113543" />
      <rect
         style="color:#000000;fill:#000000;fill-opacity:1;fill-rule:nonzero;stroke:none;stroke-width:1.99999988;marker:none;visibility:visible;display:inline;overflow:visible;enable-background:accumulate"
         id="rect3866"
         width="28"
         height="36"
         x="134"
         y="56"
         rx="1.1048543"
         ry="1.1048543" />
      <path
         style="color:#000000;fill:#000000;fill-opacity:1;fill-rule:nonzero;stroke:none;stroke-width:1.99999988;marker:none;visibility:visible;display:inline;overflow:visible;enable-background:accumulate"
         d="m 134,41 28,0 -1,-10 -26,0 z"
         id="rect3866-4"
         inkscape:connector-curvature="0"
         sodipodi:nodetypes="ccccc" />
    </g>
  </g>
</svg>
