<?xml version="1.0" encoding="UTF-8" standalone="no"?>
<!-- Created with Inkscape (http://www.inkscape.org/) -->

<svg
   xmlns:dc="http://purl.org/dc/elements/1.1/"
   xmlns:cc="http://creativecommons.org/ns#"
   xmlns:rdf="http://www.w3.org/1999/02/22-rdf-syntax-ns#"
   xmlns:svg="http://www.w3.org/2000/svg"
   xmlns="http://www.w3.org/2000/svg"
   xmlns:xlink="http://www.w3.org/1999/xlink"
   xmlns:sodipodi="http://sodipodi.sourceforge.net/DTD/sodipodi-0.dtd"
   xmlns:inkscape="http://www.inkscape.org/namespaces/inkscape"
   width="407.29352"
   height="407.29352"
   id="svg2"
   version="1.1"
   inkscape:version="0.48.1 r9760"
   sodipodi:docname="geany.svg">
  <defs
     id="defs4">
    <linearGradient
       inkscape:collect="always"
       id="linearGradient6163">
      <stop
         style="stop-color:#ffffff;stop-opacity:1;"
         offset="0"
         id="stop6165" />
      <stop
         style="stop-color:#ffffff;stop-opacity:0;"
         offset="1"
         id="stop6167" />
    </linearGradient>
    <linearGradient
       inkscape:collect="always"
       id="linearGradient6078">
      <stop
         style="stop-color:#edd400;stop-opacity:1;"
         offset="0"
         id="stop6080" />
      <stop
         style="stop-color:#edd400;stop-opacity:0;"
         offset="1"
         id="stop6082" />
    </linearGradient>
    <linearGradient
       inkscape:collect="always"
       id="linearGradient6064">
      <stop
         style="stop-color:#624601;stop-opacity:1"
         offset="0"
         id="stop6066" />
      <stop
         id="stop6072"
         offset="0.5008834"
         style="stop-color:#ac8301;stop-opacity:1;" />
      <stop
         style="stop-color:#ebc000;stop-opacity:1"
         offset="1"
         id="stop6068" />
    </linearGradient>
    <linearGradient
       inkscape:collect="always"
       id="linearGradient6056">
      <stop
         style="stop-color:#fdf295;stop-opacity:1;"
         offset="0"
         id="stop6058" />
      <stop
         style="stop-color:#fdf295;stop-opacity:0;"
         offset="1"
         id="stop6060" />
    </linearGradient>
    <linearGradient
       id="linearGradient5898">
      <stop
         style="stop-color:#ffe470;stop-opacity:1"
         offset="0"
         id="stop5900" />
      <stop
         style="stop-color:#fce94f;stop-opacity:0.56902355"
         offset="1"
         id="stop5902" />
    </linearGradient>
    <linearGradient
       inkscape:collect="always"
       id="linearGradient5888">
      <stop
         style="stop-color:#fef9cc;stop-opacity:1;"
         offset="0"
         id="stop5890" />
      <stop
         style="stop-color:#fef9cc;stop-opacity:0;"
         offset="1"
         id="stop5892" />
    </linearGradient>
    <linearGradient
       inkscape:collect="always"
       id="linearGradient5706">
      <stop
         style="stop-color:#8f5902;stop-opacity:1"
         offset="0"
         id="stop5708" />
      <stop
         style="stop-color:#c4a000;stop-opacity:1"
         offset="1"
         id="stop5710" />
    </linearGradient>
    <linearGradient
       id="linearGradient5694"
       inkscape:collect="always">
      <stop
         id="stop5696"
         offset="0"
         style="stop-color:#c4a000;stop-opacity:1" />
      <stop
         id="stop5698"
         offset="1"
         style="stop-color:#dfbd00;stop-opacity:1" />
    </linearGradient>
    <linearGradient
       inkscape:collect="always"
       id="linearGradient5668">
      <stop
         style="stop-color:#fef9cc;stop-opacity:1"
         offset="0"
         id="stop5670" />
      <stop
         style="stop-color:#fce94f;stop-opacity:0"
         offset="1"
         id="stop5672" />
    </linearGradient>
    <linearGradient
       inkscape:collect="always"
       id="linearGradient5616">
      <stop
         style="stop-color:#c48b00;stop-opacity:1;"
         offset="0"
         id="stop5618" />
      <stop
         style="stop-color:#c48b00;stop-opacity:0;"
         offset="1"
         id="stop5620" />
    </linearGradient>
    <linearGradient
       inkscape:collect="always"
       id="linearGradient5436">
      <stop
         style="stop-color:#ffffff;stop-opacity:1;"
         offset="0"
         id="stop5438" />
      <stop
         style="stop-color:#ffffff;stop-opacity:0;"
         offset="1"
         id="stop5440" />
    </linearGradient>
    <linearGradient
       inkscape:collect="always"
       id="linearGradient5406">
      <stop
         style="stop-color:#ffffff;stop-opacity:0"
         offset="0"
         id="stop5408" />
      <stop
         style="stop-color:#ffffff;stop-opacity:1"
         offset="1"
         id="stop5410" />
    </linearGradient>
    <linearGradient
       id="linearGradient5270">
      <stop
         style="stop-color:#ffe613;stop-opacity:1;"
         offset="0"
         id="stop5272" />
      <stop
         id="stop5278"
         offset="0.73446131"
         style="stop-color:#f9e00d;stop-opacity:1;" />
      <stop
         style="stop-color:#edd400;stop-opacity:1;"
         offset="1"
         id="stop5274" />
    </linearGradient>
    <linearGradient
       id="linearGradient5264"
       inkscape:collect="always">
      <stop
         id="stop5266"
         offset="0"
         style="stop-color:#edd400;stop-opacity:1" />
      <stop
         id="stop5268"
         offset="1"
         style="stop-color:#d3bd00;stop-opacity:1" />
    </linearGradient>
    <linearGradient
       inkscape:collect="always"
       id="linearGradient4987">
      <stop
         style="stop-color:#000000;stop-opacity:1;"
         offset="0"
         id="stop4989" />
      <stop
         style="stop-color:#000000;stop-opacity:0;"
         offset="1"
         id="stop4991" />
    </linearGradient>
    <linearGradient
       id="linearGradient4825">
      <stop
         id="stop4827"
         offset="0"
         style="stop-color:#fcea58;stop-opacity:1" />
      <stop
         id="stop4829"
         offset="1"
         style="stop-color:#fce94f;stop-opacity:0.71043772" />
    </linearGradient>
    <linearGradient
       inkscape:collect="always"
       id="linearGradient4703">
      <stop
         style="stop-color:#edd400;stop-opacity:1"
         offset="0"
         id="stop4705" />
      <stop
         style="stop-color:#d1bb00;stop-opacity:1"
         offset="1"
         id="stop4707" />
    </linearGradient>
    <linearGradient
       id="linearGradient4403">
      <stop
         style="stop-color:#fce94f;stop-opacity:1"
         offset="0"
         id="stop4405" />
      <stop
         style="stop-color:#edd400;stop-opacity:1"
         offset="1"
         id="stop4407" />
    </linearGradient>
    <linearGradient
       inkscape:collect="always"
       id="linearGradient4250">
      <stop
         style="stop-color:#c4a000;stop-opacity:1;"
         offset="0"
         id="stop4252" />
      <stop
         style="stop-color:#6a5700;stop-opacity:1"
         offset="1"
         id="stop4254" />
    </linearGradient>
    <linearGradient
       inkscape:collect="always"
       id="linearGradient4210">
      <stop
         style="stop-color:#fef5af;stop-opacity:1"
         offset="0"
         id="stop4212" />
      <stop
         id="stop5448"
         offset="0.31261516"
         style="stop-color:#fdf089;stop-opacity:0.61568627;" />
      <stop
         id="stop5444"
         offset="0.6855076"
         style="stop-color:#f9e00f;stop-opacity:0.46464646" />
      <stop
         style="stop-color:#fce94f;stop-opacity:0;"
         offset="1"
         id="stop4214" />
    </linearGradient>
    <linearGradient
       inkscape:collect="always"
       id="linearGradient4120">
      <stop
         style="stop-color:#ffe50f;stop-opacity:1"
         offset="0"
         id="stop4122" />
      <stop
         id="stop4128"
         offset="0.80000001"
         style="stop-color:#edd400;stop-opacity:0.91372549;" />
      <stop
         style="stop-color:#edd400;stop-opacity:0;"
         offset="1"
         id="stop4124" />
    </linearGradient>
    <linearGradient
       inkscape:collect="always"
       id="linearGradient4104">
      <stop
         style="stop-color:#fce94f;stop-opacity:1;"
         offset="0"
         id="stop4106" />
      <stop
         style="stop-color:#fce94f;stop-opacity:0;"
         offset="1"
         id="stop4108" />
    </linearGradient>
    <linearGradient
       inkscape:collect="always"
       id="linearGradient4054">
      <stop
         style="stop-color:#fdf5b5;stop-opacity:1"
         offset="0"
         id="stop4056" />
      <stop
         style="stop-color:#fdee75;stop-opacity:0;"
         offset="1"
         id="stop4058" />
    </linearGradient>
    <linearGradient
       inkscape:collect="always"
       id="linearGradient4018">
      <stop
         style="stop-color:#fce94f;stop-opacity:1;"
         offset="0"
         id="stop4020" />
      <stop
         style="stop-color:#fce94f;stop-opacity:0;"
         offset="1"
         id="stop4022" />
    </linearGradient>
    <linearGradient
       inkscape:collect="always"
       id="linearGradient3974">
      <stop
         style="stop-color:#edd400;stop-opacity:1;"
         offset="0"
         id="stop3976" />
      <stop
         style="stop-color:#edd400;stop-opacity:0;"
         offset="1"
         id="stop3978" />
    </linearGradient>
    <filter
       inkscape:collect="always"
       id="filter3807"
       x="-0.18577057"
       width="1.3715411"
       y="-0.35134777"
       height="1.7026955"
       color-interpolation-filters="sRGB">
      <feGaussianBlur
         inkscape:collect="always"
         stdDeviation="16.839349"
         id="feGaussianBlur3809" />
    </filter>
    <clipPath
       clipPathUnits="userSpaceOnUse"
       id="clipPath3813">
      <path
         sodipodi:nodetypes="ccsssscc"
         inkscape:connector-curvature="0"
         id="path3815"
         d="m 165,494.86218 c -12.57958,1.35035 -22.40255,4.99788 -27,13 44.75488,13.2112 78.0652,41.85665 113.5,71 45.62376,37.52327 103.00157,28.95132 141.5,-13 12.11819,-13.20506 16.9705,-32.64418 14,-50 -7.46569,-43.62001 -42.39105,-50.93496 -82,-50.5 -41.6538,0.45741 -60.31992,7.45083 -89,37 -23.65628,5.81446 -49.4041,4.6477 -71,-7.5 z"
         style="fill:#dab200;fill-opacity:1;stroke:none" />
    </clipPath>
    <filter
       inkscape:collect="always"
       id="filter3906"
       x="-0.31973976"
       width="1.6394795"
       y="-0.12525728"
       height="1.2505146"
       color-interpolation-filters="sRGB">
      <feGaussianBlur
         inkscape:collect="always"
         stdDeviation="2.1659072"
         id="feGaussianBlur3908" />
    </filter>
    <filter
       inkscape:collect="always"
       id="filter3968"
       x="-0.086700469"
       width="1.1734009"
       y="-0.27643001"
       height="1.55286"
       color-interpolation-filters="sRGB">
      <feGaussianBlur
         inkscape:collect="always"
         stdDeviation="2.8177653"
         id="feGaussianBlur3970" />
    </filter>
    <linearGradient
       inkscape:collect="always"
       xlink:href="#linearGradient3974"
       id="linearGradient3980"
       x1="172.53404"
       y1="498.87433"
       x2="266.22571"
       y2="557.21063"
       gradientUnits="userSpaceOnUse"
       gradientTransform="translate(-3,-2)" />
    <filter
       inkscape:collect="always"
       id="filter4010"
       color-interpolation-filters="sRGB">
      <feGaussianBlur
         inkscape:collect="always"
         stdDeviation="1.8402455"
         id="feGaussianBlur4012" />
    </filter>
    <linearGradient
       inkscape:collect="always"
       xlink:href="#linearGradient4018"
       id="linearGradient4024"
       x1="222.03152"
       y1="522.0321"
       x2="214.96046"
       y2="541.47754"
       gradientUnits="userSpaceOnUse"
       gradientTransform="translate(-1,1)" />
    <filter
       inkscape:collect="always"
       id="filter4050"
       color-interpolation-filters="sRGB">
      <feGaussianBlur
         inkscape:collect="always"
         stdDeviation="2.0196737"
         id="feGaussianBlur4052" />
    </filter>
    <linearGradient
       inkscape:collect="always"
       xlink:href="#linearGradient4054"
       id="linearGradient4060"
       x1="201.17188"
       y1="511.42551"
       x2="197.9899"
       y2="535.82068"
       gradientUnits="userSpaceOnUse"
       gradientTransform="translate(0,-1)" />
    <linearGradient
       inkscape:collect="always"
       xlink:href="#linearGradient4104"
       id="linearGradient4110"
       x1="236.075"
       y1="517.58539"
       x2="248.36414"
       y2="545.40582"
       gradientUnits="userSpaceOnUse" />
    <radialGradient
       inkscape:collect="always"
       xlink:href="#linearGradient4120"
       id="radialGradient4126"
       cx="317.01254"
       cy="533.04938"
       fx="317.01254"
       fy="533.04938"
       r="134.33728"
       gradientTransform="matrix(0.66146784,0,0,0.51127176,107.31894,260.99423)"
       gradientUnits="userSpaceOnUse" />
    <clipPath
       clipPathUnits="userSpaceOnUse"
       id="clipPath4176">
      <path
         sodipodi:nodetypes="ccsssscc"
         inkscape:connector-curvature="0"
         id="path4178"
         d="m 165,494.86218 c -12.57958,1.35035 -22.40255,4.99788 -27,13 44.75488,13.2112 78.0652,41.85665 113.5,71 45.62376,37.52327 103.00157,28.95132 141.5,-13 12.11819,-13.20506 16.9705,-32.64418 14,-50 -7.46569,-43.62001 -42.39105,-50.93496 -82,-50.5 -41.6538,0.45741 -60.31992,7.45083 -89,37 -23.65628,5.81446 -49.4041,4.6477 -71,-7.5 z"
         style="fill:#dab200;fill-opacity:1;stroke:none" />
    </clipPath>
    <filter
       inkscape:collect="always"
       id="filter4204"
       color-interpolation-filters="sRGB">
      <feGaussianBlur
         inkscape:collect="always"
         stdDeviation="3.19125"
         id="feGaussianBlur4206" />
    </filter>
    <linearGradient
       inkscape:collect="always"
       xlink:href="#linearGradient4210"
       id="linearGradient4216"
       x1="317.5"
       y1="437.77341"
       x2="317.5"
       y2="618.79077"
       gradientUnits="userSpaceOnUse" />
    <filter
       inkscape:collect="always"
       id="filter4246"
       x="-0.084550373"
       width="1.1691006"
       y="-0.1110363"
       height="1.2220726"
       color-interpolation-filters="sRGB">
      <feGaussianBlur
         inkscape:collect="always"
         stdDeviation="5.2586366"
         id="feGaussianBlur4248" />
    </filter>
    <linearGradient
       inkscape:collect="always"
       xlink:href="#linearGradient4250"
       id="linearGradient4256"
       x1="154.14928"
       y1="504.70798"
       x2="151.67441"
       y2="497.10657"
       gradientUnits="userSpaceOnUse" />
    <filter
       inkscape:collect="always"
       id="filter4375"
       x="-0.22048135"
       width="1.4409627"
       y="-0.29403317"
       height="1.5880663"
       color-interpolation-filters="sRGB">
      <feGaussianBlur
         inkscape:collect="always"
         stdDeviation="8.9828923"
         id="feGaussianBlur4377" />
    </filter>
    <clipPath
       clipPathUnits="userSpaceOnUse"
       id="clipPath4381">
      <path
         sodipodi:nodetypes="ccccc"
         inkscape:connector-curvature="0"
         id="path4383"
         d="m 386.5,480.36218 c -33.10652,26.83855 -98.20456,23.4559 -127,0 23.4745,-13.95087 36.91074,-29.67417 47.5,-51 l 39,-3 c 5.81906,25.70492 21.69631,39.47753 40.5,54 z"
         style="fill:#c4a000;fill-opacity:1;stroke:none" />
    </clipPath>
    <filter
       inkscape:collect="always"
       id="filter4393"
       x="-0.10510383"
       width="1.2102077"
       y="-0.13981584"
       height="1.2796317"
       color-interpolation-filters="sRGB">
      <feGaussianBlur
         inkscape:collect="always"
         stdDeviation="4.5161801"
         id="feGaussianBlur4395" />
    </filter>
    <clipPath
       clipPathUnits="userSpaceOnUse"
       id="clipPath4419">
      <path
         sodipodi:nodetypes="ccccc"
         inkscape:connector-curvature="0"
         id="path4421"
         d="m 386.5,480.36218 c -33.10652,26.83855 -98.20456,23.4559 -127,0 23.4745,-13.95087 36.91074,-29.67417 47.5,-51 l 39,-3 c 5.81906,25.70492 21.69631,39.47753 40.5,54 z"
         style="fill:#c4a000;fill-opacity:1;stroke:none" />
    </clipPath>
    <clipPath
       clipPathUnits="userSpaceOnUse"
       id="clipPath4479">
      <path
         sodipodi:nodetypes="ccccc"
         inkscape:connector-curvature="0"
         id="path4481"
         d="m 386.5,480.36218 c -33.10652,26.83855 -98.20456,23.4559 -127,0 23.4745,-13.95087 36.91074,-29.67417 47.5,-51 l 39,-3 c 5.81906,25.70492 21.69631,39.47753 40.5,54 z"
         style="fill:#c4a000;fill-opacity:1;stroke:none" />
    </clipPath>
    <filter
       inkscape:collect="always"
       id="filter4699"
       x="-0.10193782"
       width="1.2038755"
       y="-0.42452952"
       height="1.849059"
       color-interpolation-filters="sRGB">
      <feGaussianBlur
         inkscape:collect="always"
         stdDeviation="4.4179756"
         id="feGaussianBlur4701" />
    </filter>
    <linearGradient
       inkscape:collect="always"
       xlink:href="#linearGradient5264"
       id="linearGradient4709"
       x1="327"
       y1="502.36218"
       x2="327"
       y2="456.36218"
       gradientUnits="userSpaceOnUse"
       gradientTransform="translate(1.4142136,0)" />
    <linearGradient
       inkscape:collect="always"
       xlink:href="#linearGradient4825"
       id="linearGradient4711"
       gradientUnits="userSpaceOnUse"
       x1="320.96448"
       y1="475.28531"
       x2="323"
       y2="497.96985" />
    <clipPath
       clipPathUnits="userSpaceOnUse"
       id="clipPath4979">
      <path
         sodipodi:nodetypes="ccccc"
         inkscape:connector-curvature="0"
         id="path4981"
         d="m 387.9142,480.36218 c -33.10652,26.83855 -98.20456,23.4559 -127,0 23.4745,-13.95087 36.91074,-29.67417 47.5,-51 l 39,-3 c 5.81906,25.70492 21.69631,39.47753 40.5,54 z"
         style="fill:url(#linearGradient4983);fill-opacity:1;stroke:none" />
    </clipPath>
    <linearGradient
       inkscape:collect="always"
       xlink:href="#linearGradient4703"
       id="linearGradient4983"
       gradientUnits="userSpaceOnUse"
       gradientTransform="translate(1.4142136,0)"
       x1="327"
       y1="502.36218"
       x2="327"
       y2="456.36218" />
    <radialGradient
       inkscape:collect="always"
       xlink:href="#linearGradient4987"
       id="radialGradient4993"
       cx="318.5"
       cy="634.86218"
       fx="318.5"
       fy="634.86218"
       r="52.5"
       gradientTransform="matrix(1,0,0,0.21904762,0,495.79713)"
       gradientUnits="userSpaceOnUse" />
    <filter
       inkscape:collect="always"
       id="filter5103"
       x="-0.077405564"
       width="1.1548111"
       y="-0.35337323"
       height="1.7067465"
       color-interpolation-filters="sRGB">
      <feGaussianBlur
         inkscape:collect="always"
         stdDeviation="3.3864933"
         id="feGaussianBlur5105" />
    </filter>
    <radialGradient
       inkscape:collect="always"
       xlink:href="#linearGradient4987"
       id="radialGradient5109"
       gradientUnits="userSpaceOnUse"
       gradientTransform="matrix(1,0,0,0.21904762,0,495.79713)"
       cx="318.5"
       cy="634.86218"
       fx="318.5"
       fy="634.86218"
       r="52.5" />
    <filter
       inkscape:collect="always"
       id="filter5130"
       x="-0.10466229"
       width="1.2093246"
       y="-0.47780612"
       height="1.9556123"
       color-interpolation-filters="sRGB">
      <feGaussianBlur
         inkscape:collect="always"
         stdDeviation="4.5789754"
         id="feGaussianBlur5132" />
    </filter>
    <filter
       inkscape:collect="always"
       id="filter5252"
       x="-0.24144962"
       width="1.4828993"
       y="-0.13762629"
       height="1.2752526"
       color-interpolation-filters="sRGB">
      <feGaussianBlur
         inkscape:collect="always"
         stdDeviation="2.8672144"
         id="feGaussianBlur5254" />
    </filter>
    <filter
       inkscape:collect="always"
       id="filter5256"
       x="-0.21353126"
       width="1.4270625"
       y="-0.12171282"
       height="1.2434256"
       color-interpolation-filters="sRGB">
      <feGaussianBlur
         inkscape:collect="always"
         stdDeviation="2.5356838"
         id="feGaussianBlur5258" />
    </filter>
    <filter
       inkscape:collect="always"
       id="filter5260"
       x="-0.24144962"
       width="1.4828993"
       y="-0.13762629"
       height="1.2752526"
       color-interpolation-filters="sRGB">
      <feGaussianBlur
         inkscape:collect="always"
         stdDeviation="2.8672144"
         id="feGaussianBlur5262" />
    </filter>
    <radialGradient
       inkscape:collect="always"
       xlink:href="#linearGradient5270"
       id="radialGradient5276"
       cx="327.50458"
       cy="414.80151"
       fx="327.50458"
       fy="414.80151"
       r="21.77844"
       gradientTransform="matrix(1,0,0,1.3290842,0,-136.50461)"
       gradientUnits="userSpaceOnUse" />
    <clipPath
       clipPathUnits="userSpaceOnUse"
       id="clipPath5296">
      <path
         sodipodi:nodetypes="ccccc"
         inkscape:connector-curvature="0"
         id="path5298"
         d="m 387.9142,480.36218 c -33.10652,26.83855 -98.20456,23.4559 -127,0 23.4745,-13.95087 36.91074,-29.67417 47.5,-51 l 39,-3 c 5.81906,25.70492 21.69631,39.47753 40.5,54 z"
         style="fill:url(#linearGradient5300);fill-opacity:1;stroke:none" />
    </clipPath>
    <linearGradient
       inkscape:collect="always"
       xlink:href="#linearGradient5264"
       id="linearGradient5300"
       gradientUnits="userSpaceOnUse"
       gradientTransform="translate(1.4142136,0)"
       x1="327"
       y1="502.36218"
       x2="327"
       y2="456.36218" />
    <filter
       inkscape:collect="always"
       id="filter5330"
       x="-0.071034059"
       width="1.1420681"
       y="-0.14802581"
       height="1.2960516"
       color-interpolation-filters="sRGB">
      <feGaussianBlur
         inkscape:collect="always"
         stdDeviation="4.78"
         id="feGaussianBlur5332" />
    </filter>
    <linearGradient
       inkscape:collect="always"
       xlink:href="#linearGradient5694"
       id="linearGradient5340"
       x1="341"
       y1="475.36218"
       x2="341"
       y2="425.33527"
       gradientUnits="userSpaceOnUse" />
    <linearGradient
       inkscape:collect="always"
       xlink:href="#linearGradient5436"
       id="linearGradient5442"
       x1="246"
       y1="546.86218"
       x2="253"
       y2="518.86218"
       gradientUnits="userSpaceOnUse" />
    <filter
       inkscape:collect="always"
       id="filter5478"
       x="-0.063440099"
       width="1.1268802"
       y="-0.12427574"
       height="1.2485515"
       color-interpolation-filters="sRGB">
      <feGaussianBlur
         inkscape:collect="always"
         stdDeviation="4.5192386"
         id="feGaussianBlur5480" />
    </filter>
    <filter
       inkscape:collect="always"
       id="filter5510"
       x="-0.07157895"
       width="1.143158"
       y="-0.14571428"
       height="1.2914286"
       color-interpolation-filters="sRGB">
      <feGaussianBlur
         inkscape:collect="always"
         stdDeviation="3.4"
         id="feGaussianBlur5512" />
    </filter>
    <linearGradient
       inkscape:collect="always"
       xlink:href="#linearGradient5406"
       id="linearGradient5514"
       x1="318.49332"
       y1="567.04047"
       x2="317.56705"
       y2="482.47546"
       gradientUnits="userSpaceOnUse" />
    <clipPath
       clipPathUnits="userSpaceOnUse"
       id="clipPath5556">
      <path
         style="fill:#dab200;fill-opacity:1;stroke:none"
         d="m 165,494.86218 c -12.57958,1.35035 -22.40255,4.99788 -27,13 44.75488,13.2112 78.0652,41.85665 113.5,71 45.62376,37.52327 103.00157,28.95132 141.5,-13 12.11819,-13.20506 16.9705,-32.64418 14,-50 -7.46569,-43.62001 -42.39105,-50.93496 -82,-50.5 -41.6538,0.45741 -60.31992,7.45083 -89,37 -23.65628,5.81446 -49.4041,4.6477 -71,-7.5 z"
         id="path5558"
         inkscape:connector-curvature="0"
         sodipodi:nodetypes="ccsssscc" />
    </clipPath>
    <linearGradient
       inkscape:collect="always"
       xlink:href="#linearGradient5616"
       id="linearGradient5622"
       x1="325.97623"
       y1="607.59558"
       x2="325.97623"
       y2="554.57257"
       gradientUnits="userSpaceOnUse" />
    <filter
       inkscape:collect="always"
       id="filter5634"
       color-interpolation-filters="sRGB">
      <feGaussianBlur
         inkscape:collect="always"
         stdDeviation="1.434502"
         id="feGaussianBlur5636" />
    </filter>
    <radialGradient
       inkscape:collect="always"
       xlink:href="#linearGradient5668"
       id="radialGradient5674"
       cx="327.50458"
       cy="441.02438"
       fx="327.50458"
       fy="441.02438"
       r="21.77844"
       gradientTransform="matrix(1.5050867,0,0,1.1211213,-165.4182,-53.417469)"
       gradientUnits="userSpaceOnUse" />
    <linearGradient
       inkscape:collect="always"
       xlink:href="#linearGradient4825"
       id="linearGradient5678"
       gradientUnits="userSpaceOnUse"
       x1="320.96448"
       y1="475.28531"
       x2="323"
       y2="497.96985" />
    <clipPath
       clipPathUnits="userSpaceOnUse"
       id="clipPath5688">
      <path
         style="fill:url(#linearGradient5692);fill-opacity:1;stroke:none"
         d="m 387.9142,480.36218 c -33.10652,26.83855 -98.20456,23.4559 -127,0 23.4745,-13.95087 36.91074,-29.67417 47.5,-51 l 39,-3 c 5.81906,25.70492 21.69631,39.47753 40.5,54 z"
         id="path5690"
         inkscape:connector-curvature="0"
         sodipodi:nodetypes="ccccc" />
    </clipPath>
    <linearGradient
       inkscape:collect="always"
       xlink:href="#linearGradient5264"
       id="linearGradient5692"
       gradientUnits="userSpaceOnUse"
       gradientTransform="translate(1.4142136,0)"
       x1="327"
       y1="502.36218"
       x2="327"
       y2="456.36218" />
    <radialGradient
       inkscape:collect="always"
       xlink:href="#linearGradient5706"
       id="radialGradient5712"
       cx="328.77408"
       cy="427.88229"
       fx="328.77408"
       fy="427.88229"
       r="25.416504"
       gradientTransform="matrix(0.80525459,-1.7546121e-7,1.2781805e-7,0.58660297,64.027188,182.49644)"
       gradientUnits="userSpaceOnUse" />
    <filter
       inkscape:collect="always"
       id="filter5834"
       x="-0.12946393"
       width="1.2589278"
       y="-0.1591991"
       height="1.3183982"
       color-interpolation-filters="sRGB">
      <feGaussianBlur
         inkscape:collect="always"
         stdDeviation="2.1394411"
         id="feGaussianBlur5836" />
    </filter>
    <filter
       inkscape:collect="always"
       id="filter5884"
       x="-0.070008211"
       width="1.1400164"
       y="-0.41970477"
       height="1.8394095"
       color-interpolation-filters="sRGB">
      <feGaussianBlur
         inkscape:collect="always"
         stdDeviation="3.3517847"
         id="feGaussianBlur5886" />
    </filter>
    <linearGradient
       inkscape:collect="always"
       xlink:href="#linearGradient5888"
       id="linearGradient5894"
       x1="328.5"
       y1="494.36218"
       x2="328.85355"
       y2="472.43756"
       gradientUnits="userSpaceOnUse"
       gradientTransform="translate(0,-1)" />
    <linearGradient
       inkscape:collect="always"
       xlink:href="#linearGradient5898"
       id="linearGradient5896"
       gradientUnits="userSpaceOnUse"
       x1="324.5"
       y1="433.56601"
       x2="323"
       y2="497.96985" />
    <filter
       inkscape:collect="always"
       id="filter5980"
       x="-0.041411597"
       width="1.0828232"
       y="-0.16246411"
       height="1.3249282"
       color-interpolation-filters="sRGB">
      <feGaussianBlur
         inkscape:collect="always"
         stdDeviation="2.2258734"
         id="feGaussianBlur5982" />
    </filter>
    <clipPath
       clipPathUnits="userSpaceOnUse"
       id="clipPath5986">
      <path
         sodipodi:nodetypes="ccsssscc"
         inkscape:connector-curvature="0"
         id="path5988"
         d="m 165,494.86218 c -12.57958,1.35035 -22.40255,4.99788 -27,13 44.75488,13.2112 78.0652,41.85665 113.5,71 45.62376,37.52327 103.00157,28.95132 141.5,-13 12.11819,-13.20506 16.9705,-32.64418 14,-50 -7.46569,-43.62001 -42.39105,-50.93496 -82,-50.5 -41.6538,0.45741 -60.31992,7.45083 -89,37 -23.65628,5.81446 -49.4041,4.6477 -71,-7.5 z"
         style="fill:#dab200;fill-opacity:1;stroke:none" />
    </clipPath>
    <filter
       inkscape:collect="always"
       id="filter6048"
       x="-0.33970439"
       width="1.6794088"
       y="-0.11159436"
       height="1.2231888"
       color-interpolation-filters="sRGB">
      <feGaussianBlur
         inkscape:collect="always"
         stdDeviation="3.1671638"
         id="feGaussianBlur6050" />
    </filter>
    <linearGradient
       inkscape:collect="always"
       xlink:href="#linearGradient6056"
       id="linearGradient6062"
       x1="302.22607"
       y1="487.25916"
       x2="314.67117"
       y2="525.25916"
       gradientUnits="userSpaceOnUse" />
    <linearGradient
       inkscape:collect="always"
       xlink:href="#linearGradient6064"
       id="linearGradient6070"
       x1="317.57672"
       y1="588.15698"
       x2="316.78384"
       y2="634.4621"
       gradientUnits="userSpaceOnUse" />
    <linearGradient
       inkscape:collect="always"
       xlink:href="#linearGradient6078"
       id="linearGradient6084"
       x1="326.32977"
       y1="635.87628"
       x2="326.32977"
       y2="601.57977"
       gradientUnits="userSpaceOnUse" />
    <filter
       inkscape:collect="always"
       id="filter6122"
       x="-0.10878064"
       width="1.2175612"
       y="-0.13379976"
       height="1.2675995"
       color-interpolation-filters="sRGB">
      <feGaussianBlur
         inkscape:collect="always"
         stdDeviation="2.6968535"
         id="feGaussianBlur6124" />
    </filter>
    <radialGradient
       inkscape:collect="always"
       xlink:href="#linearGradient5668"
       id="radialGradient6128"
       gradientUnits="userSpaceOnUse"
       gradientTransform="matrix(1.5050867,0,0,1.1211213,-165.4182,-53.417469)"
       cx="327.50458"
       cy="441.02438"
       fx="327.50458"
       fy="441.02438"
       r="21.77844" />
    <linearGradient
       inkscape:collect="always"
       xlink:href="#linearGradient6163"
       id="linearGradient6173"
       x1="245.80988"
       y1="147.65761"
       x2="223.84966"
       y2="123.85394"
       gradientUnits="userSpaceOnUse" />
    <filter
       inkscape:collect="always"
       id="filter6191">
      <feGaussianBlur
         inkscape:collect="always"
         stdDeviation="1.0792381"
         id="feGaussianBlur6193" />
    </filter>
    <filter
       inkscape:collect="always"
       id="filter6207">
      <feGaussianBlur
         inkscape:collect="always"
         stdDeviation="0.76002203"
         id="feGaussianBlur6209" />
    </filter>
    <filter
       inkscape:collect="always"
       id="filter8307">
      <feGaussianBlur
         inkscape:collect="always"
         stdDeviation="0.82917867"
         id="feGaussianBlur8309" />
    </filter>
    <linearGradient
       inkscape:collect="always"
       xlink:href="#linearGradient6056"
       id="linearGradient8339"
       gradientUnits="userSpaceOnUse"
       x1="321.96631"
       y1="510.24011"
       x2="316.22415"
       y2="532.68378" />
    <filter
       inkscape:collect="always"
       id="filter8373"
       x="-0.1173578"
       width="1.2347156"
       y="-0.059331018"
       height="1.118662">
      <feGaussianBlur
         inkscape:collect="always"
         stdDeviation="1.6838758"
         id="feGaussianBlur8375" />
    </filter>
  </defs>
  <sodipodi:namedview
     id="base"
     pagecolor="#ffffff"
     bordercolor="#666666"
     borderopacity="1.0"
     inkscape:pageopacity="0.0"
     inkscape:pageshadow="2"
     inkscape:zoom="1"
     inkscape:cx="154.74826"
     inkscape:cy="235.65601"
     inkscape:document-units="px"
     inkscape:current-layer="layer1"
     showgrid="false"
     showborder="false"
     inkscape:window-width="1366"
     inkscape:window-height="711"
     inkscape:window-x="0"
     inkscape:window-y="26"
     inkscape:window-maximized="1"
     fit-margin-top="0"
     fit-margin-left="0"
     fit-margin-right="0"
     fit-margin-bottom="0" />
  <metadata
     id="metadata7">
    <rdf:RDF>
      <cc:Work
         rdf:about="">
        <dc:format>image/svg+xml</dc:format>
        <dc:type
           rdf:resource="http://purl.org/dc/dcmitype/StillImage" />
        <dc:title></dc:title>
      </cc:Work>
    </rdf:RDF>
  </metadata>
  <g
     inkscape:label="Camada 1"
     inkscape:groupmode="layer"
     id="layer1"
     transform="translate(-108.13708,-322.62799)">
    <rect
       style="fill:#d3d7cf;fill-opacity:0;stroke:none"
       id="rect6126"
       width="407.29352"
       height="407.29352"
       x="108.13708"
       y="322.62799" />
    <path
       sodipodi:type="arc"
       style="opacity:0.59615383;fill:url(#radialGradient5109);fill-opacity:1;stroke:none;filter:url(#filter5130)"
       id="path5107"
       sodipodi:cx="318.5"
       sodipodi:cy="634.86218"
       sodipodi:rx="52.5"
       sodipodi:ry="11.5"
       d="m 371,634.86218 c 0,6.35128 -23.50505,11.5 -52.5,11.5 -28.99495,0 -52.5,-5.14872 -52.5,-11.5 0,-6.35127 23.50505,-11.5 52.5,-11.5 28.99495,0 52.5,5.14873 52.5,11.5 z"
       transform="matrix(1.2881984,0,0,1.4587967,-90.291197,-285.27269)" />
    <path
       transform="matrix(2.5252485,0,0,2.2432932,-485.29165,-780.31987)"
       d="m 371,634.86218 c 0,6.35128 -23.50505,11.5 -52.5,11.5 -28.99495,0 -52.5,-5.14872 -52.5,-11.5 0,-6.35127 23.50505,-11.5 52.5,-11.5 28.99495,0 52.5,5.14873 52.5,11.5 z"
       sodipodi:ry="11.5"
       sodipodi:rx="52.5"
       sodipodi:cy="634.86218"
       sodipodi:cx="318.5"
       id="path4985"
       style="opacity:0.21474358;fill:url(#radialGradient4993);fill-opacity:1;stroke:none;filter:url(#filter5103)"
       sodipodi:type="arc" />
    <path
       sodipodi:type="arc"
       style="fill:#c4a000;fill-opacity:1;stroke:none"
       id="path2997"
       sodipodi:cx="318.5"
       sodipodi:cy="634.86218"
       sodipodi:rx="52.5"
       sodipodi:ry="11.5"
       d="m 371,634.86218 c 0,6.35128 -23.50505,11.5 -52.5,11.5 -28.99495,0 -52.5,-5.14872 -52.5,-11.5 0,-6.35127 23.50505,-11.5 52.5,-11.5 28.99495,0 52.5,5.14873 52.5,11.5 z"
       transform="matrix(0.8952381,0,0,1,36.866667,3)" />
    <path
       style="fill:url(#linearGradient6070);fill-opacity:1;stroke:none"
       d="m 365.5,588.36218 c -19.59633,17.35073 -24.60518,20.59944 -17,44 -16.33333,6.79715 -35.16667,4.2873 -51.5,0.5 18.42669,-27.7869 -4.66986,-29.08723 -29,-42.5 z"
       id="path2993"
       inkscape:connector-curvature="0"
       sodipodi:nodetypes="ccccc" />
    <path
       style="fill:#c4a000;fill-opacity:1;stroke:none"
       d="m 386.5,574.36218 c 33.39947,-17.19065 60.54295,-29.55856 80.5,-60 14.62759,-22.31216 2.43942,-47.75993 -11,-55 -23.62903,-12.7294 -61.03983,-17.80974 -60.5,13.5 0.18589,10.78144 8.17438,16.26267 15.78138,15.31273 7.21986,-0.9016 14.74938,-8.13007 11.21862,-13.81273 -3.2105,-5.16722 -2.51016,-9.66626 -0.43406,-14.31868 6.9819,-1.46197 22.83713,4.62883 27.93406,8.31868 12.54593,9.08245 18.87186,24.05608 5,45 -16.11942,24.33732 -42.54368,31.38637 -65.5,45 l -5,9.5 z"
       id="path2995"
       inkscape:connector-curvature="0"
       sodipodi:nodetypes="cssssscssccc" />
    <path
       style="fill:#dab200;fill-opacity:1;stroke:none"
       d="m 165,494.86218 c -12.57958,1.35035 -22.40255,4.99788 -27,13 44.75488,13.2112 78.0652,41.85665 113.5,71 45.62376,37.52327 103.00157,28.95132 141.5,-13 12.11819,-13.20506 16.9705,-32.64418 14,-50 -7.46569,-43.62001 -42.39105,-50.93496 -82,-50.5 -41.6538,0.45741 -60.31992,7.45083 -89,37 -23.65628,5.81446 -49.4041,4.6477 -71,-7.5 z"
       id="path2987"
       inkscape:connector-curvature="0"
       sodipodi:nodetypes="ccsssscc" />
    <path
       style="opacity:0.64102568;fill:url(#linearGradient4024);fill-opacity:1;stroke:none;filter:url(#filter4050)"
       d="m 234.82011,508.18285 -2.47487,19.44544 2.82843,21.92031 15.9099,18.73833 -31.81981,-21.56676 -43.13351,-29.34493 -30.99994,-10.43459 18.97913,-9.01085 21.9203,9.19239 34.64824,5.65686 z"
       id="path4016"
       inkscape:connector-curvature="0"
       sodipodi:nodetypes="ccccccccccc" />
    <path
       style="fill:url(#radialGradient4126);fill-opacity:1;stroke:none;filter:url(#filter3807)"
       d="m 310.1875,476.53125 c -25.12485,1.32622 -49.3633,13.36185 -65.5,32.53125 -19.465,11.66701 -43.64228,7.94394 -64.80214,3.93327 -1.87999,-0.48427 5.75391,3.14771 7.45839,4.47298 33.0035,19.22393 60.45746,47.05 92.96875,66.90625 40.78903,18.47871 95.62902,-0.33703 113.65625,-41.6875 9.54196,-23.73776 -3.1412,-55.3459 -28.75938,-62.07158 -17.6259,-5.65024 -36.70141,-3.80092 -55.02187,-4.08467 z"
       id="path3769"
       inkscape:connector-curvature="0"
       clip-path="url(#clipPath3813)" />
    <path
       style="fill:url(#linearGradient4060);fill-opacity:1;stroke:none;filter:url(#filter3968)"
       d="m 237.74264,507.95317 c -34.82957,4.88322 -45.46762,0.84026 -76.57107,-11.88388 l -6.5,10 c 33.63646,17.48278 43.0982,17.62264 79.76777,16.32842 z"
       id="path3910"
       inkscape:connector-curvature="0"
       sodipodi:nodetypes="ccccc" />
    <path
       style="fill:#ffffff;fill-opacity:1;stroke:none;filter:url(#filter6191)"
       d="m 266.13708,481.92151 c -12.93975,4.00705 -21.07553,15.22004 -30.5,24.5 -30.66576,4.42685 -42.32213,3.30703 -74,-9.5 l -4,2 c 34.86998,14.41142 49.47032,16.00601 79.5,12 8.79927,-13.05677 19.13235,-24.22386 33.5,-28 z"
       id="path6175"
       inkscape:connector-curvature="0"
       sodipodi:nodetypes="ccccccc" />
    <path
       style="fill:url(#linearGradient4216);fill-opacity:1;stroke:none;filter:url(#filter4246)"
       d="m 372,479.36218 c -38.6096,17.38212 -60.38309,17.63037 -97,0 -57.77734,38.69159 -46.00445,78.43519 2.5,108 34.09411,8.86023 44.12063,6.25604 77,-0.5 52.06651,-21.61026 52.37542,-89.71434 17.5,-107.5 z"
       id="path4208"
       inkscape:connector-curvature="0"
       sodipodi:nodetypes="ccccc" />
    <path
       style="opacity:0.30448716;fill:url(#linearGradient5514);fill-opacity:1;stroke:none;filter:url(#filter5478)"
       d="m 402.33335,540.0486 c -52.16226,27.30554 -116.27158,25.73974 -170.30613,1.37868 -2.74606,-37.95972 15.43753,-44.79476 43.26955,-67.17514 l 100.76272,-1.41422 c 24.43852,24.34131 28.05189,34.90984 26.27386,67.21068 z"
       id="path5404"
       inkscape:connector-curvature="0"
       sodipodi:nodetypes="ccccc" />
    <path
       style="fill:#fdf295;fill-opacity:1;stroke:none;filter:url(#filter6048)"
       d="m 384.72675,484.20188 c 22.1629,25.18021 17.99219,47.93764 12.37437,65.76093 l -4.96016,6.35356 c 9.83493,-24.34097 5.69599,-52.97681 -12.31371,-69.70027 z"
       id="path5990"
       inkscape:connector-curvature="0"
       sodipodi:nodetypes="ccccc" />
    <path
       sodipodi:type="arc"
       style="fill:url(#linearGradient6173);fill-opacity:1;stroke:none;filter:url(#filter8307)"
       id="path6161"
       sodipodi:cx="212.13203"
       sodipodi:cy="124.80436"
       sodipodi:rx="40.049034"
       sodipodi:ry="18.866846"
       d="m 252.18107,124.80436 a 40.049034,18.866846 0 1 1 -80.09807,0 40.049034,18.866846 0 1 1 80.09807,0 z"
       transform="matrix(-1.2479501,-0.76564646,1.7588863,-2.0984722,343.40116,955.64819)" />
    <path
       style="fill:#a76803;fill-opacity:1;stroke:none;filter:url(#filter5980)"
       d="m 388.91421,481.36218 c -33.10652,26.83855 -100.20456,23.4559 -129,0 16.84537,-10.85728 47.5,-11 47.5,-11 l 39,-3 c 0,0 25.55247,-2.5554 42.5,14 z"
       id="path4717"
       inkscape:connector-curvature="0"
       sodipodi:nodetypes="ccccc"
       clip-path="url(#clipPath5986)" />
    <path
       sodipodi:nodetypes="ccccc"
       inkscape:connector-curvature="0"
       id="path6052"
       d="m 302.72675,484.20188 c 31.23278,22.42285 22.67934,43.93764 17.06152,61.76093 l -4.96016,6.35356 c 9.83493,-24.34097 8.64675,-49.3659 -17.00086,-65.70027 z"
       style="fill:url(#linearGradient8339);fill-opacity:1;stroke:none;opacity:0.78243593;filter:url(#filter8373)"
       transform="matrix(-1,0,-0.1717881,1,648.77155,1.5)" />
    <path
       style="fill:url(#linearGradient4709);fill-opacity:1;stroke:none"
       d="m 387.9142,480.36218 c -33.10652,26.83855 -98.20456,23.4559 -127,0 23.4745,-13.95087 36.91074,-29.67417 47.5,-51 l 39,-3 c 5.81906,25.70492 21.69631,39.47753 40.5,54 z"
       id="path2989"
       inkscape:connector-curvature="0"
       sodipodi:nodetypes="ccccc" />
    <path
       style="fill:url(#linearGradient5340);fill-opacity:1;stroke:none;filter:url(#filter5330)"
       d="m 311.5,427.36218 -12,23 -13.5,16.5 -27.5,18.5 -13,-8.5 56,-68 60,2 45.5,63 -15,12.5 -17.5,-12.5 -16,-14.5 -12,-22.5 -4,-18 -33,1 z"
       id="path5288"
       inkscape:connector-curvature="0"
       clip-path="url(#clipPath5296)" />
    <path
       style="fill:url(#linearGradient3980);fill-opacity:1;stroke:none;filter:url(#filter4010)"
       d="m 246.96224,567.7618 c -22.59242,-18.68405 -67.93576,-50.77895 -93.33809,-60.10407 l 1.76777,-4.5962 c 27.6776,10.65916 73.06544,42.28544 95.10586,60.45763 z"
       id="path3972"
       inkscape:connector-curvature="0"
       sodipodi:nodetypes="ccccc" />
    <path
       style="opacity:0.33012821;fill:url(#linearGradient5442);fill-opacity:1;stroke:none;filter:url(#filter5510)"
       d="M 235.99574,538.63078 C 214.0728,531.46232 182.85633,517.45641 156.5,504.36218 l 6,-7.5 c 35.41488,23.93212 55.44041,13.93397 75.5,9.5 z"
       id="path5434"
       inkscape:connector-curvature="0"
       sodipodi:nodetypes="ccccc" />
    <path
       transform="matrix(-0.85517069,0,0,0.91457019,585.50628,47.497159)"
       sodipodi:nodetypes="ccccc"
       inkscape:connector-curvature="0"
       id="path5178"
       d="m 387.5,537.86218 c -4.08356,11 -8.56252,22 -18.00807,33 -1.28872,-11 -5.32103,-22 -10.49193,-33 l 14.5,-17 z"
       style="opacity:0.23999999;fill:#000000;fill-opacity:1;stroke:none;filter:url(#filter5260)" />
    <path
       style="opacity:0.46153846;fill:#836b00;fill-opacity:1;stroke:none;filter:url(#filter4204)"
       d="m 147,506.86218 c 29.09276,9.47756 49.9303,25.3355 75,42.25 57.12042,55.26457 119.73534,65.10261 175.25,4.25 8.29651,-22.8257 8.41496,-37.4625 2.75,-60.5 l 12.75,1.5 19.75,64.5 -30.25,32.75 -64.75,20.25 -53.25,5.75 -97.25,-71 -55.25,-32 2.5,-6.5 z"
       id="path4172"
       inkscape:connector-curvature="0"
       clip-path="url(#clipPath4176)"
       sodipodi:nodetypes="ccccccccccccc" />
    <path
       style="fill:url(#linearGradient4256);fill-opacity:1;stroke:none"
       d="m 165.46299,494.80849 c -10.13741,12.48968 -11.75451,10.09607 -27.57717,13.08147 10.00964,-10.68147 13.60062,-9.94388 27.57717,-13.08147 z"
       id="path3767"
       inkscape:connector-curvature="0"
       sodipodi:nodetypes="ccc" />
    <path
       style="fill:url(#linearGradient5896);fill-opacity:1;stroke:none;filter:url(#filter4393)"
       d="m 306.23382,423.17241 c -0.88691,28.04507 -25.80914,49.29968 -42.79632,65.35884 29.05828,23.15263 93.01651,15.1883 119.5,0.6875 -20.98902,-15.61787 -36.48305,-39.46145 -36.1875,-65.6875 z"
       id="path4277"
       inkscape:connector-curvature="0"
       clip-path="url(#clipPath4419)"
       transform="translate(1.4142136,0)"
       sodipodi:nodetypes="ccccc" />
    <path
       sodipodi:nodetypes="sssss"
       inkscape:connector-curvature="0"
       id="path5664"
       d="m 358.19622,451.34551 c -9.23437,18.54347 -50.19627,18.42721 -59.5984,1.7894 -3.97046,-7.02606 -5.2437,-13.74978 -2.12851,-19.98159 10.23353,-20.47168 47.65835,-22.04195 59.06626,-4.17526 4.54253,7.11435 6.59794,14.46102 2.66065,22.36745 z"
       style="opacity:0.26602562;fill:url(#radialGradient6128);fill-opacity:1;stroke:none"
       clip-path="url(#clipPath5688)"
       transform="translate(-2,5)" />
    <path
       style="fill:#ffffff;fill-opacity:1;stroke:none;filter:url(#filter6207)"
       d="m 309.49094,431.22955 c -3.97631,9.18949 -10.44637,19.53472 -18.41765,28.41161 -8.49373,9.45867 -17.64405,16.32201 -26.68769,21.75928 l 2.51162,1.57475 c 6.80163,-3.38878 17.08957,-11.15885 26.60653,-21.95277 8.68162,-9.84649 15.8005,-21.5255 18.47248,-29.37865 z"
       id="path6149"
       inkscape:connector-curvature="0"
       sodipodi:nodetypes="csccscc" />
    <path
       sodipodi:nodetypes="ccc"
       inkscape:connector-curvature="0"
       id="path4831"
       d="m 347.89652,432.03715 c 0.22852,22.33675 -41.48281,20.78473 -39.59798,2.12132 9.41632,-24.25729 26.68988,-22.86709 39.59798,-2.12132 z"
       style="opacity:0.79487179;fill:url(#radialGradient5712);fill-opacity:1;stroke:none;filter:url(#filter5834)"
       clip-path="url(#clipPath4979)" />
    <path
       style="fill:url(#radialGradient5276);fill-opacity:1;stroke:none"
       d="m 347.89652,427.03715 c -6.13544,21.9832 -33.35108,21.84539 -39.59798,2.12132 -2.63803,-8.32935 -3.48399,-16.30029 -1.41421,-23.68808 6.79929,-24.26907 31.66485,-26.13062 39.24442,-4.94975 3.01812,8.43403 4.38376,17.14347 1.76777,26.51651 z"
       id="path2991"
       inkscape:connector-curvature="0"
       sodipodi:nodetypes="sssss" />
    <path
       sodipodi:nodetypes="ccccc"
       inkscape:connector-curvature="0"
       id="path5150"
       d="m 335.5,547.86218 -14.5,33 -14,-33 14.5,-17 z"
       style="opacity:0.23999999;fill:#000000;fill-opacity:1;stroke:none;filter:url(#filter5256)" />
    <path
       style="fill:#cc0000;stroke:none"
       d="m 335.5,547.86218 -14.5,25 -14,-25 14.5,-25 z"
       id="path5138"
       inkscape:connector-curvature="0"
       sodipodi:nodetypes="ccccc" />
    <path
       style="opacity:0.23999999;fill:#000000;fill-opacity:1;stroke:none;filter:url(#filter5252)"
       d="m 387.5,537.86218 c -4.08356,11 -8.56252,22 -18.00807,33 -1.28872,-11 -5.32103,-22 -10.49193,-33 l 14.5,-17 z"
       id="path5176"
       inkscape:connector-curvature="0"
       sodipodi:nodetypes="ccccc"
       transform="matrix(0.85517069,0,0,0.91457019,55.121357,46.497159)" />
    <path
       sodipodi:nodetypes="ccccc"
       inkscape:connector-curvature="0"
       id="path5140"
       d="M 387.5,538.86218 373.32688,561.03199 364,538.86218 375.51275,516.69237 z"
       style="fill:#cc0000;stroke:none" />
    <path
       style="fill:#cc0000;stroke:none"
       d="M 253,538.86218 267.17312,561.03199 276.5,538.86218 264.98725,516.69237 z"
       id="path5142"
       inkscape:connector-curvature="0"
       sodipodi:nodetypes="ccccc" />
    <path
       sodipodi:nodetypes="cccc"
       inkscape:connector-curvature="0"
       id="path5144"
       d="m 321,548.86218 -14,-1 14.5,-25 z"
       style="fill:#ef2929;stroke:none" />
    <path
       sodipodi:nodetypes="cccc"
       inkscape:connector-curvature="0"
       id="path5146"
       d="m 253,538.86218 8.5,0 3.48725,-22.16981 z"
       style="fill:#ef2929;stroke:none" />
    <path
       style="fill:#ef2929;stroke:none"
       d="m 379.5,538.86218 -15.5,0 11.51275,-22.16981 z"
       id="path5148"
       inkscape:connector-curvature="0"
       sodipodi:nodetypes="cccc" />
    <path
       style="opacity:0.65705124;fill:url(#linearGradient5622);fill-opacity:1;stroke:none;filter:url(#filter5634)"
       d="m 407,540.36218 c -70.47214,54.09085 -131.28985,36.45691 -204.5,0.5 l 2,26.5 c 66.59013,45.67841 163.74162,80.51524 210.5,-4.5 z"
       id="path5516"
       inkscape:connector-curvature="0"
       sodipodi:nodetypes="ccccc"
       clip-path="url(#clipPath5556)" />
    <path
       sodipodi:type="arc"
       style="opacity:0.98999999;fill:#ffffff;fill-opacity:1;stroke:none"
       id="path5704"
       sodipodi:cx="328.25"
       sodipodi:cy="397.61218"
       sodipodi:rx="5.75"
       sodipodi:ry="5.75"
       d="m 334,397.61218 c 0,3.17564 -2.57436,5.75 -5.75,5.75 -3.17564,0 -5.75,-2.57436 -5.75,-5.75 0,-3.17563 2.57436,-5.75 5.75,-5.75 3.17564,0 5.75,2.57437 5.75,5.75 z"
       transform="matrix(1.4020822,0.6154122,-0.83917514,0.99348329,200.29225,-201.15538)" />
    <path
       style="opacity:0.5;fill:url(#linearGradient5894);fill-opacity:1;stroke:none;filter:url(#filter5884)"
       d="m 381.13056,479.89858 c -40.06468,21.9097 -74.86272,18.76975 -114.90486,0 L 283.529,466.0095 c 28.43072,16.10097 61.0909,16.9321 84.12668,1.41421 z"
       id="path5838"
       inkscape:connector-curvature="0"
       sodipodi:nodetypes="ccccc" />
    <path
       sodipodi:nodetypes="ccccc"
       inkscape:connector-curvature="0"
       id="path6074"
       d="m 352.5,588.36218 c -16.38066,13.42796 -17.17876,28.53698 -10,46 -6.08028,2.90806 -29.23774,3.22664 -38.5,0.5 14.43182,-29.78433 -5.11971,-36.31216 -19,-44.5 z"
       style="fill:url(#linearGradient6084);fill-opacity:1;stroke:none;filter:url(#filter6122)" />
  </g>
</svg>
