<?xml version="1.0" encoding="UTF-8" standalone="no"?>
<!-- Created with Inkscape (http://www.inkscape.org/) -->

<svg
   xmlns:dc="http://purl.org/dc/elements/1.1/"
   xmlns:cc="http://creativecommons.org/ns#"
   xmlns:rdf="http://www.w3.org/1999/02/22-rdf-syntax-ns#"
   xmlns:svg="http://www.w3.org/2000/svg"
   xmlns="http://www.w3.org/2000/svg"
   xmlns:xlink="http://www.w3.org/1999/xlink"
   xmlns:sodipodi="http://sodipodi.sourceforge.net/DTD/sodipodi-0.dtd"
   xmlns:inkscape="http://www.inkscape.org/namespaces/inkscape"
   inkscape:export-ydpi="90.000000"
   inkscape:export-xdpi="90.000000"
   width="800"
   height="640"
   id="svg11300"
   sodipodi:version="0.32"
   inkscape:version="0.48.4 r9939"
   sodipodi:docname="ghex.svg"
   inkscape:output_extension="org.inkscape.output.svg.inkscape"
   version="1.0"
   style="display:inline;enable-background:new">
  <title
     id="title3004">Template</title>
  <sodipodi:namedview
     stroke="#ef2929"
     fill="#f57900"
     id="base"
     pagecolor="#474747"
     bordercolor="#666666"
     borderopacity="0.25490196"
     inkscape:pageopacity="0"
     inkscape:pageshadow="2"
     inkscape:zoom="1"
     inkscape:cx="265.53013"
     inkscape:cy="344.41447"
     inkscape:current-layer="layer2"
     showgrid="false"
     inkscape:grid-bbox="true"
     inkscape:document-units="px"
     inkscape:showpageshadow="false"
     inkscape:window-width="1366"
     inkscape:window-height="702"
     inkscape:window-x="0"
     inkscape:window-y="27"
     width="400px"
     height="300px"
     inkscape:snap-nodes="true"
     inkscape:snap-bbox="true"
     gridtolerance="10000"
     inkscape:object-nodes="true"
     inkscape:snap-grids="true"
     showguides="false"
     inkscape:guide-bbox="true"
     inkscape:window-maximized="1"
     inkscape:bbox-paths="true"
     inkscape:bbox-nodes="true"
     inkscape:snap-bbox-midpoints="false"
     inkscape:snap-bbox-edge-midpoints="true">
    <inkscape:grid
       spacingy="1px"
       spacingx="1px"
       id="grid5883"
       type="xygrid"
       enabled="true"
       visible="true"
       empspacing="4"
       snapvisiblegridlinesonly="true" />
    <inkscape:grid
       type="xygrid"
       id="grid11592"
       empspacing="2"
       visible="true"
       enabled="false"
       spacingx="0.5px"
       spacingy="0.5px"
       color="#ff0000"
       opacity="0.1254902"
       empcolor="#ff0000"
       empopacity="0.25098039"
       snapvisiblegridlinesonly="true" />
    <sodipodi:guide
       orientation="-0.70710678,0.70710678"
       position="309.8125,173.625"
       id="guide9630" />
  </sodipodi:namedview>
  <defs
     id="defs3">
    <linearGradient
       id="linearGradient4143">
      <stop
         id="stop4145"
         offset="0"
         style="stop-color:#ffffff;stop-opacity:1;" />
      <stop
         id="stop4147"
         offset="1"
         style="stop-color:#ffffff;stop-opacity:0;" />
    </linearGradient>
    <linearGradient
       id="linearGradient4047">
      <stop
         style="stop-color:#000000;stop-opacity:1;"
         offset="0"
         id="stop4049" />
      <stop
         style="stop-color:#0b5b00;stop-opacity:1;"
         offset="1"
         id="stop4051" />
    </linearGradient>
    <linearGradient
       id="linearGradient4026">
      <stop
         id="stop4028"
         offset="0"
         style="stop-color:#000000;stop-opacity:1;" />
      <stop
         id="stop4030"
         offset="1"
         style="stop-color:#ffffff;stop-opacity:1;" />
    </linearGradient>
    <linearGradient
       inkscape:collect="always"
       id="linearGradient3980">
      <stop
         style="stop-color:#ffffff;stop-opacity:1;"
         offset="0"
         id="stop3982" />
      <stop
         style="stop-color:#ffffff;stop-opacity:0;"
         offset="1"
         id="stop3984" />
    </linearGradient>
    <linearGradient
       id="linearGradient3914">
      <stop
         style="stop-color:#73d216;stop-opacity:1;"
         offset="0"
         id="stop3916" />
      <stop
         style="stop-color:#72c223;stop-opacity:1;"
         offset="1"
         id="stop3918" />
    </linearGradient>
    <linearGradient
       inkscape:collect="always"
       xlink:href="#linearGradient3914"
       id="linearGradient3920"
       x1="1.5947827"
       y1="-5.4605999"
       x2="1.5947827"
       y2="6.0020642"
       gradientUnits="userSpaceOnUse" />
    <linearGradient
       inkscape:collect="always"
       xlink:href="#linearGradient3914"
       id="linearGradient3928"
       x1="1.5691676"
       y1="-5.277566"
       x2="1.5691676"
       y2="6.1850982"
       gradientUnits="userSpaceOnUse" />
    <linearGradient
       inkscape:collect="always"
       xlink:href="#linearGradient3914"
       id="linearGradient3930"
       x1="2.6948299"
       y1="-5.4862156"
       x2="2.6948299"
       y2="5.9764485"
       gradientUnits="userSpaceOnUse" />
    <clipPath
       clipPathUnits="userSpaceOnUse"
       id="clipPath3936">
      <path
         d="M 4.6323888,4.5692309 -1.3504708,6.1723333 -5.730228,1.7925761 -4.1271256,-4.1902835 1.855734,-5.7933859 6.2354912,-1.4136287 z"
         inkscape:randomized="0"
         inkscape:rounded="0"
         inkscape:flatsided="true"
         sodipodi:arg2="1.3089969"
         sodipodi:arg1="0.78539816"
         sodipodi:r2="5.3640847"
         sodipodi:r1="6.193912"
         sodipodi:cy="0.18947367"
         sodipodi:cx="0.25263157"
         sodipodi:sides="6"
         id="path3938"
         style="color:#000000;fill:url(#linearGradient3940);fill-opacity:1;fill-rule:evenodd;stroke:none;stroke-width:0.58876401;marker:none;visibility:visible;display:inline;overflow:visible"
         sodipodi:type="star" />
    </clipPath>
    <linearGradient
       inkscape:collect="always"
       xlink:href="#linearGradient3914"
       id="linearGradient3940"
       gradientUnits="userSpaceOnUse"
       x1="1.5947827"
       y1="-5.4605999"
       x2="1.5947827"
       y2="6.0020642" />
    <filter
       inkscape:collect="always"
       id="filter3950">
      <feGaussianBlur
         inkscape:collect="always"
         stdDeviation="0.11965719"
         id="feGaussianBlur3952" />
    </filter>
    <linearGradient
       inkscape:collect="always"
       xlink:href="#linearGradient3914"
       id="linearGradient3975"
       gradientUnits="userSpaceOnUse"
       x1="1.5947827"
       y1="-5.4605999"
       x2="1.5947827"
       y2="6.0020642"
       gradientTransform="matrix(17.447951,0,0,17.447951,196.17431,239.27628)" />
    <linearGradient
       inkscape:collect="always"
       xlink:href="#linearGradient3980"
       id="linearGradient3986"
       x1="216"
       y1="128"
       x2="240"
       y2="272"
       gradientUnits="userSpaceOnUse" />
    <filter
       inkscape:collect="always"
       id="filter3992">
      <feGaussianBlur
         inkscape:collect="always"
         stdDeviation="0.11965719"
         id="feGaussianBlur3994" />
    </filter>
    <linearGradient
       inkscape:collect="always"
       xlink:href="#linearGradient3980"
       id="linearGradient4032"
       gradientUnits="userSpaceOnUse"
       x1="216"
       y1="128"
       x2="236"
       y2="304" />
    <linearGradient
       inkscape:collect="always"
       xlink:href="#linearGradient3980"
       id="linearGradient4038"
       gradientUnits="userSpaceOnUse"
       x1="216"
       y1="128"
       x2="236"
       y2="304" />
    <linearGradient
       inkscape:collect="always"
       xlink:href="#linearGradient4047"
       id="linearGradient4053"
       x1="1.1362761"
       y1="5.0850511"
       x2="0.219263"
       y2="-5.4605999"
       gradientUnits="userSpaceOnUse" />
    <linearGradient
       inkscape:collect="always"
       xlink:href="#linearGradient3980"
       id="linearGradient4055"
       gradientUnits="userSpaceOnUse"
       x1="176"
       y1="136"
       x2="236"
       y2="304" />
    <linearGradient
       inkscape:collect="always"
       xlink:href="#linearGradient2785"
       id="linearGradient1999"
       gradientUnits="userSpaceOnUse"
       gradientTransform="matrix(1.850637,0,0,1.302756,3.256183,11.54837)"
       x1="5.0209332"
       y1="10.216984"
       x2="14.171684"
       y2="15.255866" />
    <linearGradient
       inkscape:collect="always"
       id="linearGradient2785">
      <stop
         style="stop-color:white;stop-opacity:1;"
         offset="0"
         id="stop2787" />
      <stop
         style="stop-color:white;stop-opacity:0;"
         offset="1"
         id="stop2789" />
    </linearGradient>
    <linearGradient
       y2="23.100584"
       x2="10.48818"
       y1="7.1195326"
       x1="7.4882174"
       gradientTransform="matrix(21.333596,0,0,15.017785,8.2493933,-342.91961)"
       gradientUnits="userSpaceOnUse"
       id="linearGradient3065"
       xlink:href="#linearGradient2785"
       inkscape:collect="always" />
    <linearGradient
       inkscape:collect="always"
       xlink:href="#linearGradient3914"
       id="linearGradient4129"
       gradientUnits="userSpaceOnUse"
       x1="2.6948299"
       y1="-5.4862156"
       x2="2.6948299"
       y2="5.9764485" />
    <clipPath
       clipPathUnits="userSpaceOnUse"
       id="clipPath4131">
      <path
         sodipodi:type="star"
         style="color:#000000;fill:url(#linearGradient4135);fill-opacity:1;fill-rule:evenodd;stroke:none;stroke-width:0.58876401;marker:none;visibility:visible;display:inline;overflow:visible;enable-background:new"
         id="path4133"
         sodipodi:sides="6"
         sodipodi:cx="0.25263157"
         sodipodi:cy="0.18947367"
         sodipodi:r1="6.193912"
         sodipodi:r2="5.3640847"
         sodipodi:arg1="0.78539816"
         sodipodi:arg2="1.3089969"
         inkscape:flatsided="true"
         inkscape:rounded="0"
         inkscape:randomized="0"
         d="M 4.6323888,4.5692309 -1.3504708,6.1723333 -5.730228,1.7925761 -4.1271256,-4.1902835 1.855734,-5.7933859 6.2354912,-1.4136287 z"
         transform="matrix(17.447951,0,0,17.447951,196.17431,-100.72372)" />
    </clipPath>
    <linearGradient
       inkscape:collect="always"
       xlink:href="#linearGradient3914"
       id="linearGradient4135"
       gradientUnits="userSpaceOnUse"
       x1="2.6948299"
       y1="-5.4862156"
       x2="2.6948299"
       y2="5.9764485" />
    <radialGradient
       inkscape:collect="always"
       xlink:href="#linearGradient4026"
       id="radialGradient4137"
       cx="184"
       cy="216.07529"
       fx="184"
       fy="216.07529"
       r="94.328125"
       gradientTransform="matrix(1,0,0,1.002816,0,-0.68375228)"
       gradientUnits="userSpaceOnUse" />
    <linearGradient
       inkscape:collect="always"
       xlink:href="#linearGradient4143"
       id="linearGradient4141"
       gradientUnits="userSpaceOnUse"
       x1="200"
       y1="312"
       x2="192"
       y2="184" />
    <linearGradient
       inkscape:collect="always"
       xlink:href="#linearGradient3914"
       id="linearGradient4161"
       gradientUnits="userSpaceOnUse"
       x1="1.5947827"
       y1="-5.4605999"
       x2="1.5947827"
       y2="6.0020642" />
    <radialGradient
       inkscape:collect="always"
       xlink:href="#linearGradient4026"
       id="radialGradient4163"
       gradientUnits="userSpaceOnUse"
       gradientTransform="matrix(1,0,0,1.002816,180.80643,-292.23681)"
       cx="184"
       cy="216.07529"
       fx="184"
       fy="216.07529"
       r="94.328125" />
    <linearGradient
       inkscape:collect="always"
       xlink:href="#linearGradient2785"
       id="linearGradient4165"
       gradientUnits="userSpaceOnUse"
       gradientTransform="matrix(21.333596,0,0,15.017785,8.2493933,-342.91961)"
       x1="7.4882174"
       y1="7.1195326"
       x2="10.48818"
       y2="23.100584" />
    <linearGradient
       inkscape:collect="always"
       xlink:href="#linearGradient4047"
       id="linearGradient4167"
       gradientUnits="userSpaceOnUse"
       x1="1.1362761"
       y1="5.0850511"
       x2="0.219263"
       y2="-5.4605999" />
    <linearGradient
       inkscape:collect="always"
       xlink:href="#linearGradient3980"
       id="linearGradient4169"
       gradientUnits="userSpaceOnUse"
       x1="176"
       y1="136"
       x2="236"
       y2="304"
       gradientTransform="translate(180.80643,-291.55306)" />
    <linearGradient
       inkscape:collect="always"
       xlink:href="#linearGradient4143"
       id="linearGradient4171"
       gradientUnits="userSpaceOnUse"
       x1="200"
       y1="312"
       x2="192"
       y2="184"
       gradientTransform="translate(180.80643,-291.55306)" />
    <linearGradient
       inkscape:collect="always"
       xlink:href="#linearGradient3914"
       id="linearGradient4185"
       gradientUnits="userSpaceOnUse"
       x1="1.5947827"
       y1="-5.4605999"
       x2="1.5947827"
       y2="6.0020642" />
    <radialGradient
       inkscape:collect="always"
       xlink:href="#linearGradient4026"
       id="radialGradient4187"
       gradientUnits="userSpaceOnUse"
       gradientTransform="matrix(1,0,0,1.002816,48.446935,-159.87732)"
       cx="184"
       cy="216.07529"
       fx="184"
       fy="216.07529"
       r="94.328125" />
    <linearGradient
       inkscape:collect="always"
       xlink:href="#linearGradient2785"
       id="linearGradient4189"
       gradientUnits="userSpaceOnUse"
       gradientTransform="matrix(21.333596,0,0,15.017785,8.2493933,-342.91961)"
       x1="7.4882174"
       y1="7.1195326"
       x2="10.48818"
       y2="23.100584" />
    <linearGradient
       inkscape:collect="always"
       xlink:href="#linearGradient4047"
       id="linearGradient4191"
       gradientUnits="userSpaceOnUse"
       x1="1.1362761"
       y1="5.0850511"
       x2="0.219263"
       y2="-5.4605999" />
    <linearGradient
       inkscape:collect="always"
       xlink:href="#linearGradient3980"
       id="linearGradient4193"
       gradientUnits="userSpaceOnUse"
       gradientTransform="translate(48.446935,-159.19357)"
       x1="176"
       y1="136"
       x2="236"
       y2="304" />
    <linearGradient
       inkscape:collect="always"
       xlink:href="#linearGradient4143"
       id="linearGradient4195"
       gradientUnits="userSpaceOnUse"
       gradientTransform="translate(48.446935,-159.19357)"
       x1="200"
       y1="312"
       x2="192"
       y2="184" />
  </defs>
  <metadata
     id="metadata4">
    <rdf:RDF>
      <cc:Work
         rdf:about="">
        <dc:format>image/svg+xml</dc:format>
        <dc:type
           rdf:resource="http://purl.org/dc/dcmitype/StillImage" />
        <dc:creator>
          <cc:Agent>
            <dc:title />
          </cc:Agent>
        </dc:creator>
        <dc:source />
        <cc:license
           rdf:resource="" />
        <dc:title>Template</dc:title>
        <dc:subject>
          <rdf:Bag />
        </dc:subject>
        <dc:date />
        <dc:rights>
          <cc:Agent>
            <dc:title />
          </cc:Agent>
        </dc:rights>
        <dc:publisher>
          <cc:Agent>
            <dc:title />
          </cc:Agent>
        </dc:publisher>
        <dc:identifier />
        <dc:relation />
        <dc:language />
        <dc:coverage />
        <dc:description />
        <dc:contributor>
          <cc:Agent>
            <dc:title />
          </cc:Agent>
        </dc:contributor>
      </cc:Work>
      <cc:Work
         rdf:about="">
        <dc:format>image/svg+xml</dc:format>
        <dc:type
           rdf:resource="http://purl.org/dc/dcmitype/StillImage" />
      </cc:Work>
    </rdf:RDF>
  </metadata>
  <g
     style="display:inline"
     inkscape:groupmode="layer"
     inkscape:label="Icon"
     id="layer1"
     transform="translate(0,340)">
    <g
       inkscape:groupmode="layer"
       id="layer2"
       inkscape:label="baseplate"
       style="display:inline">
      <rect
         inkscape:label="256x256"
         y="-244"
         x="32"
         height="512"
         width="512"
         id="rect6282"
         style="fill:#eeeeec;fill-opacity:1;fill-rule:nonzero;stroke:none;stroke-width:2;marker:none;visibility:visible;display:inline;overflow:visible;enable-background:accumulate"
         inkscape:export-xdpi="90"
         inkscape:export-ydpi="90" />
      <path
         style="opacity:0.4510002;fill:#3465a4;fill-opacity:1;fill-rule:nonzero;stroke:none;stroke-width:2;marker:none;visibility:visible;display:inline;overflow:visible;enable-background:accumulate"
         d="M 32,-244.00001 32,268 l 36,0 440,0 36,0 0,-36 0,-476.00001 -36,0 0,476.00001 -440,0 0,-476.00001 -36,0 z"
         id="rect10603"
         inkscape:connector-curvature="0" />
      <rect
         style="fill:#eeeeec;fill-opacity:1;fill-rule:nonzero;stroke:none;stroke-width:2;marker:none;visibility:visible;display:inline;overflow:visible;enable-background:accumulate"
         id="rect6284"
         width="48"
         height="48"
         x="632"
         y="-180"
         inkscape:label="48x48" />
      <rect
         inkscape:label="32x32"
         y="-116"
         x="632"
         height="32"
         width="32"
         id="rect6592"
         style="fill:#eeeeec;fill-opacity:1;fill-rule:nonzero;stroke:none;stroke-width:2;marker:none;visibility:visible;display:inline;overflow:visible;enable-background:accumulate" />
      <rect
         inkscape:label="24x24"
         y="-68"
         x="632"
         height="24"
         width="24"
         id="rect5028"
         style="fill:#ffffff;fill-opacity:1;fill-rule:nonzero;stroke:none;stroke-width:2;marker:none;visibility:visible;display:inline;overflow:visible;enable-background:accumulate" />
      <rect
         inkscape:label="16x16"
         y="-28"
         x="632"
         height="16"
         width="16"
         id="rect6833"
         style="fill:#eeeeec;fill-opacity:1;fill-rule:nonzero;stroke:none;stroke-width:2;marker:none;visibility:visible;display:inline;overflow:visible;enable-background:accumulate" />
      <rect
         style="fill:#eeeeec;fill-opacity:1;fill-rule:nonzero;stroke:none;stroke-width:2;marker:none;visibility:visible;display:inline;overflow:visible;enable-background:accumulate"
         id="rect6749"
         width="22"
         height="22"
         x="633"
         y="-67"
         inkscape:label="22x22" />
      <text
         id="context"
         inkscape:label="context"
         style="font-size:33.50511169px;font-style:normal;font-variant:normal;font-weight:normal;font-stretch:normal;fill:#000000;fill-opacity:1;stroke:none;display:inline;enable-background:new;font-family:DejaVu Sans;-inkscape-font-specification:DejaVu Sans"
         x="56.302658"
         xml:space="preserve"
         y="-284.47443"><tspan
           id="tspan2716"
           sodipodi:role="line"
           x="56.302658"
           y="-284.47443"
           style="font-style:normal;font-variant:normal;font-weight:normal;font-stretch:normal;font-family:DejaVu Sans;-inkscape-font-specification:DejaVu Sans">apps</tspan></text>
      <text
         id="icon-name"
         inkscape:label="icon-name"
         sodipodi:linespacing="125%"
         style="font-size:33.50511169px;font-style:normal;font-variant:normal;font-weight:bold;font-stretch:normal;text-align:start;line-height:125%;writing-mode:lr-tb;text-anchor:start;fill:#000000;fill-opacity:1;stroke:none;display:inline;enable-background:new;font-family:DejaVu Sans;-inkscape-font-specification:DejaVu Sans Bold"
         x="565.1861"
         xml:space="preserve"
         y="-284.47443"><tspan
           id="tspan3023"
           sodipodi:role="line"
           x="565.1861"
           y="-284.47443"
           style="font-size:33.50511169px;font-style:normal;font-variant:normal;font-weight:bold;font-stretch:normal;font-family:DejaVu Sans;-inkscape-font-specification:DejaVu Sans Bold">ghex</tspan></text>
      <text
         xml:space="preserve"
         style="font-size:12px;font-style:normal;font-variant:normal;font-weight:normal;font-stretch:normal;line-height:125%;letter-spacing:0px;word-spacing:0px;fill:#000000;fill-opacity:1;stroke:none;font-family:Cantarell;-inkscape-font-specification:Cantarell"
         x="108.47458"
         y="25.310736"
         id="text3131"
         sodipodi:linespacing="125%"
         transform="translate(0,-340)"><tspan
           sodipodi:role="line"
           id="tspan3133"
           x="108.47458"
           y="25.310736">b</tspan></text>
    </g>
    <g
       inkscape:groupmode="layer"
       id="layer4"
       inkscape:label="small"
       style="display:inline">
      <g
         id="g6154"
         style="fill:#ffffff"
         transform="matrix(1.25,0,0,1.25,-78,-47.25)" />
    </g>
    <g
       inkscape:groupmode="layer"
       id="layer5"
       inkscape:label="hires"
       style="display:inline">
      <path
         transform="matrix(17.447951,0,0,17.447951,376.98074,-52.27678)"
         d="M 4.6323888,4.5692309 -1.3504708,6.1723333 -5.730228,1.7925761 -4.1271256,-4.1902835 1.855734,-5.7933859 6.2354912,-1.4136287 z"
         inkscape:randomized="0"
         inkscape:rounded="0"
         inkscape:flatsided="true"
         sodipodi:arg2="1.3089969"
         sodipodi:arg1="0.78539816"
         sodipodi:r2="5.3640847"
         sodipodi:r1="6.193912"
         sodipodi:cy="0.18947367"
         sodipodi:cx="0.25263157"
         sodipodi:sides="6"
         id="use1911"
         style="display:inline;enable-background:new;color:#000000;fill:url(#linearGradient3930);fill-opacity:1;fill-rule:evenodd;stroke:none;stroke-width:0.58876401000000000;marker:none;visibility:visible;overflow:visible"
         sodipodi:type="star" />
      <path
         style="opacity:0.05;color:#000000;fill:url(#radialGradient4163);fill-opacity:1;fill-rule:evenodd;stroke:none;stroke-width:6;marker:none;visibility:visible;display:inline;overflow:visible;enable-background:new"
         d="m 406.96268,-143.33431 -94.875,25.09375 -25.0625,94.875 69.25,69.21875 94.3125,-25.625 25.09375,-94.875 -68.71875,-68.6875 z"
         id="path4151"
         inkscape:connector-curvature="0" />
      <path
         clip-path="url(#clipPath4131)"
         sodipodi:nodetypes="ccccc"
         id="path4153"
         d="m 90.582213,-68.233108 28.754007,-109.362632 110.32151,-29.22135 80.92448,79.21896 C 210.43178,-133.4374 200,-68 90.582213,-68.233108 z"
         style="opacity:0.5;fill:url(#linearGradient4165);fill-opacity:1;fill-rule:evenodd;stroke:none"
         inkscape:connector-curvature="0"
         transform="translate(180.80643,48.44694)" />
      <path
         clip-path="url(#clipPath3936)"
         sodipodi:type="star"
         style="opacity:0.4;color:#000000;fill:none;stroke:url(#linearGradient4167);stroke-width:0.45850655;stroke-miterlimit:4;stroke-opacity:1;stroke-dasharray:none;marker:none;visibility:visible;display:inline;overflow:visible;filter:url(#filter3950);enable-background:new"
         id="path4155"
         sodipodi:sides="6"
         sodipodi:cx="0.25263157"
         sodipodi:cy="0.18947367"
         sodipodi:r1="6.193912"
         sodipodi:r2="5.3640847"
         sodipodi:arg1="0.78539816"
         sodipodi:arg2="1.3089969"
         inkscape:flatsided="true"
         inkscape:rounded="0"
         inkscape:randomized="0"
         d="M 4.6323888,4.5692309 -1.3504708,6.1723333 -5.730228,1.7925761 -4.1271256,-4.1902835 1.855734,-5.7933859 6.2354912,-1.4136287 z"
         transform="matrix(17.447951,0,0,17.447951,376.98074,-52.27678)" />
      <path
         id="path4157"
         d="m 406.61893,-146.33431 a 3.0003,3.0003 0 0 0 -0.4375,0.0937 l -94.875,25.09375 a 3.0003,3.0003 0 0 0 -2.125,2.125 l -25.0625,94.875 a 3.0003,3.0003 0 0 0 0.78125,2.90625 l 69.25,69.21875 a 3.0003,3.0003 0 0 0 2.90625,0.78125 l 94.3125,-25.625 a 3.0003,3.0003 0 0 0 2.125,-2.125 l 25.09375,-94.875 a 3.0003,3.0003 0 0 0 -0.78125,-2.90625 l -68.71875,-68.6875 a 3.0003,3.0003 0 0 0 -2.15625,-0.875 3.0003,3.0003 0 0 0 -0.3125,0 z m 0.34375,3 68.71875,68.6875 -25.09375,94.875 -94.3125,25.625 -69.25,-69.21875 25.0625,-94.875 94.875,-25.09375 z"
         style="font-size:medium;font-style:normal;font-variant:normal;font-weight:normal;font-stretch:normal;text-indent:0;text-align:start;text-decoration:none;line-height:normal;letter-spacing:normal;word-spacing:normal;text-transform:none;direction:ltr;block-progression:tb;writing-mode:lr-tb;text-anchor:start;baseline-shift:baseline;opacity:0.5;color:#000000;fill:url(#linearGradient4169);fill-opacity:1;stroke:none;stroke-width:6;marker:none;visibility:visible;display:inline;overflow:visible;enable-background:new;font-family:Sans;-inkscape-font-specification:Sans"
         inkscape:connector-curvature="0" />
      <path
         style="font-size:medium;font-style:normal;font-variant:normal;font-weight:normal;font-stretch:normal;text-indent:0;text-align:start;text-decoration:none;line-height:normal;letter-spacing:normal;word-spacing:normal;text-transform:none;direction:ltr;block-progression:tb;writing-mode:lr-tb;text-anchor:start;baseline-shift:baseline;opacity:0.2;color:#000000;fill:url(#linearGradient4171);fill-opacity:1;stroke:none;stroke-width:6;marker:none;visibility:visible;display:inline;overflow:visible;enable-background:new;font-family:Sans;-inkscape-font-specification:Sans"
         d="m 406.61893,-146.33431 a 3.0003,3.0003 0 0 0 -0.4375,0.0937 l -94.875,25.09375 a 3.0003,3.0003 0 0 0 -2.125,2.125 l -25.0625,94.875 a 3.0003,3.0003 0 0 0 0.78125,2.90625 l 69.25,69.21875 a 3.0003,3.0003 0 0 0 2.90625,0.78125 l 94.3125,-25.625 a 3.0003,3.0003 0 0 0 2.125,-2.125 l 25.09375,-94.875 a 3.0003,3.0003 0 0 0 -0.78125,-2.90625 l -68.71875,-68.6875 a 3.0003,3.0003 0 0 0 -2.15625,-0.875 3.0003,3.0003 0 0 0 -0.3125,0 z m 0.34375,3 68.71875,68.6875 -25.09375,94.875 -94.3125,25.625 -69.25,-69.21875 25.0625,-94.875 94.875,-25.09375 z"
         id="path4159"
         inkscape:connector-curvature="0" />
      <path
         sodipodi:type="star"
         style="color:#000000;fill:url(#linearGradient4185);fill-opacity:1;fill-rule:evenodd;stroke:none;stroke-width:0.58876401;marker:none;visibility:visible;display:inline;overflow:visible;enable-background:new"
         id="path4173"
         sodipodi:sides="6"
         sodipodi:cx="0.25263157"
         sodipodi:cy="0.18947367"
         sodipodi:r1="6.193912"
         sodipodi:r2="5.3640847"
         sodipodi:arg1="0.78539816"
         sodipodi:arg2="1.3089969"
         inkscape:flatsided="true"
         inkscape:rounded="0"
         inkscape:randomized="0"
         d="M 4.6323888,4.5692309 -1.3504708,6.1723333 -5.730228,1.7925761 -4.1271256,-4.1902835 1.855734,-5.7933859 6.2354912,-1.4136287 z"
         transform="matrix(17.447951,0,0,17.447951,244.62124,80.082714)" />
      <path
         inkscape:connector-curvature="0"
         id="path4175"
         d="m 274.60318,-10.974816 -94.875,25.09375 -25.0625,94.874996 69.25,69.21875 94.3125,-25.625 25.09375,-94.874996 -68.71875,-68.6875 z"
         style="opacity:0.05;color:#000000;fill:url(#radialGradient4187);fill-opacity:1;fill-rule:evenodd;stroke:none;stroke-width:6;marker:none;visibility:visible;display:inline;overflow:visible;enable-background:new" />
      <path
         transform="translate(48.446935,180.80643)"
         inkscape:connector-curvature="0"
         style="opacity:0.5;fill:url(#linearGradient4189);fill-opacity:1;fill-rule:evenodd;stroke:none"
         d="m 90.582213,-68.233108 28.754007,-109.362632 110.32151,-29.22135 80.92448,79.21896 C 210.43178,-133.4374 200,-68 90.582213,-68.233108 z"
         id="path4177"
         sodipodi:nodetypes="ccccc"
         clip-path="url(#clipPath4131)" />
      <path
         transform="matrix(17.447951,0,0,17.447951,244.62124,80.082714)"
         d="M 4.6323888,4.5692309 -1.3504708,6.1723333 -5.730228,1.7925761 -4.1271256,-4.1902835 1.855734,-5.7933859 6.2354912,-1.4136287 z"
         inkscape:randomized="0"
         inkscape:rounded="0"
         inkscape:flatsided="true"
         sodipodi:arg2="1.3089969"
         sodipodi:arg1="0.78539816"
         sodipodi:r2="5.3640847"
         sodipodi:r1="6.193912"
         sodipodi:cy="0.18947367"
         sodipodi:cx="0.25263157"
         sodipodi:sides="6"
         id="path4179"
         style="opacity:0.4;color:#000000;fill:none;stroke:url(#linearGradient4191);stroke-width:0.45850655;stroke-miterlimit:4;stroke-opacity:1;stroke-dasharray:none;marker:none;visibility:visible;display:inline;overflow:visible;filter:url(#filter3950);enable-background:new"
         sodipodi:type="star"
         clip-path="url(#clipPath3936)" />
      <path
         inkscape:connector-curvature="0"
         style="font-size:medium;font-style:normal;font-variant:normal;font-weight:normal;font-stretch:normal;text-indent:0;text-align:start;text-decoration:none;line-height:normal;letter-spacing:normal;word-spacing:normal;text-transform:none;direction:ltr;block-progression:tb;writing-mode:lr-tb;text-anchor:start;baseline-shift:baseline;opacity:0.5;color:#000000;fill:url(#linearGradient4193);fill-opacity:1;stroke:none;stroke-width:6;marker:none;visibility:visible;display:inline;overflow:visible;enable-background:new;font-family:Sans;-inkscape-font-specification:Sans"
         d="m 274.25943,-13.974816 a 3.0003,3.0003 0 0 0 -0.4375,0.0937 l -94.875,25.09375 a 3.0003,3.0003 0 0 0 -2.125,2.125 l -25.0625,94.874996 a 3.0003,3.0003 0 0 0 0.78125,2.90625 l 69.25,69.21875 a 3.0003,3.0003 0 0 0 2.90625,0.78125 l 94.3125,-25.625 a 3.0003,3.0003 0 0 0 2.125,-2.125 l 25.09375,-94.874996 a 3.0003,3.0003 0 0 0 -0.78125,-2.90625 l -68.71875,-68.6875 a 3.0003,3.0003 0 0 0 -2.15625,-0.875 3.0003,3.0003 0 0 0 -0.3125,0 z m 0.34375,3 68.71875,68.6875 -25.09375,94.874996 -94.3125,25.625 -69.25,-69.21875 25.0625,-94.874996 94.875,-25.09375 z"
         id="path4181" />
      <path
         inkscape:connector-curvature="0"
         id="path4183"
         d="m 274.25943,-13.974816 a 3.0003,3.0003 0 0 0 -0.4375,0.0937 l -94.875,25.09375 a 3.0003,3.0003 0 0 0 -2.125,2.125 l -25.0625,94.874996 a 3.0003,3.0003 0 0 0 0.78125,2.90625 l 69.25,69.21875 a 3.0003,3.0003 0 0 0 2.90625,0.78125 l 94.3125,-25.625 a 3.0003,3.0003 0 0 0 2.125,-2.125 l 25.09375,-94.874996 a 3.0003,3.0003 0 0 0 -0.78125,-2.90625 l -68.71875,-68.6875 a 3.0003,3.0003 0 0 0 -2.15625,-0.875 3.0003,3.0003 0 0 0 -0.3125,0 z m 0.34375,3 68.71875,68.6875 -25.09375,94.874996 -94.3125,25.625 -69.25,-69.21875 25.0625,-94.874996 94.875,-25.09375 z"
         style="font-size:medium;font-style:normal;font-variant:normal;font-weight:normal;font-stretch:normal;text-indent:0;text-align:start;text-decoration:none;line-height:normal;letter-spacing:normal;word-spacing:normal;text-transform:none;direction:ltr;block-progression:tb;writing-mode:lr-tb;text-anchor:start;baseline-shift:baseline;opacity:0.2;color:#000000;fill:url(#linearGradient4195);fill-opacity:1;stroke:none;stroke-width:6;marker:none;visibility:visible;display:inline;overflow:visible;enable-background:new;font-family:Sans;-inkscape-font-specification:Sans" />
      <g
         id="g8198"
         transform="matrix(5.0928038,0,0,2.2388776,20.301687,129.4805)"
         style="opacity:0.4" />
      <g
         id="g8230"
         inkscape:label="base"
         style="display:inline"
         transform="matrix(4.8890868,0,0,4.8890868,322.06038,251.81989)" />
      <path
         sodipodi:type="star"
         style="display:inline;enable-background:new;color:#000000;fill:url(#linearGradient3920);fill-opacity:1;fill-rule:evenodd;stroke:none;stroke-width:0.58876401000000000;marker:none;visibility:visible;overflow:visible"
         id="path3661"
         sodipodi:sides="6"
         sodipodi:cx="0.25263157"
         sodipodi:cy="0.18947367"
         sodipodi:r1="6.193912"
         sodipodi:r2="5.3640847"
         sodipodi:arg1="0.78539816"
         sodipodi:arg2="1.3089969"
         inkscape:flatsided="true"
         inkscape:rounded="0"
         inkscape:randomized="0"
         d="M 4.6323888,4.5692309 -1.3504708,6.1723333 -5.730228,1.7925761 -4.1271256,-4.1902835 1.855734,-5.7933859 6.2354912,-1.4136287 z"
         transform="matrix(17.447951,0,0,17.447951,196.17431,-100.72372)" />
      <path
         id="path4008"
         d="M 226.15625 148.21875 L 131.28125 173.3125 L 106.21875 268.1875 L 175.46875 337.40625 L 269.78125 311.78125 L 294.875 216.90625 L 226.15625 148.21875 z "
         style="display:inline;enable-background:new;color:#000000;fill:url(#radialGradient4137);fill-opacity:1;fill-rule:evenodd;stroke:none;stroke-width:6;marker:none;visibility:visible;overflow:visible;stroke-opacity:1;stroke-miterlimit:4;stroke-dasharray:none;stroke-linejoin:round;opacity:0.05000000000000000"
         transform="translate(0,-340)" />
      <path
         inkscape:connector-curvature="0"
         style="opacity:0.5;fill:url(#linearGradient3065);fill-opacity:1;fill-rule:evenodd;stroke:none"
         d="m 90.582213,-68.233108 28.754007,-109.362632 110.32151,-29.22135 80.92448,79.21896 C 210.43178,-133.4374 200,-68 90.582213,-68.233108 z"
         id="path1896"
         sodipodi:nodetypes="ccccc"
         clip-path="url(#clipPath4131)" />
      <path
         transform="matrix(17.447951,0,0,17.447951,196.17431,-100.72372)"
         d="M 4.6323888,4.5692309 -1.3504708,6.1723333 -5.730228,1.7925761 -4.1271256,-4.1902835 1.855734,-5.7933859 6.2354912,-1.4136287 z"
         inkscape:randomized="0"
         inkscape:rounded="0"
         inkscape:flatsided="true"
         sodipodi:arg2="1.3089969"
         sodipodi:arg1="0.78539816"
         sodipodi:r2="5.3640847"
         sodipodi:r1="6.193912"
         sodipodi:cy="0.18947367"
         sodipodi:cx="0.25263157"
         sodipodi:sides="6"
         id="path3932"
         style="display:inline;enable-background:new;color:#000000;fill:none;fill-opacity:1;fill-rule:evenodd;stroke:url(#linearGradient4053);stroke-width:0.45850656000000001;marker:none;visibility:visible;overflow:visible;stroke-opacity:1;stroke-miterlimit:4;stroke-dasharray:none;filter:url(#filter3950);opacity:0.40000000000000002"
         sodipodi:type="star"
         clip-path="url(#clipPath3936)" />
      <path
         style="font-size:medium;font-style:normal;font-variant:normal;font-weight:normal;font-stretch:normal;text-indent:0;text-align:start;text-decoration:none;line-height:normal;letter-spacing:normal;word-spacing:normal;text-transform:none;direction:ltr;block-progression:tb;writing-mode:lr-tb;text-anchor:start;baseline-shift:baseline;opacity:0.50000000000000000;color:#000000;fill:url(#linearGradient4055);fill-opacity:1;stroke:none;stroke-width:6;marker:none;visibility:visible;display:inline;overflow:visible;enable-background:new;font-family:Sans;-inkscape-font-specification:Sans;"
         d="M 225.8125 145.21875 A 3.0003 3.0003 0 0 0 225.375 145.3125 L 130.5 170.40625 A 3.0003 3.0003 0 0 0 128.375 172.53125 L 103.3125 267.40625 A 3.0003 3.0003 0 0 0 104.09375 270.3125 L 173.34375 339.53125 A 3.0003 3.0003 0 0 0 176.25 340.3125 L 270.5625 314.6875 A 3.0003 3.0003 0 0 0 272.6875 312.5625 L 297.78125 217.6875 A 3.0003 3.0003 0 0 0 297 214.78125 L 228.28125 146.09375 A 3.0003 3.0003 0 0 0 226.125 145.21875 A 3.0003 3.0003 0 0 0 225.8125 145.21875 z M 226.15625 148.21875 L 294.875 216.90625 L 269.78125 311.78125 L 175.46875 337.40625 L 106.21875 268.1875 L 131.28125 173.3125 L 226.15625 148.21875 z "
         id="path3973"
         transform="translate(0,-340)" />
      <path
         transform="translate(0,-340)"
         id="path4139"
         d="M 225.8125 145.21875 A 3.0003 3.0003 0 0 0 225.375 145.3125 L 130.5 170.40625 A 3.0003 3.0003 0 0 0 128.375 172.53125 L 103.3125 267.40625 A 3.0003 3.0003 0 0 0 104.09375 270.3125 L 173.34375 339.53125 A 3.0003 3.0003 0 0 0 176.25 340.3125 L 270.5625 314.6875 A 3.0003 3.0003 0 0 0 272.6875 312.5625 L 297.78125 217.6875 A 3.0003 3.0003 0 0 0 297 214.78125 L 228.28125 146.09375 A 3.0003 3.0003 0 0 0 226.125 145.21875 A 3.0003 3.0003 0 0 0 225.8125 145.21875 z M 226.15625 148.21875 L 294.875 216.90625 L 269.78125 311.78125 L 175.46875 337.40625 L 106.21875 268.1875 L 131.28125 173.3125 L 226.15625 148.21875 z "
         style="font-size:medium;font-style:normal;font-variant:normal;font-weight:normal;font-stretch:normal;text-indent:0;text-align:start;text-decoration:none;line-height:normal;letter-spacing:normal;word-spacing:normal;text-transform:none;direction:ltr;block-progression:tb;writing-mode:lr-tb;text-anchor:start;baseline-shift:baseline;opacity:0.2;color:#000000;fill:url(#linearGradient4141);fill-opacity:1;stroke:none;stroke-width:6;marker:none;visibility:visible;display:inline;overflow:visible;enable-background:new;font-family:Sans;-inkscape-font-specification:Sans" />
    </g>
  </g>
</svg>
