<?xml version="1.0" encoding="UTF-8" standalone="no"?>
<!-- Created with Inkscape (http://www.inkscape.org/) -->

<svg
   xmlns:dc="http://purl.org/dc/elements/1.1/"
   xmlns:cc="http://creativecommons.org/ns#"
   xmlns:rdf="http://www.w3.org/1999/02/22-rdf-syntax-ns#"
   xmlns:svg="http://www.w3.org/2000/svg"
   xmlns="http://www.w3.org/2000/svg"
   xmlns:xlink="http://www.w3.org/1999/xlink"
   xmlns:sodipodi="http://sodipodi.sourceforge.net/DTD/sodipodi-0.dtd"
   xmlns:inkscape="http://www.inkscape.org/namespaces/inkscape"
   inkscape:export-ydpi="90.000000"
   inkscape:export-xdpi="90.000000"
   inkscape:export-filename="/home/lapo/firewall.png"
   width="400"
   height="300"
   id="svg11300"
   sodipodi:version="0.32"
   inkscape:version="0.48.4 r9939"
   sodipodi:docname="gvim.svg"
   inkscape:output_extension="org.inkscape.output.svg.inkscape"
   version="1.0"
   style="display:inline;enable-background:new">
  <title
     id="title4872">Firewall</title>
  <sodipodi:namedview
     stroke="#ef2929"
     fill="#f57900"
     id="base"
     pagecolor="#474747"
     bordercolor="#666666"
     borderopacity="0.25490196"
     inkscape:pageopacity="0"
     inkscape:pageshadow="2"
     inkscape:zoom="1"
     inkscape:cx="-37.710165"
     inkscape:cy="-47.929518"
     inkscape:current-layer="layer5"
     showgrid="false"
     inkscape:grid-bbox="true"
     inkscape:document-units="px"
     inkscape:showpageshadow="false"
     inkscape:window-width="1030"
     inkscape:window-height="866"
     inkscape:window-x="294"
     inkscape:window-y="102"
     width="400px"
     height="300px"
     inkscape:snap-nodes="true"
     inkscape:snap-bbox="true"
     gridtolerance="10000"
     inkscape:object-nodes="true"
     inkscape:snap-grids="true"
     showguides="false"
     inkscape:guide-bbox="true"
     inkscape:window-maximized="0"
     inkscape:snap-global="true">
    <inkscape:grid
       spacingy="1px"
       spacingx="1px"
       id="grid5883"
       type="xygrid"
       enabled="true"
       visible="true"
       empspacing="4"
       snapvisiblegridlinesonly="true" />
    <inkscape:grid
       type="xygrid"
       id="grid11592"
       empspacing="2"
       visible="true"
       enabled="false"
       spacingx="0.5px"
       spacingy="0.5px"
       color="#ff0000"
       opacity="0.1254902"
       empcolor="#ff0000"
       empopacity="0.25098039"
       snapvisiblegridlinesonly="true" />
    <sodipodi:guide
       orientation="-0.70710678,0.70710678"
       position="309.8125,173.625"
       id="guide9630" />
    <sodipodi:guide
       orientation="0,1"
       position="-304,212"
       id="guide3899" />
  </sodipodi:namedview>
  <defs
     id="defs3">
    <linearGradient
       id="linearGradient4908">
      <stop
         style="stop-color:#3a7404;stop-opacity:1;"
         offset="0"
         id="stop4910" />
      <stop
         style="stop-color:#4e9a06;stop-opacity:1"
         offset="1"
         id="stop4912" />
    </linearGradient>
    <linearGradient
       inkscape:collect="always"
       id="linearGradient4900">
      <stop
         style="stop-color:#8ae234;stop-opacity:1"
         offset="0"
         id="stop4902" />
      <stop
         style="stop-color:#73d216;stop-opacity:1"
         offset="1"
         id="stop4904" />
    </linearGradient>
    <linearGradient
       inkscape:collect="always"
       id="linearGradient4888">
      <stop
         style="stop-color:#a8e969;stop-opacity:1"
         offset="0"
         id="stop4890" />
      <stop
         style="stop-color:#8ae234;stop-opacity:1"
         offset="1"
         id="stop4892" />
    </linearGradient>
    <linearGradient
       inkscape:collect="always"
       id="linearGradient4842">
      <stop
         style="stop-color:#4e9a06;stop-opacity:1;"
         offset="0"
         id="stop4844" />
      <stop
         style="stop-color:#73d216;stop-opacity:1"
         offset="1"
         id="stop4846" />
    </linearGradient>
    <clipPath
       clipPathUnits="userSpaceOnUse"
       id="clipPath4838">
      <rect
         y="-69.296471"
         x="140.00714"
         height="155.56349"
         width="155.56349"
         id="rect4840"
         style="color:#000000;fill:none;stroke:#000000;stroke-width:1.79999995;marker:none;visibility:visible;display:inline;overflow:visible;enable-background:accumulate"
         transform="matrix(0.70710678,0.70710678,-0.70710678,0.70710678,0,0)" />
    </clipPath>
    <linearGradient
       inkscape:collect="always"
       xlink:href="#linearGradient4842"
       id="linearGradient4848"
       x1="163.8279"
       y1="-12.522077"
       x2="318.97043"
       y2="64.838715"
       gradientUnits="userSpaceOnUse" />
    <filter
       inkscape:collect="always"
       id="filter4850">
      <feGaussianBlur
         inkscape:collect="always"
         stdDeviation="1.1"
         id="feGaussianBlur4852" />
    </filter>
    <linearGradient
       inkscape:collect="always"
       id="linearGradient4842-1">
      <stop
         style="stop-color:#4e9a06;stop-opacity:1;"
         offset="0"
         id="stop4844-9" />
      <stop
         style="stop-color:#73d216;stop-opacity:1"
         offset="1"
         id="stop4846-8" />
    </linearGradient>
    <linearGradient
       gradientTransform="matrix(0.86631445,0,0,0.86631445,-352.72252,382.97211)"
       y2="141.41214"
       x2="375.31808"
       y1="-4.2426467"
       x1="123.03658"
       gradientUnits="userSpaceOnUse"
       id="linearGradient4869"
       xlink:href="#linearGradient4842-1"
       inkscape:collect="always" />
    <linearGradient
       inkscape:collect="always"
       xlink:href="#linearGradient4888"
       id="linearGradient4898"
       x1="140.37653"
       y1="68.376518"
       x2="67.492676"
       y2="141.26036"
       gradientUnits="userSpaceOnUse" />
    <linearGradient
       inkscape:collect="always"
       xlink:href="#linearGradient4900"
       id="linearGradient4906"
       x1="245.633"
       y1="152.13301"
       x2="149.867"
       y2="56.367012"
       gradientUnits="userSpaceOnUse" />
    <linearGradient
       inkscape:collect="always"
       xlink:href="#linearGradient4908"
       id="linearGradient4914"
       x1="45.758286"
       y1="159.86148"
       x2="141.25"
       y2="255.3532"
       gradientUnits="userSpaceOnUse" />
    <clipPath
       clipPathUnits="userSpaceOnUse"
       id="clipPath5130">
      <path
         sodipodi:nodetypes="ccccccccssccccccccccccccc"
         inkscape:connector-curvature="0"
         id="path5132"
         d="m 75,76 c -4.18868,4.2e-4 -7.99958,3.81132 -8,8 l 0,8 c 4.2e-4,4.18868 3.81132,7.99958 8,8 l 4,0 0,140 c 4.2e-4,4.18868 3.81132,7.99958 8,8 l 8.6875,0 c 2.09427,-4e-4 4.21734,-0.89645 5.65625,-2.34375 L 248.5706,97.5706 C 250.1673,95.96458 250.99979,94.09434 251,92 l 0,-8 c -4.2e-4,-4.18868 -3.81132,-7.99958 -8,-8 l -53,0 c -4.18868,4.2e-4 -7.99958,3.81132 -8,8 l 0,8 c 4.2e-4,4.18868 3.81132,7.99958 8,8 l 4,0 -63,64 0,-64 4,0 c 4.18868,-4.2e-4 7.99958,-3.81132 8,-8 l 0,-8 c -4.2e-4,-4.18868 -3.81132,-7.99958 -8,-8 z"
         style="color:#000000;fill:none;stroke:#000000;stroke-width:1.79999995;marker:none;visibility:visible;display:inline;overflow:visible;enable-background:accumulate" />
    </clipPath>
    <filter
       inkscape:collect="always"
       id="filter5134">
      <feGaussianBlur
         inkscape:collect="always"
         stdDeviation="0.89"
         id="feGaussianBlur5136" />
    </filter>
    <filter
       inkscape:collect="always"
       id="filter5142"
       x="-0.093514493"
       width="1.187029"
       y="-0.10003876"
       height="1.2000775">
      <feGaussianBlur
         inkscape:collect="always"
         stdDeviation="7.1694444"
         id="feGaussianBlur5144" />
    </filter>
  </defs>
  <metadata
     id="metadata4">
    <rdf:RDF>
      <cc:Work
         rdf:about="">
        <dc:format>image/svg+xml</dc:format>
        <dc:type
           rdf:resource="http://purl.org/dc/dcmitype/StillImage" />
        <dc:creator>
          <cc:Agent>
            <dc:title>Lapo Calamandrei</dc:title>
          </cc:Agent>
        </dc:creator>
        <dc:source />
        <cc:license
           rdf:resource="" />
        <dc:title>Firewall</dc:title>
        <dc:subject>
          <rdf:Bag />
        </dc:subject>
        <dc:date />
        <dc:rights>
          <cc:Agent>
            <dc:title />
          </cc:Agent>
        </dc:rights>
        <dc:publisher>
          <cc:Agent>
            <dc:title />
          </cc:Agent>
        </dc:publisher>
        <dc:identifier />
        <dc:relation />
        <dc:language />
        <dc:coverage />
        <dc:description />
        <dc:contributor>
          <cc:Agent>
            <dc:title />
          </cc:Agent>
        </dc:contributor>
      </cc:Work>
      <cc:Work
         rdf:about="">
        <dc:format>image/svg+xml</dc:format>
        <dc:type
           rdf:resource="http://purl.org/dc/dcmitype/StillImage" />
      </cc:Work>
    </rdf:RDF>
  </metadata>
  <g
     style="display:inline"
     inkscape:groupmode="layer"
     inkscape:label="artwork"
     id="layer1">
    <g
       inkscape:groupmode="layer"
       id="layer2"
       inkscape:label="baseplate"
       style="display:inline"
       sodipodi:insensitive="true">
      <rect
         style="fill:#eeeeec;fill-opacity:1;fill-rule:nonzero;stroke:none;stroke-width:2;marker:none;visibility:visible;display:inline;overflow:visible;enable-background:accumulate"
         id="rect6284"
         width="48"
         height="48"
         x="296.0625"
         y="52"
         inkscape:label="48x48" />
      <rect
         inkscape:label="32x32"
         y="128"
         x="303"
         height="32"
         width="32"
         id="rect6592"
         style="fill:#eeeeec;fill-opacity:1;fill-rule:nonzero;stroke:none;stroke-width:2;marker:none;visibility:visible;display:inline;overflow:visible;enable-background:accumulate" />
      <rect
         inkscape:label="24x24"
         y="178"
         x="302"
         height="24"
         width="24"
         id="rect5028"
         style="fill:#ffffff;fill-opacity:1;fill-rule:nonzero;stroke:none;stroke-width:2;marker:none;visibility:visible;display:inline;overflow:visible;enable-background:accumulate" />
      <rect
         inkscape:label="16x16"
         y="221"
         x="303"
         height="16"
         width="16"
         id="rect6833"
         style="fill:#eeeeec;fill-opacity:1;fill-rule:nonzero;stroke:none;stroke-width:2;marker:none;visibility:visible;display:inline;overflow:visible;enable-background:accumulate" />
      <rect
         style="fill:#eeeeec;fill-opacity:1;fill-rule:nonzero;stroke:none;stroke-width:2;marker:none;visibility:visible;display:inline;overflow:visible;enable-background:accumulate"
         id="rect6749"
         width="22"
         height="22"
         x="303"
         y="179"
         inkscape:label="22x22" />
      <text
         id="context"
         inkscape:label="context"
         style="font-size:18px;font-style:normal;font-variant:normal;font-weight:normal;font-stretch:normal;fill:#000000;fill-opacity:1;stroke:none;display:inline;enable-background:new;font-family:DejaVu Sans;-inkscape-font-specification:DejaVu Sans"
         x="31.87059"
         xml:space="preserve"
         y="18.860306"><tspan
           id="tspan2716"
           sodipodi:role="line"
           x="31.87059"
           y="18.860306"
           style="font-style:normal;font-variant:normal;font-weight:normal;font-stretch:normal;font-family:DejaVu Sans;-inkscape-font-specification:DejaVu Sans">context</tspan></text>
      <text
         id="icon-name"
         inkscape:label="icon-name"
         sodipodi:linespacing="125%"
         style="font-size:18px;font-style:normal;font-variant:normal;font-weight:bold;font-stretch:normal;text-align:start;line-height:125%;writing-mode:lr-tb;text-anchor:start;fill:#000000;fill-opacity:1;stroke:none;display:inline;enable-background:new;font-family:DejaVu Sans;-inkscape-font-specification:DejaVu Sans Bold"
         x="302.87057"
         xml:space="preserve"
         y="18.860306"><tspan
           id="tspan3023"
           sodipodi:role="line"
           x="302.87057"
           y="18.860306"
           style="font-size:18px;font-style:normal;font-variant:normal;font-weight:bold;font-stretch:normal;font-family:DejaVu Sans;-inkscape-font-specification:DejaVu Sans Bold">name</tspan></text>
      <rect
         inkscape:label="256x256"
         y="32"
         x="20"
         height="256"
         width="256"
         id="rect6282"
         style="fill:#eeeeec;fill-opacity:1;fill-rule:nonzero;stroke:none;stroke-width:2;marker:none;visibility:visible;display:inline;overflow:visible;enable-background:accumulate"
         inkscape:export-xdpi="90"
         inkscape:export-ydpi="90" />
      <path
         inkscape:connector-curvature="0"
         id="path125377"
         d="m 20,32 0,256 256,0 0,-256 -18,0 0,238 -220,0 0,-238 z"
         style="opacity:0.4510002;fill:#3465a4;fill-opacity:1;fill-rule:nonzero;stroke:none;stroke-width:2;marker:none;visibility:visible;display:inline;overflow:visible;enable-background:accumulate"
         sodipodi:nodetypes="ccccccccc" />
      <path
         style="color:#000000;fill:#e6e6e6;stroke:none;stroke-width:1;marker:none;visibility:visible;display:inline;overflow:visible;enable-background:accumulate"
         d="m 75,386 c -4.18868,4.2e-4 -7.99958,3.81132 -8,8 l 0,8 c 4.2e-4,4.18868 3.81132,7.99958 8,8 l 4,0 0,140 c 4.2e-4,4.18868 3.81132,7.99958 8,8 l 8.6875,0 c 2.09427,-4e-4 4.21734,-0.89645 5.65625,-2.34375 L 248.5625,407.5625 C 250.1592,405.95648 250.99979,404.09434 251,402 l 0,-8 c -4.2e-4,-4.18868 -3.81132,-7.99958 -8,-8 l -53,0 c -4.18868,4.2e-4 -7.99958,3.81132 -8,8 l 0,8 c 4.2e-4,4.18868 3.81132,7.99958 8,8 l 4,0 -63,64 0,-64 4,0 c 4.18868,-4.2e-4 7.99958,-3.81132 8,-8 l 0,-8 c -4.2e-4,-4.18868 -3.81132,-7.99958 -8,-8 l -60,0 z m 0,4 60,0 c 1.76277,1.8e-4 3.99982,2.23723 4,4 l 0,8 c -1.8e-4,1.76277 -2.23723,3.99982 -4,4 l -8,0 0,68 0,9.5 6.84375,-6.6875 63,-64 L 203.5,406 l -9.5,0 -4,0 c -1.76277,-1.8e-4 -3.99982,-2.23723 -4,-4 l 0,-8 c 1.8e-4,-1.76277 2.23723,-3.99982 4,-4 l 53,0 c 1.76277,1.8e-4 3.99982,2.23723 4,4 l 0,8 c -1e-4,1.02428 -0.27962,1.74252 -1.28125,2.75 L 98.5,552.84375 C 97.866103,553.48134 96.641332,553.99982 95.6875,554 L 87,554 c -1.762765,-1.8e-4 -3.999823,-2.23723 -4,-4 l 0,-144 -8,0 c -1.762765,-1.8e-4 -3.999823,-2.23723 -4,-4 l 0,-8 c 1.77e-4,-1.76277 2.237235,-3.99982 4,-4 z"
         id="path3902-0-7-9-4-2"
         inkscape:connector-curvature="0" />
    </g>
    <g
       inkscape:groupmode="layer"
       id="layer4"
       inkscape:label="smallsizes"
       style="display:inline">
      <g
         id="g6154"
         style="fill:#ffffff"
         transform="matrix(1.25,0,0,1.25,-78,-47.25)" />
    </g>
    <g
       inkscape:groupmode="layer"
       id="layer5"
       inkscape:label="hires"
       style="display:inline">
      <g
         id="g8198"
         transform="matrix(5.0928038,0,0,2.2388776,20.301687,129.4805)"
         style="opacity:0.4" />
      <g
         id="g8230"
         inkscape:label="base"
         style="display:inline"
         transform="matrix(4.8890868,0,0,4.8890868,322.06038,251.81989)" />
      <path
         sodipodi:type="inkscape:offset"
         inkscape:radius="-1.0153296"
         inkscape:original="M 711.96875 227 C 709.68001 227.00001 707.67461 227.86289 706.5 229.1875 L 706.5 231.625 C 706.5 232.11623 706.8838 232.5 707.375 232.5 L 716.625 232.5 C 717.11622 232.50001 717.5 232.11622 717.5 231.625 L 717.5 229.25 C 716.33242 227.89578 714.28785 227 711.96875 227 z "
         style="opacity:0.35;fill:none;stroke:#ffffff;stroke-width:1;stroke-linecap:butt;stroke-linejoin:miter;stroke-miterlimit:4;stroke-opacity:1;stroke-dasharray:none;stroke-dashoffset:0;marker:none;visibility:visible;display:inline;overflow:visible;enable-background:accumulate"
         id="path5171-2"
         d="m 711.96875,228 c -1.90789,1e-5 -3.49694,0.75848 -4.46875,1.71875 l 0,1.78125 9,0 0,-1.75 c -0.96562,-0.98703 -2.59089,-1.75 -4.53125,-1.75 z"
         transform="translate(-7.8685593e-7,2.029528e-6)" />
      <g
         id="g4823"
         clip-path="url(#clipPath4838)">
        <rect
           transform="matrix(0.70710678,0.70710678,-0.70710678,0.70710678,0,0)"
           style="opacity:1;color:#000000;fill:url(#linearGradient4848);stroke:none;stroke-width:1.79999994999999990;marker:none;visibility:visible;display:inline;overflow:visible;enable-background:accumulate;fill-opacity:1"
           id="use3787-2"
           width="155.56349"
           height="155.56349"
           x="140.00714"
           y="-69.296471" />
        <path
           id="use3787-2-6-3"
           d="M 244 160 L 148 256 L 148 270 L 258 160 L 244 160 z "
           style="color:#000000;fill:#3a7404;stroke:none;stroke-width:1.79999994999999990;marker:none;visibility:visible;display:inline;overflow:visible;enable-background:accumulate;fill-opacity:1" />
        <path
           id="use3787-2-6-3-6"
           d="m 52,160 96,96 0,14 -110,-110 14,0 z"
           style="color:#000000;fill:url(#linearGradient4914);stroke:none;stroke-width:1.79999994999999990;marker:none;visibility:visible;display:inline;overflow:visible;enable-background:accumulate;fill-opacity:1"
           inkscape:connector-curvature="0" />
        <path
           id="use3787-2-6-3-7"
           d="m 244,160 -96,-96 0,-14 110,110 -14,0 z"
           style="color:#000000;fill:url(#linearGradient4906);stroke:none;stroke-width:1.79999994999999990;marker:none;visibility:visible;display:inline;overflow:visible;enable-background:accumulate;fill-opacity:1"
           inkscape:connector-curvature="0" />
        <path
           id="use3787-2-6-3-6-9"
           d="m 52,160 96,-96 0,-14 -110,110 14,0 z"
           style="color:#000000;fill:url(#linearGradient4898);stroke:none;stroke-width:1.79999994999999990;marker:none;visibility:visible;display:inline;overflow:visible;enable-background:accumulate;fill-opacity:1"
           inkscape:connector-curvature="0" />
        <rect
           transform="matrix(0.70710678,0.70710678,-0.70710678,0.70710678,0,0)"
           style="color:#000000;fill:none;stroke:#000000;stroke-width:1;marker:none;visibility:visible;display:inline;overflow:visible;enable-background:accumulate;filter:url(#filter4850);stroke-miterlimit:4;stroke-dasharray:none"
           id="use3787-2-4"
           width="155.56349"
           height="155.56349"
           x="140.00714"
           y="-69.296471" />
        <path
           style="opacity:0.44101124000000003;color:#000000;fill:#000000;fill-opacity:1;fill-rule:nonzero;stroke:none;stroke-width:1.79999994999999990;marker:none;visibility:visible;display:inline;overflow:visible;enable-background:accumulate;filter:url(#filter5142)"
           d="m 80,78 c -4.18868,4.2e-4 -7.99958,3.81132 -8,8 l 0,8 c 4.2e-4,4.18868 3.81132,7.99958 8,8 l 4,0 0,140 c 4.2e-4,4.18868 3.81132,7.99958 8,8 l 8.6875,0 c 2.09427,-4e-4 4.21734,-0.89645 5.65625,-2.34375 L 253.5706,99.5706 C 255.1673,97.96458 255.99979,96.09434 256,94 l 0,-8 c -4.2e-4,-4.18868 -3.81132,-7.99958 -8,-8 l -53,0 c -4.18868,4.2e-4 -7.99958,3.81132 -8,8 l 0,8 c 4.2e-4,4.18868 3.81132,7.99958 8,8 l 4,0 -63,64 0,-64 4,0 c 4.18868,-4.2e-4 7.99958,-3.81132 8,-8 l 0,-8 c -4.2e-4,-4.18868 -3.81132,-7.99958 -8,-8 z"
           id="path3902-0-7"
           inkscape:connector-curvature="0"
           sodipodi:nodetypes="ccccccccssccccccccccccccc" />
      </g>
      <rect
         transform="matrix(0.70710678,0.70710678,-0.70710678,0.70710678,0,0)"
         style="color:#000000;fill:url(#linearGradient4869);fill-opacity:1;stroke:#0000ff;stroke-width:1.03581083;stroke-miterlimit:4;stroke-dasharray:none;marker:none;visibility:visible;display:inline;overflow:visible;enable-background:accumulate"
         id="use3787-2-0"
         width="134.76689"
         height="134.76689"
         x="-231.43216"
         y="322.93942" />
      <g
         id="g5108"
         clip-path="url(#clipPath5130)">
        <path
           sodipodi:nodetypes="ccccccccssccccccccccccccc"
           inkscape:connector-curvature="0"
           id="path3902-0-7-9"
           d="m 75,76 c -4.18868,4.2e-4 -7.99958,3.81132 -8,8 l 0,8 c 4.2e-4,4.18868 3.81132,7.99958 8,8 l 4,0 0,140 c 4.2e-4,4.18868 3.81132,7.99958 8,8 l 8.6875,0 c 2.09427,-4e-4 4.21734,-0.89645 5.65625,-2.34375 L 248.5706,97.5706 C 250.1673,95.96458 250.99979,94.09434 251,92 l 0,-8 c -4.2e-4,-4.18868 -3.81132,-7.99958 -8,-8 l -53,0 c -4.18868,4.2e-4 -7.99958,3.81132 -8,8 l 0,8 c 4.2e-4,4.18868 3.81132,7.99958 8,8 l 4,0 -63,64 0,-64 4,0 c 4.18868,-4.2e-4 7.99958,-3.81132 8,-8 l 0,-8 c -4.2e-4,-4.18868 -3.81132,-7.99958 -8,-8 z"
           style="color:#000000;fill:#babdb6;fill-opacity:1;fill-rule:nonzero;stroke:none;stroke-width:1.79999995;marker:none;visibility:visible;display:inline;overflow:visible;enable-background:accumulate" />
        <path
           sodipodi:nodetypes="ccccccccssccccccccccccccc"
           inkscape:connector-curvature="0"
           id="path3902-0-7-9-4"
           d="m 75,76 c -4.18868,4.2e-4 -7.99958,3.81132 -8,8 l 0,8 c 4.2e-4,4.18868 3.81132,7.99958 8,8 l 4,0 0,140 c 4.2e-4,4.18868 3.81132,7.99958 8,8 l 8.6875,0 c 2.09427,-4e-4 4.21734,-0.89645 5.65625,-2.34375 L 248.5706,97.5706 C 250.1673,95.96458 250.99979,94.09434 251,92 l 0,-8 c -4.2e-4,-4.18868 -3.81132,-7.99958 -8,-8 l -53,0 c -4.18868,4.2e-4 -7.99958,3.81132 -8,8 l 0,8 c 4.2e-4,4.18868 3.81132,7.99958 8,8 l 4,0 -63,64 0,-64 4,0 c 4.18868,-4.2e-4 7.99958,-3.81132 8,-8 l 0,-8 c -4.2e-4,-4.18868 -3.81132,-7.99958 -8,-8 z"
           style="color:#000000;fill:none;fill-opacity:1;fill-rule:nonzero;stroke:#000000;stroke-width:1;marker:none;visibility:visible;display:inline;overflow:visible;enable-background:accumulate;stroke-miterlimit:4;stroke-dasharray:none;filter:url(#filter5134)" />
      </g>
      <path
         style="color:#000000;fill:#f2f2f2;fill-opacity:1;fill-rule:nonzero;stroke:none;stroke-width:1.79999995;marker:none;visibility:visible;display:inline;overflow:visible;enable-background:accumulate"
         d="m 75,80 c -1.762765,1.77e-4 -3.999823,2.237235 -4,4 l 0,8 c 1.77e-4,1.762765 2.237235,3.999823 4,4 l 8,0 0,144 c 1.77e-4,1.76277 2.237235,3.99982 4,4 l 8.6875,0 c 0.953832,-1.8e-4 2.178603,-0.51866 2.8125,-1.15625 L 245.71875,94.75 C 246.72038,93.742521 246.9999,93.024277 247,92 l 0,-8 c -1.8e-4,-1.762765 -2.23723,-3.999823 -4,-4 l -53,0 c -1.76277,1.77e-4 -3.99982,2.237235 -4,4 l 0,8 c 1.8e-4,1.762765 2.23723,3.999823 4,4 l 4,0 9.5,0 -6.65625,6.8125 -63,64 L 127,173.5 l 0,-9.5 0,-68 8,0 c 1.76277,-1.77e-4 3.99982,-2.237235 4,-4 l 0,-8 c -1.8e-4,-1.762765 -2.23723,-3.999823 -4,-4 z"
         id="path5164"
         inkscape:connector-curvature="0"
         sodipodi:nodetypes="ccccccccccccccccccccccccccccc" />
      <path
         inkscape:connector-curvature="0"
         style="color:#000000;fill:#808000;stroke:none;stroke-width:1;marker:none;visibility:visible;display:inline;overflow:visible;enable-background:accumulate"
         d="m -175,386 c -4.18868,4.2e-4 -7.99958,3.81132 -8,8 l 0,8 c 4.2e-4,4.18868 3.81132,7.99958 8,8 l 4,0 0,140 c 4.2e-4,4.18868 3.81132,7.99958 8,8 l 8.6875,0 c 2.09427,-4e-4 4.21734,-0.89645 5.65625,-2.34375 L -1.4375,407.5625 C 0.1592,405.95648 0.99979,404.09434 1,402 l 0,-8 c -4.2e-4,-4.18868 -3.81132,-7.99958 -8,-8 l -53,0 c -4.18868,4.2e-4 -7.99958,3.81132 -8,8 l 0,8 c 4.2e-4,4.18868 3.81132,7.99958 8,8 l 4,0 -63,64 0,-64 4,0 c 4.18868,-4.2e-4 7.99958,-3.81132 8,-8 l 0,-8 c -4.2e-4,-4.18868 -3.81132,-7.99958 -8,-8 l -60,0 z m 0,4 60,0 c 1.76277,1.8e-4 3.99982,2.23723 4,4 l 0,8 c -1.8e-4,1.76277 -2.23723,3.99982 -4,4 l -8,0 0,68 0,9.5 6.84375,-6.6875 63,-64 L -46.5,406 l -9.5,0 -4,0 c -1.76277,-1.8e-4 -3.99982,-2.23723 -4,-4 l 0,-8 c 1.8e-4,-1.76277 2.23723,-3.99982 4,-4 l 53,0 c 1.76277,1.8e-4 3.99982,2.23723 4,4 l 0,8 c -1e-4,1.02428 -0.27962,1.74252 -1.28125,2.75 L -151.5,552.84375 c -0.6339,0.63759 -1.85867,1.15607 -2.8125,1.15625 L -163,554 c -1.76277,-1.8e-4 -3.99982,-2.23723 -4,-4 l 0,-144 -8,0 c -1.76277,-1.8e-4 -3.99982,-2.23723 -4,-4 l 0,-8 c 1.8e-4,-1.76277 2.23723,-3.99982 4,-4 z"
         id="path3902-0-7-9-4-2-6" />
      <rect
         style="opacity:0.44101126;color:#000000;fill:#000080;fill-opacity:1;fill-rule:nonzero;stroke:none;stroke-width:1;marker:none;visibility:visible;display:inline;overflow:visible;enable-background:accumulate"
         id="rect5234"
         width="8"
         height="8"
         x="-183"
         y="386" />
      <path
         style="color:#000000;fill:#808000;stroke:none;stroke-width:1;marker:none;visibility:visible;display:inline;overflow:visible;enable-background:accumulate"
         d="m 75,386 c -4.18868,4.2e-4 -7.99958,3.81132 -8,8 l 4,0 c 1.8e-4,-1.76277 2.23723,-3.99982 4,-4 l 0,-4 z"
         id="path3902-0-7-9-4-2-6-1"
         inkscape:connector-curvature="0" />
      <path
         style="color:#000000;fill:#808000;stroke:none;stroke-width:1;marker:none;visibility:visible;display:inline;overflow:visible;enable-background:accumulate"
         d="m 135,386 c 4.18868,4.2e-4 7.99958,3.81132 8,8 l -4,0 c -1.8e-4,-1.76277 -2.23723,-3.99982 -4,-4 l 0,-4 z"
         id="path3902-0-7-9-4-2-6-1-3"
         inkscape:connector-curvature="0" />
      <path
         style="color:#000000;fill:#808000;stroke:none;stroke-width:1;marker:none;visibility:visible;display:inline;overflow:visible;enable-background:accumulate"
         d="m 127,406 0,77.5 4,-9.5 0,-64 z"
         id="path3902-0-7-9-4-2-6-0"
         inkscape:connector-curvature="0"
         sodipodi:nodetypes="ccccc" />
      <path
         style="color:#000000;fill:#808000;stroke:none;stroke-width:1;marker:none;visibility:visible;display:inline;overflow:visible;enable-background:accumulate"
         d="m 127,483.5 6.84375,-6.6875 63,-64 L 203.5,406 l -9.5,4 -63,64 z"
         id="path3902-0-7-9-4-2-6-0-9"
         inkscape:connector-curvature="0"
         sodipodi:nodetypes="ccccccc" />
      <path
         style="color:#000000;fill:#808000;stroke:none;stroke-width:1;marker:none;visibility:visible;display:inline;overflow:visible;enable-background:accumulate"
         d="m 190,386 c -4.18868,4.2e-4 -7.99958,3.81132 -8,8 l 4,0 c 1.8e-4,-1.76277 2.23723,-3.99982 4,-4 l 0,-4 z"
         id="path3902-0-7-9-4-2-6-1-0"
         inkscape:connector-curvature="0" />
      <path
         style="color:#000000;fill:#808000;stroke:none;stroke-width:1;marker:none;visibility:visible;display:inline;overflow:visible;enable-background:accumulate"
         d="m 243,386 c 4.18868,4.2e-4 7.99958,3.81132 8,8 l -4,0 c -1.8e-4,-1.76277 -2.23723,-3.99982 -4,-4 l 0,-4 z"
         id="path3902-0-7-9-4-2-6-1-3-0"
         inkscape:connector-curvature="0" />
      <path
         style="color:#000000;fill:#808000;stroke:none;stroke-width:1;marker:none;visibility:visible;display:inline;overflow:visible;enable-background:accumulate"
         d="m 139,402 c -1.8e-4,1.76277 -2.23723,3.99982 -4,4 l -8,0 4,4 4,0 c 4.18868,-4.2e-4 7.99958,-3.81132 8,-8 z"
         id="path3902-0-7-9-4-2-6-7"
         inkscape:connector-curvature="0"
         sodipodi:nodetypes="ccccccc" />
      <path
         style="color:#000000;fill:#808000;stroke:none;stroke-width:1;marker:none;visibility:visible;display:inline;overflow:visible;enable-background:accumulate"
         d="m 182,402 c 4.2e-4,4.18868 3.81132,7.99958 8,8 l 4,0 9.5,-4 -9.5,0 -4,0 c -1.76277,-1.8e-4 -3.99982,-2.23723 -4,-4 z"
         id="path3902-0-7-9-4-2-6-5"
         inkscape:connector-curvature="0"
         sodipodi:nodetypes="cccccccc" />
      <path
         style="color:#000000;fill:#808000;stroke:none;stroke-width:1;marker:none;visibility:visible;display:inline;overflow:visible;enable-background:accumulate"
         d="m 87,558 8.6875,0 c 2.09427,-4e-4 4.21734,-0.89645 5.65625,-2.34375 L 248.5625,407.5625 C 250.1592,405.95648 250.99979,404.09434 251,402 l 0,-8 -4,0 0,8 c -1e-4,1.02428 -0.27962,1.74252 -1.28125,2.75 L 98.5,552.84375 C 97.8661,553.48134 96.64133,553.99982 95.6875,554 L 87,554 z"
         id="path3902-0-7-9-4-2-6-4"
         inkscape:connector-curvature="0"
         sodipodi:nodetypes="ccccccccccccc" />
      <path
         style="color:#000000;fill:#808000;stroke:none;stroke-width:1;marker:none;visibility:visible;display:inline;overflow:visible;enable-background:accumulate"
         d="m 79,550 c 4.2e-4,4.18868 3.81132,7.99958 8,8 l 0,-4 c -1.76277,-1.8e-4 -3.99982,-2.23723 -4,-4 z"
         id="path3902-0-7-9-4-2-6-4-6"
         inkscape:connector-curvature="0"
         sodipodi:nodetypes="ccccc" />
      <path
         style="color:#000000;fill:#808000;stroke:none;stroke-width:1;marker:none;visibility:visible;display:inline;overflow:visible;enable-background:accumulate"
         d="m 127,406 0,77.5 4,-9.5 0,-64 z"
         id="path3902-0-7-9-4-2-6-0-7"
         inkscape:connector-curvature="0"
         sodipodi:nodetypes="ccccc" />
      <path
         style="color:#000000;fill:#808000;stroke:none;stroke-width:1;marker:none;visibility:visible;display:inline;overflow:visible;enable-background:accumulate"
         d="m 67,402 c 4.2e-4,4.18868 3.81132,7.99958 8,8 l 4,0 4,-4 -8,0 c -1.76277,-1.8e-4 -3.99982,-2.23723 -4,-4 z"
         id="path3902-0-7-9-4-2-6-2"
         inkscape:connector-curvature="0"
         sodipodi:nodetypes="ccccccc" />
    </g>
  </g>
  <g
     inkscape:groupmode="layer"
     id="layer3"
     inkscape:label="*junk"
     style="display:none">
    <rect
       y="130.01073"
       x="339.12067"
       height="155.75735"
       width="155.75735"
       id="use3787"
       style="opacity:0.56460673;color:#000000;fill:#0000ff;stroke:none;stroke-width:1.79999995;marker:none;visibility:visible;display:inline;overflow:visible;enable-background:accumulate"
       transform="matrix(0.70710678,0.70710678,-0.70710678,0.70710678,0,0)" />
    <rect
       style="opacity:0.56460673;color:#000000;fill:#0000ff;fill-opacity:1;fill-rule:nonzero;stroke:none;stroke-width:1.79999995;marker:none;visibility:visible;display:inline;overflow:visible;enable-background:accumulate"
       id="rect3791"
       width="76"
       height="24"
       x="64"
       y="-144" />
    <rect
       style="opacity:0.56460673;color:#000000;fill:#0000ff;fill-opacity:1;fill-rule:nonzero;stroke:none;stroke-width:1.79999995;marker:none;visibility:visible;display:inline;overflow:visible;enable-background:accumulate"
       id="rect3791-1"
       width="52"
       height="92"
       x="76"
       y="-120" />
    <rect
       style="opacity:0.56460673;color:#000000;fill:#0000ff;fill-opacity:1;fill-rule:nonzero;stroke:none;stroke-width:1.79999995;marker:none;visibility:visible;display:inline;overflow:visible;enable-background:accumulate"
       id="rect3791-1-4"
       width="52"
       height="209.3036"
       x="72"
       y="-169.70564"
       transform="matrix(1,0,-0.70710678,0.70710678,0,0)" />
    <rect
       style="opacity:0.56460673;color:#000000;fill:#0000ff;fill-opacity:1;fill-rule:nonzero;stroke:none;stroke-width:1.79999995;marker:none;visibility:visible;display:inline;overflow:visible;enable-background:accumulate"
       id="rect3791-5"
       width="76"
       height="24"
       x="180"
       y="-144" />
    <path
       style="color:#000000;fill:#000000;fill-opacity:1;fill-rule:nonzero;stroke:#000000;stroke-width:4;stroke-miterlimit:4;stroke-dasharray:none;marker:none;visibility:visible;display:inline;overflow:visible;enable-background:accumulate"
       d="m -275,76 c -4.18868,4.2e-4 -7.99958,3.81132 -8,8 l 0,8 c 4.2e-4,4.18868 3.81132,7.99958 8,8 l 4,0 0,140 c 4.2e-4,4.18868 3.81132,7.99958 8,8 l 8.6875,0 c 2.09427,-4e-4 4.21734,-0.89645 5.65625,-2.34375 L -101.4294,97.5706 C -99.8327,95.96458 -99.00021,94.09434 -99,92 l 0,-8 c -4.2e-4,-4.18868 -3.81132,-7.99958 -8,-8 l -53,0 c -4.18868,4.2e-4 -7.99958,3.81132 -8,8 l 0,8 c 4.2e-4,4.18868 3.81132,7.99958 8,8 l 4,0 -63,64 0,-64 4,0 c 4.18868,-4.2e-4 7.99958,-3.81132 8,-8 l 0,-8 c -4.2e-4,-4.18868 -3.81132,-7.99958 -8,-8 z"
       id="path3902-9"
       inkscape:connector-curvature="0"
       sodipodi:nodetypes="ccccccccssccccccccccccccc" />
    <path
       style="color:#000000;fill:#ffffff;fill-opacity:1;fill-rule:nonzero;stroke:none;stroke-width:1.79999995;marker:none;visibility:visible;display:inline;overflow:visible;enable-background:accumulate"
       d="m -275,76 c -4.18868,4.2e-4 -7.99958,3.81132 -8,8 l 0,8 c 4.2e-4,4.18868 3.81132,7.99958 8,8 l 4,0 0,140 c 4.2e-4,4.18868 3.81132,7.99958 8,8 l 8.6875,0 c 2.09427,-4e-4 4.21734,-0.89645 5.65625,-2.34375 L -101.4294,97.5706 C -99.8327,95.96458 -99.00021,94.09434 -99,92 l 0,-8 c -4.2e-4,-4.18868 -3.81132,-7.99958 -8,-8 l -53,0 c -4.18868,4.2e-4 -7.99958,3.81132 -8,8 l 0,8 c 4.2e-4,4.18868 3.81132,7.99958 8,8 l 4,0 -63,64 0,-64 4,0 c 4.18868,-4.2e-4 7.99958,-3.81132 8,-8 l 0,-8 c -4.2e-4,-4.18868 -3.81132,-7.99958 -8,-8 z"
       id="path3902"
       inkscape:connector-curvature="0"
       sodipodi:nodetypes="ccccccccssccccccccccccccc" />
    <text
       xml:space="preserve"
       style="font-size:88.8888855px;font-style:normal;font-variant:normal;font-weight:bold;font-stretch:normal;line-height:125%;letter-spacing:0px;word-spacing:0px;fill:#000000;fill-opacity:1;stroke:#000000;stroke-width:4;stroke-miterlimit:4;stroke-dasharray:none;display:inline;enable-background:new;font-family:Quicksand;-inkscape-font-specification:Sans Bold"
       x="-213.36293"
       y="473.85004"
       id="text3923-6"
       sodipodi:linespacing="125%"
       transform="scale(1.0125,0.98765432)"><tspan
         sodipodi:role="line"
         id="tspan3925-3"
         x="-213.36293"
         y="473.85004"
         style="font-size:88.8888855px;font-style:italic;font-variant:normal;font-weight:600;font-stretch:normal;fill:#000000;stroke:#000000;stroke-width:4;stroke-miterlimit:4;stroke-dasharray:none;font-family:FreeSans;-inkscape-font-specification:FreeSans Semi-Bold Italic">im</tspan></text>
    <text
       xml:space="preserve"
       style="font-size:88.8888855px;font-style:normal;font-variant:normal;font-weight:bold;font-stretch:normal;line-height:125%;letter-spacing:0px;word-spacing:0px;fill:#ffffff;fill-opacity:1;stroke:none;display:inline;enable-background:new;font-family:Quicksand;-inkscape-font-specification:Sans Bold"
       x="-213.36293"
       y="473.85004"
       id="text3923"
       sodipodi:linespacing="125%"
       transform="scale(1.0125,0.98765432)"><tspan
         sodipodi:role="line"
         id="tspan3925"
         x="-213.36293"
         y="473.85004"
         style="font-size:88.8888855px;font-style:italic;font-variant:normal;font-weight:600;font-stretch:normal;fill:#ffffff;font-family:FreeSans;-inkscape-font-specification:FreeSans Semi-Bold Italic">im</tspan></text>
    <text
       xml:space="preserve"
       style="font-size:100.83498383px;font-style:normal;font-variant:normal;font-weight:bold;font-stretch:normal;line-height:125%;letter-spacing:0px;word-spacing:0px;fill:#000000;fill-opacity:1;stroke:#000000;stroke-width:4;stroke-miterlimit:4;stroke-dasharray:none;display:inline;enable-background:new;font-family:Quicksand;-inkscape-font-specification:Sans Bold"
       x="-202.49094"
       y="260.49036"
       id="text4386-9"
       sodipodi:linespacing="125%"
       transform="scale(1.0503644,0.95205055)"><tspan
         sodipodi:role="line"
         id="tspan4388-3"
         x="-202.49094"
         y="260.49036"
         style="font-size:100.83498383px;font-style:italic;font-variant:normal;font-weight:bold;font-stretch:normal;stroke:#000000;stroke-width:4;stroke-miterlimit:4;stroke-dasharray:none;font-family:Liberation Serif;-inkscape-font-specification:Liberation Serif Bold Italic">im</tspan></text>
    <text
       xml:space="preserve"
       style="font-size:100.83498383px;font-style:normal;font-variant:normal;font-weight:bold;font-stretch:normal;line-height:125%;letter-spacing:0px;word-spacing:0px;fill:#ffffff;fill-opacity:1;stroke:none;display:inline;enable-background:new;font-family:Quicksand;-inkscape-font-specification:Sans Bold"
       x="-202.49094"
       y="260.49036"
       id="text4386"
       sodipodi:linespacing="125%"
       transform="scale(1.0503644,0.95205055)"><tspan
         sodipodi:role="line"
         id="tspan4388"
         x="-202.49094"
         y="260.49036"
         style="font-size:100.83498383px;font-style:italic;font-variant:normal;font-weight:bold;font-stretch:normal;fill:#ffffff;font-family:Liberation Serif;-inkscape-font-specification:Liberation Serif Bold Italic">im</tspan></text>
    <g
       transform="translate(2.8268218e-6,-8.625359e-7)"
       style="display:inline;enable-background:new"
       id="g4640">
      <text
         transform="scale(1.0503644,0.95205055)"
         sodipodi:linespacing="125%"
         id="text4386-9-4"
         y="260.49036"
         x="130.72679"
         style="font-size:100.83498383px;font-style:normal;font-variant:normal;font-weight:bold;font-stretch:normal;line-height:125%;letter-spacing:0px;word-spacing:0px;fill:#000000;fill-opacity:1;stroke:#000000;stroke-width:4;stroke-miterlimit:4;stroke-dasharray:none;display:inline;enable-background:new;font-family:Quicksand;-inkscape-font-specification:Sans Bold"
         xml:space="preserve"><tspan
           style="font-size:100.83498383px;font-style:italic;font-variant:normal;font-weight:bold;font-stretch:normal;stroke:#000000;stroke-width:4;stroke-miterlimit:4;stroke-dasharray:none;font-family:Liberation Serif;-inkscape-font-specification:Liberation Serif Bold Italic"
           y="260.49036"
           x="130.72679"
           id="tspan4388-3-4"
           sodipodi:role="line">im</tspan></text>
      <text
         transform="scale(1.0503644,0.95205055)"
         sodipodi:linespacing="125%"
         id="text4386-6"
         y="260.49036"
         x="130.72679"
         style="font-size:100.83498383px;font-style:normal;font-variant:normal;font-weight:bold;font-stretch:normal;line-height:125%;letter-spacing:0px;word-spacing:0px;fill:#ffffff;fill-opacity:1;stroke:none;display:inline;enable-background:new;font-family:Quicksand;-inkscape-font-specification:Sans Bold"
         xml:space="preserve"><tspan
           style="font-size:100.83498383px;font-style:italic;font-variant:normal;font-weight:bold;font-stretch:normal;fill:#ffffff;font-family:Liberation Serif;-inkscape-font-specification:Liberation Serif Bold Italic"
           y="260.49036"
           x="130.72679"
           id="tspan4388-6"
           sodipodi:role="line">im</tspan></text>
    </g>
    <path
       style="color:#000000;fill:#babdb6;fill-opacity:1;fill-rule:nonzero;stroke:none;stroke-width:1.79999995;marker:none;visibility:visible;display:inline;overflow:visible;enable-background:accumulate"
       d="m 75,76 c -4.18868,4.2e-4 -7.99958,3.81132 -8,8 l 0,8 c 4.2e-4,4.18868 3.81132,7.99958 8,8 l 4,0 0,140 c 4.2e-4,4.18868 3.81132,7.99958 8,8 l 8.6875,0 c 2.09427,-4e-4 4.21734,-0.89645 5.65625,-2.34375 L 248.5706,97.5706 C 250.1673,95.96458 250.99979,94.09434 251,92 l 0,-8 c -4.2e-4,-4.18868 -3.81132,-7.99958 -8,-8 l -53,0 c -4.18868,4.2e-4 -7.99958,3.81132 -8,8 l 0,8 c 4.2e-4,4.18868 3.81132,7.99958 8,8 l 4,0 -63,64 0,-64 4,0 c 4.18868,-4.2e-4 7.99958,-3.81132 8,-8 l 0,-8 c -4.2e-4,-4.18868 -3.81132,-7.99958 -8,-8 z"
       id="path3902-0"
       inkscape:connector-curvature="0"
       sodipodi:nodetypes="ccccccccssccccccccccccccc" />
  </g>
  <g
     inkscape:groupmode="layer"
     id="layer6"
     inkscape:label="pic"
     sodipodi:insensitive="true"
     style="display:none">
    <image
       y="57"
       x="-51"
       id="image3012"
       xlink:href="file:///home/lapo/Immagini/vim_header.gif"
       height="215"
       width="860"
       style="opacity:0.56460673;display:inline;enable-background:new" />
  </g>
</svg>
