<?xml version="1.0" encoding="UTF-8" standalone="no"?>
<!-- Created with Inkscape (http://www.inkscape.org/) -->

<svg
   xmlns:dc="http://purl.org/dc/elements/1.1/"
   xmlns:cc="http://creativecommons.org/ns#"
   xmlns:rdf="http://www.w3.org/1999/02/22-rdf-syntax-ns#"
   xmlns:svg="http://www.w3.org/2000/svg"
   xmlns="http://www.w3.org/2000/svg"
   xmlns:xlink="http://www.w3.org/1999/xlink"
   xmlns:sodipodi="http://sodipodi.sourceforge.net/DTD/sodipodi-0.dtd"
   xmlns:inkscape="http://www.inkscape.org/namespaces/inkscape"
   inkscape:export-ydpi="90.000000"
   inkscape:export-xdpi="90.000000"
   inkscape:export-filename="/home/lapo/firewall.png"
   width="400"
   height="300"
   id="svg11300"
   sodipodi:version="0.32"
   inkscape:version="0.48.4 r9939"
   sodipodi:docname="gvim.svg"
   inkscape:output_extension="org.inkscape.output.svg.inkscape"
   version="1.0"
   style="display:inline;enable-background:new">
  <title
     id="title4872">Firewall</title>
  <sodipodi:namedview
     stroke="#ef2929"
     fill="#f57900"
     id="base"
     pagecolor="#474747"
     bordercolor="#666666"
     borderopacity="0.25490196"
     inkscape:pageopacity="0"
     inkscape:pageshadow="2"
     inkscape:zoom="1"
     inkscape:cx="32.647195"
     inkscape:cy="72.017756"
     inkscape:current-layer="layer5"
     showgrid="false"
     inkscape:grid-bbox="true"
     inkscape:document-units="px"
     inkscape:showpageshadow="false"
     inkscape:window-width="1030"
     inkscape:window-height="866"
     inkscape:window-x="294"
     inkscape:window-y="102"
     width="400px"
     height="300px"
     inkscape:snap-nodes="false"
     inkscape:snap-bbox="true"
     gridtolerance="10000"
     inkscape:object-nodes="true"
     inkscape:snap-grids="true"
     showguides="false"
     inkscape:guide-bbox="true"
     inkscape:window-maximized="0">
    <inkscape:grid
       spacingy="1px"
       spacingx="1px"
       id="grid5883"
       type="xygrid"
       enabled="true"
       visible="true"
       empspacing="4"
       snapvisiblegridlinesonly="true" />
    <inkscape:grid
       type="xygrid"
       id="grid11592"
       empspacing="2"
       visible="true"
       enabled="false"
       spacingx="0.5px"
       spacingy="0.5px"
       color="#ff0000"
       opacity="0.1254902"
       empcolor="#ff0000"
       empopacity="0.25098039"
       snapvisiblegridlinesonly="true" />
    <sodipodi:guide
       orientation="-0.70710678,0.70710678"
       position="309.8125,173.625"
       id="guide9630" />
    <sodipodi:guide
       orientation="0,1"
       position="-304,212"
       id="guide3899" />
  </sodipodi:namedview>
  <defs
     id="defs3" />
  <metadata
     id="metadata4">
    <rdf:RDF>
      <cc:Work
         rdf:about="">
        <dc:format>image/svg+xml</dc:format>
        <dc:type
           rdf:resource="http://purl.org/dc/dcmitype/StillImage" />
        <dc:creator>
          <cc:Agent>
            <dc:title>Lapo Calamandrei</dc:title>
          </cc:Agent>
        </dc:creator>
        <dc:source />
        <cc:license
           rdf:resource="" />
        <dc:title>Firewall</dc:title>
        <dc:subject>
          <rdf:Bag />
        </dc:subject>
        <dc:date />
        <dc:rights>
          <cc:Agent>
            <dc:title />
          </cc:Agent>
        </dc:rights>
        <dc:publisher>
          <cc:Agent>
            <dc:title />
          </cc:Agent>
        </dc:publisher>
        <dc:identifier />
        <dc:relation />
        <dc:language />
        <dc:coverage />
        <dc:description />
        <dc:contributor>
          <cc:Agent>
            <dc:title />
          </cc:Agent>
        </dc:contributor>
      </cc:Work>
      <cc:Work
         rdf:about="">
        <dc:format>image/svg+xml</dc:format>
        <dc:type
           rdf:resource="http://purl.org/dc/dcmitype/StillImage" />
      </cc:Work>
    </rdf:RDF>
  </metadata>
  <g
     style="display:inline"
     inkscape:groupmode="layer"
     inkscape:label="artwork"
     id="layer1">
    <g
       inkscape:groupmode="layer"
       id="layer2"
       inkscape:label="baseplate"
       style="display:inline">
      <rect
         style="fill:#eeeeec;fill-opacity:1;fill-rule:nonzero;stroke:none;stroke-width:2;marker:none;visibility:visible;display:inline;overflow:visible;enable-background:accumulate"
         id="rect6284"
         width="48"
         height="48"
         x="296.0625"
         y="52"
         inkscape:label="48x48" />
      <rect
         inkscape:label="32x32"
         y="128"
         x="303"
         height="32"
         width="32"
         id="rect6592"
         style="fill:#eeeeec;fill-opacity:1;fill-rule:nonzero;stroke:none;stroke-width:2;marker:none;visibility:visible;display:inline;overflow:visible;enable-background:accumulate" />
      <rect
         inkscape:label="24x24"
         y="178"
         x="302"
         height="24"
         width="24"
         id="rect5028"
         style="fill:#ffffff;fill-opacity:1;fill-rule:nonzero;stroke:none;stroke-width:2;marker:none;visibility:visible;display:inline;overflow:visible;enable-background:accumulate" />
      <rect
         inkscape:label="16x16"
         y="221"
         x="303"
         height="16"
         width="16"
         id="rect6833"
         style="fill:#eeeeec;fill-opacity:1;fill-rule:nonzero;stroke:none;stroke-width:2;marker:none;visibility:visible;display:inline;overflow:visible;enable-background:accumulate" />
      <rect
         style="fill:#eeeeec;fill-opacity:1;fill-rule:nonzero;stroke:none;stroke-width:2;marker:none;visibility:visible;display:inline;overflow:visible;enable-background:accumulate"
         id="rect6749"
         width="22"
         height="22"
         x="303"
         y="179"
         inkscape:label="22x22" />
      <text
         id="context"
         inkscape:label="context"
         style="font-size:18px;font-style:normal;font-variant:normal;font-weight:normal;font-stretch:normal;fill:#000000;fill-opacity:1;stroke:none;display:inline;enable-background:new;font-family:DejaVu Sans;-inkscape-font-specification:DejaVu Sans"
         x="31.87059"
         xml:space="preserve"
         y="18.860306"><tspan
           id="tspan2716"
           sodipodi:role="line"
           x="31.87059"
           y="18.860306"
           style="font-style:normal;font-variant:normal;font-weight:normal;font-stretch:normal;font-family:DejaVu Sans;-inkscape-font-specification:DejaVu Sans">context</tspan></text>
      <text
         id="icon-name"
         inkscape:label="icon-name"
         sodipodi:linespacing="125%"
         style="font-size:18px;font-style:normal;font-variant:normal;font-weight:bold;font-stretch:normal;text-align:start;line-height:125%;writing-mode:lr-tb;text-anchor:start;fill:#000000;fill-opacity:1;stroke:none;display:inline;enable-background:new;font-family:DejaVu Sans;-inkscape-font-specification:DejaVu Sans Bold"
         x="302.87057"
         xml:space="preserve"
         y="18.860306"><tspan
           id="tspan3023"
           sodipodi:role="line"
           x="302.87057"
           y="18.860306"
           style="font-size:18px;font-style:normal;font-variant:normal;font-weight:bold;font-stretch:normal;font-family:DejaVu Sans;-inkscape-font-specification:DejaVu Sans Bold">name</tspan></text>
      <rect
         inkscape:label="256x256"
         y="32"
         x="20"
         height="256"
         width="256"
         id="rect6282"
         style="fill:#eeeeec;fill-opacity:1;fill-rule:nonzero;stroke:none;stroke-width:2;marker:none;visibility:visible;display:inline;overflow:visible;enable-background:accumulate"
         inkscape:export-xdpi="90"
         inkscape:export-ydpi="90" />
      <path
         inkscape:connector-curvature="0"
         id="path125377"
         d="m 20,32 0,256 256,0 0,-256 -18,0 0,238 -220,0 0,-238 z"
         style="opacity:0.4510002;fill:#3465a4;fill-opacity:1;fill-rule:nonzero;stroke:none;stroke-width:2;marker:none;visibility:visible;display:inline;overflow:visible;enable-background:accumulate"
         sodipodi:nodetypes="ccccccccc" />
    </g>
    <g
       inkscape:groupmode="layer"
       id="layer4"
       inkscape:label="smallsizes"
       style="display:inline">
      <g
         id="g6154"
         style="fill:#ffffff"
         transform="matrix(1.25,0,0,1.25,-78,-47.25)" />
    </g>
    <g
       inkscape:groupmode="layer"
       id="layer5"
       inkscape:label="hires"
       style="display:inline">
      <g
         id="g8198"
         transform="matrix(5.0928038,0,0,2.2388776,20.301687,129.4805)"
         style="opacity:0.4" />
      <g
         id="g8230"
         inkscape:label="base"
         style="display:inline"
         transform="matrix(4.8890868,0,0,4.8890868,322.06038,251.81989)" />
      <path
         sodipodi:type="inkscape:offset"
         inkscape:radius="-1.0153296"
         inkscape:original="M 711.96875 227 C 709.68001 227.00001 707.67461 227.86289 706.5 229.1875 L 706.5 231.625 C 706.5 232.11623 706.8838 232.5 707.375 232.5 L 716.625 232.5 C 717.11622 232.50001 717.5 232.11622 717.5 231.625 L 717.5 229.25 C 716.33242 227.89578 714.28785 227 711.96875 227 z "
         style="opacity:0.35;fill:none;stroke:#ffffff;stroke-width:1;stroke-linecap:butt;stroke-linejoin:miter;stroke-miterlimit:4;stroke-opacity:1;stroke-dasharray:none;stroke-dashoffset:0;marker:none;visibility:visible;display:inline;overflow:visible;enable-background:accumulate"
         id="path5171-2"
         d="m 711.96875,228 c -1.90789,1e-5 -3.49694,0.75848 -4.46875,1.71875 l 0,1.78125 9,0 0,-1.75 c -0.96562,-0.98703 -2.59089,-1.75 -4.53125,-1.75 z"
         transform="translate(-7.8685593e-7,2.029528e-6)" />
      <rect
         y="-69.393379"
         x="139.71634"
         height="155.75735"
         width="155.75735"
         id="use3787-2"
         style="opacity:0.56460673;color:#000000;fill:#0000ff;stroke:none;stroke-width:1.79999995;marker:none;visibility:visible;display:inline;overflow:visible;enable-background:accumulate"
         transform="matrix(0.70710678,0.70710678,-0.70710678,0.70710678,0,0)" />
      <path
         style="color:#000000;fill:#000000;fill-opacity:1;fill-rule:nonzero;stroke:#000000;stroke-width:4;stroke-miterlimit:4;stroke-dasharray:none;marker:none;visibility:visible;display:inline;overflow:visible;enable-background:accumulate"
         d="m 75,76 c -4.18868,4.2e-4 -7.99958,3.81132 -8,8 l 0,8 c 4.2e-4,4.18868 3.81132,7.99958 8,8 l 4,0 0,140 c 4.2e-4,4.18868 3.81132,7.99958 8,8 l 8.6875,0 c 2.09427,-4e-4 4.21734,-0.89645 5.65625,-2.34375 L 248.5706,97.5706 C 250.1673,95.96458 250.99979,94.09434 251,92 l 0,-8 c -4.2e-4,-4.18868 -3.81132,-7.99958 -8,-8 l -53,0 c -4.18868,4.2e-4 -7.99958,3.81132 -8,8 l 0,8 c 4.2e-4,4.18868 3.81132,7.99958 8,8 l 4,0 -63,64 0,-64 4,0 c 4.18868,-4.2e-4 7.99958,-3.81132 8,-8 l 0,-8 c -4.2e-4,-4.18868 -3.81132,-7.99958 -8,-8 z"
         id="path3902-9-8"
         inkscape:connector-curvature="0"
         sodipodi:nodetypes="ccccccccssccccccccccccccc" />
      <path
         style="color:#000000;fill:#ffffff;fill-opacity:1;fill-rule:nonzero;stroke:none;stroke-width:1.79999995;marker:none;visibility:visible;display:inline;overflow:visible;enable-background:accumulate"
         d="m 75,76 c -4.18868,4.2e-4 -7.99958,3.81132 -8,8 l 0,8 c 4.2e-4,4.18868 3.81132,7.99958 8,8 l 4,0 0,140 c 4.2e-4,4.18868 3.81132,7.99958 8,8 l 8.6875,0 c 2.09427,-4e-4 4.21734,-0.89645 5.65625,-2.34375 L 248.5706,97.5706 C 250.1673,95.96458 250.99979,94.09434 251,92 l 0,-8 c -4.2e-4,-4.18868 -3.81132,-7.99958 -8,-8 l -53,0 c -4.18868,4.2e-4 -7.99958,3.81132 -8,8 l 0,8 c 4.2e-4,4.18868 3.81132,7.99958 8,8 l 4,0 -63,64 0,-64 4,0 c 4.18868,-4.2e-4 7.99958,-3.81132 8,-8 l 0,-8 c -4.2e-4,-4.18868 -3.81132,-7.99958 -8,-8 z"
         id="path3902-0"
         inkscape:connector-curvature="0"
         sodipodi:nodetypes="ccccccccssccccccccccccccc" />
      <text
         xml:space="preserve"
         style="font-size:100.83498383px;font-style:normal;font-variant:normal;font-weight:bold;font-stretch:normal;line-height:125%;letter-spacing:0px;word-spacing:0px;fill:#000000;fill-opacity:1;stroke:#000000;stroke-width:4;stroke-miterlimit:4;stroke-dasharray:none;display:inline;enable-background:new;font-family:Quicksand;-inkscape-font-specification:Sans Bold"
         x="130.72679"
         y="260.49036"
         id="text4386-9-4"
         sodipodi:linespacing="125%"
         transform="scale(1.0503644,0.95205055)"><tspan
           sodipodi:role="line"
           id="tspan4388-3-4"
           x="130.72679"
           y="260.49036"
           style="font-size:100.83498383px;font-style:italic;font-variant:normal;font-weight:bold;font-stretch:normal;stroke:#000000;stroke-width:4;stroke-miterlimit:4;stroke-dasharray:none;font-family:Liberation Serif;-inkscape-font-specification:Liberation Serif Bold Italic">im</tspan></text>
      <text
         xml:space="preserve"
         style="font-size:100.83498383px;font-style:normal;font-variant:normal;font-weight:bold;font-stretch:normal;line-height:125%;letter-spacing:0px;word-spacing:0px;fill:#ffffff;fill-opacity:1;stroke:none;display:inline;enable-background:new;font-family:Quicksand;-inkscape-font-specification:Sans Bold"
         x="130.72679"
         y="260.49036"
         id="text4386-6"
         sodipodi:linespacing="125%"
         transform="scale(1.0503644,0.95205055)"><tspan
           sodipodi:role="line"
           id="tspan4388-6"
           x="130.72679"
           y="260.49036"
           style="font-size:100.83498383px;font-style:italic;font-variant:normal;font-weight:bold;font-stretch:normal;fill:#ffffff;font-family:Liberation Serif;-inkscape-font-specification:Liberation Serif Bold Italic">im</tspan></text>
    </g>
  </g>
  <g
     inkscape:groupmode="layer"
     id="layer3"
     inkscape:label="*junk"
     style="display:none">
    <rect
       y="130.01073"
       x="339.12067"
       height="155.75735"
       width="155.75735"
       id="use3787"
       style="opacity:0.56460673;color:#000000;fill:#0000ff;stroke:none;stroke-width:1.79999995;marker:none;visibility:visible;display:inline;overflow:visible;enable-background:accumulate"
       transform="matrix(0.70710678,0.70710678,-0.70710678,0.70710678,0,0)" />
    <rect
       style="opacity:0.56460673;color:#000000;fill:#0000ff;fill-opacity:1;fill-rule:nonzero;stroke:none;stroke-width:1.79999995;marker:none;visibility:visible;display:inline;overflow:visible;enable-background:accumulate"
       id="rect3791"
       width="76"
       height="24"
       x="64"
       y="-144" />
    <rect
       style="opacity:0.56460673;color:#000000;fill:#0000ff;fill-opacity:1;fill-rule:nonzero;stroke:none;stroke-width:1.79999995;marker:none;visibility:visible;display:inline;overflow:visible;enable-background:accumulate"
       id="rect3791-1"
       width="52"
       height="92"
       x="76"
       y="-120" />
    <rect
       style="opacity:0.56460673;color:#000000;fill:#0000ff;fill-opacity:1;fill-rule:nonzero;stroke:none;stroke-width:1.79999995;marker:none;visibility:visible;display:inline;overflow:visible;enable-background:accumulate"
       id="rect3791-1-4"
       width="52"
       height="209.3036"
       x="72"
       y="-169.70564"
       transform="matrix(1,0,-0.70710678,0.70710678,0,0)" />
    <rect
       style="opacity:0.56460673;color:#000000;fill:#0000ff;fill-opacity:1;fill-rule:nonzero;stroke:none;stroke-width:1.79999995;marker:none;visibility:visible;display:inline;overflow:visible;enable-background:accumulate"
       id="rect3791-5"
       width="76"
       height="24"
       x="180"
       y="-144" />
    <path
       style="color:#000000;fill:#000000;fill-opacity:1;fill-rule:nonzero;stroke:#000000;stroke-width:4;stroke-miterlimit:4;stroke-dasharray:none;marker:none;visibility:visible;display:inline;overflow:visible;enable-background:accumulate"
       d="m -275,76 c -4.18868,4.2e-4 -7.99958,3.81132 -8,8 l 0,8 c 4.2e-4,4.18868 3.81132,7.99958 8,8 l 4,0 0,140 c 4.2e-4,4.18868 3.81132,7.99958 8,8 l 8.6875,0 c 2.09427,-4e-4 4.21734,-0.89645 5.65625,-2.34375 L -101.4294,97.5706 C -99.8327,95.96458 -99.00021,94.09434 -99,92 l 0,-8 c -4.2e-4,-4.18868 -3.81132,-7.99958 -8,-8 l -53,0 c -4.18868,4.2e-4 -7.99958,3.81132 -8,8 l 0,8 c 4.2e-4,4.18868 3.81132,7.99958 8,8 l 4,0 -63,64 0,-64 4,0 c 4.18868,-4.2e-4 7.99958,-3.81132 8,-8 l 0,-8 c -4.2e-4,-4.18868 -3.81132,-7.99958 -8,-8 z"
       id="path3902-9"
       inkscape:connector-curvature="0"
       sodipodi:nodetypes="ccccccccssccccccccccccccc" />
    <path
       style="color:#000000;fill:#ffffff;fill-opacity:1;fill-rule:nonzero;stroke:none;stroke-width:1.79999995;marker:none;visibility:visible;display:inline;overflow:visible;enable-background:accumulate"
       d="m -275,76 c -4.18868,4.2e-4 -7.99958,3.81132 -8,8 l 0,8 c 4.2e-4,4.18868 3.81132,7.99958 8,8 l 4,0 0,140 c 4.2e-4,4.18868 3.81132,7.99958 8,8 l 8.6875,0 c 2.09427,-4e-4 4.21734,-0.89645 5.65625,-2.34375 L -101.4294,97.5706 C -99.8327,95.96458 -99.00021,94.09434 -99,92 l 0,-8 c -4.2e-4,-4.18868 -3.81132,-7.99958 -8,-8 l -53,0 c -4.18868,4.2e-4 -7.99958,3.81132 -8,8 l 0,8 c 4.2e-4,4.18868 3.81132,7.99958 8,8 l 4,0 -63,64 0,-64 4,0 c 4.18868,-4.2e-4 7.99958,-3.81132 8,-8 l 0,-8 c -4.2e-4,-4.18868 -3.81132,-7.99958 -8,-8 z"
       id="path3902"
       inkscape:connector-curvature="0"
       sodipodi:nodetypes="ccccccccssccccccccccccccc" />
    <text
       xml:space="preserve"
       style="font-size:88.8888855px;font-style:normal;font-variant:normal;font-weight:bold;font-stretch:normal;line-height:125%;letter-spacing:0px;word-spacing:0px;fill:#000000;fill-opacity:1;stroke:#000000;stroke-width:4;stroke-miterlimit:4;stroke-dasharray:none;display:inline;enable-background:new;font-family:Quicksand;-inkscape-font-specification:Sans Bold"
       x="-213.36293"
       y="473.85004"
       id="text3923-6"
       sodipodi:linespacing="125%"
       transform="scale(1.0125,0.98765432)"><tspan
         sodipodi:role="line"
         id="tspan3925-3"
         x="-213.36293"
         y="473.85004"
         style="font-size:88.8888855px;font-style:italic;font-variant:normal;font-weight:600;font-stretch:normal;fill:#000000;stroke:#000000;stroke-width:4;stroke-miterlimit:4;stroke-dasharray:none;font-family:FreeSans;-inkscape-font-specification:FreeSans Semi-Bold Italic">im</tspan></text>
    <text
       xml:space="preserve"
       style="font-size:88.8888855px;font-style:normal;font-variant:normal;font-weight:bold;font-stretch:normal;line-height:125%;letter-spacing:0px;word-spacing:0px;fill:#ffffff;fill-opacity:1;stroke:none;display:inline;enable-background:new;font-family:Quicksand;-inkscape-font-specification:Sans Bold"
       x="-213.36293"
       y="473.85004"
       id="text3923"
       sodipodi:linespacing="125%"
       transform="scale(1.0125,0.98765432)"><tspan
         sodipodi:role="line"
         id="tspan3925"
         x="-213.36293"
         y="473.85004"
         style="font-size:88.8888855px;font-style:italic;font-variant:normal;font-weight:600;font-stretch:normal;fill:#ffffff;font-family:FreeSans;-inkscape-font-specification:FreeSans Semi-Bold Italic">im</tspan></text>
    <text
       xml:space="preserve"
       style="font-size:100.83498383px;font-style:normal;font-variant:normal;font-weight:bold;font-stretch:normal;line-height:125%;letter-spacing:0px;word-spacing:0px;fill:#000000;fill-opacity:1;stroke:#000000;stroke-width:4;stroke-miterlimit:4;stroke-dasharray:none;display:inline;enable-background:new;font-family:Quicksand;-inkscape-font-specification:Sans Bold"
       x="-202.49094"
       y="260.49036"
       id="text4386-9"
       sodipodi:linespacing="125%"
       transform="scale(1.0503644,0.95205055)"><tspan
         sodipodi:role="line"
         id="tspan4388-3"
         x="-202.49094"
         y="260.49036"
         style="font-size:100.83498383px;font-style:italic;font-variant:normal;font-weight:bold;font-stretch:normal;stroke:#000000;stroke-width:4;stroke-miterlimit:4;stroke-dasharray:none;font-family:Liberation Serif;-inkscape-font-specification:Liberation Serif Bold Italic">im</tspan></text>
    <text
       xml:space="preserve"
       style="font-size:100.83498383px;font-style:normal;font-variant:normal;font-weight:bold;font-stretch:normal;line-height:125%;letter-spacing:0px;word-spacing:0px;fill:#ffffff;fill-opacity:1;stroke:none;display:inline;enable-background:new;font-family:Quicksand;-inkscape-font-specification:Sans Bold"
       x="-202.49094"
       y="260.49036"
       id="text4386"
       sodipodi:linespacing="125%"
       transform="scale(1.0503644,0.95205055)"><tspan
         sodipodi:role="line"
         id="tspan4388"
         x="-202.49094"
         y="260.49036"
         style="font-size:100.83498383px;font-style:italic;font-variant:normal;font-weight:bold;font-stretch:normal;fill:#ffffff;font-family:Liberation Serif;-inkscape-font-specification:Liberation Serif Bold Italic">im</tspan></text>
  </g>
  <g
     inkscape:groupmode="layer"
     id="layer6"
     inkscape:label="pic"
     sodipodi:insensitive="true"
     style="display:none">
    <image
       y="57"
       x="-51"
       id="image3012"
       xlink:href="file:///home/lapo/Immagini/vim_header.gif"
       height="215"
       width="860"
       style="opacity:0.56460673;display:inline;enable-background:new" />
  </g>
</svg>
