<?xml version="1.0" encoding="UTF-8" standalone="no"?>
<!-- Created with Inkscape (http://www.inkscape.org/) -->

<svg
   xmlns:dc="http://purl.org/dc/elements/1.1/"
   xmlns:cc="http://creativecommons.org/ns#"
   xmlns:rdf="http://www.w3.org/1999/02/22-rdf-syntax-ns#"
   xmlns:svg="http://www.w3.org/2000/svg"
   xmlns="http://www.w3.org/2000/svg"
   xmlns:xlink="http://www.w3.org/1999/xlink"
   xmlns:sodipodi="http://sodipodi.sourceforge.net/DTD/sodipodi-0.dtd"
   xmlns:inkscape="http://www.inkscape.org/namespaces/inkscape"
   version="1.0"
   width="256"
   height="256"
   id="svg2"
   inkscape:version="0.48.5 r10040"
   sodipodi:docname="meld.svg">
  <metadata
     id="metadata48">
    <rdf:RDF>
      <cc:Work
         rdf:about="">
        <dc:format>image/svg+xml</dc:format>
        <dc:type
           rdf:resource="http://purl.org/dc/dcmitype/StillImage" />
        <dc:title></dc:title>
      </cc:Work>
    </rdf:RDF>
  </metadata>
  <sodipodi:namedview
     pagecolor="#ffffff"
     bordercolor="#666666"
     borderopacity="1"
     objecttolerance="10"
     gridtolerance="10"
     guidetolerance="10"
     inkscape:pageopacity="0"
     inkscape:pageshadow="2"
     inkscape:window-width="1920"
     inkscape:window-height="1014"
     id="namedview46"
     showgrid="false"
     inkscape:zoom="2"
     inkscape:cx="263.04376"
     inkscape:cy="124.17253"
     inkscape:window-x="0"
     inkscape:window-y="27"
     inkscape:window-maximized="1"
     inkscape:current-layer="layer1" />
  <defs
     id="defs3">
    <linearGradient
       id="linearGradient6455">
      <stop
         style="stop-color:#fdb245;stop-opacity:1"
         offset="0"
         id="stop6457" />
      <stop
         style="stop-color:#f57900;stop-opacity:1"
         offset="1"
         id="stop6459" />
    </linearGradient>
    <linearGradient
       id="linearGradient6121">
      <stop
         style="stop-color:#000000;stop-opacity:1"
         offset="0"
         id="stop6123" />
      <stop
         style="stop-color:#000000;stop-opacity:0"
         offset="1"
         id="stop6125" />
    </linearGradient>
    <linearGradient
       id="linearGradient9543">
      <stop
         style="stop-color:#ffffff;stop-opacity:1"
         offset="0"
         id="stop9545" />
      <stop
         style="stop-color:#ffffff;stop-opacity:0"
         offset="1"
         id="stop9547" />
    </linearGradient>
    <linearGradient
       id="linearGradient8955">
      <stop
         style="stop-color:#729fcf;stop-opacity:1"
         offset="0"
         id="stop8957" />
      <stop
         style="stop-color:#3465a4;stop-opacity:1"
         offset="1"
         id="stop8959" />
    </linearGradient>
    <linearGradient
       id="linearGradient5048">
      <stop
         style="stop-color:#000000;stop-opacity:0"
         offset="0"
         id="stop5050" />
      <stop
         style="stop-color:#000000;stop-opacity:1"
         offset="0.5"
         id="stop5056" />
      <stop
         style="stop-color:#000000;stop-opacity:0"
         offset="1"
         id="stop5052" />
    </linearGradient>
    <linearGradient
       id="linearGradient5060">
      <stop
         style="stop-color:#000000;stop-opacity:1"
         offset="0"
         id="stop5062" />
      <stop
         style="stop-color:#000000;stop-opacity:0"
         offset="1"
         id="stop5064" />
    </linearGradient>
    <linearGradient
       x1="302.85715"
       y1="366.64789"
       x2="302.85715"
       y2="609.50507"
       id="linearGradient6495"
       xlink:href="#linearGradient5048"
       gradientUnits="userSpaceOnUse"
       gradientTransform="matrix(3.19282,0,0,1.96971,-2079.34,-872.885)" />
    <radialGradient
       cx="605.71429"
       cy="486.64789"
       r="117.14286"
       fx="605.71429"
       fy="486.64789"
       id="radialGradient6497"
       xlink:href="#linearGradient5060"
       gradientUnits="userSpaceOnUse"
       gradientTransform="matrix(2.25152,0,0,1.96971,-1511.42,-872.885)" />
    <radialGradient
       cx="605.71429"
       cy="486.64789"
       r="117.14286"
       fx="605.71429"
       fy="486.64789"
       id="radialGradient6499"
       xlink:href="#linearGradient5060"
       gradientUnits="userSpaceOnUse"
       gradientTransform="matrix(-2.25152,0,0,1.96971,-339.3,-872.026)" />
    <linearGradient
       x1="30.738016"
       y1="13.826383"
       x2="30.738016"
       y2="54.581482"
       id="linearGradient6501"
       xlink:href="#linearGradient8955"
       gradientUnits="userSpaceOnUse"
       gradientTransform="matrix(0.875487,0,0,0.875514,2.9144,2.12278)" />
    <linearGradient
       x1="19.904659"
       y1="63.610905"
       x2="19.904659"
       y2="39.999737"
       id="linearGradient6507"
       xlink:href="#linearGradient6121"
       gradientUnits="userSpaceOnUse"
       gradientTransform="translate(-1,-1)" />
    <linearGradient
       x1="19.249098"
       y1="-1.4776937"
       x2="19.249098"
       y2="20.913509"
       id="linearGradient6509"
       xlink:href="#linearGradient9543"
       gradientUnits="userSpaceOnUse"
       gradientTransform="matrix(0.9792347,0,0,1.0286499,-0.59031107,-0.69868914)" />
    <linearGradient
       x1="105.14954"
       y1="42.16304"
       x2="105.14954"
       y2="15.314641"
       id="linearGradient6175"
       xlink:href="#linearGradient6455"
       gradientUnits="userSpaceOnUse"
       gradientTransform="matrix(-0.884646,0,0,-0.875439,106.34199,43.918794)" />
    <linearGradient
       x1="108.45969"
       y1="16.108488"
       x2="108.45969"
       y2="55.454102"
       id="linearGradient6194"
       xlink:href="#linearGradient6455"
       gradientUnits="userSpaceOnUse"
       gradientTransform="matrix(0.884646,0,0,0.875439,-58.4557,1.98455)" />
  </defs>
  <g
     id="layer1"
     transform="matrix(4.9502087,0,0,4.9502087,8.2076121,7.3829959)">
    <g
       transform="matrix(0.0214053,0,0,0.0146073,44.3076,42.2013)"
       style="opacity:0.458515"
       id="g6467">
      <rect
         width="1541.677"
         height="478.35718"
         x="-1696.2007"
         y="-150.69685"
         style="opacity:0.40206197;color:#000000;fill:url(#linearGradient6495);fill-opacity:1;fill-rule:nonzero;stroke:none;stroke-width:1;marker:none;visibility:visible;display:inline;overflow:visible"
         id="rect6469" />
      <path
         d="m -154.52356,-150.68038 c 0,0 0,478.33079 0,478.33079 115.947649,0.90045 280.30501,-107.16966 280.30494,-239.196175 0,-132.026537 -129.3888511,-239.134595 -280.30494,-239.134615 z"
         style="opacity:0.40206197;color:#000000;fill:url(#radialGradient6497);fill-opacity:1;fill-rule:nonzero;stroke:none;stroke-width:1;marker:none;visibility:visible;display:inline;overflow:visible"
         id="path6471"
         inkscape:connector-curvature="0" />
      <path
         d="m -1696.2007,-149.821 c 0,0 0,478.33079 0,478.33079 -115.9477,0.90045 -280.3049,-107.16966 -280.3049,-239.19617 0,-132.026537 129.3888,-239.1346 280.3049,-239.13462 z"
         style="opacity:0.40206197;color:#000000;fill:url(#radialGradient6499);fill-opacity:1;fill-rule:nonzero;stroke:none;stroke-width:1;marker:none;visibility:visible;display:inline;overflow:visible"
         id="path6473"
         inkscape:connector-curvature="0" />
    </g>
    <path
       d="m 37.195133,2.5000001 c 4.042555,0 7.297032,3.2490465 7.297032,7.2848569 l 0,33.656304 -33.695135,0.05227 C 6.75448,43.493427 3.5,40.244381 3.5,36.20857 l 0,-33.7051568 33.695133,-0.00341 z"
       style="color:#000000;fill:url(#linearGradient6501);fill-opacity:1;fill-rule:evenodd;stroke:none;stroke-width:0.20201167000000000px;stroke-linecap:butt;stroke-linejoin:miter;stroke-miterlimit:4;stroke-opacity:1;stroke-dashoffset:0;marker:none;visibility:visible;display:inline;overflow:visible"
       id="path6475"
       inkscape:connector-curvature="0" />
    <path
       d="m 28.924467,8.5059512 c -3.894425,0.057221 -7.765896,1.6472498 -10.875,5.5312498 -3.180637,3.973364 -0.914627,9.555854 1.870239,11.155702 2.251796,1.043484 4.2269,-0.683737 4.519363,-1.790093 -0.807566,0.370642 -3.412205,0.399255 -3.887954,-1.179755 -0.499455,-3.668801 1.920543,-6.281018 5.342102,-6.654604 5.778351,-0.630914 10.287942,5.098295 10.75,10.500001 0.651658,7.618229 -5.264963,15.226534 -12.25,17.40625 l 20.09375,0.0253 0,-27.494049 c -1.27727,-1.449149 -2.743942,-2.778931 -4.4375,-3.90625 -3.295082,-2.193376 -7.230575,-3.6509708 -11.125,-3.5937498 z"
       style="color:#000000;fill:url(#linearGradient6194);fill-opacity:1;fill-rule:evenodd;stroke:none;stroke-width:0.20201167000000000px;stroke-linecap:butt;stroke-linejoin:miter;stroke-miterlimit:4;stroke-opacity:1;stroke-dasharray:none;stroke-dashoffset:0;marker:none;visibility:visible;display:inline;overflow:visible"
       id="path6190"
       inkscape:connector-curvature="0" />
    <path
       d="m 18.961494,37.397368 c 3.894425,-0.05722 7.765896,-1.64725 10.875,-5.53125 3.180639,-3.973364 0.914622,-9.555853 -1.870239,-11.155701 -2.251796,-1.043484 -4.2269,0.683737 -4.519363,1.790093 0.807566,-0.370642 3.422093,-0.54757 3.897842,1.03144 0.499455,3.668801 -1.930431,6.429332 -5.35199,6.802918 -5.77835,0.630914 -10.28794,-5.098294 -10.75,-10.5 -0.65166,-7.618229 5.26496,-15.2265338 12.25,-17.4062498 l -20.0937499,-0.025298 0,27.4940478 c 1.27727,1.449149 2.74394,2.778931 4.4375,3.90625 3.2950799,2.193376 7.2305799,3.650971 11.1249999,3.59375 z"
       style="color:#000000;fill:url(#linearGradient6175);fill-opacity:1;fill-rule:evenodd;stroke:none;stroke-width:0.20201167px;marker:none;visibility:visible;display:inline;overflow:visible"
       id="path6167"
       inkscape:connector-curvature="0" />
    <path
       d="M 23.87195,34 C 16.03547,34 8.83089,35.003096 3,36.681592 l 0,0.08486 C 3,40.3062 6.56718,44 10.49085,44 l 33.508814,-0.06525 c 1.029634,0 1.022085,0.0046 1.000336,-1.729846 l 0,-5.468589 C 39.131532,35.01915 31.807466,34 23.87195,34 z"
       style="opacity:0.65065499;color:#000000;fill:url(#linearGradient6507);fill-opacity:1;fill-rule:evenodd;stroke:none;stroke-width:1px;marker:none;visibility:visible;display:inline;overflow:visible"
       id="path6491"
       inkscape:connector-curvature="0" />
    <path
       d="m 3.3266277,2.393965 0,13.158599 c 3.9018655,1.199324 14.4953223,2.832981 23.2911803,2.067787 6.593391,-0.573592 15.238119,-2.974145 17.836718,-5.592646 l 0,-2.9248688 c 0,-3.7185561 -3.280145,-6.7088711 -7.335311,-6.7088712 l -33.7925873,0 z"
       style="opacity:0.74347786;color:#000000;fill:url(#linearGradient6509);fill-opacity:1;fill-rule:evenodd;stroke:none;stroke-width:1px;marker:none;visibility:visible;display:inline;overflow:visible"
       id="path6511"
       inkscape:connector-curvature="0" />
  </g>
</svg>
