<?xml version="1.0" encoding="UTF-8" standalone="no"?>
<!-- Created with Inkscape (http://www.inkscape.org/) -->

<svg
   xmlns:dc="http://purl.org/dc/elements/1.1/"
   xmlns:cc="http://creativecommons.org/ns#"
   xmlns:rdf="http://www.w3.org/1999/02/22-rdf-syntax-ns#"
   xmlns:svg="http://www.w3.org/2000/svg"
   xmlns="http://www.w3.org/2000/svg"
   xmlns:sodipodi="http://sodipodi.sourceforge.net/DTD/sodipodi-0.dtd"
   xmlns:inkscape="http://www.inkscape.org/namespaces/inkscape"
   id="svg2"
   version="1.1"
   inkscape:version="0.48.4 r9939"
   width="16"
   height="16"
   sodipodi:docname="anjuta6.svg">
  <metadata
     id="metadata8">
    <rdf:RDF>
      <cc:Work
         rdf:about="">
        <dc:format>image/svg+xml</dc:format>
        <dc:type
           rdf:resource="http://purl.org/dc/dcmitype/StillImage" />
        <dc:title></dc:title>
      </cc:Work>
    </rdf:RDF>
  </metadata>
  <defs
     id="defs6" />
  <sodipodi:namedview
     pagecolor="#ffffff"
     bordercolor="#666666"
     borderopacity="1"
     objecttolerance="1"
     gridtolerance="1"
     guidetolerance="1"
     inkscape:pageopacity="0"
     inkscape:pageshadow="2"
     inkscape:window-width="1600"
     inkscape:window-height="841"
     id="namedview4"
     showgrid="false"
     inkscape:zoom="22.627417"
     inkscape:cx="1.7285109"
     inkscape:cy="8.4302535"
     inkscape:window-x="0"
     inkscape:window-y="27"
     inkscape:window-maximized="1"
     inkscape:current-layer="g3185"
     showguides="true"
     inkscape:guide-bbox="true"
     inkscape:snap-nodes="false"
     inkscape:snap-bbox="true"
     inkscape:bbox-paths="false"
     inkscape:snap-global="true">
    <inkscape:grid
       type="xygrid"
       id="grid2987"
       empspacing="5"
       visible="true"
       enabled="true"
       snapvisiblegridlinesonly="true" />
  </sodipodi:namedview>
  <g
     id="g3185">
    <path
       sodipodi:type="arc"
       style="fill:#888a85;fill-opacity:1;stroke:none"
       id="path6801"
       sodipodi:cx="7.859375"
       sodipodi:cy="7.375"
       sodipodi:rx="7.234375"
       sodipodi:ry="6.71875"
       d="m 15.09375,7.375 a 7.234375,6.71875 0 1 1 -14.46875,0 7.234375,6.71875 0 1 1 14.46875,0 z"
       transform="matrix(1.1058315,0,0,1.1906977,-0.69114469,-0.78139537)" />
    <path
       style="fill:#eeeeec;fill-opacity:1;stroke:none"
       d="M 1.789864,12.818019 2.4748737,8.376505 3.049398,4.7967769 2.9831067,2.1230294 3.4692427,1.4822139 4.9718446,4.4653206 6.6291261,4.4211264 7.2036504,4.7083886 8.374796,1.526408 l 0.7292038,3.2482718 1.7677672,0.7292039 1.43631,2.3422912 2.563263,1.524699 0.729203,1.7014761 -1.259534,2.253902 -1.171145,0.905981 -1.834058,-1.126951 -2.6737479,-0.773398 -0.2209709,0.265165 -0.022097,1.811961 0.8111201,1.518687 C 5.9279377,16.395419 2.3981651,14.61597 1.789864,12.818019 z"
       id="path6795"
       inkscape:connector-curvature="0"
       sodipodi:nodetypes="cccccccccccccccccccccc" />
    <g
       id="g3211"
       transform="matrix(0.77577717,0,0,0.80108098,-15.049092,-1.3745411)">
      <g
         transform="matrix(0.959375,0,0,1.0130308,6.1766578,8.132732)"
         style="fill:#ff00ff"
         id="g3158" />
      <path
         sodipodi:nodetypes="cccccccccsc"
         inkscape:connector-curvature="0"
         id="path3209"
         d="m 21.80139,17.740975 c 0.585094,-2.127533 -0.204684,-7.145951 1.868102,-10.0163989 -1.437638,-1.7505823 0.04449,-4.8495764 0.04449,-4.8495764 0.58424,2.013955 2.134995,3.8583014 2.663472,4.4741393 1.033117,-0.3972559 2.230597,0.063996 2.230597,0.063996 C 29.676754,4.323206 29.898306,3.1864404 29.898306,3.1864404 31.483495,6.3630731 31.000163,7.8130715 31,7.8135591 c 4.742037,0.5243385 1.542026,3.0136399 7.959447,5.7460859 1.877367,3.442618 -2.598833,6.147655 -2.56584,6.081553 -4.907054,-3.654411 -6.096009,-1.840722 -7.880774,-2.274152 -3.254774,-0.790422 -3.108194,-3.497945 -2.707748,-4.792893"
         style="fill:none;stroke:#000000;stroke-width:1px;stroke-linecap:butt;stroke-linejoin:miter;stroke-opacity:1" />
    </g>
    <path
       style="fill:none;stroke:#000000;stroke-width:1px;stroke-linecap:butt;stroke-linejoin:miter;stroke-opacity:1"
       d="m 8.7617548,12.5625 c -0.3229926,0.875593 0.2484737,2.119493 0.9112982,3.401011"
       id="path6025"
       inkscape:connector-curvature="0"
       sodipodi:nodetypes="cc" />
  </g>
</svg>
