<?xml version="1.0" encoding="UTF-8" standalone="no"?>
<!-- Created with Inkscape (http://www.inkscape.org/) -->

<svg
   xmlns:dc="http://purl.org/dc/elements/1.1/"
   xmlns:cc="http://creativecommons.org/ns#"
   xmlns:rdf="http://www.w3.org/1999/02/22-rdf-syntax-ns#"
   xmlns:svg="http://www.w3.org/2000/svg"
   xmlns="http://www.w3.org/2000/svg"
   xmlns:sodipodi="http://sodipodi.sourceforge.net/DTD/sodipodi-0.dtd"
   xmlns:inkscape="http://www.inkscape.org/namespaces/inkscape"
   width="16px"
   height="16px"
   id="svg6558"
   version="1.1"
   inkscape:version="0.48.4 r9939"
   sodipodi:docname="route-driving-symbolic.svg">
  <defs
     id="defs6560" />
  <sodipodi:namedview
     id="base"
     pagecolor="#ffffff"
     bordercolor="#666666"
     borderopacity="1.0"
     inkscape:pageopacity="0.0"
     inkscape:pageshadow="2"
     inkscape:zoom="15.696216"
     inkscape:cx="5.7511062"
     inkscape:cy="13.453719"
     inkscape:current-layer="layer1"
     showgrid="false"
     inkscape:grid-bbox="true"
     inkscape:document-units="px"
     inkscape:snap-nodes="false"
     inkscape:snap-bbox="true"
     inkscape:window-width="1600"
     inkscape:window-height="841"
     inkscape:window-x="0"
     inkscape:window-y="27"
     inkscape:window-maximized="1">
    <inkscape:grid
       type="xygrid"
       id="grid7232" />
  </sodipodi:namedview>
  <metadata
     id="metadata6563">
    <rdf:RDF>
      <cc:Work
         rdf:about="">
        <dc:format>image/svg+xml</dc:format>
        <dc:type
           rdf:resource="http://purl.org/dc/dcmitype/StillImage" />
        <dc:title></dc:title>
      </cc:Work>
    </rdf:RDF>
  </metadata>
  <g
     id="layer1"
     inkscape:label="Layer 1"
     inkscape:groupmode="layer">
    <path
       style="color:#000000;fill:#2e3436;fill-opacity:1;fill-rule:nonzero;stroke:none;stroke-width:1;marker:none;visibility:visible;display:inline;overflow:visible;enable-background:accumulate"
       d="M 1.9375,1 C 1.418125,1 1,1.418125 1,1.9375 L 1,14.90625 C 1,15.512187 1.487812,16 2.09375,16 l 0.8125,0 C 3.512188,16 4,15.512187 4,14.90625 L 4,14 l 8,0 0,0.90625 C 12,15.512187 12.487812,16 13.09375,16 l 0.8125,0 C 14.512188,16 15,15.512187 15,14.90625 L 15,1.9375 C 15,1.418125 14.581875,1 14.0625,1 z m 1.15625,1 9.8125,0 C 13.512188,2 14,2.4878125 14,3.09375 l 0,4.8125 C 14,8.5121875 13.512188,9 12.90625,9 L 3.09375,9 C 2.487812,9 2,8.5121875 2,7.90625 L 2,3.09375 C 2,2.4878125 2.487812,2 3.09375,2 z M 3.5,10 C 4.328427,10 5,10.671573 5,11.5 5,12.328427 4.328427,13 3.5,13 2.671573,13 2,12.328427 2,11.5 2,10.671573 2.671573,10 3.5,10 z m 9,0 C 13.328427,10 14,10.671573 14,11.5 14,12.328427 13.328427,13 12.5,13 11.671573,13 11,12.328427 11,11.5 11,10.671573 11.671573,10 12.5,10 z"
       id="rect6086-1"
       inkscape:connector-curvature="0"
       sodipodi:nodetypes="sccsssccsssccsssssssssssssssssssss" />
  </g>
</svg>
