<?xml version="1.0" encoding="UTF-8" standalone="no"?>
<!-- Created with Inkscape (http://www.inkscape.org/) -->

<svg
   xmlns:dc="http://purl.org/dc/elements/1.1/"
   xmlns:cc="http://creativecommons.org/ns#"
   xmlns:rdf="http://www.w3.org/1999/02/22-rdf-syntax-ns#"
   xmlns:svg="http://www.w3.org/2000/svg"
   xmlns="http://www.w3.org/2000/svg"
   xmlns:sodipodi="http://sodipodi.sourceforge.net/DTD/sodipodi-0.dtd"
   xmlns:inkscape="http://www.inkscape.org/namespaces/inkscape"
   width="16px"
   height="16px"
   id="svg6558"
   version="1.1"
   inkscape:version="0.48.4 r9939"
   sodipodi:docname="route-publictransportation-symbolic.svg">
  <defs
     id="defs6560" />
  <sodipodi:namedview
     id="base"
     pagecolor="#ffffff"
     bordercolor="#666666"
     borderopacity="1.0"
     inkscape:pageopacity="0.0"
     inkscape:pageshadow="2"
     inkscape:zoom="11.313708"
     inkscape:cx="-21.904181"
     inkscape:cy="25.809906"
     inkscape:current-layer="layer1"
     showgrid="false"
     inkscape:grid-bbox="true"
     inkscape:document-units="px"
     inkscape:snap-nodes="false"
     inkscape:snap-bbox="true"
     inkscape:window-width="1920"
     inkscape:window-height="1021"
     inkscape:window-x="0"
     inkscape:window-y="27"
     inkscape:window-maximized="1"
     inkscape:showpageshadow="false"
     showborder="false">
    <inkscape:grid
       type="xygrid"
       id="grid7232"
       empspacing="5"
       visible="true"
       enabled="true"
       snapvisiblegridlinesonly="true" />
  </sodipodi:namedview>
  <metadata
     id="metadata6563">
    <rdf:RDF>
      <cc:Work
         rdf:about="">
        <dc:format>image/svg+xml</dc:format>
        <dc:type
           rdf:resource="http://purl.org/dc/dcmitype/StillImage" />
        <dc:title />
      </cc:Work>
    </rdf:RDF>
  </metadata>
  <g
     id="layer1"
     inkscape:label="Layer 1"
     inkscape:groupmode="layer">
    <path
       style="color:#000000;fill:#2e3436;fill-opacity:1;fill-rule:nonzero;stroke:none;stroke-width:1;marker:none;visibility:visible;display:inline;overflow:visible;enable-background:accumulate"
       d="m 0.94203714,0.01250085 c -0.519375,0 -0.9375,0.418125 -0.9375,0.9375 l 0,13.08335815 0,0.872891 c 0,0.605937 0.487812,1.09375 1.09374996,1.09375 l 0.8125,0 c 0.605938,0 1.09375,-0.487813 1.09375,-1.09375 l 0,-0.90625 9.9829619,0 0,0.90625 c 0,0.605937 0.487812,1.09375 1.09375,1.09375 l 0.8125,0 c 0.605938,0 1.09375,-0.487813 1.09375,-1.09375 l 0,-13.95624915 c 0,-0.519375 -0.418125,-0.9375 -0.9375,-0.9375 z m 1.17834706,0.99766735 11.7954618,0 c 0.605938,0 1.09375,0.4878125 1.09375,1.09375 l 0,5.8023318 C 15.009596,8.5121875 14.521784,9 13.915846,9 L 2.1203842,9 c -0.605938,0 -1.09375,-0.4878125 -1.09375,-1.09375 l 0,-5.8023318 c 0,-0.6059375 0.487812,-1.09375 1.09375,-1.09375 z M 2.5063769,10 c 0.828427,0 1.5,0.671573 1.5,1.5 0,0.828427 -0.671573,1.5 -1.5,1.5 -0.828427,0 -1.5,-0.671573 -1.5,-1.5 0,-0.828427 0.671573,-1.5 1.5,-1.5 z m 11.0288381,0 c 0.828427,0 1.5,0.671573 1.5,1.5 0,0.828427 -0.671573,1.5 -1.5,1.5 -0.828427,0 -1.5,-0.671573 -1.5,-1.5 0,-0.828427 0.671573,-1.5 1.5,-1.5 z"
       id="rect6086-1"
       inkscape:connector-curvature="0"
       sodipodi:nodetypes="scccsssccsssccsssssssssssssssssssss" />
  </g>
</svg>
