<?xml version="1.0" encoding="UTF-8" standalone="no"?>
<!-- Created with Inkscape (http://www.inkscape.org/) -->

<svg
   xmlns:dc="http://purl.org/dc/elements/1.1/"
   xmlns:cc="http://creativecommons.org/ns#"
   xmlns:rdf="http://www.w3.org/1999/02/22-rdf-syntax-ns#"
   xmlns:svg="http://www.w3.org/2000/svg"
   xmlns="http://www.w3.org/2000/svg"
   xmlns:sodipodi="http://sodipodi.sourceforge.net/DTD/sodipodi-0.dtd"
   xmlns:inkscape="http://www.inkscape.org/namespaces/inkscape"
   width="16px"
   height="16px"
   id="svg6558"
   version="1.1"
   inkscape:version="0.48.4 r9939"
   sodipodi:docname="route-driving-symbolic.svg">
  <defs
     id="defs6560" />
  <sodipodi:namedview
     id="base"
     pagecolor="#ffffff"
     bordercolor="#666666"
     borderopacity="1.0"
     inkscape:pageopacity="0.0"
     inkscape:pageshadow="2"
     inkscape:zoom="16"
     inkscape:cx="11.558829"
     inkscape:cy="8.2455312"
     inkscape:current-layer="layer1"
     showgrid="false"
     inkscape:grid-bbox="true"
     inkscape:document-units="px"
     inkscape:snap-nodes="false"
     inkscape:snap-bbox="true"
     inkscape:window-width="1920"
     inkscape:window-height="1021"
     inkscape:window-x="0"
     inkscape:window-y="27"
     inkscape:window-maximized="1">
    <inkscape:grid
       type="xygrid"
       id="grid7232" />
  </sodipodi:namedview>
  <metadata
     id="metadata6563">
    <rdf:RDF>
      <cc:Work
         rdf:about="">
        <dc:format>image/svg+xml</dc:format>
        <dc:type
           rdf:resource="http://purl.org/dc/dcmitype/StillImage" />
        <dc:title />
      </cc:Work>
    </rdf:RDF>
  </metadata>
  <g
     id="layer1"
     inkscape:label="Layer 1"
     inkscape:groupmode="layer">
    <path
       inkscape:connector-curvature="0"
       style="color:#000000;fill:#2e3436;fill-opacity:1;fill-rule:nonzero;stroke:none;stroke-width:2;marker:none;visibility:visible;display:inline;overflow:visible;enable-background:accumulate"
       d="M 3.03125,3.03125 C 2.46812,3.03125 2.09307,3.50712 2,4.0625 L 1.15625,8 1.03125,8 C 0.46812,8 0,8.46813 0,9.03125 l 0,3.9375 C 0,13.53187 0.46812,14 1.03125,14 L 2,14 2,15 c 0,0.554 0.446,1 1,1 0.554,0 1,-0.446 1,-1 l 0,-1 8,0 0,1 c 0,0.554 0.446,1 1,1 0.554,0 1,-0.446 1,-1 l 0,-1 0.96875,0 C 15.53187,14 16,13.53187 16,12.96875 l 0,-3.9375 C 16,8.46813 15.53187,8 14.96875,8 L 14.8125,8 13.9375,4.0625 C 13.8416,3.5076 13.46937,3.03125 12.90625,3.03125 z m 0.97476,1 7.94757,0 c 0.48425,0 0.79253,0.33383 0.875,0.75 l 0.46875,2.43019 c 0.0825,0.41617 -0.39075,0.75 -0.875,0.75 l -0.125,0 -8.63507,0 -0.15625,0 c -0.48426,0 -0.95504,-0.33347 -0.875,-0.75 l 0.5,-2.43019 c 0.08,-0.41653 0.39074,-0.75 0.875,-0.75 z M 3,10 c 0.55228,0 1,0.44771 1,1 0,0.55228 -0.44772,1 -1,1 -0.55229,0 -1,-0.44772 -1,-1 0,-0.55229 0.44771,-1 1,-1 z m 10,0 c 0.55228,0 1,0.44771 1,1 0,0.55228 -0.44772,1 -1,1 -0.55229,0 -1,-0.44772 -1,-1 0,-0.55229 0.44771,-1 1,-1 z"
       id="rect8273"
       sodipodi:nodetypes="sccsssscsssccssscssssccssssccsccsccsssssssssss" />
  </g>
</svg>
