<?xml version="1.0" encoding="UTF-8" standalone="no"?>
<!-- Created with Inkscape (http://www.inkscape.org/) -->

<svg
   xmlns:dc="http://purl.org/dc/elements/1.1/"
   xmlns:cc="http://creativecommons.org/ns#"
   xmlns:rdf="http://www.w3.org/1999/02/22-rdf-syntax-ns#"
   xmlns:svg="http://www.w3.org/2000/svg"
   xmlns="http://www.w3.org/2000/svg"
   xmlns:sodipodi="http://sodipodi.sourceforge.net/DTD/sodipodi-0.dtd"
   xmlns:inkscape="http://www.inkscape.org/namespaces/inkscape"
   width="16px"
   height="16px"
   id="svg6558"
   version="1.1"
   inkscape:version="0.48.4 r9939"
   sodipodi:docname="route-walking-symbolic.svg">
  <defs
     id="defs6560" />
  <sodipodi:namedview
     id="base"
     pagecolor="#ffffff"
     bordercolor="#666666"
     borderopacity="1.0"
     inkscape:pageopacity="0.0"
     inkscape:pageshadow="2"
     inkscape:zoom="22.197802"
     inkscape:cx="9.2245257"
     inkscape:cy="9.6312031"
     inkscape:current-layer="layer1"
     showgrid="true"
     inkscape:grid-bbox="true"
     inkscape:document-units="px"
     inkscape:snap-nodes="false"
     inkscape:snap-bbox="true"
     inkscape:window-width="1600"
     inkscape:window-height="841"
     inkscape:window-x="0"
     inkscape:window-y="27"
     inkscape:window-maximized="1">
    <inkscape:grid
       type="xygrid"
       id="grid7232" />
  </sodipodi:namedview>
  <metadata
     id="metadata6563">
    <rdf:RDF>
      <cc:Work
         rdf:about="">
        <dc:format>image/svg+xml</dc:format>
        <dc:type
           rdf:resource="http://purl.org/dc/dcmitype/StillImage" />
        <dc:title></dc:title>
      </cc:Work>
    </rdf:RDF>
  </metadata>
  <g
     id="layer1"
     inkscape:label="Layer 1"
     inkscape:groupmode="layer">
    <path
       inkscape:connector-curvature="0"
       style="color:#000000;fill:#2e3436;fill-opacity:1;fill-rule:nonzero;stroke:none;stroke-width:1;marker:none;visibility:visible;display:inline;overflow:visible;enable-background:accumulate"
       d="M 4,4 C 3.480625,4 3.19205,4.4345415 3.0625,4.9375 L 2.28125,8 1.9375,8 C 1.418125,8 1,8.418125 1,8.9375 l 0,4.125 C 1,13.581875 1.480625,14 2,14 l 0,0.90625 C 2,15.512187 2.446,16 3,16 3.554,16 4,15.512187 4,14.90625 L 4,14 l 8,0 0,0.90625 C 12,15.512187 12.446,16 13,16 c 0.554,0 1,-0.487813 1,-1.09375 L 14,14 c 0.546725,0 1,-0.418125 1,-0.9375 l 0,-4.125 C 15,8.418125 14.581875,8 14.0625,8 L 13.71875,8 12.9375,4.9375 C 12.80795,4.4345415 12.519375,4 12,4 L 4,4 z m 1.0625,1 5.875,0 C 11.543438,5 11.816859,5.5161519 12,6.09375 L 12.625,8 c 0.183141,0.577598 -0.112812,1 -0.71875,1 L 4.09375,9 C 3.487812,9 3.153528,8.606555 3.34375,8.03125 L 4,6.09375 C 4.190222,5.5184449 4.456562,5 5.0625,5 z M 4,10 c 0.552285,0 1,0.447715 1,1 0,0.552285 -0.447715,1 -1,1 -0.552285,0 -1,-0.447715 -1,-1 0,-0.552285 0.447715,-1 1,-1 z m 8,0 c 0.552285,0 1,0.447715 1,1 0,0.552285 -0.447715,1 -1,1 -0.552285,0 -1,-0.447715 -1,-1 0,-0.552285 0.447715,-1 1,-1 z"
       id="rect6086" />
  </g>
</svg>
