<?xml version="1.0" encoding="UTF-8" standalone="no"?>
<!-- Created with Inkscape (http://www.inkscape.org/) -->

<svg
   xmlns:dc="http://purl.org/dc/elements/1.1/"
   xmlns:cc="http://creativecommons.org/ns#"
   xmlns:rdf="http://www.w3.org/1999/02/22-rdf-syntax-ns#"
   xmlns:svg="http://www.w3.org/2000/svg"
   xmlns="http://www.w3.org/2000/svg"
   xmlns:sodipodi="http://sodipodi.sourceforge.net/DTD/sodipodi-0.dtd"
   xmlns:inkscape="http://www.inkscape.org/namespaces/inkscape"
   width="256"
   height="256"
   id="svg2"
   version="1.1"
   inkscape:version="0.48.4 r9939"
   sodipodi:docname="channel-youtube.svg">
  <defs
     id="defs4">
    <clipPath
       id="clipPath6193"
       clipPathUnits="userSpaceOnUse">
      <path
         id="path6195"
         d="m 1600,2252.8 5020,0 0,3650 -5020,0 0,-3650 z" />
    </clipPath>
    <linearGradient
       id="linearGradient6181"
       spreadMethod="pad"
       gradientTransform="matrix(-3.593e-5,822,822,3.593e-5,411,0)"
       gradientUnits="userSpaceOnUse"
       y2="0"
       x2="1"
       y1="0"
       x1="0">
      <stop
         id="stop6183"
         offset="0"
         style="stop-opacity:1;stop-color:#c01e25" />
      <stop
         id="stop6185"
         offset="1"
         style="stop-opacity:1;stop-color:#e62426" />
    </linearGradient>
    <clipPath
       id="clipPath6177"
       clipPathUnits="userSpaceOnUse">
      <path
         id="path6179"
         d="M 8220,0 0,0 l 0,8220 8220,0 0,-8220 m -6620,5902.8 0,-3650 5020,0 0,3650 -5020,0" />
    </clipPath>
  </defs>
  <sodipodi:namedview
     id="base"
     pagecolor="#505050"
     bordercolor="#666666"
     borderopacity="1.0"
     inkscape:pageopacity="1"
     inkscape:pageshadow="2"
     inkscape:zoom="1"
     inkscape:cx="120.49386"
     inkscape:cy="175.09957"
     inkscape:document-units="px"
     inkscape:current-layer="layer1"
     showgrid="false"
     borderlayer="true"
     inkscape:showpageshadow="false"
     inkscape:window-width="2560"
     inkscape:window-height="1374"
     inkscape:window-x="0"
     inkscape:window-y="27"
     inkscape:window-maximized="1"
     inkscape:snap-bbox="true"
     inkscape:object-nodes="true" />
  <metadata
     id="metadata7">
    <rdf:RDF>
      <cc:Work
         rdf:about="">
        <dc:format>image/svg+xml</dc:format>
        <dc:type
           rdf:resource="http://purl.org/dc/dcmitype/StillImage" />
        <dc:title></dc:title>
      </cc:Work>
    </rdf:RDF>
  </metadata>
  <g
     inkscape:label="Layer 1"
     inkscape:groupmode="layer"
     id="layer1"
     transform="translate(0,-796.36218)">
    <g
       transform="matrix(630.025,0,0,-458.9,-77.5125,1218.8747)"
       id="g6197" />
    <path
       style="color:#000000;fill:#ffffff;fill-opacity:1;fill-rule:nonzero;stroke:none;stroke-width:1;marker:none;visibility:visible;display:inline;overflow:visible;enable-background:accumulate"
       d="m 30.115602,817.66358 197.356268,0 8.00002,11.43214 L 235,1033.6169 l -212.5,0 -0.384417,-204.52118 z"
       id="rect7653"
       inkscape:connector-curvature="0"
       sodipodi:nodetypes="ccccccc" />
    <path
       style="color:#000000;fill:#ee4055;fill-opacity:1;fill-rule:nonzero;stroke:none;stroke-width:4.5;marker:none;visibility:visible;display:inline;overflow:visible;enable-background:accumulate"
       d="m 70.934854,870.79411 c -8.818633,0 -15.925195,7.19797 -15.925195,16.13479 l 0,34.39697 c 0,46.31516 24.636814,78.60443 72.990311,78.60443 47.87064,0 72.99037,-32.01415 72.99037,-78.60443 l 0,-34.39697 c 0,-8.93682 -7.1065,-16.13479 -15.92514,-16.13479 z m 90.664866,36.33346 c 2.50474,0 5.01393,0.98537 6.937,2.93364 3.84636,3.89713 3.84636,10.22089 0,14.11802 l -32.84559,33.2774 c -2.11228,2.13974 -4.94066,4.42546 -7.6911,4.21491 -2.7505,0.21336 -5.57882,-2.07517 -7.69116,-4.21491 l -32.845583,-33.2774 c -3.846309,-3.89713 -3.846309,-10.22089 0,-14.11802 1.923126,-1.94827 4.457406,-2.90276 6.967205,-2.90276 2.50986,0 4.98384,0.95449 6.906958,2.90276 l 26.66258,27.01316 26.66252,-27.01316 c 1.92324,-1.94827 4.43236,-2.93364 6.93717,-2.93364 z"
       id="path4636"
       inkscape:connector-curvature="0"
       sodipodi:nodetypes="sssssssssssscssssscss" />
    <g
       transform="matrix(5.6146396,0,0,5.6146396,-2740.2871,170.98003)"
       style="display:inline;enable-background:new"
       id="g10051">
      <path
         style="color:#000000;fill:#75d4a5;fill-opacity:1;fill-rule:nonzero;stroke:none;stroke-width:1;marker:none;visibility:visible;display:inline;overflow:visible;enable-background:new"
         d="m 493.42485,115 7.57515,0 0,2.03613 -9,0 z"
         id="rect10035"
         inkscape:connector-curvature="0"
         sodipodi:nodetypes="ccccc" />
      <path
         style="color:#000000;fill:#50b6b1;fill-opacity:1;fill-rule:nonzero;stroke:none;stroke-width:1;marker:none;visibility:visible;display:inline;overflow:visible;enable-background:new"
         d="m 501,115 10,0 0,2.03613 -10.40074,0 z"
         id="rect10037"
         inkscape:connector-curvature="0"
         sodipodi:nodetypes="ccccc" />
      <path
         style="color:#000000;fill:#e94055;fill-opacity:1;fill-rule:nonzero;stroke:none;stroke-width:1;marker:none;visibility:visible;display:inline;overflow:visible;enable-background:new"
         d="m 511,115 10,0 0.44526,2.03613 -10.44526,0 z"
         id="rect10039"
         inkscape:connector-curvature="0"
         sodipodi:nodetypes="ccccc" />
      <path
         style="color:#000000;fill:#e8a945;fill-opacity:1;fill-rule:nonzero;stroke:none;stroke-width:1;marker:none;visibility:visible;display:inline;overflow:visible;enable-background:new"
         d="m 521,115 7.57515,0 1.42485,2.03613 -8.59926,0 z"
         id="rect10041"
         inkscape:connector-curvature="0"
         sodipodi:nodetypes="ccccc" />
    </g>
  </g>
</svg>
