<?xml version="1.0" encoding="UTF-8" standalone="no"?>
<!-- Created with Inkscape (http://www.inkscape.org/) -->

<svg
   xmlns:dc="http://purl.org/dc/elements/1.1/"
   xmlns:cc="http://creativecommons.org/ns#"
   xmlns:rdf="http://www.w3.org/1999/02/22-rdf-syntax-ns#"
   xmlns:svg="http://www.w3.org/2000/svg"
   xmlns="http://www.w3.org/2000/svg"
   xmlns:xlink="http://www.w3.org/1999/xlink"
   xmlns:sodipodi="http://sodipodi.sourceforge.net/DTD/sodipodi-0.dtd"
   xmlns:inkscape="http://www.inkscape.org/namespaces/inkscape"
   version="1.1"
   width="16"
   height="16"
   id="svg7384"
   inkscape:version="0.48.3.1 r9886"
   sodipodi:docname="web-accounts.svg">
  <metadata
     id="metadata90">
    <rdf:RDF>
      <cc:Work
         rdf:about="">
        <dc:format>image/svg+xml</dc:format>
        <dc:type
           rdf:resource="http://purl.org/dc/dcmitype/StillImage" />
        <dc:title>Gnome Symbolic Icon Theme</dc:title>
      </cc:Work>
    </rdf:RDF>
  </metadata>
  <sodipodi:namedview
     pagecolor="#555753"
     bordercolor="#666666"
     borderopacity="1"
     objecttolerance="10"
     gridtolerance="10"
     guidetolerance="10"
     inkscape:pageopacity="1"
     inkscape:pageshadow="2"
     inkscape:window-width="1920"
     inkscape:window-height="1011"
     id="namedview88"
     showgrid="false"
     inkscape:zoom="1"
     inkscape:cx="-117.31804"
     inkscape:cy="45.097667"
     inkscape:window-x="0"
     inkscape:window-y="34"
     inkscape:window-maximized="1"
     inkscape:current-layer="g14746"
     showborder="false"
     inkscape:snap-nodes="false"
     inkscape:snap-bbox="true"
     inkscape:bbox-paths="false"
     showguides="true"
     inkscape:guide-bbox="true"
     inkscape:snap-to-guides="true"
     inkscape:snap-grids="true"
     inkscape:snap-global="true"
     inkscape:object-nodes="false"
     inkscape:snap-bbox-midpoints="false"
     inkscape:object-paths="false"
     inkscape:snap-others="false">
    <inkscape:grid
       type="xygrid"
       id="grid4866"
       empspacing="2"
       visible="true"
       enabled="true"
       snapvisiblegridlinesonly="true"
       spacingx="1px"
       spacingy="1px" />
  </sodipodi:namedview>
  <title
     id="title9167">Gnome Symbolic Icon Theme</title>
  <defs
     id="defs7386">
    <linearGradient
       inkscape:collect="always"
       id="linearGradient5408">
      <stop
         style="stop-color:#bebebe;stop-opacity:1;"
         offset="0"
         id="stop5410" />
      <stop
         style="stop-color:#bebebe;stop-opacity:0;"
         offset="1"
         id="stop5412" />
    </linearGradient>
    <inkscape:path-effect
       effect="spiro"
       id="path-effect4601"
       is_visible="true" />
    <inkscape:path-effect
       effect="spiro"
       id="path-effect4597"
       is_visible="true" />
    <inkscape:path-effect
       effect="spiro"
       id="path-effect4593"
       is_visible="true" />
    <inkscape:path-effect
       effect="spiro"
       id="path-effect4589"
       is_visible="true" />
    <inkscape:path-effect
       effect="spiro"
       id="path-effect4585"
       is_visible="true" />
    <inkscape:path-effect
       effect="spiro"
       id="path-effect4580"
       is_visible="true" />
    <clipPath
       clipPathUnits="userSpaceOnUse"
       id="clipPath6279-6-1-4-5">
      <rect
         style="color:#bebebe;fill:#bebebe;fill-opacity:1;fill-rule:nonzero;stroke:none;stroke-width:2;marker:none;visibility:visible;display:inline;overflow:visible"
         id="rect6281-3-0-3-5"
         width="3.8250003"
         height="6.3750005"
         x="26.85"
         y="220.75" />
    </clipPath>
    <clipPath
       clipPathUnits="userSpaceOnUse"
       id="clipPath6265-33-6-5-1-3">
      <rect
         style="color:#bebebe;fill:#bebebe;fill-opacity:1;fill-rule:nonzero;stroke:none;stroke-width:2;marker:none;visibility:visible;display:inline;overflow:visible"
         id="rect6267-6-9-1-4-8"
         width="2.8977277"
         height="5.21591"
         x="26.96591"
         y="221.32954" />
    </clipPath>
    <clipPath
       clipPathUnits="userSpaceOnUse"
       id="clipPath6259-6-8-2-1-6-6">
      <rect
         style="color:#bebebe;fill:#bebebe;fill-opacity:1;stroke:none;stroke-width:2;marker:none;visibility:visible;display:inline;overflow:visible"
         id="rect6261-4-9-2-0-9-0"
         width="1.8762827"
         height="4.8734746"
         x="26.998718"
         y="221.50153" />
    </clipPath>
    <clipPath
       clipPathUnits="userSpaceOnUse"
       id="clipPath6279-2-3">
      <rect
         style="color:#bebebe;fill:#bebebe;fill-opacity:1;fill-rule:nonzero;stroke:none;stroke-width:2;marker:none;visibility:visible;display:inline;overflow:visible"
         id="rect6281-5-3"
         width="3.8250003"
         height="6.3750005"
         x="26.85"
         y="220.75" />
    </clipPath>
    <clipPath
       clipPathUnits="userSpaceOnUse"
       id="clipPath6265-3-5-6">
      <rect
         style="color:#bebebe;fill:#bebebe;fill-opacity:1;fill-rule:nonzero;stroke:none;stroke-width:2;marker:none;visibility:visible;display:inline;overflow:visible"
         id="rect6267-1-8-1"
         width="2.8977277"
         height="5.21591"
         x="26.96591"
         y="221.32954" />
    </clipPath>
    <clipPath
       clipPathUnits="userSpaceOnUse"
       id="clipPath6259-8-8-8">
      <rect
         style="color:#bebebe;fill:#bebebe;fill-opacity:1;stroke:none;stroke-width:2;marker:none;visibility:visible;display:inline;overflow:visible"
         id="rect6261-6-0-7"
         width="1.8762827"
         height="4.8734746"
         x="26.998718"
         y="221.50153" />
    </clipPath>
    <clipPath
       id="clipPath3157-7-0"
       clipPathUnits="userSpaceOnUse">
      <rect
         y="221.32954"
         x="28.124998"
         height="5.21591"
         width="1.7386366"
         id="rect3159-5-5"
         style="color:#bebebe;fill:#bebebe;fill-opacity:1;fill-rule:nonzero;stroke:none;stroke-width:2;marker:none;visibility:visible;display:inline;overflow:visible" />
    </clipPath>
    <clipPath
       clipPathUnits="userSpaceOnUse"
       id="clipPath6279-6-1">
      <rect
         style="color:#bebebe;fill:#bebebe;fill-opacity:1;fill-rule:nonzero;stroke:none;stroke-width:2;marker:none;visibility:visible;display:inline;overflow:visible"
         id="rect6281-3-1"
         width="3.8250003"
         height="6.3750005"
         x="26.85"
         y="220.75" />
    </clipPath>
    <clipPath
       clipPathUnits="userSpaceOnUse"
       id="clipPath6265-33-6-4-0">
      <rect
         style="color:#bebebe;fill:#bebebe;fill-opacity:1;fill-rule:nonzero;stroke:none;stroke-width:2;marker:none;visibility:visible;display:inline;overflow:visible"
         id="rect6267-6-9-19-3"
         width="2.8977277"
         height="5.21591"
         x="26.96591"
         y="221.32954" />
    </clipPath>
    <clipPath
       clipPathUnits="userSpaceOnUse"
       id="clipPath6259-6-8-2-8-0">
      <rect
         style="color:#bebebe;fill:#bebebe;fill-opacity:1;stroke:none;stroke-width:2;marker:none;visibility:visible;display:inline;overflow:visible"
         id="rect6261-4-9-2-7-0"
         width="1.8762827"
         height="4.8734746"
         x="26.998718"
         y="221.50153" />
    </clipPath>
    <clipPath
       clipPathUnits="userSpaceOnUse"
       id="clipPath6265-33-4">
      <rect
         style="color:#bebebe;fill:#bebebe;fill-opacity:1;fill-rule:nonzero;stroke:none;stroke-width:2;marker:none;visibility:visible;display:inline;overflow:visible"
         id="rect6267-6-5"
         width="2.8977277"
         height="5.21591"
         x="26.96591"
         y="221.32954" />
    </clipPath>
    <clipPath
       clipPathUnits="userSpaceOnUse"
       id="clipPath6259-6-8-25-4">
      <rect
         style="color:#bebebe;fill:#bebebe;fill-opacity:1;stroke:none;stroke-width:2;marker:none;visibility:visible;display:inline;overflow:visible"
         id="rect6261-4-9-24-2"
         width="1.8762827"
         height="4.8734746"
         x="26.998718"
         y="221.50153" />
    </clipPath>
    <clipPath
       clipPathUnits="userSpaceOnUse"
       id="clipPath6259-6-4">
      <rect
         style="color:#bebebe;fill:#bebebe;fill-opacity:1;stroke:none;stroke-width:2;marker:none;visibility:visible;display:inline;overflow:visible"
         id="rect6261-4-9"
         width="1.8762827"
         height="4.8734746"
         x="26.998718"
         y="221.50153" />
    </clipPath>
    <clipPath
       clipPathUnits="userSpaceOnUse"
       id="clipPath6279-7-9">
      <rect
         style="color:#bebebe;fill:#bebebe;fill-opacity:1;fill-rule:nonzero;stroke:none;stroke-width:2;marker:none;visibility:visible;display:inline;overflow:visible"
         id="rect6281-1-9"
         width="3.8250003"
         height="6.3750005"
         x="26.85"
         y="220.75" />
    </clipPath>
    <clipPath
       clipPathUnits="userSpaceOnUse"
       id="clipPath6265-3-4">
      <rect
         style="color:#bebebe;fill:#bebebe;fill-opacity:1;fill-rule:nonzero;stroke:none;stroke-width:2;marker:none;visibility:visible;display:inline;overflow:visible"
         id="rect6267-1-9"
         width="2.8977277"
         height="5.21591"
         x="26.96591"
         y="221.32954" />
    </clipPath>
    <clipPath
       clipPathUnits="userSpaceOnUse"
       id="clipPath6259-8-81">
      <rect
         style="color:#bebebe;fill:#bebebe;fill-opacity:1;stroke:none;stroke-width:2;marker:none;visibility:visible;display:inline;overflow:visible"
         id="rect6261-6-6"
         width="1.8762827"
         height="4.8734746"
         x="26.998718"
         y="221.50153" />
    </clipPath>
    <clipPath
       clipPathUnits="userSpaceOnUse"
       id="clipPath6279-3">
      <rect
         style="color:#bebebe;fill:#bebebe;fill-opacity:1;fill-rule:nonzero;stroke:none;stroke-width:2;marker:none;visibility:visible;display:inline;overflow:visible"
         id="rect6281-9"
         width="3.8250003"
         height="6.3750005"
         x="26.85"
         y="220.75" />
    </clipPath>
    <clipPath
       clipPathUnits="userSpaceOnUse"
       id="clipPath6265-334">
      <rect
         style="color:#bebebe;fill:#bebebe;fill-opacity:1;fill-rule:nonzero;stroke:none;stroke-width:2;marker:none;visibility:visible;display:inline;overflow:visible"
         id="rect6267-61"
         width="2.8977277"
         height="5.21591"
         x="26.96591"
         y="221.32954" />
    </clipPath>
    <clipPath
       clipPathUnits="userSpaceOnUse"
       id="clipPath6259-5">
      <rect
         style="color:#bebebe;fill:#bebebe;fill-opacity:1;stroke:none;stroke-width:2;marker:none;visibility:visible;display:inline;overflow:visible"
         id="rect6261-61"
         width="1.8762827"
         height="4.8734746"
         x="26.998718"
         y="221.50153" />
    </clipPath>
    <clipPath
       id="clipPath6810-7"
       clipPathUnits="userSpaceOnUse">
      <rect
         y="281"
         x="21"
         height="11"
         width="14"
         id="rect6812-2"
         style="color:#bebebe;fill:none;stroke:#ffffff;stroke-width:2;stroke-linecap:round;stroke-linejoin:round;stroke-miterlimit:4;stroke-opacity:1;stroke-dasharray:none;stroke-dashoffset:0;marker:none;visibility:visible;display:inline;overflow:visible" />
    </clipPath>
    <clipPath
       clipPathUnits="userSpaceOnUse"
       id="clipPath3668">
      <rect
         y="221.50153"
         x="26.998718"
         height="3.3729413"
         width="1.8762826"
         id="rect3670"
         style="color:#bebebe;fill:#bebebe;fill-opacity:1;stroke:none;stroke-width:2;marker:none;visibility:visible;display:inline;overflow:visible" />
    </clipPath>
    <clipPath
       clipPathUnits="userSpaceOnUse"
       id="clipPath3697">
      <path
         style="color:#bebebe;fill:#bebebe;fill-opacity:1;fill-rule:nonzero;stroke:none;stroke-width:2;marker:none;visibility:visible;display:inline;overflow:visible"
         d="m 26.965789,221.32959 0,5.21591 0.579546,0 0,-1.15909 2.318182,0 0,-4.05682 -2.897728,0 z"
         id="path3699" />
    </clipPath>
    <clipPath
       id="clipPath6810-7-87"
       clipPathUnits="userSpaceOnUse">
      <rect
         y="281"
         x="21"
         height="11"
         width="14"
         id="rect6812-2-4"
         style="color:#bebebe;fill:none;stroke:#ffffff;stroke-width:2;stroke-linecap:round;stroke-linejoin:round;stroke-miterlimit:4;stroke-opacity:1;stroke-dasharray:none;stroke-dashoffset:0;marker:none;visibility:visible;display:inline;overflow:visible" />
    </clipPath>
    <inkscape:path-effect
       effect="spiro"
       id="path-effect44198-7"
       is_visible="true" />
    <inkscape:path-effect
       effect="spiro"
       id="path-effect44202-9"
       is_visible="true" />
    <inkscape:path-effect
       effect="spiro"
       id="path-effect8915-0-8-2-7-4-4-8"
       is_visible="true" />
    <radialGradient
       inkscape:collect="always"
       xlink:href="#linearGradient5408"
       id="radialGradient5414"
       cx="-196.78575"
       cy="-28.512899"
       fx="-196.78575"
       fy="-28.512899"
       r="1.607125"
       gradientTransform="matrix(2.9445462,0,0,2.8235465,602.73629,270.04529)"
       gradientUnits="userSpaceOnUse" />
    <radialGradient
       inkscape:collect="always"
       xlink:href="#linearGradient5408-4"
       id="radialGradient5414-2"
       cx="-196.78575"
       cy="-28.512899"
       fx="-196.78575"
       fy="-28.512899"
       r="1.607125"
       gradientTransform="matrix(2.9445462,0,0,2.8235465,602.73629,270.04529)"
       gradientUnits="userSpaceOnUse" />
    <linearGradient
       inkscape:collect="always"
       id="linearGradient5408-4">
      <stop
         style="stop-color:#bebebe;stop-opacity:1;"
         offset="0"
         id="stop5410-7" />
      <stop
         style="stop-color:#bebebe;stop-opacity:0;"
         offset="1"
         id="stop5412-9" />
    </linearGradient>
    <inkscape:path-effect
       effect="spiro"
       id="path-effect4601-8"
       is_visible="true" />
    <inkscape:path-effect
       effect="spiro"
       id="path-effect4597-5"
       is_visible="true" />
    <linearGradient
       inkscape:collect="always"
       xlink:href="#linearGradient6240-4"
       id="linearGradient12924-8"
       gradientUnits="userSpaceOnUse"
       gradientTransform="matrix(0.27693843,0,0,0.27547268,49.732831,91.494538)"
       x1="123.62958"
       y1="734.61963"
       x2="123.62958"
       y2="688.36371" />
    <linearGradient
       inkscape:collect="always"
       id="linearGradient6240-4">
      <stop
         style="stop-color:#8fe8fc;stop-opacity:1;"
         offset="0"
         id="stop6242-9" />
      <stop
         style="stop-color:#05b7df;stop-opacity:1"
         offset="1"
         id="stop6244-27" />
    </linearGradient>
    <linearGradient
       inkscape:collect="always"
       xlink:href="#linearGradient13006-5"
       id="linearGradient13012-1"
       x1="80.124687"
       y1="294.46561"
       x2="80.124687"
       y2="279.89954"
       gradientUnits="userSpaceOnUse" />
    <linearGradient
       inkscape:collect="always"
       id="linearGradient13006-5">
      <stop
         style="stop-color:#204a87;stop-opacity:1;"
         offset="0"
         id="stop13008-5" />
      <stop
         style="stop-color:#4e84d5;stop-opacity:1"
         offset="1"
         id="stop13010-0" />
    </linearGradient>
  </defs>
  <g
     transform="translate(-261,-489)"
     id="layer3"
     style="display:inline" />
  <g
     transform="translate(-261,-489)"
     id="layer2"
     style="display:inline">
    <g
       transform="translate(99.9998,334)"
       id="g11578"
       style="display:inline">
      <g
         transform="translate(-93.968752,-337)"
         id="g11582"
         style="display:inline" />
    </g>
  </g>
  <g
     transform="translate(-241.0002,-460)"
     id="layer4"
     style="display:inline">
    <g
       transform="translate(-20.99975,-28)"
       id="layer3-5"
       style="display:inline" />
    <g
       transform="translate(-20.99975,-28)"
       id="layer2-1"
       style="display:inline" />
    <g
       transform="translate(-1,1)"
       id="layer4-4"
       style="display:inline" />
    <g
       transform="translate(-1,244)"
       id="layer5-9" />
    <g
       transform="translate(-20.99975,-28)"
       id="layer1-8"
       style="display:inline" />
  </g>
  <g
     id="layer8"
     transform="translate(-241.0002,-217)" />
  <g
     id="layer7"
     transform="translate(-241.0002,-217)" />
  <g
     id="layer5"
     transform="translate(-241.0002,-217)">
    <g
       transform="translate(14,0)"
       id="g11716" />
  </g>
  <g
     id="layer6"
     transform="translate(-241.0002,-217)" />
  <g
     inkscape:groupmode="layer"
     id="layer9"
     inkscape:label="places"
     style="display:inline"
     transform="translate(-241.0002,-217)">
    <g
       style="display:inline"
       id="g3922"
       transform="translate(21.0002,-0.999999)"
       inkscape:label="account-facebook">
      <rect
         style="color:#bebebe;fill:none;stroke:none;stroke-width:1;marker:none;visibility:visible;display:inline;overflow:visible"
         id="rect2941"
         width="16"
         height="16"
         x="-194"
         y="20"
         inkscape:label="audio-volume-high"
         transform="matrix(0,-1,1,0,0,0)" />
      <path
         style="color:#000000;fill:#babdb6;fill-opacity:1;fill-rule:nonzero;stroke:none;stroke-width:0.5;marker:none;visibility:visible;display:inline;overflow:visible;enable-background:new"
         d="M 22.116732,178 C 20.946094,178 20,178.94979 20,180.125 l 0,11.75 c 0,1.17521 0.946094,2.125 2.116732,2.125 l 6.910506,0 0,-6 -0.99611,0 0,-2 0.99611,0 0,-1.0625 c 0,-1.84445 1.374066,-2.88912 3.175096,-2.9375 l 1.77432,0 0,2 -1.089494,0 c -0.625856,0 -0.902724,0.22291 -0.902724,0.90625 l 0,1.09375 1.712062,0 -0.217898,2 -1.494164,0 0,6 1.898832,0 C 35.053906,194 36,193.05021 36,191.875 l 0,-11.75 C 36,178.94979 35.053906,178 33.883268,178 z"
         id="rect14063"
         inkscape:connector-curvature="0"
         sodipodi:nodetypes="sssscccccscccsscccccsssss" />
    </g>
    <g
       inkscape:label="account-twitter"
       transform="translate(41.0002,-0.999999)"
       id="g14574"
       style="display:inline">
      <rect
         transform="matrix(0,-1,1,0,0,0)"
         inkscape:label="audio-volume-high"
         y="20"
         x="-194"
         height="16"
         width="16"
         id="rect14576"
         style="color:#bebebe;fill:none;stroke:none;stroke-width:1;marker:none;visibility:visible;display:inline;overflow:visible" />
      <path
         style="color:#000000;fill:#babdb6;fill-opacity:1;fill-rule:evenodd;stroke:none;stroke-width:1;marker:none;visibility:visible;display:inline;overflow:visible;enable-background:new"
         d="m 23.974183,180.38342 c 0,-1.82744 3.0247,-1.92155 3.0247,0 l 0,2.67169 4.40338,0 c 2.22739,0 2.03098,2.95871 0,2.95871 l -4.40123,0 0,1.56315 c 0,0.95048 0.90162,1.51376 1.7911,1.51376 l 2.76207,0 c 1.84999,0 1.96193,2.90927 0,2.90927 l -2.93933,0 c -2.64064,0 -4.61537,-1.46856 -4.61537,-4.22524 z"
         id="path6578"
         sodipodi:nodetypes="ccccccccccccc"
         inkscape:connector-curvature="0" />
    </g>
    <g
       inkscape:label="account-yahoo"
       transform="translate(61.0002,-0.999999)"
       id="g14648"
       style="display:inline">
      <rect
         transform="matrix(0,-1,1,0,0,0)"
         inkscape:label="audio-volume-high"
         y="20"
         x="-194"
         height="16"
         width="16"
         id="rect14650"
         style="color:#bebebe;fill:none;stroke:none;stroke-width:1;marker:none;visibility:visible;display:inline;overflow:visible" />
      <path
         style="color:#000000;fill:#babdb6;fill-opacity:1;fill-rule:nonzero;stroke:none;stroke-width:0.5;marker:none;visibility:visible;display:inline;overflow:visible;enable-background:new"
         d="m -157.875,-40 c -1.17064,0 -2.125,0.94979 -2.125,2.125 l 0,11.75 c 0,1.17521 0.95436,2.125 2.125,2.125 l 11.75,0 c 1.17064,0 2.125,-0.94979 2.125,-2.125 l 0,-11.75 c 0,-1.17521 -0.95436,-2.125 -2.125,-2.125 z m 0.59375,4 c 0.44271,-0.0037 1.10825,0.016 1.9375,0.03125 1.15235,-0.0304 2.08497,-0.02915 2.84375,0.03125 l -0.0625,0.40625 -1.6875,0.1875 c 0.53394,0.8555 1.34138,2.06438 2.4375,3.5625 1.43347,-1.19274 2.19079,-2.087015 2.21875,-2.422985 l -1.46875,-0.25 -0.0937,-0.53125 2.4375,0 2.3125,0.03125 -0.34375,0.5 -1.3125,0.3125 c -0.1966,0.0606 -0.76003,0.596745 -1.6875,1.422985 -0.98382,0.85568 -1.12477,1.390223 -1.20895,1.665403 l -0.0625,0.78125 -0.0312,0.4375 0.125,1.15625 1.39645,0.05335 -0.0754,0.660041 -2.84375,0 -2.53125,0.03125 0.13794,-0.628791 0.8125,-0.03125 c 0.42182,-0.0304 0.66599,-0.06414 0.75,-0.15625 0.0564,-0.0606 0.0937,-0.45185 0.0937,-1.09375 l 0,-0.375 -0.0312,-0.8125 c -0.0564,-0.18307 -0.50387,-0.8382 -1.375,-2 -0.89951,-1.19219 -1.49997,-1.91143 -1.78125,-2.15625 l -1.625,-0.25 0,-0.5 c 0.0422,-0.03025 0.27604,-0.05875 0.71875,-0.0625 z m 10.57414,2.640816 -0.22882,3.496478 -1.05779,-0.12343 0.009,-2.90874 z m -0.74556,4.147366 c 0.37349,0 0.65625,0.31253 0.65625,0.71875 0,0.40622 -0.28276,0.75 -0.65625,0.75 -0.37349,0 -0.6875,-0.34378 -0.6875,-0.75 0,-0.40622 0.31401,-0.71875 0.6875,-0.71875 z"
         transform="translate(180,218)"
         id="path14652"
         inkscape:connector-curvature="0"
         sodipodi:nodetypes="ssssssssssccccccccccccccccccccccccsccccccscccccsssss" />
    </g>
    <rect
       transform="matrix(0,-1,1,0,0,0)"
       inkscape:label="audio-volume-high"
       y="101.0002"
       x="-193"
       height="16"
       width="16"
       id="rect14682"
       style="color:#bebebe;fill:none;stroke:none;stroke-width:1;marker:none;visibility:visible;display:inline;overflow:visible" />
    <g
       style="display:inline"
       id="g14746"
       transform="translate(81.0002,-0.999999)"
       inkscape:label="account-google">
      <rect
         style="color:#bebebe;fill:none;stroke:none;stroke-width:1;marker:none;visibility:visible;display:inline;overflow:visible"
         id="rect14748"
         width="16"
         height="16"
         x="-194"
         y="20"
         inkscape:label="audio-volume-high"
         transform="matrix(0,-1,1,0,0,0)" />
      <path
         style="color:#000000;fill:#babdb6;fill-opacity:1;fill-rule:nonzero;stroke:none;stroke-width:0.5;marker:none;visibility:visible;display:inline;overflow:visible;enable-background:new"
         d="M -134.96875,-39.992188 -136.75,-40 c -1.25558,0.65413 -1.44341,2.28631 -1.03125,3.78125 0.54477,1.97578 1.6335,3.36168 3.09375,2.90625 2.03691,-0.63544 2.09652,-2.298926 1.46875,-4.25 -0.33202,-1.031919 -0.94785,-1.863357 -1.75,-2.429688 z m 4.96875,3.08594 c 0,0.87973 -0.35797,1.63064 -0.75,2.21875 l 0,0.03125 -0.0937,0.0625 c 0,0 -0.25477,0.29919 -0.5625,0.59375 -0.30732,0.29461 -0.78125,0.6875 -0.78125,0.6875 -0.38566,0.28984 -0.59375,0.67301 -0.59375,1.09375 0,0.42217 0.26827,0.80375 0.65625,1.09375 0,0 0.78679,0.48207 1.21875,0.84375 0.43176,0.3619 0.9375,0.84375 0.9375,0.84375 0.58482,0.54987 0.96875,1.42615 0.96875,2.40625 0,0.8441 -0.26766,1.60954 -0.71875,2.15625 l -0.6875,0.875 4.28125,0 c 1.17064,0 2.125,-0.94979 2.125,-2.125 l 0,-11.75 c 0,-1.17521 -0.95436,-2.125 -2.125,-2.125 -0.57387,-0.0075 -1.8215,0.0017 -1.8215,0.0017 l -0.0155,0.985649 -2.56598,0.287789 c 0.37545,0.652051 0.5183,1.302866 0.52798,1.818612 z m -10,2.4375 0,5.625 c 1.73643,-1.162618 4.84375,-1.1875 4.84375,-1.1875 0,0 0.0135,-0.01865 0,-0.03125 -1.24578,-0.957621 -0.71875,-2.0625 -0.71875,-2.0625 -1.92621,0.164095 -2.8067,-0.554868 -4.125,-2.34375 z m 5.0625,5.53125 c -1.73056,0.09741 -3.95733,0.813692 -4,2.53125 0,1.02737 0.66882,1.9586 1.625,2.375 0,0 0.0344,0.02205 0.0625,0.03125 l 0.0312,0 4.53125,0 c 0,0 0.0106,-0.0447 0.0312,-0.0625 2.45123,-2.16941 0.60019,-3.4272 -1.5,-4.84375 -0.0379,-0.0252 -0.0937,-0.03125 -0.0937,-0.03125 -0.21899,-0.01041 -0.44028,-0.01392 -0.6875,0 z"
         transform="translate(160,218)"
         id="path14750"
         inkscape:connector-curvature="0"
         sodipodi:nodetypes="ccccscscccccscccsccssscccccsccccsccccccccsccc" />
      <path
         style="opacity:1;color:#000000;fill:#babdb6;fill-opacity:1;fill-rule:nonzero;stroke:none;stroke-width:2;marker:none;visibility:visible;display:inline;overflow:visible;enable-background:accumulate"
         d="M -117.84375 -40 C -119.03812 -40 -120 -39.038123 -120 -37.84375 L -120 -26.15625 C -120 -24.961877 -119.03812 -24 -117.84375 -24 L -106.15625 -24 C -104.96188 -24 -104 -24.961877 -104 -26.15625 L -104 -37.84375 C -104 -39.038123 -104.96188 -40 -106.15625 -40 L -117.84375 -40 z M -112.65625 -37 C -111.792 -37 -111.06767 -36.3435 -110.875 -35.46875 C -110.6623 -35.54633 -110.42428 -35.59375 -110.1875 -35.59375 C -109.04714 -35.59375 -108.11404 -34.63039 -108.0625 -33.40625 C -107.88603 -33.31591 -107.73959 -33.19969 -107.59375 -33.0625 C -107.09629 -32.76213 -106.74257 -32.2191 -106.625 -31.59375 C -106.50318 -31.63795 -106.35426 -31.65625 -106.21875 -31.65625 C -105.54347 -31.65625 -105 -31.07823 -105 -30.34375 C -105 -29.60927 -105.54347 -29 -106.21875 -29 C -106.6408 -29 -107.03027 -29.24 -107.25 -29.59375 C -107.60286 -29.24514 -108.04762 -29 -108.5625 -29 C -108.62232 -29 -108.69154 -29.02625 -108.75 -29.03125 C -108.83036 -29.02145 -108.88592 -29 -108.96875 -29 C -109.51133 -29 -109.9995 -29.22975 -110.375 -29.59375 C -110.82982 -29.22311 -111.4208 -29 -112.03125 -29 C -112.67657 -29 -113.25131 -29.24639 -113.71875 -29.65625 C -113.927 -29.25935 -114.33615 -29 -114.78125 -29 C -114.90589 -29 -115.01193 -29.0237 -115.125 -29.0625 C -115.16201 -29.0708 -115.18336 -29.08125 -115.21875 -29.09375 C -115.39162 -29.15512 -115.53927 -29.26079 -115.65625 -29.40625 C -115.99968 -29.14506 -116.42523 -29 -116.875 -29 C -118.04842 -29 -119 -30.02718 -119 -31.3125 C -119 -32.56317 -118.09834 -33.60215 -116.96875 -33.65625 C -116.78043 -34.09342 -116.47629 -34.45103 -116.09375 -34.6875 C -116.09927 -34.73847 -116.125 -34.7599 -116.125 -34.8125 C -116.125 -35.12329 -116.01011 -35.40047 -115.84375 -35.625 C -115.80731 -35.67415 -115.76124 -35.73825 -115.71875 -35.78125 C -115.67923 -35.82442 -115.63976 -35.87115 -115.59375 -35.90625 C -115.54807 -35.93985 -115.48734 -35.94215 -115.4375 -35.96875 C -115.42936 -35.97275 -115.41465 -35.996 -115.40625 -36 C -115.34769 -36.0296 -115.28196 -36.0433 -115.21875 -36.0625 C -115.11573 -36.0937 -115.01843 -36.125 -114.90625 -36.125 C -114.75584 -36.125 -114.63274 -36.08615 -114.5 -36.03125 C -114.19489 -36.56717 -113.64211 -36.93265 -113.03125 -36.96875 C -112.98934 -36.97805 -112.94917 -36.96375 -112.90625 -36.96875 C -112.82709 -36.97945 -112.73829 -37 -112.65625 -37 z "
         transform="translate(160,218)"
         id="rect3087" />
    </g>
  </g>
  <text
     xml:space="preserve"
     style="font-size:40px;font-style:normal;font-variant:normal;font-weight:normal;font-stretch:normal;text-align:start;line-height:125%;letter-spacing:0px;word-spacing:0px;writing-mode:lr-tb;text-anchor:start;fill:#eeeeec;fill-opacity:1;stroke:none;font-family:Cantarell;-inkscape-font-specification:Cantarell"
     x="-199"
     y="-128"
     id="text4574"
     sodipodi:linespacing="125%"><tspan
       sodipodi:role="line"
       id="tspan4576"
       x="-199"
       y="-128">Web Accounts</tspan></text>
</svg>
